<svg width="67" height="60" viewBox="0 0 67 60" fill="none" xmlns="http://www.w3.org/2000/svg">
<path d="M63.045 0.260132H3.56424C2.68815 0.260132 1.84792 0.60813 1.22834 1.22752C0.608756 1.84691 0.26053 2.68698 0.260254 3.56307V45.4199C0.260254 46.2962 0.608345 47.1365 1.22796 47.7561C1.84757 48.3758 2.68797 48.7239 3.56424 48.7239H28.896V53.1309H20.0861C19.2099 53.1309 18.3695 53.4789 17.7499 54.0986C17.1303 54.7182 16.7822 55.5585 16.7822 56.4348V58.6378C16.782 58.7826 16.8104 58.926 16.8658 59.0599C16.9211 59.1937 17.0022 59.3153 17.1046 59.4178C17.2069 59.5202 17.3285 59.6014 17.4622 59.6569C17.596 59.7123 17.7394 59.7409 17.8842 59.7409H48.726C48.8708 59.7409 49.0142 59.7123 49.148 59.6569C49.2818 59.6014 49.4033 59.5202 49.5056 59.4178C49.608 59.3153 49.6891 59.1937 49.7445 59.0599C49.7998 58.926 49.8282 58.7826 49.828 58.6378V56.4359C49.8278 55.5598 49.4796 54.7197 48.86 54.1003C48.2404 53.4809 47.4002 53.133 46.5241 53.133H38.8131V48.7259H63.046C63.9223 48.7259 64.7626 48.3779 65.3823 47.7582C66.0019 47.1386 66.35 46.2983 66.35 45.422V3.56307C66.3497 2.68698 66.0015 1.84691 65.3819 1.22752C64.7623 0.60813 63.9221 0.260132 63.046 0.260132H63.045ZM46.5241 55.3339C46.6688 55.3339 46.8121 55.3624 46.9458 55.4178C47.0795 55.4731 47.201 55.5543 47.3033 55.6566C47.4057 55.759 47.4868 55.8805 47.5422 56.0142C47.5976 56.1479 47.6261 56.2912 47.6261 56.4359V57.5379H18.9883V56.4359C18.9883 56.2912 19.0168 56.1479 19.0722 56.0142C19.1275 55.8805 19.2087 55.759 19.3111 55.6566C19.4134 55.5543 19.5349 55.4731 19.6686 55.4178C19.8023 55.3624 19.9456 55.3339 20.0903 55.3339H46.5241ZM31.1032 48.7249H36.6184V53.1319H31.1032V48.7249ZM64.148 45.4209C64.148 45.7133 64.0319 45.9937 63.8253 46.2006C63.6187 46.4074 63.3384 46.5237 63.046 46.524H3.56424C3.41943 46.524 3.27602 46.4954 3.14225 46.44C3.00848 46.3846 2.88698 46.3033 2.78463 46.2009C2.68229 46.0984 2.60111 45.9768 2.54579 45.843C2.49047 45.7091 2.46206 45.5657 2.4622 45.4209V42.1159H64.1459L64.148 45.4209ZM64.148 39.914H2.46325V9.16471H64.147L64.148 39.914ZM64.148 6.95969H2.46325V3.56415C2.46311 3.41939 2.49153 3.27599 2.54686 3.14222C2.6022 3.00846 2.68335 2.88693 2.78571 2.78457C2.88807 2.68221 3.00963 2.60103 3.14339 2.5457C3.27716 2.49036 3.4205 2.46197 3.56525 2.46211H63.046C63.3383 2.46211 63.6186 2.57822 63.8252 2.78489C64.0319 2.99156 64.148 3.27187 64.148 3.56415V6.95969Z" fill="white"/>
<path d="M5.32704 13.6716H7.57167L10.4084 27.0477C10.4551 27.277 10.5796 27.4829 10.761 27.6307C10.9423 27.7785 11.1693 27.859 11.4032 27.8583H23.567C23.8006 27.8585 24.027 27.7778 24.208 27.6301C24.3889 27.4823 24.5132 27.2766 24.5598 27.0477L26.5869 16.9141C26.6135 16.7837 26.6141 16.6493 26.5888 16.5186C26.5634 16.3879 26.5126 16.2635 26.4391 16.1525C26.3657 16.0414 26.2711 15.946 26.1608 15.8715C26.0504 15.7971 25.9265 15.745 25.796 15.7185C25.7295 15.7055 25.6619 15.6989 25.5941 15.6987H10.1711L9.35112 12.4134C9.29713 12.1933 9.17093 11.9977 8.99267 11.8577C8.81441 11.7177 8.5944 11.6416 8.36775 11.6414H5.32704C5.05822 11.6414 4.80042 11.7481 4.61034 11.9382C4.42026 12.1283 4.31348 12.3861 4.31348 12.6549C4.31348 12.9237 4.42026 13.1815 4.61034 13.3716C4.80042 13.5617 5.05822 13.6685 5.32704 13.6685V13.6716ZM24.361 17.73L22.7408 25.8374H12.2378L10.6165 17.73H24.361Z" fill="white"/>
<path d="M14.4137 30.2976C13.8123 30.2976 13.2244 30.476 12.7244 30.8101C12.2244 31.1442 11.8346 31.6191 11.6045 32.1747C11.3743 32.7303 11.3142 33.3417 11.4315 33.9315C11.5488 34.5213 11.8384 35.0631 12.2636 35.4884C12.6889 35.9136 13.2307 36.2033 13.8205 36.3206C14.4104 36.4379 15.0217 36.3777 15.5773 36.1475C16.133 35.9174 16.6079 35.5277 16.942 35.0276C17.2761 34.5276 17.4544 33.9397 17.4544 33.3383C17.4546 32.9389 17.376 32.5435 17.2233 32.1745C17.0705 31.8055 16.8465 31.4703 16.5641 31.188C16.2818 30.9056 15.9465 30.6816 15.5775 30.5288C15.2085 30.376 14.8131 30.2975 14.4137 30.2976ZM14.4137 34.356C14.2133 34.356 14.0173 34.2966 13.8506 34.1853C13.684 34.0739 13.5541 33.9156 13.4773 33.7304C13.4006 33.5452 13.3805 33.3414 13.4196 33.1448C13.4587 32.9482 13.5553 32.7675 13.697 32.6258C13.8388 32.484 14.0194 32.3875 14.216 32.3484C14.4126 32.3093 14.6164 32.3294 14.8016 32.4061C14.9868 32.4828 15.1451 32.6127 15.2565 32.7794C15.3678 32.946 15.4273 33.142 15.4273 33.3425C15.4273 33.6113 15.3205 33.8691 15.1304 34.0592C14.9403 34.2493 14.6825 34.356 14.4137 34.356Z" fill="white"/>
<path d="M24.4152 30.2976C23.8138 30.2976 23.2259 30.476 22.7259 30.8101C22.2258 31.1442 21.8361 31.6191 21.606 32.1747C21.3758 32.7303 21.3156 33.3417 21.4329 33.9315C21.5503 34.5213 21.8399 35.0631 22.2651 35.4884C22.6904 35.9136 23.2321 36.2033 23.822 36.3206C24.4118 36.4379 25.0232 36.3777 25.5788 36.1475C26.1344 35.9174 26.6093 35.5277 26.9434 35.0276C27.2776 34.5276 27.4559 33.9397 27.4559 33.3383C27.456 32.9389 27.3774 32.5435 27.2247 32.1745C27.0719 31.8055 26.848 31.4703 26.5656 31.188C26.2832 30.9056 25.9479 30.6816 25.579 30.5288C25.21 30.376 24.8145 30.2975 24.4152 30.2976ZM24.4152 34.356C24.2147 34.356 24.0188 34.2966 23.8521 34.1853C23.6854 34.0739 23.5555 33.9156 23.4788 33.7304C23.4021 33.5452 23.382 33.3414 23.4211 33.1448C23.4602 32.9482 23.5568 32.7675 23.6985 32.6258C23.8402 32.484 24.0208 32.3875 24.2174 32.3484C24.4141 32.3093 24.6179 32.3294 24.8031 32.4061C24.9883 32.4828 25.1466 32.6127 25.2579 32.7794C25.3693 32.946 25.4288 33.142 25.4288 33.3425C25.4288 33.6113 25.322 33.8691 25.1319 34.0592C24.9418 34.2493 24.684 34.356 24.4152 34.356Z" fill="white"/>
<path d="M35.6414 16.6499H53.8813C54.1502 16.6499 54.408 16.5431 54.598 16.3531C54.7881 16.163 54.8949 15.9052 54.8949 15.6364C54.8949 15.3676 54.7881 15.1097 54.598 14.9197C54.408 14.7296 54.1502 14.6228 53.8813 14.6228H35.6393C35.3705 14.6228 35.1127 14.7296 34.9226 14.9197C34.7325 15.1097 34.6257 15.3676 34.6257 15.6364C34.6257 15.9052 34.7325 16.163 34.9226 16.3531C35.1127 16.5431 35.3705 16.6499 35.6393 16.6499H35.6414Z" fill="white"/>
<path d="M59.2571 16.6499H61.2842C61.553 16.6499 61.8108 16.5431 62.0009 16.3531C62.191 16.163 62.2978 15.9052 62.2978 15.6364C62.2978 15.3676 62.191 15.1097 62.0009 14.9197C61.8108 14.7296 61.553 14.6228 61.2842 14.6228H59.255C58.9862 14.6228 58.7284 14.7296 58.5383 14.9197C58.3482 15.1097 58.2415 15.3676 58.2415 15.6364C58.2415 15.9052 58.3482 16.163 58.5383 16.3531C58.7284 16.5431 58.9862 16.6499 59.255 16.6499H59.2571Z" fill="white"/>
<path d="M35.6413 21.0715H53.8813C54.15 21.0715 54.4076 20.9648 54.5976 20.7748C54.7876 20.5848 54.8943 20.3271 54.8943 20.0585C54.8943 19.7898 54.7876 19.5321 54.5976 19.3421C54.4076 19.1521 54.15 19.0454 53.8813 19.0454H35.6392C35.3706 19.0454 35.1129 19.1521 34.9229 19.3421C34.7329 19.5321 34.6262 19.7898 34.6262 20.0585C34.6262 20.3271 34.7329 20.5848 34.9229 20.7748C35.1129 20.9648 35.3706 21.0715 35.6392 21.0715H35.6413Z" fill="white"/>
<path d="M59.2571 21.0715H61.2842C61.5529 21.0715 61.8106 20.9648 62.0005 20.7748C62.1905 20.5848 62.2972 20.3271 62.2972 20.0585C62.2972 19.7898 62.1905 19.5321 62.0005 19.3421C61.8106 19.1521 61.5529 19.0454 61.2842 19.0454H59.255C58.9863 19.0454 58.7286 19.1521 58.5387 19.3421C58.3487 19.5321 58.2419 19.7898 58.2419 20.0585C58.2419 20.3271 58.3487 20.5848 58.5387 20.7748C58.7286 20.9648 58.9863 21.0715 59.255 21.0715H59.2571Z" fill="white"/>
<path d="M35.6414 25.4889H53.8813C54.1502 25.4889 54.408 25.3821 54.598 25.192C54.7881 25.002 54.8949 24.7442 54.8949 24.4754C54.8949 24.2065 54.7881 23.9487 54.598 23.7587C54.408 23.5686 54.1502 23.4618 53.8813 23.4618H35.6393C35.5062 23.4618 35.3744 23.488 35.2514 23.539C35.1285 23.5899 35.0167 23.6645 34.9226 23.7587C34.8285 23.8528 34.7538 23.9645 34.7029 24.0875C34.652 24.2104 34.6257 24.3423 34.6257 24.4754C34.6257 24.6085 34.652 24.7403 34.7029 24.8632C34.7538 24.9862 34.8285 25.0979 34.9226 25.192C35.0167 25.2862 35.1285 25.3608 35.2514 25.4117C35.3744 25.4627 35.5062 25.4889 35.6393 25.4889H35.6414Z" fill="white"/>
<path d="M59.2571 25.4889H61.2842C61.553 25.4889 61.8108 25.3821 62.0009 25.192C62.191 25.002 62.2978 24.7442 62.2978 24.4754C62.2978 24.2065 62.191 23.9487 62.0009 23.7587C61.8108 23.5686 61.553 23.4618 61.2842 23.4618H59.255C59.1219 23.4618 58.9901 23.488 58.8671 23.539C58.7442 23.5899 58.6324 23.6645 58.5383 23.7587C58.4442 23.8528 58.3695 23.9645 58.3186 24.0875C58.2677 24.2104 58.2415 24.3423 58.2415 24.4754C58.2415 24.6085 58.2677 24.7403 58.3186 24.8632C58.3695 24.9862 58.4442 25.0979 58.5383 25.192C58.6324 25.2862 58.7442 25.3608 58.8671 25.4117C58.9901 25.4627 59.1219 25.4889 59.255 25.4889H59.2571Z" fill="white"/>
<path d="M35.6414 29.9083H53.8813C54.1502 29.9083 54.408 29.8016 54.598 29.6115C54.7881 29.4214 54.8949 29.1636 54.8949 28.8948C54.8949 28.626 54.7881 28.3682 54.598 28.1781C54.408 27.988 54.1502 27.8812 53.8813 27.8812H35.6393C35.3705 27.8812 35.1127 27.988 34.9226 28.1781C34.7325 28.3682 34.6257 28.626 34.6257 28.8948C34.6257 29.1636 34.7325 29.4214 34.9226 29.6115C35.1127 29.8016 35.3705 29.9083 35.6393 29.9083H35.6414Z" fill="white"/>
<path d="M59.2571 29.9083H61.2842C61.553 29.9083 61.8108 29.8016 62.0009 29.6115C62.191 29.4214 62.2978 29.1636 62.2978 28.8948C62.2978 28.626 62.191 28.3682 62.0009 28.1781C61.8108 27.988 61.553 27.8812 61.2842 27.8812H59.255C58.9862 27.8812 58.7284 27.988 58.5383 28.1781C58.3482 28.3682 58.2415 28.626 58.2415 28.8948C58.2415 29.1636 58.3482 29.4214 58.5383 29.6115C58.7284 29.8016 58.9862 29.9083 59.255 29.9083H59.2571Z" fill="white"/>
<defs>
</defs>
</svg>
