<svg width="32" height="24" viewBox="0 0 32 24" fill="none" xmlns="http://www.w3.org/2000/svg">
<path d="M28.0935 0H3.91309C1.7546 0 0 1.7292 0 3.85644V20.1436C0 22.2708 1.7546 24 3.91309 24H28.0869C30.2454 24 32 22.2708 32 20.1436V3.86297C32.0066 1.73573 30.252 0 28.0935 0ZM30.2189 20.1436C30.2189 21.2985 29.2654 22.2382 28.0935 22.2382H3.91309C2.74115 22.2382 1.78771 21.2985 1.78771 20.1436V3.86297C1.78771 2.70799 2.74115 1.76835 3.91309 1.76835H28.0869C29.2588 1.76835 30.2123 2.70799 30.2123 3.86297V20.1436H30.2189Z" fill="#2C1E4A"/>
<path d="M20.1812 11.7978L28.0074 4.88097C28.3716 4.5547 28.4047 4.00005 28.0736 3.63464C27.7425 3.27575 27.1798 3.24312 26.809 3.56938L16.0165 13.1159L13.911 11.2627C13.9044 11.2562 13.8977 11.2496 13.8977 11.2431C13.8514 11.1974 13.805 11.1583 13.7521 11.1191L5.18432 3.56286C4.81353 3.23659 4.25074 3.26922 3.91968 3.63464C3.58862 4.00005 3.62173 4.5547 3.99251 4.88097L11.9114 11.8565L4.02562 19.1322C3.66807 19.465 3.64821 20.0196 3.98589 20.3785C4.16466 20.5612 4.40302 20.6591 4.64138 20.6591C4.85988 20.6591 5.07838 20.5808 5.25053 20.4242L13.2555 13.0441L15.4272 14.956C15.5994 15.1061 15.8112 15.1779 16.0231 15.1779C16.235 15.1779 16.4535 15.0996 16.619 14.9495L18.8504 12.9788L26.809 20.4307C26.9811 20.5939 27.2062 20.6722 27.4247 20.6722C27.6631 20.6722 27.8948 20.5808 28.0736 20.3981C28.4113 20.0457 28.398 19.4846 28.0405 19.1518L20.1812 11.7978Z" fill="#2C1E4A"/>
</svg>
