<svg width="32" height="32" viewBox="0 0 32 32" fill="none" xmlns="http://www.w3.org/2000/svg">
<path d="M25.3036 19.8229C24.6475 19.1408 23.8562 18.7761 23.0175 18.7761C22.1855 18.7761 21.3874 19.134 20.7043 19.8162L18.567 21.9436C18.3911 21.8491 18.2153 21.7613 18.0462 21.6735C17.8027 21.5519 17.5727 21.4371 17.3766 21.3155C15.3746 20.0458 13.5551 18.3911 11.8101 16.2502C10.9647 15.1831 10.3965 14.2848 9.98392 13.373C10.5385 12.8665 11.0526 12.3397 11.5531 11.8332C11.7425 11.6441 11.9319 11.4482 12.1212 11.2591C13.5416 9.84081 13.5416 8.00378 12.1212 6.58548L10.2748 4.7417C10.0651 4.53233 9.84865 4.31621 9.64574 4.10009C9.23992 3.68135 8.81381 3.24911 8.37417 2.84388C7.7181 2.19552 6.93352 1.85107 6.10835 1.85107C5.28319 1.85107 4.48508 2.19552 3.80871 2.84388C3.80195 2.85064 3.80195 2.85064 3.79518 2.85739L1.49554 5.17394C0.629796 6.03843 0.13605 7.09202 0.0278314 8.31445C-0.134496 10.2866 0.447178 12.1236 0.893578 13.3258C1.98929 16.2772 3.62609 19.0125 6.06777 21.9436C9.03025 25.4758 12.5947 28.2652 16.6664 30.2305C18.222 30.9667 20.2985 31.8379 22.6184 31.9865C22.7605 31.9933 22.9093 32 23.0445 32C24.6069 32 25.9191 31.4394 26.9472 30.3251C26.9539 30.3116 26.9674 30.3048 26.9742 30.2913C27.3259 29.8658 27.7317 29.4808 28.1578 29.0689C28.4487 28.792 28.7463 28.5015 29.0371 28.1976C29.7067 27.502 30.0584 26.6915 30.0584 25.8608C30.0584 25.0233 29.7 24.2196 29.0168 23.5443L25.3036 19.8229ZM27.725 26.9347C27.7182 26.9347 27.7182 26.9414 27.725 26.9347C27.4612 27.2183 27.1906 27.475 26.8998 27.7586C26.4602 28.1774 26.0138 28.6164 25.5944 29.1094C24.9113 29.8388 24.1064 30.1832 23.0513 30.1832C22.9498 30.1832 22.8416 30.1832 22.7402 30.1765C20.7314 30.0482 18.8646 29.2647 17.4645 28.5961C13.6363 26.7456 10.2748 24.1183 7.48137 20.7887C5.17497 18.0129 3.63286 15.4465 2.61155 12.6909C1.98253 11.0092 1.75256 9.69898 1.85402 8.46304C1.92165 7.67284 2.22602 7.01773 2.7874 6.45716L5.0938 4.15412C5.42522 3.84344 5.77693 3.6746 6.12188 3.6746C6.54799 3.6746 6.89294 3.93124 7.10937 4.14736C7.11614 4.15412 7.1229 4.16087 7.12966 4.16763C7.54225 4.55259 7.93454 4.95107 8.34712 5.37655C8.55679 5.59268 8.77323 5.8088 8.98967 6.03167L10.8361 7.87546C11.5531 8.59136 11.5531 9.25323 10.8361 9.96913C10.64 10.165 10.4506 10.3609 10.2545 10.55C9.68632 11.1308 9.14523 11.6711 8.55679 12.1979C8.54327 12.2114 8.52974 12.2181 8.52297 12.2317C7.9413 12.8125 8.04952 13.3798 8.17126 13.7648C8.17803 13.785 8.18479 13.8053 8.19156 13.8255C8.67177 14.9872 9.34814 16.0813 10.3762 17.3848L10.383 17.3916C12.2497 19.6878 14.218 21.4776 16.3891 22.8486C16.6664 23.0242 16.9505 23.166 17.221 23.3011C17.4645 23.4227 17.6945 23.5375 17.8906 23.6591C17.9177 23.6726 17.9447 23.6928 17.9718 23.7064C18.2018 23.8212 18.4182 23.8752 18.6414 23.8752C19.2028 23.8752 19.5545 23.524 19.6695 23.4092L21.9826 21.0994C22.2126 20.8698 22.5778 20.5929 23.0039 20.5929C23.4233 20.5929 23.7682 20.8562 23.9779 21.0859C23.9847 21.0926 23.9847 21.0926 23.9914 21.0994L27.7182 24.8207C28.4149 25.5096 28.4149 26.2188 27.725 26.9347Z" fill="#2C1E4A"/>
<path d="M17.2955 7.61194C19.0676 7.90911 20.6774 8.74658 21.9625 10.0298C23.2475 11.313 24.0795 12.9204 24.3838 14.6899C24.4582 15.1357 24.8438 15.4463 25.2834 15.4463C25.3375 15.4463 25.3849 15.4396 25.439 15.4328C25.9395 15.3518 26.2709 14.879 26.1897 14.3792C25.8245 12.2383 24.81 10.2864 23.2611 8.73982C21.7122 7.1932 19.7575 6.18013 17.6134 5.81543C17.1129 5.73438 16.6462 6.06532 16.5583 6.55835C16.4704 7.05137 16.795 7.53089 17.2955 7.61194Z" fill="#2C1E4A"/>
<path d="M31.9861 14.1158C31.3841 10.5903 29.7202 7.38229 27.1636 4.82935C24.6069 2.27642 21.3942 0.614988 17.8636 0.0139003C17.3698 -0.073899 16.9031 0.263791 16.8152 0.756818C16.734 1.2566 17.0655 1.72261 17.566 1.81041C20.7178 2.34396 23.5924 3.83655 25.8785 6.11258C28.1646 8.39536 29.6526 11.2657 30.1869 14.413C30.2613 14.8587 30.6469 15.1694 31.0865 15.1694C31.1406 15.1694 31.188 15.1627 31.2421 15.1559C31.7358 15.0816 32.074 14.6088 31.9861 14.1158Z" fill="#2C1E4A"/>
</svg>
