<svg width="60" height="60" viewBox="0 0 60 60" fill="none" xmlns="http://www.w3.org/2000/svg">
<path d="M22.7634 46.3726L21.1982 47.4629L22.2961 49.0389L23.8612 47.9485L22.7634 46.3726Z" fill="white"/>
<path d="M37.7617 35.9219L24.6814 45.0352L25.78 46.612L38.8603 37.4988L37.7617 35.9219Z" fill="white"/>
<path d="M57.2348 13.2813C56.9157 12.168 56.4707 11.0947 55.9084 10.0822L57.2779 7.87094L52.1319 2.72113L49.9178 4.0906C48.9052 3.52837 47.8319 3.08338 46.7186 2.76424L46.1243 0.233398H38.8421L38.2469 2.76424C37.1335 3.08338 36.0601 3.52837 35.0476 4.0906L32.8365 2.72113L27.6866 7.87094L29.056 10.0822C28.4934 11.0946 28.0481 12.1679 27.7287 13.2813L25.1979 13.8766V15.7166C24.7416 15.8269 24.312 16.0274 23.9344 16.3062L17.4563 21.1636C17.2897 21.2878 17.0876 21.3551 16.8798 21.3557H14.5299C15.4824 20.4276 16.1382 19.238 16.4145 17.9372C16.6908 16.6364 16.5751 15.2828 16.0821 14.0477C15.5891 12.8127 14.7409 11.7515 13.6449 10.9985C12.5488 10.2455 11.254 9.83433 9.92429 9.81716C8.59457 9.79998 7.28969 10.1775 6.17453 10.902C5.05938 11.6265 4.18411 12.6654 3.6594 13.8873C3.13469 15.1092 2.98417 16.4593 3.22677 17.7668C3.46937 19.0744 4.09416 20.2805 5.02229 21.2329C5.26775 21.4841 5.53224 21.7161 5.81341 21.9266C4.17502 22.5486 2.7643 23.6536 1.76799 25.0954C0.771678 26.5371 0.236889 28.2475 0.234375 30V55.9253C0.234375 56.43 0.333704 56.9298 0.52684 57.396C0.719977 57.8623 1.00308 58.286 1.35995 58.6428C1.71682 58.9997 2.14055 59.2828 2.60682 59.4759C3.07309 59.6691 3.57281 59.7685 4.0775 59.7685H59.7675V13.8766L57.2348 13.2813ZM5.03454 16.5574C5.03454 15.608 5.31606 14.6799 5.84351 13.8906C6.37096 13.1012 7.12063 12.4859 7.99775 12.1226C8.87487 11.7593 9.83999 11.6642 10.7711 11.8495C11.7023 12.0347 12.5576 12.4919 13.2289 13.1632C13.9003 13.8345 14.3574 14.6898 14.5426 15.6209C14.7278 16.5521 14.6328 17.5172 14.2695 18.3944C13.9062 19.2715 13.2909 20.0212 12.5016 20.5486C11.7122 21.0761 10.7841 21.3576 9.8347 21.3576C8.56161 21.3576 7.34066 20.8519 6.44045 19.9517C5.54024 19.0515 5.03454 17.8305 5.03454 16.5574ZM2.15211 30C2.15508 28.2189 2.86398 26.5117 4.12338 25.2523C5.38279 23.9928 7.09008 23.284 8.87114 23.281H16.8742C17.4971 23.2798 18.103 23.0776 18.6018 22.7046L25.0835 17.8434C25.3645 17.6342 25.7053 17.5209 26.0556 17.5201H26.4568C26.7935 17.5216 27.1213 17.6279 27.3949 17.8243C27.6684 18.0206 27.874 18.2971 27.9832 18.6156C28.0924 18.9341 28.0999 19.2787 28.0044 19.6016C27.9089 19.9245 27.7152 20.2096 27.4504 20.4174L21.3651 25.1511C20.5212 25.8045 19.4845 26.1599 18.4171 26.1615H10.7926V36.7208H14.6358C15.3994 36.7218 16.1316 37.0256 16.6716 37.5656C17.2116 38.1056 17.5153 38.8377 17.5163 39.6013V48.2428C17.5163 48.7524 17.3139 49.2412 16.9535 49.6015C16.5932 49.9619 16.1044 50.1643 15.5948 50.1643C15.0851 50.1643 14.5963 49.9619 14.236 49.6015C13.8756 49.2412 13.6731 48.7524 13.6731 48.2428V42.4855C13.6726 41.9763 13.4701 41.4881 13.1101 41.128C12.75 40.7679 12.2618 40.5654 11.7525 40.5649H5.03362C4.26997 40.5639 3.53779 40.2601 2.99781 39.7201C2.45782 39.1801 2.15413 38.4481 2.15313 37.6844L2.15211 30ZM14.6349 34.8002H12.7134V28.0812H18.418C19.9117 28.0785 21.3622 27.5804 22.5424 26.6649L27.9481 22.458C28.2387 23.3217 28.6063 24.1574 29.0467 24.9552L27.6773 27.1664L32.8271 32.3162L35.0383 30.9467C35.6431 31.2763 36.2694 31.5648 36.913 31.81L19.4323 43.9778V39.6013C19.4305 38.3286 18.9241 37.1085 18.0241 36.2087C17.124 35.3088 15.9038 34.8026 14.6311 34.8011L14.6349 34.8002ZM7.91594 42.4808H11.7544V48.24C11.7592 48.5682 11.8058 48.8946 11.8932 49.2111L7.91502 51.9912L7.91594 42.4808ZM2.15211 55.9244V41.4966C2.97833 42.1319 3.9904 42.478 5.03259 42.4818H5.99249V55.9244C6.00268 56.434 5.81003 56.9268 5.45687 57.2944C5.10371 57.662 4.61894 57.8742 4.10931 57.8844C3.59968 57.8946 3.1069 57.7019 2.73932 57.3487C2.37175 56.9956 2.15955 56.5109 2.14936 56.0012L2.15211 55.9244ZM57.8441 57.8469H7.37883C7.72436 57.2655 7.90845 56.6025 7.91216 55.9263V54.3328L12.8286 50.8964C12.8454 50.9151 12.8586 50.9367 12.8764 50.9555C13.4139 51.4933 14.0988 51.8595 14.8445 52.008C15.5902 52.1564 16.3632 52.0803 17.0657 51.7893C17.7681 51.4983 18.3684 51.0054 18.7907 50.3731C19.213 49.7408 19.4382 48.9975 19.4379 48.2372V46.3118L38.4362 33.0867L38.8383 34.7955H46.1234L46.7186 32.2646C47.8318 31.9451 48.9051 31.5002 49.9178 30.9383L52.1309 32.3077L57.2807 27.1579L55.9113 24.9467C56.4735 23.9342 56.9185 22.8609 57.2376 21.7475L57.8468 21.605L57.8441 57.8469ZM57.8441 19.6394L55.6619 20.1531L55.5213 20.7258C55.1982 22.0475 54.6748 23.312 53.969 24.4752L53.6607 24.9776L54.8427 26.8805L51.8432 29.88L49.9375 28.6999L49.435 29.0092C48.2716 29.7146 47.0072 30.238 45.6856 30.5615L45.1138 30.7021L44.5993 32.8852H40.3586L39.845 30.703L39.2732 30.5624C37.9516 30.2391 36.6872 29.7156 35.5238 29.0101L35.0214 28.7008L33.1149 29.8809L30.1153 26.8814L31.2954 24.9748L30.9871 24.4724C30.3171 23.3674 29.8119 22.1706 29.4873 20.9199C29.7782 20.4338 29.947 19.8844 29.9792 19.3188C30.0114 18.7533 29.9061 18.1883 29.6722 17.6723C29.4384 17.1563 29.083 16.7047 28.6365 16.3561C28.1899 16.0075 27.6655 15.7723 27.1082 15.6707V15.396L29.2904 14.8823L29.431 14.3096C29.754 12.9879 30.2775 11.7235 30.9833 10.5602L31.2926 10.0578L30.1134 8.14936L33.1129 5.14981L35.0214 6.32806L35.5238 6.01874C36.6872 5.31503 37.9517 4.79403 39.2732 4.47397L39.845 4.33338L40.3597 2.14841H44.5993L45.1129 4.33057L45.6856 4.47117C47.0071 4.79207 48.2716 5.31367 49.435 6.0178L49.9365 6.32714L51.8432 5.14701L54.8427 8.14652L53.6625 10.0531L53.9719 10.5555C54.6774 11.7189 55.2009 12.9833 55.5242 14.3049L55.6647 14.8777L57.8479 15.3923V19.6319L57.8441 19.6394Z" fill="white"/>
<path d="M42.4827 5.99536C40.2037 5.99536 37.9758 6.67117 36.0808 7.93732C34.1859 9.20347 32.709 11.0031 31.8369 13.1086C30.9647 15.2142 30.7365 17.531 31.1811 19.7663C31.6257 22.0015 32.7232 24.0547 34.3347 25.6662C35.9462 27.2777 37.9994 28.3751 40.2346 28.8197C42.4698 29.2643 44.7867 29.0361 46.8922 28.164C48.9977 27.2919 50.7974 25.8149 52.0636 23.92C53.3297 22.0251 54.0055 19.7973 54.0055 17.5182C54.0055 14.4622 52.7915 11.5313 50.6305 9.37033C48.4696 7.20937 45.5387 5.99536 42.4827 5.99536ZM42.4827 27.1196C40.5835 27.1196 38.727 26.5564 37.1479 25.5013C35.5689 24.4462 34.3381 22.9465 33.6114 21.1919C32.8846 19.4374 32.6944 17.5067 33.0649 15.644C33.4354 13.7813 34.3499 12.0704 35.6928 10.7275C37.0357 9.3846 38.7467 8.47008 40.6094 8.09957C42.472 7.72907 44.4027 7.91923 46.1573 8.646C47.9118 9.37277 49.4116 10.6035 50.4667 12.1826C51.5218 13.7617 52.0848 15.6182 52.0848 17.5173C52.0848 20.064 51.0732 22.5063 49.2724 24.3071C47.4717 26.1079 45.0294 27.1196 42.4827 27.1196Z" fill="white"/>
<path d="M42.4809 11.7572C41.3415 11.7572 40.2277 12.0951 39.2804 12.7281C38.333 13.3611 37.5945 14.2609 37.1585 15.3136C36.7225 16.3662 36.6084 17.5246 36.8307 18.6421C37.053 19.7596 37.6016 20.7861 38.4073 21.5918C39.213 22.3975 40.2395 22.9462 41.357 23.1685C42.4745 23.3908 43.6329 23.2767 44.6856 22.8406C45.7383 22.4046 46.638 21.6662 47.271 20.7188C47.904 19.7714 48.2419 18.6576 48.2419 17.5182C48.2416 15.9903 47.6346 14.5252 46.5542 13.4448C45.4739 12.3645 44.0087 11.7575 42.4809 11.7572ZM42.4809 21.3595C41.7208 21.3595 40.9778 21.1341 40.3457 20.7118C39.7137 20.2895 39.2212 19.6893 38.9303 18.987C38.6395 18.2848 38.5634 17.5121 38.7117 16.7666C38.86 16.0211 39.226 15.3363 39.7634 14.7988C40.3009 14.2613 40.9857 13.8953 41.7312 13.747C42.4767 13.5987 43.2494 13.6748 43.9517 13.9657C44.6539 14.2566 45.2541 14.7492 45.6764 15.3812C46.0987 16.0132 46.3241 16.7562 46.3241 17.5163C46.3241 18.5356 45.9192 19.5131 45.1984 20.2338C44.4777 20.9546 43.5001 21.3595 42.4809 21.3595Z" fill="white"/>
<path d="M55.9243 54.0046H54.0046V55.9253H55.9243V54.0046Z" fill="white"/>
<path d="M55.9243 50.1635H54.0046V52.0841H55.9243V50.1635Z" fill="white"/>
<path d="M55.9243 46.323H54.0046V48.2436H55.9243V46.323Z" fill="white"/>
<path d="M11.7573 54.0046H9.83667V55.9253H11.7573V54.0046Z" fill="white"/>
<path d="M15.5976 54.0046H13.677V55.9253H15.5976V54.0046Z" fill="white"/>
<path d="M19.437 54.0046H17.5173V55.9253H19.437V54.0046Z" fill="white"/>
</svg>
