<svg width="24" height="14" viewBox="0 0 24 14" fill="none" xmlns="http://www.w3.org/2000/svg">
<path fill-rule="evenodd" clip-rule="evenodd" d="M16.2915 13.7063C16.1984 13.6134 16.1246 13.5031 16.0741 13.3816C16.0237 13.2601 15.9978 13.1299 15.9978 12.9984C15.9978 12.8669 16.0237 12.7367 16.0741 12.6152C16.1246 12.4937 16.1984 12.3834 16.2915 12.2905L21.5846 6.99942L16.2915 1.70833C16.1986 1.61537 16.1248 1.50501 16.0745 1.38355C16.0242 1.26209 15.9983 1.13191 15.9983 1.00045C15.9983 0.868981 16.0242 0.738804 16.0745 0.617346C16.1248 0.495888 16.1986 0.385529 16.2915 0.292568C16.3845 0.199609 16.4949 0.125869 16.6163 0.0755588C16.7378 0.0252497 16.868 -0.000643525 16.9994 -0.000643511C17.1309 -0.000643497 17.2611 0.0252497 17.3825 0.0755589C17.504 0.125869 17.6143 0.199609 17.7073 0.292568L23.7063 6.29154C23.7994 6.38441 23.8732 6.49475 23.9237 6.61622C23.9741 6.73769 24 6.8679 24 6.99942C24 7.13093 23.9741 7.26115 23.9237 7.38262C23.8732 7.50409 23.7994 7.61442 23.7063 7.70729L17.7073 13.7063C17.6144 13.7994 17.5041 13.8732 17.3826 13.9237C17.2611 13.9741 17.1309 14 16.9994 14C16.8679 14 16.7377 13.9741 16.6162 13.9237C16.4947 13.8732 16.3844 13.7994 16.2915 13.7063Z" fill="white"/>
<path fill-rule="evenodd" clip-rule="evenodd" d="M22.9978 6.99968C22.9978 7.26485 22.8925 7.51916 22.705 7.70667C22.5175 7.89417 22.2631 7.99951 21.998 7.99951L1.00158 7.99951C0.736406 7.99951 0.482096 7.89417 0.294592 7.70667C0.107088 7.51916 0.00174909 7.26485 0.00174911 6.99968C0.00174913 6.73451 0.107088 6.4802 0.294592 6.2927C0.482096 6.10519 0.736406 5.99985 1.00158 5.99985L21.998 5.99986C22.2631 5.99986 22.5175 6.10519 22.705 6.2927C22.8925 6.4802 22.9978 6.73451 22.9978 6.99968Z" fill="white"/>
</svg>
