<svg width="38" height="37" viewBox="0 0 38 37" fill="none" xmlns="http://www.w3.org/2000/svg">
<path d="M36.7476 1H1.7121C1.31881 1 1 1.31888 1 1.7121V9.03669C1 9.42991 1.31881 9.74879 1.7121 9.74879H36.7476C37.1409 9.74879 37.4597 9.42991 37.4597 9.03669V1.7121C37.4597 1.31888 37.1409 1 36.7476 1ZM36.0355 8.32459H2.4242V2.4242H36.0355V8.32459Z" fill="#2C1E4A" stroke="#D5D2DB" stroke-width="0.5"/>
<path d="M34.4268 6.70721L33.8452 6.12564C34.0039 5.81175 34.0885 5.46296 34.0885 5.10107C34.0885 4.49344 33.8518 3.92205 33.4222 3.49237C32.5352 2.60545 31.0919 2.60537 30.2049 3.49237C29.7752 3.92205 29.5386 4.49344 29.5386 5.10107C29.5386 5.70871 29.7753 6.28009 30.2049 6.7097C30.6346 7.13939 31.206 7.37602 31.8136 7.37602C32.1756 7.37602 32.5243 7.29142 32.8382 7.13276L33.4197 7.71434C33.5588 7.85334 33.741 7.92291 33.9233 7.92291C34.1055 7.92291 34.2878 7.85334 34.4268 7.71434C34.7049 7.43626 34.7049 6.98536 34.4268 6.70721ZM32.4152 5.70258C32.2545 5.8633 32.0409 5.95182 31.8136 5.95182C31.5863 5.95182 31.3727 5.8633 31.212 5.70258C31.0514 5.54186 30.9628 5.3283 30.9628 5.10107C30.9628 4.87384 31.0514 4.66014 31.212 4.49949C31.3779 4.33364 31.5958 4.25075 31.8136 4.25075C32.0314 4.25075 32.2493 4.33364 32.4152 4.49949C32.5758 4.66021 32.6644 4.87384 32.6644 5.10107C32.6644 5.3283 32.5759 5.54193 32.4152 5.70258Z" fill="#2C1E4A" stroke="#D5D2DB" stroke-width="0.5"/>
<path d="M26.5174 6.52454C26.5081 6.4789 26.4946 6.43404 26.4768 6.39138C26.459 6.34858 26.4369 6.30664 26.4113 6.26819C26.3856 6.22974 26.3557 6.19271 26.323 6.15995C26.2902 6.12719 26.2539 6.09728 26.2147 6.07165C26.1763 6.04601 26.135 6.02394 26.0915 6.00614C26.0488 5.98833 26.004 5.9748 25.9584 5.96555C25.8665 5.94703 25.7718 5.94703 25.68 5.96555C25.6344 5.9748 25.5895 5.98833 25.5468 6.00614C25.5041 6.02394 25.4628 6.04601 25.4243 6.07165C25.3851 6.09728 25.3488 6.12719 25.3154 6.15995C25.2826 6.19271 25.2534 6.22966 25.2271 6.26819C25.2014 6.30664 25.1793 6.34866 25.1615 6.39138C25.1437 6.43411 25.1302 6.4789 25.121 6.52454C25.1117 6.57076 25.1074 6.61712 25.1074 6.66412C25.1074 6.71033 25.1117 6.75669 25.121 6.80298C25.1302 6.84855 25.1437 6.89341 25.1615 6.93607C25.1793 6.97886 25.2014 7.02017 25.2271 7.05926C25.2534 7.09771 25.2826 7.13474 25.3154 7.1675C25.3488 7.20026 25.3851 7.23024 25.4243 7.2558C25.4628 7.28144 25.5041 7.30351 25.5468 7.32131C25.5902 7.33912 25.6351 7.35265 25.68 7.3619C25.7262 7.37116 25.7732 7.37543 25.8195 7.37543C25.8658 7.37543 25.9128 7.37109 25.9584 7.3619C26.004 7.35272 26.0488 7.33912 26.0915 7.32131C26.1343 7.30351 26.1763 7.28144 26.2147 7.2558C26.2539 7.23024 26.2902 7.20026 26.323 7.1675C26.4554 7.03441 26.5316 6.8514 26.5316 6.66412C26.5316 6.61712 26.5266 6.57076 26.5174 6.52454Z" fill="#2C1E4A" stroke="#D5D2DB" stroke-width="0.5"/>
<path d="M23.1198 5.95166H8.32001C7.92672 5.95166 7.60791 6.27054 7.60791 6.66376C7.60791 7.05698 7.92672 7.37586 8.32001 7.37586H23.1198C23.5131 7.37586 23.8319 7.05698 23.8319 6.66376C23.8319 6.27054 23.5131 5.95166 23.1198 5.95166Z" fill="#2C1E4A" stroke="#D5D2DB" stroke-width="0.5"/>
<path d="M23.4183 10.7637H1.79608C1.40279 10.7637 1.08398 11.0826 1.08398 11.4758V25.5183C1.08398 25.9116 1.40279 26.2304 1.79608 26.2304H23.4183C23.8116 26.2304 24.1304 25.9115 24.1304 25.5183V11.4758C24.1304 11.0826 23.8116 10.7637 23.4183 10.7637ZM9.67369 24.8061H3.62931L7.70003 20.093L10.6481 23.5068L9.67369 24.8061ZM11.4539 24.8061L12.7817 23.0358H16.2346C16.6279 23.0358 16.9467 22.7169 16.9467 22.3237C16.9467 21.9305 16.6279 21.6116 16.2346 21.6116H13.8499L14.3496 20.9455H18.8208L21.7165 24.8061H11.4539ZM15.4176 19.5213L16.5851 17.9647L17.7526 19.5213H15.4176ZM22.7062 23.7521L17.1548 16.3505C17.0203 16.1712 16.8092 16.0657 16.5851 16.0657C16.361 16.0657 16.15 16.1712 16.0154 16.3505L11.5228 22.3406L8.23902 18.538C8.1038 18.3814 7.90704 18.2914 7.70011 18.2914C7.49317 18.2914 7.29649 18.3814 7.16119 18.538L2.50818 23.9253V12.1879H22.7062V23.7521Z" fill="#2C1E4A" stroke="#D5D2DB" stroke-width="0.5"/>
<path d="M10.8019 13.0059C9.41374 13.0059 8.28442 14.1352 8.28442 15.5233C8.28442 16.9115 9.41381 18.0408 10.8019 18.0408C12.1901 18.0408 13.3194 16.9115 13.3194 15.5233C13.3194 14.1352 12.1901 13.0059 10.8019 13.0059ZM10.8019 16.6167C10.199 16.6167 9.70862 16.1263 9.70862 15.5234C9.70862 14.9206 10.1991 14.4301 10.8019 14.4301C11.4047 14.4301 11.8952 14.9206 11.8952 15.5234C11.8952 16.1263 11.4048 16.6167 10.8019 16.6167Z" fill="#2C1E4A" stroke="#D5D2DB" stroke-width="0.5"/>
<path d="M36.7477 10.7637H25.8034C25.4101 10.7637 25.0913 11.0826 25.0913 11.4758V25.5183C25.0913 25.9115 25.4101 26.2304 25.8034 26.2304H36.7477C37.141 26.2304 37.4598 25.9115 37.4598 25.5183V11.4758C37.4598 11.0826 37.141 10.7637 36.7477 10.7637ZM36.0356 24.8062H26.5155V12.1879H36.0356V24.8062Z" fill="#2C1E4A" stroke="#D5D2DB" stroke-width="0.5"/>
<path d="M34.3774 13.3608H28.1733C27.78 13.3608 27.4612 13.6797 27.4612 14.0729C27.4612 14.4662 27.78 14.785 28.1733 14.785H34.3774C34.7707 14.785 35.0895 14.4662 35.0895 14.0729C35.0895 13.6797 34.7707 13.3608 34.3774 13.3608Z" fill="#2C1E4A" stroke="#D5D2DB" stroke-width="0.5"/>
<path d="M34.3774 16.2192H28.1733C27.78 16.2192 27.4612 16.5381 27.4612 16.9313C27.4612 17.3246 27.78 17.6434 28.1733 17.6434H34.3774C34.7707 17.6434 35.0895 17.3246 35.0895 16.9313C35.0895 16.5381 34.7707 16.2192 34.3774 16.2192Z" fill="#2C1E4A" stroke="#D5D2DB" stroke-width="0.5"/>
<path d="M34.3774 19.0771H28.1733C27.78 19.0771 27.4612 19.396 27.4612 19.7892C27.4612 20.1825 27.78 20.5013 28.1733 20.5013H34.3774C34.7707 20.5013 35.0895 20.1825 35.0895 19.7892C35.0895 19.396 34.7707 19.0771 34.3774 19.0771Z" fill="#2C1E4A" stroke="#D5D2DB" stroke-width="0.5"/>
<path d="M28.8716 22.5078C28.8624 22.4621 28.8488 22.4173 28.831 22.3746C28.8132 22.3318 28.7911 22.2905 28.7655 22.2514C28.7392 22.213 28.71 22.1759 28.6765 22.1432C28.5113 21.978 28.2656 21.9017 28.0342 21.9488C27.9886 21.958 27.9437 21.9716 27.901 21.9894C27.8583 22.0072 27.817 22.0292 27.7778 22.0549C27.7394 22.0805 27.7023 22.1104 27.6696 22.1432C27.6368 22.1759 27.6069 22.2129 27.5813 22.2514C27.5556 22.2906 27.5336 22.3319 27.5158 22.3746C27.498 22.4173 27.4844 22.4621 27.4752 22.5078C27.4659 22.554 27.4609 22.6004 27.4609 22.6466C27.4609 22.6936 27.4659 22.7399 27.4752 22.7861C27.4844 22.8318 27.498 22.8766 27.5158 22.9194C27.5336 22.9622 27.5556 23.0035 27.5813 23.0426C27.6069 23.081 27.6368 23.118 27.6696 23.1508C27.7023 23.1836 27.7394 23.2135 27.7778 23.2391C27.817 23.2647 27.8583 23.2868 27.901 23.3046C27.9437 23.3224 27.9886 23.336 28.0342 23.3452C28.0805 23.3545 28.1268 23.3595 28.1738 23.3595C28.361 23.3595 28.544 23.2833 28.6765 23.1507C28.7092 23.118 28.7392 23.081 28.7655 23.0425C28.7911 23.0033 28.8132 22.962 28.831 22.9193C28.8488 22.8766 28.8624 22.8318 28.8716 22.7861C28.8809 22.7399 28.8851 22.6936 28.8851 22.6466C28.8851 22.6004 28.8809 22.554 28.8716 22.5078Z" fill="#2C1E4A" stroke="#D5D2DB" stroke-width="0.5"/>
<path d="M34.3775 21.9351H30.873C30.4797 21.9351 30.1609 22.2539 30.1609 22.6472C30.1609 23.0404 30.4797 23.3593 30.873 23.3593H34.3775C34.7708 23.3593 35.0896 23.0404 35.0896 22.6472C35.0896 22.2539 34.7708 21.9351 34.3775 21.9351Z" fill="#2C1E4A" stroke="#D5D2DB" stroke-width="0.5"/>
<path d="M12.7403 27.2412H1.79608C1.40279 27.2412 1.08398 27.5601 1.08398 27.9533V35.2881C1.08398 35.6813 1.40279 36.0002 1.79608 36.0002H12.7403C13.1336 36.0002 13.4524 35.6813 13.4524 35.2881V27.9533C13.4524 27.5601 13.1336 27.2412 12.7403 27.2412ZM12.0282 34.576H2.50818V28.6654H12.0282V34.576Z" fill="#2C1E4A" stroke="#D5D2DB" stroke-width="0.5"/>
<path d="M36.7475 27.2412H15.2226C14.8293 27.2412 14.5105 27.5601 14.5105 27.9533V35.2881C14.5105 35.6813 14.8293 36.0002 15.2226 36.0002H36.7475C37.1408 36.0002 37.4596 35.6813 37.4596 35.2881V27.9533C37.4596 27.5601 37.1408 27.2412 36.7475 27.2412ZM36.0354 34.576H15.9347V28.6654H36.0354V34.576Z" fill="#2C1E4A" stroke="#D5D2DB" stroke-width="0.5"/>
<path d="M19.1785 31.4818C19.1693 31.4363 19.1557 31.3913 19.1379 31.3486C19.1201 31.3052 19.098 31.2639 19.0724 31.2255C19.0468 31.1862 19.0169 31.1499 18.9841 31.1172C18.9514 31.0844 18.915 31.0545 18.8759 31.0289C18.8374 31.0033 18.7961 30.9811 18.7527 30.9633C18.71 30.9455 18.6651 30.9313 18.6195 30.922C18.5277 30.9042 18.4329 30.9042 18.3411 30.922C18.2962 30.9313 18.2514 30.9455 18.2079 30.9633C18.1652 30.9811 18.1239 31.0033 18.0854 31.0289C18.0463 31.0545 18.01 31.0844 17.9772 31.1172C17.9444 31.1499 17.9145 31.1862 17.8882 31.2255C17.8626 31.2639 17.8405 31.3052 17.8227 31.3486C17.8049 31.3914 17.7913 31.4362 17.7821 31.4818C17.7728 31.5273 17.7686 31.5743 17.7686 31.6206C17.7686 31.6668 17.7728 31.7139 17.7821 31.7595C17.7913 31.805 17.8049 31.8498 17.8227 31.8933C17.8405 31.936 17.8626 31.9773 17.8882 32.0158C17.9145 32.0549 17.9444 32.0912 17.9772 32.124C18.1097 32.2564 18.2934 32.3327 18.4807 32.3327C18.5269 32.3327 18.5739 32.3284 18.6195 32.3192C18.6651 32.3099 18.71 32.2957 18.7527 32.2779C18.7961 32.2601 18.8374 32.2387 18.8759 32.2124C18.915 32.1868 18.9514 32.1569 18.9841 32.1241C19.0169 32.0913 19.0468 32.055 19.0724 32.0158C19.098 31.9774 19.1201 31.9361 19.1379 31.8933C19.1557 31.8499 19.1693 31.805 19.1785 31.7595C19.1878 31.7138 19.1928 31.6668 19.1928 31.6206C19.1928 31.5743 19.1878 31.5273 19.1785 31.4818Z" fill="#2C1E4A" stroke="#D5D2DB" stroke-width="0.5"/>
<path d="M33.1384 30.9087H21.1801C20.7868 30.9087 20.468 31.2276 20.468 31.6208C20.468 32.014 20.7868 32.3329 21.1801 32.3329H33.1384C33.5317 32.3329 33.8505 32.014 33.8505 31.6208C33.8505 31.2276 33.5317 30.9087 33.1384 30.9087Z" fill="#2C1E4A" stroke="#D5D2DB" stroke-width="0.5"/>
</svg>
