<svg width="39" height="39" viewBox="0 0 39 39" fill="none" xmlns="http://www.w3.org/2000/svg">
<path d="M0 3.81543C0 2.66044 0.939732 1.7207 2.09473 1.7207H10.4355C10.7511 1.7207 11.0068 1.97641 11.0068 2.29199C11.0068 2.60757 10.7511 2.86328 10.4355 2.86328H2.09473C1.56968 2.86328 1.14258 3.29038 1.14258 3.81543L1.14273 25.1161H37.8573L37.8574 3.81543C37.8574 3.29038 37.4303 2.86328 36.9053 2.86328H13.0254C12.7098 2.86328 12.4541 2.60757 12.4541 2.29199C12.4541 1.97641 12.7098 1.7207 13.0254 1.7207H36.9053C38.0603 1.7207 39 2.66044 39 3.81543V29.2397C39 30.3947 38.0603 31.3344 36.9053 31.3344H24.6429L25.2786 36.1368H26.5256C26.8411 36.1368 27.0968 36.3925 27.0968 36.708C27.0968 37.0236 26.8411 37.2793 26.5256 37.2793H12.4745C12.1589 37.2793 11.9032 37.0236 11.9032 36.708C11.9032 36.3925 12.1589 36.1368 12.4745 36.1368H13.7214L13.8912 34.8549C13.9326 34.5421 14.2197 34.3229 14.5325 34.3635C14.8453 34.4049 15.0653 34.692 15.0239 35.0048L14.8741 36.1368H24.1261L23.4903 31.3344H22.3489C22.0852 32.6756 20.9146 33.668 19.5 33.668C18.1077 33.668 16.9223 32.6591 16.6529 31.3344H15.5097L15.3621 32.4497C15.324 32.737 15.0786 32.9461 14.7965 32.9461C14.7715 32.9461 14.7462 32.9445 14.7207 32.9411C14.408 32.8997 14.188 32.6126 14.2294 32.2997L14.3571 31.3345H2.09473C0.939655 31.3345 0 30.3948 0 29.2398V3.81543ZM19.5 32.5254C20.2773 32.5254 20.9335 32.0318 21.1692 31.3344H17.834C18.0744 32.0247 18.7358 32.5254 19.5 32.5254ZM1.14258 29.2398C1.14258 29.7648 1.56968 30.1919 2.09473 30.1919H36.9053C37.4303 30.1919 37.8574 29.7648 37.8574 29.2398V26.2587H1.14258V29.2398Z" fill="#2C1E4A"/>
<path d="M18.255 17.516H8.061C7.78861 17.516 7.55408 17.3236 7.50076 17.0565L5.6398 7.72949H4.93087C4.61529 7.72949 4.35958 7.47378 4.35958 7.1582C4.35958 6.84262 4.61529 6.58691 4.93087 6.58691H6.10833C6.38072 6.58691 6.61526 6.77925 6.66858 7.04638L6.99002 8.65734L18.8908 9.53423C19.0617 9.5468 19.2178 9.63539 19.3163 9.77554C19.4148 9.9157 19.4452 10.0926 19.3991 10.2576L17.9734 15.3617C17.9045 15.6086 17.6795 15.7793 17.4231 15.7793H8.41101L8.52953 16.3733H18.255C19.1157 16.3733 19.8159 17.0735 19.8159 17.9342C19.8159 18.7949 19.1157 19.4951 18.255 19.4951H17.7614C17.8556 19.7178 17.9077 19.9625 17.9077 20.2192C17.9077 21.2483 17.0705 22.0855 16.0413 22.0855C15.0121 22.0855 14.1749 21.2483 14.1749 20.2192C14.1749 19.9625 14.227 19.7179 14.3212 19.4951H11.2488C11.3429 19.7178 11.395 19.9625 11.395 20.2192C11.395 21.2483 10.5578 22.0855 9.52868 22.0855C8.49952 22.0855 7.66232 21.2483 7.66232 20.2192C7.66232 19.9625 7.71442 19.7179 7.80857 19.4951H7.24512C6.92954 19.4951 6.67383 19.2394 6.67383 18.9238C6.67383 18.6082 6.92954 18.3525 7.24512 18.3525H18.255C18.4857 18.3525 18.6733 18.1649 18.6733 17.9342C18.6733 17.7036 18.4857 17.516 18.255 17.516ZM16.9896 14.6368L18.1109 10.6225L7.22204 9.82003L8.1831 14.6368H16.9896ZM16.0413 20.943C16.4404 20.943 16.7651 20.6183 16.7651 20.2192C16.7651 19.8202 16.4404 19.4955 16.0413 19.4955C15.6422 19.4955 15.3175 19.8202 15.3175 20.2192C15.3175 20.6183 15.6422 20.943 16.0413 20.943ZM9.5286 20.943C9.92767 20.943 10.2524 20.6183 10.2524 20.2192C10.2524 19.8202 9.92767 19.4955 9.5286 19.4955C9.12954 19.4955 8.80482 19.8202 8.80482 20.2192C8.80482 20.6183 9.12954 20.943 9.5286 20.943Z" fill="#2C1E4A"/>
<path d="M15.5857 11.0986C15.9013 11.0986 16.157 11.3543 16.157 11.6699V13.2695C16.157 13.5851 15.9013 13.8408 15.5857 13.8408C15.2701 13.8408 15.0144 13.5851 15.0144 13.2695V11.6699C15.0144 11.3543 15.2702 11.0986 15.5857 11.0986Z" fill="#2C1E4A"/>
<path d="M13.6433 11.0986C13.9589 11.0986 14.2146 11.3543 14.2146 11.6699V13.2695C14.2146 13.5851 13.9589 13.8408 13.6433 13.8408C13.3277 13.8408 13.072 13.5851 13.072 13.2695V11.6699C13.072 11.3543 13.3278 11.0986 13.6433 11.0986Z" fill="#2C1E4A"/>
<path d="M11.7009 11.0986C12.0165 11.0986 12.2722 11.3543 12.2722 11.6699V13.2695C12.2722 13.5851 12.0165 13.8408 11.7009 13.8408C11.3853 13.8408 11.1296 13.5851 11.1296 13.2695V11.6699C11.1296 11.3543 11.3854 11.0986 11.7009 11.0986Z" fill="#2C1E4A"/>
<path d="M9.75854 11.0986C10.0741 11.0986 10.3298 11.3543 10.3298 11.6699V13.2695C10.3298 13.5851 10.0741 13.8408 9.75854 13.8408C9.44296 13.8408 9.18726 13.5851 9.18726 13.2695V11.6699C9.18726 11.3543 9.44304 11.0986 9.75854 11.0986Z" fill="#2C1E4A"/>
<path d="M31.0278 9.85487C30.7123 9.85487 30.4565 9.59916 30.4565 9.28358V7.83692L30.1347 8.13948C30.0244 8.24315 29.8838 8.29456 29.7435 8.29456C29.5914 8.29456 29.4395 8.23416 29.3272 8.11465C29.1111 7.88476 29.1222 7.52317 29.352 7.30707L30.6364 6.09944C30.8564 5.89263 31.1992 5.89263 31.4191 6.09944L32.7036 7.30699C32.9335 7.52309 32.9446 7.88468 32.7284 8.11457C32.5124 8.34438 32.1508 8.35558 31.9208 8.1394L31.599 7.83685V9.2835C31.5991 9.59908 31.3433 9.85487 31.0278 9.85487Z" fill="#2C1E4A"/>
<path d="M26.4065 9.85487C26.091 9.85487 25.8352 9.59916 25.8352 9.28358V7.83692L25.5134 8.13948C25.4031 8.24315 25.2624 8.29456 25.1221 8.29456C24.97 8.29456 24.8182 8.23416 24.7059 8.11465C24.4898 7.88476 24.5009 7.52317 24.7307 7.30707L26.0151 6.09944C26.2351 5.89263 26.5779 5.89263 26.7978 6.09944L28.0822 7.30699C28.3121 7.52309 28.3233 7.88468 28.1071 8.11457C27.8911 8.34438 27.5295 8.35558 27.2995 8.1394L26.9777 7.83685V9.2835C26.9778 9.59908 26.722 9.85487 26.4065 9.85487Z" fill="#2C1E4A"/>
<path d="M22.8896 12.9648C22.8896 12.2299 23.4877 11.6318 24.2227 11.6318H32.9062C33.6412 11.6318 34.2393 12.2299 34.2393 12.9648V15.2676C34.2393 16.0026 33.6412 16.6006 32.9062 16.6006H29.1738C28.8583 16.6006 28.6025 16.3449 28.6025 16.0293C28.6025 15.7137 28.8583 15.458 29.1738 15.458H32.9062C33.0112 15.458 33.0967 15.3726 33.0967 15.2676V12.9648C33.0967 12.8598 33.0112 12.7744 32.9062 12.7744H24.2227C24.1177 12.7744 24.0322 12.8598 24.0322 12.9648V15.2676C24.0322 15.3726 24.1177 15.458 24.2227 15.458H26.584C26.8995 15.458 27.1553 15.7137 27.1553 16.0293C27.1553 16.3449 26.8995 16.6006 26.584 16.6006H24.2227C23.4877 16.6006 22.8896 16.0026 22.8896 15.2676V12.9648Z" fill="#2C1E4A"/>
<path d="M33.668 19.7236H29.7435C29.428 19.7236 29.1722 19.4679 29.1722 19.1523C29.1722 18.8368 29.428 18.5811 29.7435 18.5811H33.668C33.9835 18.5811 34.2393 18.8368 34.2393 19.1523C34.2393 19.4679 33.9835 19.7236 33.668 19.7236Z" fill="#2C1E4A"/>
<path d="M33.668 21.7466H23.4609C23.1454 21.7466 22.8896 21.4909 22.8896 21.1753C22.8896 20.8597 23.1454 20.604 23.4609 20.604H33.668C33.9835 20.604 34.2393 20.8597 34.2393 21.1753C34.2393 21.4909 33.9835 21.7466 33.668 21.7466Z" fill="#2C1E4A"/>
</svg>
