<svg width="40" height="40" viewBox="0 0 40 40" fill="none" xmlns="http://www.w3.org/2000/svg">
<g clip-path="url(#clip0)">
<path d="M37.8516 5.08381H27.3115C27.3004 5.08381 27.2896 5.08482 27.2787 5.08545C26.8924 4.72287 26.4774 4.38623 26.0348 4.07998C25.7686 3.896 25.4037 3.96248 25.2195 4.22842C25.0355 4.49451 25.1019 4.85959 25.368 5.04373C27.956 6.8342 29.501 9.77928 29.501 12.9217C29.501 18.2001 25.2067 22.4944 19.9284 22.4944C14.6501 22.4944 10.3558 18.2001 10.3558 12.9217C10.3558 7.64342 14.6501 3.34912 19.9284 3.34912C20.9762 3.34912 22.0059 3.51717 22.989 3.84865C23.2957 3.95232 23.6281 3.78732 23.7314 3.48068C23.8348 3.17404 23.6701 2.84162 23.3634 2.73826C22.2595 2.366 21.1038 2.17725 19.9284 2.17725C14.0038 2.17725 9.18391 6.99717 9.18391 12.9217C9.18391 18.8462 14.0038 23.6662 19.9284 23.6662C25.8529 23.6662 30.6729 18.8462 30.6729 12.9217C30.6729 10.4728 29.8363 8.13123 28.3532 6.25568H37.8516C38.3901 6.25568 38.8281 6.69373 38.8281 7.23225V25.674H34.1936C33.8699 25.674 33.6077 25.9362 33.6077 26.2599C33.6077 26.5836 33.8699 26.8458 34.1936 26.8458H38.8281V29.923C38.8281 30.4615 38.3901 30.8996 37.8516 30.8996H2.14844C1.60992 30.8996 1.17188 30.4615 1.17188 29.923V26.8458H31.2427C31.5663 26.8458 31.8286 26.5836 31.8286 26.2599C31.8286 25.9362 31.5663 25.674 31.2427 25.674H1.17188V7.23225C1.17188 6.69373 1.60992 6.25568 2.14844 6.25568H9.13578C9.45945 6.25568 9.72172 5.99342 9.72172 5.66975C9.72172 5.34607 9.45945 5.08381 9.13578 5.08381H2.14844C0.96375 5.08381 0 6.04764 0 7.23225V29.923C0 31.1076 0.96375 32.0714 2.14844 32.0714H14.9919V36.6506H13.223C12.8993 36.6506 12.637 36.9129 12.637 37.2365C12.637 37.5602 12.8993 37.8225 13.223 37.8225H26.6337C26.9574 37.8225 27.2197 37.5602 27.2197 37.2365C27.2197 36.9129 26.9574 36.6506 26.6337 36.6506H24.8648V32.0714H37.8516C39.0363 32.0714 40 31.1076 40 29.923V7.23225C40 6.04764 39.0363 5.08381 37.8516 5.08381ZM23.693 36.6507H16.1637V32.0715H23.693V36.6507Z" fill="#2C1E4A"/>
<path d="M15.7533 8.24102C15.6283 7.57859 15.0483 7.09766 14.3741 7.09766H13.7476C13.4239 7.09766 13.1616 7.35992 13.1616 7.68359C13.1616 8.00727 13.4239 8.26953 13.7476 8.26953H14.3741C14.4855 8.26953 14.5812 8.34891 14.6018 8.45836L16.3358 17.643C16.3881 17.9198 16.63 18.1202 16.9116 18.1202H17.3069C17.1339 18.3137 17.0277 18.5683 17.0277 18.8483C17.0277 19.4522 17.5173 19.9418 18.1212 19.9418C18.7251 19.9418 19.2147 19.4522 19.2147 18.8483C19.2147 18.5683 19.1087 18.3137 18.9355 18.1202H21.346C21.173 18.3137 21.0668 18.5683 21.0668 18.8483C21.0668 19.4522 21.5564 19.9418 22.1603 19.9418C22.7642 19.9418 23.2538 19.4522 23.2538 18.8483C23.2538 18.5683 23.1477 18.3137 22.9746 18.1202H23.5019C23.8255 18.1202 24.0878 17.858 24.0878 17.5343C24.0878 17.2106 23.8255 16.9484 23.5019 16.9484H17.3971L17.158 15.6822H23.7063C23.9879 15.6822 24.2295 15.482 24.282 15.2053L25.322 9.71883C25.3226 9.71531 25.3233 9.7118 25.3239 9.70828C25.3588 9.5032 25.302 9.29445 25.1679 9.13547C25.0337 8.97648 24.8375 8.88531 24.6294 8.88531H15.875L15.7533 8.24102ZM16.6272 12.8697H18.2258L18.3458 14.5103H16.9371L16.6272 12.8697ZM20.8115 12.8697L20.6915 14.5103H19.5208L19.4008 12.8697H20.8115ZM19.3152 11.6978L19.1953 10.0573H21.017L20.8971 11.6978H19.3152ZM21.8666 14.5103L21.9865 12.8697H23.5322L23.2212 14.5103H21.8666ZM23.7544 11.6978H22.0723L22.1922 10.0573H24.0654L23.7544 11.6978ZM18.0202 10.0573L18.1401 11.6978H16.406L16.0962 10.0573H18.0202Z" fill="#2C1E4A"/>
<path d="M3.81641 21.4922H7.28211C7.60578 21.4922 7.86805 21.2299 7.86805 20.9062C7.86805 20.5826 7.60578 20.3203 7.28211 20.3203H3.81641C3.49273 20.3203 3.23047 20.5826 3.23047 20.9062C3.23047 21.2299 3.49273 21.4922 3.81641 21.4922Z" fill="#2C1E4A"/>
<path d="M3.81641 24.1353H10.2831C10.6068 24.1353 10.8691 23.873 10.8691 23.5493C10.8691 23.2256 10.6068 22.9634 10.2831 22.9634H3.81641C3.49273 22.9634 3.23047 23.2256 3.23047 23.5493C3.23047 23.873 3.49273 24.1353 3.81641 24.1353Z" fill="#2C1E4A"/>
<path d="M34.7599 8.46631C34.4363 8.46631 34.174 8.72857 34.174 9.05225V10.5187H32.7075C32.3838 10.5187 32.1216 10.781 32.1216 11.1047C32.1216 11.4283 32.3838 11.6906 32.7075 11.6906H34.174V13.1571C34.174 13.4808 34.4363 13.743 34.7599 13.743C35.0836 13.743 35.3459 13.4808 35.3459 13.1571V11.6906H36.8123C37.136 11.6906 37.3982 11.4283 37.3982 11.1047C37.3982 10.781 37.136 10.5187 36.8123 10.5187H35.3459V9.05225C35.3459 8.72865 35.0835 8.46631 34.7599 8.46631Z" fill="#2C1E4A"/>
</g>
<defs>
<clipPath id="clip0">
<rect width="40" height="40" fill="white"/>
</clipPath>
</defs>
</svg>
