<svg width="41" height="37" viewBox="0 0 41 37" fill="none" xmlns="http://www.w3.org/2000/svg">
<path d="M39.35 31.5004H38.7V8.10037C38.7 6.66444 37.5359 5.50037 36.1 5.50037H30.25V0.950374C30.25 0.591412 29.959 0.300374 29.6001 0.300293C29.5599 0.300293 29.5199 0.30403 29.4804 0.311424L25.5804 1.04267L24.9304 1.16487L19.1395 2.25037H15.3C14.582 2.25037 14 2.83237 14 3.55037C12.7093 3.55208 11.5419 4.31737 11.0256 5.50037H4.9C3.46407 5.50037 2.3 6.66444 2.3 8.10037V31.5004H1.65C1.29104 31.5004 1 31.7914 1 32.1504V34.1004C1 35.5363 2.16407 36.7004 3.6 36.7004H37.4C38.8359 36.7004 40 35.5363 40 34.1004V32.1504C40 31.7914 39.709 31.5004 39.35 31.5004ZM19.85 3.43987L28.95 1.73362V11.8704L19.85 10.1609V3.43987ZM19.85 11.4804L21.15 11.7241V12.6504H19.85V11.4804ZM15.3 3.55037H18.55V10.0504H15.3V3.55037ZM16.6 15.2504V11.3504H18.55V15.2504H16.6ZM18.55 16.5504V17.5254C18.55 18.0638 18.1134 18.5004 17.575 18.5004C17.0366 18.5004 16.6 18.0638 16.6 17.5254V16.5504H18.55ZM14 4.85037V8.75037C12.923 8.75037 12.05 7.87734 12.05 6.80037C12.05 5.72341 12.923 4.85037 14 4.85037ZM3.6 8.10037C3.6 7.38237 4.18199 6.80037 4.9 6.80037H10.75C10.7521 8.59437 12.206 10.0483 14 10.0504C14 10.7684 14.582 11.3504 15.3 11.3504V17.5254C15.3 18.7818 16.3185 19.8004 17.575 19.8004C18.8314 19.8004 19.85 18.7818 19.85 17.5254V13.9504H21.8C22.159 13.9504 22.45 13.6593 22.45 13.3004V11.9711L29.4804 13.2893C29.5199 13.2966 29.5599 13.3003 29.6 13.3004C29.959 13.3004 30.25 13.0093 30.25 12.6504V6.80037H36.1C36.818 6.80037 37.4 7.38237 37.4 8.10037V31.5004H26.35C26.1777 31.5002 26.0124 31.5685 25.8904 31.6902L24.7809 32.8004H16.2191L15.1095 31.6902C14.9876 31.5685 14.8222 31.5002 14.65 31.5004H3.6V8.10037ZM38.7 34.1004C38.7 34.8184 38.118 35.4004 37.4 35.4004H3.6C2.88199 35.4004 2.3 34.8184 2.3 34.1004V32.8004H14.3809L15.4904 33.9099C15.6123 34.0318 15.7776 34.1004 15.95 34.1004H25.05C25.2224 34.1004 25.3877 34.0318 25.5096 33.9099L26.6191 32.8004H38.7V34.1004Z" fill="#2C1E4A" stroke="#D5D2DB" stroke-width="0.2"/>
<path d="M34.8 8.75H32.2V10.05H34.15V27.6H6.85005V10.05H10.1V8.75H6.20005C5.84109 8.75 5.55005 9.04104 5.55005 9.4V28.25C5.55005 28.609 5.84109 28.9 6.20005 28.9H34.8C35.159 28.9 35.45 28.609 35.45 28.25V9.4C35.45 9.04104 35.159 8.75 34.8 8.75Z" fill="#2C1E4A" stroke="#D5D2DB" stroke-width="0.2"/>
<path d="M21.1501 30.2002H19.8501V31.5002H21.1501V30.2002Z" fill="#2C1E4A" stroke="#D5D2DB" stroke-width="0.2"/>
<path d="M11.4001 21.7505H10.1001V23.0505H11.4001V21.7505Z" fill="#2C1E4A" stroke="#D5D2DB" stroke-width="0.2"/>
<path d="M32.2 21.7505H12.7V23.0505H32.2V21.7505Z" fill="#2C1E4A" stroke="#D5D2DB" stroke-width="0.2"/>
<path d="M30.25 24.3501H8.80005V25.6501H30.25V24.3501Z" fill="#2C1E4A" stroke="#D5D2DB" stroke-width="0.2"/>
</svg>
