<svg width="512" height="205" viewBox="0 0 512 205" fill="none" xmlns="http://www.w3.org/2000/svg">
<path d="M508.612 34.3295C508.612 34.8067 508.994 35.1886 509.471 35.1886C509.949 35.1886 510.33 34.8067 510.33 34.3295C510.33 33.8522 509.949 33.4706 509.471 33.4706C508.994 33.4706 508.612 33.8522 508.612 34.3295Z" fill="#2C1E4A"/>
<path d="M508.612 34.3295C508.612 34.8067 508.994 35.1886 509.471 35.1886C509.949 35.1886 510.33 34.8067 510.33 34.3295C510.33 33.8522 509.949 33.4706 509.471 33.4706C508.994 33.4706 508.612 33.8522 508.612 34.3295Z" fill="white"/>
<path d="M508.612 34.3295C508.612 34.8067 508.994 35.1886 509.471 35.1886C509.949 35.1886 510.33 34.8067 510.33 34.3295C510.33 33.8522 509.949 33.4706 509.471 33.4706C508.994 33.4706 508.612 33.8522 508.612 34.3295Z" fill="#E7CD1E"/>
<path d="M507.753 68.2774C507.753 69.2001 508.517 69.9636 509.44 69.9636C510.394 69.9636 511.126 69.2001 511.126 68.2774C511.126 67.3547 510.362 66.5911 509.44 66.5911C508.517 66.5911 507.753 67.3547 507.753 68.2774Z" fill="#2C1E4A"/>
<path d="M507.753 68.2774C507.753 69.2001 508.517 69.9636 509.44 69.9636C510.394 69.9636 511.126 69.2001 511.126 68.2774C511.126 67.3547 510.362 66.5911 509.44 66.5911C508.517 66.5911 507.753 67.3547 507.753 68.2774Z" fill="white"/>
<path d="M507.753 68.2774C507.753 69.2001 508.517 69.9636 509.44 69.9636C510.394 69.9636 511.126 69.2001 511.126 68.2774C511.126 67.3547 510.362 66.5911 509.44 66.5911C508.517 66.5911 507.753 67.3547 507.753 68.2774Z" fill="#E7CD1E"/>
<path d="M507.403 102.257C507.403 103.402 508.326 104.325 509.471 104.325C510.617 104.325 511.539 103.402 511.539 102.257C511.539 101.112 510.617 100.189 509.471 100.189C508.326 100.157 507.371 101.112 507.403 102.257Z" fill="#2C1E4A"/>
<path d="M507.403 102.257C507.403 103.402 508.326 104.325 509.471 104.325C510.617 104.325 511.539 103.402 511.539 102.257C511.539 101.112 510.617 100.189 509.471 100.189C508.326 100.157 507.371 101.112 507.403 102.257Z" fill="white"/>
<path d="M507.403 102.257C507.403 103.402 508.326 104.325 509.471 104.325C510.617 104.325 511.539 103.402 511.539 102.257C511.539 101.112 510.617 100.189 509.471 100.189C508.326 100.157 507.371 101.112 507.403 102.257Z" fill="#E7CD1E"/>
<path d="M507.849 136.205C507.849 137.095 508.58 137.795 509.439 137.795C510.33 137.795 511.03 137.064 511.03 136.205C511.03 135.314 510.298 134.614 509.439 134.614C508.58 134.614 507.849 135.314 507.849 136.205Z" fill="#2C1E4A"/>
<path d="M507.849 136.205C507.849 137.095 508.58 137.795 509.439 137.795C510.33 137.795 511.03 137.064 511.03 136.205C511.03 135.314 510.298 134.614 509.439 134.614C508.58 134.614 507.849 135.314 507.849 136.205Z" fill="white"/>
<path d="M507.849 136.205C507.849 137.095 508.58 137.795 509.439 137.795C510.33 137.795 511.03 137.064 511.03 136.205C511.03 135.314 510.298 134.614 509.439 134.614C508.58 134.614 507.849 135.314 507.849 136.205Z" fill="#E7CD1E"/>
<path d="M508.708 170.152C508.708 170.566 509.058 170.916 509.471 170.916C509.885 170.916 510.235 170.566 510.235 170.152C510.235 169.739 509.885 169.389 509.471 169.389C509.026 169.389 508.708 169.739 508.708 170.152Z" fill="#2C1E4A"/>
<path d="M508.708 170.152C508.708 170.566 509.058 170.916 509.471 170.916C509.885 170.916 510.235 170.566 510.235 170.152C510.235 169.739 509.885 169.389 509.471 169.389C509.026 169.389 508.708 169.739 508.708 170.152Z" fill="white"/>
<path d="M508.708 170.152C508.708 170.566 509.058 170.916 509.471 170.916C509.885 170.916 510.235 170.566 510.235 170.152C510.235 169.739 509.885 169.389 509.471 169.389C509.026 169.389 508.708 169.739 508.708 170.152Z" fill="#E7CD1E"/>
<path d="M473.71 34.3295C473.71 35.3158 474.505 36.1114 475.491 36.1114C476.478 36.1114 477.273 35.3158 477.273 34.3295C477.273 33.3432 476.478 32.5478 475.491 32.5478C474.505 32.5478 473.71 33.3432 473.71 34.3295Z" fill="#2C1E4A"/>
<path d="M473.71 34.3295C473.71 35.3158 474.505 36.1114 475.491 36.1114C476.478 36.1114 477.273 35.3158 477.273 34.3295C477.273 33.3432 476.478 32.5478 475.491 32.5478C474.505 32.5478 473.71 33.3432 473.71 34.3295Z" fill="white"/>
<path d="M473.71 34.3295C473.71 35.3158 474.505 36.1114 475.491 36.1114C476.478 36.1114 477.273 35.3158 477.273 34.3295C477.273 33.3432 476.478 32.5478 475.491 32.5478C474.505 32.5478 473.71 33.3432 473.71 34.3295Z" fill="#E7CD1E"/>
<path d="M471.928 68.2771C471.928 70.2497 473.519 71.8724 475.492 71.8724C477.464 71.8724 479.087 70.2815 479.055 68.2771C479.055 66.3045 477.464 64.7137 475.492 64.6819C473.519 64.7137 471.928 66.3045 471.928 68.2771Z" fill="#2C1E4A"/>
<path d="M471.928 68.2771C471.928 70.2497 473.519 71.8724 475.492 71.8724C477.464 71.8724 479.087 70.2815 479.055 68.2771C479.055 66.3045 477.464 64.7137 475.492 64.6819C473.519 64.7137 471.928 66.3045 471.928 68.2771Z" fill="white"/>
<path d="M471.928 68.2771C471.928 70.2497 473.519 71.8724 475.492 71.8724C477.464 71.8724 479.087 70.2815 479.055 68.2771C479.055 66.3045 477.464 64.7137 475.492 64.6819C473.519 64.7137 471.928 66.3045 471.928 68.2771Z" fill="#E7CD1E"/>
<path d="M470.974 102.257C470.974 104.77 473.01 106.775 475.492 106.775C477.973 106.775 480.01 104.738 480.01 102.257C480.01 99.7751 477.973 97.7389 475.492 97.7389C473.01 97.7389 470.974 99.7433 470.974 102.257Z" fill="#2C1E4A"/>
<path d="M470.974 102.257C470.974 104.77 473.01 106.775 475.492 106.775C477.973 106.775 480.01 104.738 480.01 102.257C480.01 99.7751 477.973 97.7389 475.492 97.7389C473.01 97.7389 470.974 99.7433 470.974 102.257Z" fill="white"/>
<path d="M470.974 102.257C470.974 104.77 473.01 106.775 475.492 106.775C477.973 106.775 480.01 104.738 480.01 102.257C480.01 99.7751 477.973 97.7389 475.492 97.7389C473.01 97.7389 470.974 99.7433 470.974 102.257Z" fill="#E7CD1E"/>
<path d="M472.215 136.204C472.215 138.018 473.678 139.513 475.492 139.513C477.305 139.513 478.801 138.05 478.801 136.204C478.801 134.391 477.337 132.927 475.492 132.927C473.678 132.896 472.215 134.391 472.215 136.204Z" fill="#2C1E4A"/>
<path d="M472.215 136.204C472.215 138.018 473.678 139.513 475.492 139.513C477.305 139.513 478.801 138.05 478.801 136.204C478.801 134.391 477.337 132.927 475.492 132.927C473.678 132.896 472.215 134.391 472.215 136.204Z" fill="white"/>
<path d="M472.215 136.204C472.215 138.018 473.678 139.513 475.492 139.513C477.305 139.513 478.801 138.05 478.801 136.204C478.801 134.391 477.337 132.927 475.492 132.927C473.678 132.896 472.215 134.391 472.215 136.204Z" fill="#E7CD1E"/>
<path d="M473.901 170.152C473.901 171.043 474.633 171.743 475.492 171.743C476.383 171.743 477.082 171.043 477.082 170.152C477.082 169.261 476.351 168.562 475.492 168.562C474.601 168.562 473.901 169.261 473.901 170.152Z" fill="#2C1E4A"/>
<path d="M473.901 170.152C473.901 171.043 474.633 171.743 475.492 171.743C476.383 171.743 477.082 171.043 477.082 170.152C477.082 169.261 476.351 168.562 475.492 168.562C474.601 168.562 473.901 169.261 473.901 170.152Z" fill="white"/>
<path d="M473.901 170.152C473.901 171.043 474.633 171.743 475.492 171.743C476.383 171.743 477.082 171.043 477.082 170.152C477.082 169.261 476.351 168.562 475.492 168.562C474.601 168.562 473.901 169.261 473.901 170.152Z" fill="#E7CD1E"/>
<path d="M438.712 34.3295C438.712 35.8885 439.985 37.1612 441.544 37.1612C443.103 37.1612 444.376 35.8885 444.376 34.3295C444.376 32.7705 443.103 31.498 441.544 31.498C439.985 31.498 438.712 32.7705 438.712 34.3295Z" fill="#2C1E4A"/>
<path d="M438.712 34.3295C438.712 35.8885 439.985 37.1612 441.544 37.1612C443.103 37.1612 444.376 35.8885 444.376 34.3295C444.376 32.7705 443.103 31.498 441.544 31.498C439.985 31.498 438.712 32.7705 438.712 34.3295Z" fill="white"/>
<path d="M438.712 34.3295C438.712 35.8885 439.985 37.1612 441.544 37.1612C443.103 37.1612 444.376 35.8885 444.376 34.3295C444.376 32.7705 443.103 31.498 441.544 31.498C439.985 31.498 438.712 32.7705 438.712 34.3295Z" fill="#E7CD1E"/>
<path d="M435.69 68.2773C435.69 71.4907 438.299 74.1313 441.544 74.1313C444.789 74.1313 447.366 71.5225 447.398 68.2773C447.398 65.0639 444.789 62.423 441.544 62.423C438.331 62.4549 435.69 65.0639 435.69 68.2773Z" fill="#2C1E4A"/>
<path d="M435.69 68.2773C435.69 71.4907 438.299 74.1313 441.544 74.1313C444.789 74.1313 447.366 71.5225 447.398 68.2773C447.398 65.0639 444.789 62.423 441.544 62.423C438.331 62.4549 435.69 65.0639 435.69 68.2773Z" fill="white"/>
<path d="M435.69 68.2773C435.69 71.4907 438.299 74.1313 441.544 74.1313C444.789 74.1313 447.366 71.5225 447.398 68.2773C447.398 65.0639 444.789 62.423 441.544 62.423C438.331 62.4549 435.69 65.0639 435.69 68.2773Z" fill="#E7CD1E"/>
<path d="M434.386 102.257C434.386 106.202 437.599 109.416 441.544 109.416C445.489 109.416 448.703 106.202 448.703 102.257C448.703 98.3118 445.489 95.0984 441.544 95.0984C437.599 95.0984 434.385 98.28 434.386 102.257Z" fill="#2C1E4A"/>
<path d="M434.386 102.257C434.386 106.202 437.599 109.416 441.544 109.416C445.489 109.416 448.703 106.202 448.703 102.257C448.703 98.3118 445.489 95.0984 441.544 95.0984C437.599 95.0984 434.385 98.28 434.386 102.257Z" fill="white"/>
<path d="M434.386 102.257C434.386 106.202 437.599 109.416 441.544 109.416C445.489 109.416 448.703 106.202 448.703 102.257C448.703 98.3118 445.489 95.0984 441.544 95.0984C437.599 95.0984 434.385 98.28 434.386 102.257Z" fill="#E7CD1E"/>
<path d="M436.167 136.205C436.167 139.163 438.585 141.581 441.544 141.581C444.503 141.581 446.921 139.163 446.921 136.205C446.921 133.246 444.503 130.828 441.544 130.828C438.585 130.828 436.167 133.246 436.167 136.205Z" fill="#2C1E4A"/>
<path d="M436.167 136.205C436.167 139.163 438.585 141.581 441.544 141.581C444.503 141.581 446.921 139.163 446.921 136.205C446.921 133.246 444.503 130.828 441.544 130.828C438.585 130.828 436.167 133.246 436.167 136.205Z" fill="white"/>
<path d="M436.167 136.205C436.167 139.163 438.585 141.581 441.544 141.581C444.503 141.581 446.921 139.163 446.921 136.205C446.921 133.246 444.503 130.828 441.544 130.828C438.585 130.828 436.167 133.246 436.167 136.205Z" fill="#E7CD1E"/>
<path d="M439.094 170.152C439.094 171.52 440.176 172.602 441.544 172.602C442.88 172.602 443.994 171.52 443.994 170.152C443.994 168.816 442.912 167.703 441.544 167.703C440.176 167.703 439.094 168.816 439.094 170.152Z" fill="#2C1E4A"/>
<path d="M439.094 170.152C439.094 171.52 440.176 172.602 441.544 172.602C442.88 172.602 443.994 171.52 443.994 170.152C443.994 168.816 442.912 167.703 441.544 167.703C440.176 167.703 439.094 168.816 439.094 170.152Z" fill="white"/>
<path d="M439.094 170.152C439.094 171.52 440.176 172.602 441.544 172.602C442.88 172.602 443.994 171.52 443.994 170.152C443.994 168.816 442.912 167.703 441.544 167.703C440.176 167.703 439.094 168.816 439.094 170.152Z" fill="#E7CD1E"/>
<path d="M403.81 34.3296C403.81 36.4295 405.496 38.0841 407.564 38.0841C409.632 38.0841 411.319 36.3976 411.319 34.3296C411.319 32.2615 409.632 30.5753 407.564 30.5753C405.496 30.5753 403.81 32.2615 403.81 34.3296Z" fill="#2C1E4A"/>
<path d="M403.81 34.3296C403.81 36.4295 405.496 38.0841 407.564 38.0841C409.632 38.0841 411.319 36.3976 411.319 34.3296C411.319 32.2615 409.632 30.5753 407.564 30.5753C405.496 30.5753 403.81 32.2615 403.81 34.3296Z" fill="white"/>
<path d="M403.81 34.3296C403.81 36.4295 405.496 38.0841 407.564 38.0841C409.632 38.0841 411.319 36.3976 411.319 34.3296C411.319 32.2615 409.632 30.5753 407.564 30.5753C405.496 30.5753 403.81 32.2615 403.81 34.3296Z" fill="#E7CD1E"/>
<path d="M400.056 68.2775C400.056 72.4454 403.428 75.8179 407.596 75.8179C411.764 75.8179 415.136 72.4454 415.136 68.2775C415.136 64.1096 411.764 60.7371 407.596 60.7371C403.428 60.7371 400.056 64.1096 400.056 68.2775Z" fill="#2C1E4A"/>
<path d="M400.056 68.2775C400.056 72.4454 403.428 75.8179 407.596 75.8179C411.764 75.8179 415.136 72.4454 415.136 68.2775C415.136 64.1096 411.764 60.7371 407.596 60.7371C403.428 60.7371 400.056 64.1096 400.056 68.2775Z" fill="white"/>
<path d="M400.056 68.2775C400.056 72.4454 403.428 75.8179 407.596 75.8179C411.764 75.8179 415.136 72.4454 415.136 68.2775C415.136 64.1096 411.764 60.7371 407.596 60.7371C403.428 60.7371 400.056 64.1096 400.056 68.2775Z" fill="#E7CD1E"/>
<path d="M398.624 101.971C398.624 106.744 402.505 110.625 407.278 110.625C412.052 110.625 415.932 106.744 415.932 101.971C415.932 97.1972 412.052 93.3168 407.278 93.3168C402.505 93.286 398.624 97.1664 398.624 101.971Z" fill="#2C1E4A"/>
<path d="M398.624 101.971C398.624 106.744 402.505 110.625 407.278 110.625C412.052 110.625 415.932 106.744 415.932 101.971C415.932 97.1972 412.052 93.3168 407.278 93.3168C402.505 93.286 398.624 97.1664 398.624 101.971Z" fill="white"/>
<path d="M398.624 101.971C398.624 106.744 402.505 110.625 407.278 110.625C412.052 110.625 415.932 106.744 415.932 101.971C415.932 97.1972 412.052 93.3168 407.278 93.3168C402.505 93.286 398.624 97.1664 398.624 101.971Z" fill="#E7CD1E"/>
<path d="M400.724 136.205C400.724 139.991 403.81 143.077 407.596 143.077C411.382 143.077 414.468 139.991 414.468 136.205C414.468 132.418 411.382 129.332 407.596 129.332C403.778 129.332 400.724 132.387 400.724 136.205Z" fill="#2C1E4A"/>
<path d="M400.724 136.205C400.724 139.991 403.81 143.077 407.596 143.077C411.382 143.077 414.468 139.991 414.468 136.205C414.468 132.418 411.382 129.332 407.596 129.332C403.778 129.332 400.724 132.387 400.724 136.205Z" fill="white"/>
<path d="M400.724 136.205C400.724 139.991 403.81 143.077 407.596 143.077C411.382 143.077 414.468 139.991 414.468 136.205C414.468 132.418 411.382 129.332 407.596 129.332C403.778 129.332 400.724 132.387 400.724 136.205Z" fill="#E7CD1E"/>
<path d="M404.287 170.152C404.287 171.966 405.751 173.429 407.564 173.429C409.378 173.429 410.873 171.966 410.873 170.12C410.873 168.307 409.41 166.811 407.564 166.811C405.719 166.811 404.287 168.339 404.287 170.152Z" fill="#2C1E4A"/>
<path d="M404.287 170.152C404.287 171.966 405.751 173.429 407.564 173.429C409.378 173.429 410.873 171.966 410.873 170.12C410.873 168.307 409.41 166.811 407.564 166.811C405.719 166.811 404.287 168.339 404.287 170.152Z" fill="white"/>
<path d="M404.287 170.152C404.287 171.966 405.751 173.429 407.564 173.429C409.378 173.429 410.873 171.966 410.873 170.12C410.873 168.307 409.41 166.811 407.564 166.811C405.719 166.811 404.287 168.339 404.287 170.152Z" fill="#E7CD1E"/>
<path d="M369.576 34.3295C369.576 36.5566 371.389 38.3702 373.616 38.3702C375.844 38.3702 377.657 36.5566 377.657 34.3295C377.657 32.1024 375.844 30.289 373.616 30.289C371.389 30.289 369.576 32.1024 369.576 34.3295Z" fill="#2C1E4A"/>
<path d="M369.576 34.3295C369.576 36.5566 371.389 38.3702 373.616 38.3702C375.844 38.3702 377.657 36.5566 377.657 34.3295C377.657 32.1024 375.844 30.289 373.616 30.289C371.389 30.289 369.576 32.1024 369.576 34.3295Z" fill="white"/>
<path d="M369.576 34.3295C369.576 36.5566 371.389 38.3702 373.616 38.3702C375.844 38.3702 377.657 36.5566 377.657 34.3295C377.657 32.1024 375.844 30.289 373.616 30.289C371.389 30.289 369.576 32.1024 369.576 34.3295Z" fill="#E7CD1E"/>
<path d="M365.726 68.0845C365.726 72.3376 369.179 75.7835 373.44 75.7835C377.702 75.7835 381.186 72.3376 381.186 68.0534C381.186 63.7692 377.733 60.3233 373.44 60.3233C369.148 60.3233 365.726 63.8314 365.726 68.0845Z" fill="#2C1E4A"/>
<path d="M365.726 68.0845C365.726 72.3376 369.179 75.7835 373.44 75.7835C377.702 75.7835 381.186 72.3376 381.186 68.0534C381.186 63.7692 377.733 60.3233 373.44 60.3233C369.148 60.3233 365.726 63.8314 365.726 68.0845Z" fill="white"/>
<path d="M365.726 68.0845C365.726 72.3376 369.179 75.7835 373.44 75.7835C377.702 75.7835 381.186 72.3376 381.186 68.0534C381.186 63.7692 377.733 60.3233 373.44 60.3233C369.148 60.3233 365.726 63.8314 365.726 68.0845Z" fill="#E7CD1E"/>
<path d="M364.199 101.97C364.199 107.029 368.302 111.101 373.33 111.101C378.389 111.101 382.461 106.999 382.461 101.97C382.461 96.942 378.389 92.8391 373.33 92.8391C368.302 92.8391 364.199 96.9111 364.199 101.97Z" fill="#2C1E4A"/>
<path d="M364.199 101.97C364.199 107.029 368.302 111.101 373.33 111.101C378.389 111.101 382.461 106.999 382.461 101.97C382.461 96.942 378.389 92.8391 373.33 92.8391C368.302 92.8391 364.199 96.9111 364.199 101.97Z" fill="white"/>
<path d="M364.199 101.97C364.199 107.029 368.302 111.101 373.33 111.101C378.389 111.101 382.461 106.999 382.461 101.97C382.461 96.942 378.389 92.8391 373.33 92.8391C368.302 92.8391 364.199 96.9111 364.199 101.97Z" fill="#E7CD1E"/>
<path d="M366.267 136.585C366.267 140.835 369.714 144.315 373.997 144.315C378.28 144.315 381.727 140.868 381.727 136.585C381.727 132.302 378.28 128.855 373.997 128.855C369.747 128.855 366.267 132.302 366.267 136.585Z" fill="#2C1E4A"/>
<path d="M366.267 136.585C366.267 140.835 369.714 144.315 373.997 144.315C378.28 144.315 381.727 140.868 381.727 136.585C381.727 132.302 378.28 128.855 373.997 128.855C369.747 128.855 366.267 132.302 366.267 136.585Z" fill="white"/>
<path d="M366.267 136.585C366.267 140.835 369.714 144.315 373.997 144.315C378.28 144.315 381.727 140.868 381.727 136.585C381.727 132.302 378.28 128.855 373.997 128.855C369.747 128.855 366.267 132.302 366.267 136.585Z" fill="#E7CD1E"/>
<path d="M370.053 170.152C370.053 172.125 371.644 173.747 373.616 173.747C375.589 173.747 377.212 172.156 377.18 170.152C377.18 168.179 375.589 166.589 373.616 166.557C371.644 166.589 370.053 168.179 370.053 170.152Z" fill="#2C1E4A"/>
<path d="M370.053 170.152C370.053 172.125 371.644 173.747 373.616 173.747C375.589 173.747 377.212 172.156 377.18 170.152C377.18 168.179 375.589 166.589 373.616 166.557C371.644 166.589 370.053 168.179 370.053 170.152Z" fill="white"/>
<path d="M370.053 170.152C370.053 172.125 371.644 173.747 373.616 173.747C375.589 173.747 377.212 172.156 377.18 170.152C377.18 168.179 375.589 166.589 373.616 166.557C371.644 166.589 370.053 168.179 370.053 170.152Z" fill="#E7CD1E"/>
<path d="M335.819 34.3295C335.819 36.4612 337.537 38.1793 339.669 38.1793C341.801 38.1793 343.518 36.4612 343.518 34.3295C343.518 32.1978 341.801 30.4799 339.669 30.4799C337.537 30.4799 335.819 32.1978 335.819 34.3295Z" fill="#2C1E4A"/>
<path d="M335.819 34.3295C335.819 36.4612 337.537 38.1793 339.669 38.1793C341.801 38.1793 343.518 36.4612 343.518 34.3295C343.518 32.1978 341.801 30.4799 339.669 30.4799C337.537 30.4799 335.819 32.1978 335.819 34.3295Z" fill="white"/>
<path d="M335.819 34.3295C335.819 36.4612 337.537 38.1793 339.669 38.1793C341.801 38.1793 343.518 36.4612 343.518 34.3295C343.518 32.1978 341.801 30.4799 339.669 30.4799C337.537 30.4799 335.819 32.1978 335.819 34.3295Z" fill="#E7CD1E"/>
<path d="M331.937 68.2771C331.937 72.5405 335.405 76.0084 339.669 76.0084C343.932 76.0084 347.4 72.5405 347.4 68.2771C347.4 64.0138 343.932 60.5458 339.669 60.5458C335.405 60.5777 331.937 64.0138 331.937 68.2771Z" fill="#2C1E4A"/>
<path d="M331.937 68.2771C331.937 72.5405 335.405 76.0084 339.669 76.0084C343.932 76.0084 347.4 72.5405 347.4 68.2771C347.4 64.0138 343.932 60.5458 339.669 60.5458C335.405 60.5777 331.937 64.0138 331.937 68.2771Z" fill="white"/>
<path d="M331.937 68.2771C331.937 72.5405 335.405 76.0084 339.669 76.0084C343.932 76.0084 347.4 72.5405 347.4 68.2771C347.4 64.0138 343.932 60.5458 339.669 60.5458C335.405 60.5777 331.937 64.0138 331.937 68.2771Z" fill="#E7CD1E"/>
<path d="M330.538 102.257C330.538 107.316 334.642 111.388 339.669 111.388C344.728 111.388 348.8 107.284 348.8 102.257C348.8 97.2299 344.696 93.1257 339.669 93.1257C334.642 93.1257 330.538 97.1981 330.538 102.257Z" fill="#2C1E4A"/>
<path d="M330.538 102.257C330.538 107.316 334.642 111.388 339.669 111.388C344.728 111.388 348.8 107.284 348.8 102.257C348.8 97.2299 344.696 93.1257 339.669 93.1257C334.642 93.1257 330.538 97.1981 330.538 102.257Z" fill="white"/>
<path d="M330.538 102.257C330.538 107.316 334.642 111.388 339.669 111.388C344.728 111.388 348.8 107.284 348.8 102.257C348.8 97.2299 344.696 93.1257 339.669 93.1257C334.642 93.1257 330.538 97.1981 330.538 102.257Z" fill="#E7CD1E"/>
<path d="M332.51 136.776C332.51 141.036 335.98 144.506 340.24 144.506C344.5 144.506 347.97 141.036 347.97 136.776C347.97 132.516 344.5 129.046 340.24 129.046C335.98 129.046 332.51 132.516 332.51 136.776Z" fill="#2C1E4A"/>
<path d="M332.51 136.776C332.51 141.036 335.98 144.506 340.24 144.506C344.5 144.506 347.97 141.036 347.97 136.776C347.97 132.516 344.5 129.046 340.24 129.046C335.98 129.046 332.51 132.516 332.51 136.776Z" fill="white"/>
<path d="M332.51 136.776C332.51 141.036 335.98 144.506 340.24 144.506C344.5 144.506 347.97 141.036 347.97 136.776C347.97 132.516 344.5 129.046 340.24 129.046C335.98 129.046 332.51 132.516 332.51 136.776Z" fill="#E7CD1E"/>
<path d="M336.264 170.153C336.264 172.03 337.792 173.525 339.669 173.525C341.546 173.525 343.073 171.998 343.073 170.121C343.073 168.244 341.546 166.748 339.669 166.748C337.792 166.78 336.264 168.275 336.264 170.153Z" fill="#2C1E4A"/>
<path d="M336.264 170.153C336.264 172.03 337.792 173.525 339.669 173.525C341.546 173.525 343.073 171.998 343.073 170.121C343.073 168.244 341.546 166.748 339.669 166.748C337.792 166.78 336.264 168.275 336.264 170.153Z" fill="white"/>
<path d="M336.264 170.153C336.264 172.03 337.792 173.525 339.669 173.525C341.546 173.525 343.073 171.998 343.073 170.121C343.073 168.244 341.546 166.748 339.669 166.748C337.792 166.78 336.264 168.275 336.264 170.153Z" fill="#E7CD1E"/>
<path d="M302.125 34.3294C302.125 36.302 303.748 37.9247 305.721 37.9247C307.693 37.9247 309.316 36.3338 309.284 34.3294C309.284 32.3568 307.693 30.7344 305.721 30.7344C303.748 30.7344 302.125 32.3568 302.125 34.3294Z" fill="#2C1E4A"/>
<path d="M302.125 34.3294C302.125 36.302 303.748 37.9247 305.721 37.9247C307.693 37.9247 309.316 36.3338 309.284 34.3294C309.284 32.3568 307.693 30.7344 305.721 30.7344C303.748 30.7344 302.125 32.3568 302.125 34.3294Z" fill="white"/>
<path d="M302.125 34.3294C302.125 36.302 303.748 37.9247 305.721 37.9247C307.693 37.9247 309.316 36.3338 309.284 34.3294C309.284 32.3568 307.693 30.7344 305.721 30.7344C303.748 30.7344 302.125 32.3568 302.125 34.3294Z" fill="#E7CD1E"/>
<path d="M298.562 68.8488C298.562 73.1089 302.032 76.5789 306.292 76.5789C310.553 76.5789 314.022 73.1089 314.022 68.8488C314.022 64.5886 310.553 61.1187 306.292 61.1187C301.998 61.1187 298.562 64.5886 298.562 68.8488Z" fill="#2C1E4A"/>
<path d="M298.562 68.8488C298.562 73.1089 302.032 76.5789 306.292 76.5789C310.553 76.5789 314.022 73.1089 314.022 68.8488C314.022 64.5886 310.553 61.1187 306.292 61.1187C301.998 61.1187 298.562 64.5886 298.562 68.8488Z" fill="white"/>
<path d="M298.562 68.8488C298.562 73.1089 302.032 76.5789 306.292 76.5789C310.553 76.5789 314.022 73.1089 314.022 68.8488C314.022 64.5886 310.553 61.1187 306.292 61.1187C301.998 61.1187 298.562 64.5886 298.562 68.8488Z" fill="#E7CD1E"/>
<path d="M297.035 102.257C297.035 107.029 300.917 110.911 305.689 110.911C310.461 110.911 314.343 107.029 314.343 102.257C314.343 97.4844 310.461 93.6027 305.689 93.6027C300.917 93.5709 297.035 97.4526 297.035 102.257Z" fill="#2C1E4A"/>
<path d="M297.035 102.257C297.035 107.029 300.917 110.911 305.689 110.911C310.461 110.911 314.343 107.029 314.343 102.257C314.343 97.4844 310.461 93.6027 305.689 93.6027C300.917 93.5709 297.035 97.4526 297.035 102.257Z" fill="white"/>
<path d="M297.035 102.257C297.035 107.029 300.917 110.911 305.689 110.911C310.461 110.911 314.343 107.029 314.343 102.257C314.343 97.4844 310.461 93.6027 305.689 93.6027C300.917 93.5709 297.035 97.4526 297.035 102.257Z" fill="#E7CD1E"/>
<path d="M299.103 137.349C299.103 141.606 302.576 145.079 306.833 145.079C311.09 145.079 314.563 141.606 314.563 137.349C314.563 133.091 311.09 129.618 306.833 129.618C302.576 129.618 299.103 133.054 299.103 137.349Z" fill="#2C1E4A"/>
<path d="M299.103 137.349C299.103 141.606 302.576 145.079 306.833 145.079C311.09 145.079 314.563 141.606 314.563 137.349C314.563 133.091 311.09 129.618 306.833 129.618C302.576 129.618 299.103 133.054 299.103 137.349Z" fill="white"/>
<path d="M299.103 137.349C299.103 141.606 302.576 145.079 306.833 145.079C311.09 145.079 314.563 141.606 314.563 137.349C314.563 133.091 311.09 129.618 306.833 129.618C302.576 129.618 299.103 133.054 299.103 137.349Z" fill="#E7CD1E"/>
<path d="M302.507 170.152C302.507 171.902 303.939 173.366 305.721 173.366C307.502 173.366 308.934 171.934 308.934 170.152C308.934 168.371 307.502 166.939 305.721 166.939C303.939 166.939 302.507 168.402 302.507 170.152Z" fill="#2C1E4A"/>
<path d="M302.507 170.152C302.507 171.902 303.939 173.366 305.721 173.366C307.502 173.366 308.934 171.934 308.934 170.152C308.934 168.371 307.502 166.939 305.721 166.939C303.939 166.939 302.507 168.402 302.507 170.152Z" fill="white"/>
<path d="M302.507 170.152C302.507 171.902 303.939 173.366 305.721 173.366C307.502 173.366 308.934 171.934 308.934 170.152C308.934 168.371 307.502 166.939 305.721 166.939C303.939 166.939 302.507 168.402 302.507 170.152Z" fill="#E7CD1E"/>
<path d="M268.56 34.3295C268.56 36.1112 269.992 37.543 271.774 37.543C273.555 37.543 274.987 36.1112 274.987 34.3295C274.987 32.5478 273.555 31.1163 271.774 31.1163C269.992 31.1163 268.56 32.5478 268.56 34.3295Z" fill="#2C1E4A"/>
<path d="M268.56 34.3295C268.56 36.1112 269.992 37.543 271.774 37.543C273.555 37.543 274.987 36.1112 274.987 34.3295C274.987 32.5478 273.555 31.1163 271.774 31.1163C269.992 31.1163 268.56 32.5478 268.56 34.3295Z" fill="white"/>
<path d="M268.56 34.3295C268.56 36.1112 269.992 37.543 271.774 37.543C273.555 37.543 274.987 36.1112 274.987 34.3295C274.987 32.5478 273.555 31.1163 271.774 31.1163C269.992 31.1163 268.56 32.5478 268.56 34.3295Z" fill="#E7CD1E"/>
<path d="M265.251 68.2773C265.251 71.8725 268.146 74.7677 271.741 74.7677C275.337 74.7677 278.232 71.8725 278.232 68.2773C278.232 64.6821 275.337 61.7867 271.741 61.7867C268.178 61.7867 265.251 64.7139 265.251 68.2773Z" fill="#2C1E4A"/>
<path d="M265.251 68.2773C265.251 71.8725 268.146 74.7677 271.741 74.7677C275.337 74.7677 278.232 71.8725 278.232 68.2773C278.232 64.6821 275.337 61.7867 271.741 61.7867C268.178 61.7867 265.251 64.7139 265.251 68.2773Z" fill="white"/>
<path d="M265.251 68.2773C265.251 71.8725 268.146 74.7677 271.741 74.7677C275.337 74.7677 278.232 71.8725 278.232 68.2773C278.232 64.6821 275.337 61.7867 271.741 61.7867C268.178 61.7867 265.251 64.7139 265.251 68.2773Z" fill="#E7CD1E"/>
<path d="M263.946 102.257C263.946 106.584 267.446 110.084 271.773 110.084C276.1 110.084 279.6 106.584 279.6 102.257C279.6 97.93 276.1 94.4301 271.773 94.4301C267.446 94.4301 263.946 97.93 263.946 102.257Z" fill="#2C1E4A"/>
<path d="M263.946 102.257C263.946 106.584 267.446 110.084 271.773 110.084C276.1 110.084 279.6 106.584 279.6 102.257C279.6 97.93 276.1 94.4301 271.773 94.4301C267.446 94.4301 263.946 97.93 263.946 102.257Z" fill="white"/>
<path d="M263.946 102.257C263.946 106.584 267.446 110.084 271.773 110.084C276.1 110.084 279.6 106.584 279.6 102.257C279.6 97.93 276.1 94.4301 271.773 94.4301C267.446 94.4301 263.946 97.93 263.946 102.257Z" fill="#E7CD1E"/>
<path d="M265.823 136.205C265.823 139.482 268.465 142.122 271.742 142.122C275.019 142.122 277.659 139.482 277.659 136.205C277.659 132.927 275.019 130.287 271.742 130.287C268.465 130.255 265.823 132.927 265.823 136.205Z" fill="#2C1E4A"/>
<path d="M265.823 136.205C265.823 139.482 268.465 142.122 271.742 142.122C275.019 142.122 277.659 139.482 277.659 136.205C277.659 132.927 275.019 130.287 271.742 130.287C268.465 130.255 265.823 132.927 265.823 136.205Z" fill="white"/>
<path d="M265.823 136.205C265.823 139.482 268.465 142.122 271.742 142.122C275.019 142.122 277.659 139.482 277.659 136.205C277.659 132.927 275.019 130.287 271.742 130.287C268.465 130.255 265.823 132.927 265.823 136.205Z" fill="#E7CD1E"/>
<path d="M269.037 170.152C269.037 171.648 270.246 172.889 271.773 172.889C273.269 172.889 274.51 171.679 274.51 170.152C274.51 168.657 273.269 167.416 271.773 167.416C270.246 167.416 269.037 168.657 269.037 170.152Z" fill="#2C1E4A"/>
<path d="M269.037 170.152C269.037 171.648 270.246 172.889 271.773 172.889C273.269 172.889 274.51 171.679 274.51 170.152C274.51 168.657 273.269 167.416 271.773 167.416C270.246 167.416 269.037 168.657 269.037 170.152Z" fill="white"/>
<path d="M269.037 170.152C269.037 171.648 270.246 172.889 271.773 172.889C273.269 172.889 274.51 171.679 274.51 170.152C274.51 168.657 273.269 167.416 271.773 167.416C270.246 167.416 269.037 168.657 269.037 170.152Z" fill="#E7CD1E"/>
<path d="M235.153 34.3293C235.153 35.7929 236.33 36.9701 237.793 36.9701C239.257 36.9701 240.434 35.7929 240.434 34.3293C240.434 32.8658 239.257 31.6887 237.793 31.6887C236.33 31.6887 235.153 32.8658 235.153 34.3293Z" fill="#2C1E4A"/>
<path d="M235.153 34.3293C235.153 35.7929 236.33 36.9701 237.793 36.9701C239.257 36.9701 240.434 35.7929 240.434 34.3293C240.434 32.8658 239.257 31.6887 237.793 31.6887C236.33 31.6887 235.153 32.8658 235.153 34.3293Z" fill="white"/>
<path d="M235.153 34.3293C235.153 35.7929 236.33 36.9701 237.793 36.9701C239.257 36.9701 240.434 35.7929 240.434 34.3293C240.434 32.8658 239.257 31.6887 237.793 31.6887C236.33 31.6887 235.153 32.8658 235.153 34.3293Z" fill="#E7CD1E"/>
<path d="M232.162 68.2771C232.162 71.3951 234.675 73.9084 237.825 73.9084C240.975 73.9084 243.489 71.3951 243.489 68.2771C243.489 65.1591 240.975 62.6138 237.825 62.6138C234.675 62.6456 232.162 65.1592 232.162 68.2771Z" fill="#2C1E4A"/>
<path d="M232.162 68.2771C232.162 71.3951 234.675 73.9084 237.825 73.9084C240.975 73.9084 243.489 71.3951 243.489 68.2771C243.489 65.1591 240.975 62.6138 237.825 62.6138C234.675 62.6456 232.162 65.1592 232.162 68.2771Z" fill="white"/>
<path d="M232.162 68.2771C232.162 71.3951 234.675 73.9084 237.825 73.9084C240.975 73.9084 243.489 71.3951 243.489 68.2771C243.489 65.1591 240.975 62.6138 237.825 62.6138C234.675 62.6456 232.162 65.1592 232.162 68.2771Z" fill="#E7CD1E"/>
<path d="M230.921 102.257C230.921 106.043 234.008 109.129 237.794 109.129C241.58 109.129 244.666 106.043 244.666 102.257C244.666 98.4707 241.58 95.3845 237.794 95.3845C234.008 95.3526 230.921 98.4389 230.921 102.257Z" fill="#2C1E4A"/>
<path d="M230.921 102.257C230.921 106.043 234.008 109.129 237.794 109.129C241.58 109.129 244.666 106.043 244.666 102.257C244.666 98.4707 241.58 95.3845 237.794 95.3845C234.008 95.3526 230.921 98.4389 230.921 102.257Z" fill="white"/>
<path d="M230.921 102.257C230.921 106.043 234.008 109.129 237.794 109.129C241.58 109.129 244.666 106.043 244.666 102.257C244.666 98.4707 241.58 95.3845 237.794 95.3845C234.008 95.3526 230.921 98.4389 230.921 102.257Z" fill="#E7CD1E"/>
<path d="M232.703 136.205C232.703 139.005 234.962 141.295 237.794 141.295C240.593 141.295 242.884 139.036 242.884 136.205C242.884 133.405 240.625 131.114 237.794 131.114C234.994 131.114 232.703 133.405 232.703 136.205Z" fill="#2C1E4A"/>
<path d="M232.703 136.205C232.703 139.005 234.962 141.295 237.794 141.295C240.593 141.295 242.884 139.036 242.884 136.205C242.884 133.405 240.625 131.114 237.794 131.114C234.994 131.114 232.703 133.405 232.703 136.205Z" fill="white"/>
<path d="M232.703 136.205C232.703 139.005 234.962 141.295 237.794 141.295C240.593 141.295 242.884 139.036 242.884 136.205C242.884 133.405 240.625 131.114 237.794 131.114C234.994 131.114 232.703 133.405 232.703 136.205Z" fill="#E7CD1E"/>
<path d="M235.439 170.152C235.439 171.457 236.489 172.507 237.794 172.507C239.098 172.507 240.148 171.457 240.148 170.152C240.148 168.848 239.098 167.798 237.794 167.798C236.489 167.798 235.439 168.848 235.439 170.152Z" fill="#2C1E4A"/>
<path d="M235.439 170.152C235.439 171.457 236.489 172.507 237.794 172.507C239.098 172.507 240.148 171.457 240.148 170.152C240.148 168.848 239.098 167.798 237.794 167.798C236.489 167.798 235.439 168.848 235.439 170.152Z" fill="white"/>
<path d="M235.439 170.152C235.439 171.457 236.489 172.507 237.794 172.507C239.098 172.507 240.148 171.457 240.148 170.152C240.148 168.848 239.098 167.798 237.794 167.798C236.489 167.798 235.439 168.848 235.439 170.152Z" fill="#E7CD1E"/>
<path d="M201.587 34.3294C201.587 35.5703 202.605 36.5885 203.845 36.5885C205.086 36.5884 206.105 35.5703 206.105 34.3294C206.105 33.0886 205.086 32.0706 203.845 32.0706C202.605 32.0706 201.587 33.0886 201.587 34.3294Z" fill="#2C1E4A"/>
<path d="M201.587 34.3294C201.587 35.5703 202.605 36.5885 203.845 36.5885C205.086 36.5884 206.105 35.5703 206.105 34.3294C206.105 33.0886 205.086 32.0706 203.845 32.0706C202.605 32.0706 201.587 33.0886 201.587 34.3294Z" fill="white"/>
<path d="M201.587 34.3294C201.587 35.5703 202.605 36.5885 203.845 36.5885C205.086 36.5884 206.105 35.5703 206.105 34.3294C206.105 33.0886 205.086 32.0706 203.845 32.0706C202.605 32.0706 201.587 33.0886 201.587 34.3294Z" fill="#E7CD1E"/>
<path d="M199.232 68.2774C199.232 70.8227 201.3 72.8907 203.846 72.8907C206.391 72.8907 208.459 70.8227 208.459 68.2774C208.459 65.7321 206.391 63.664 203.846 63.664C201.3 63.664 199.232 65.7321 199.232 68.2774Z" fill="#2C1E4A"/>
<path d="M199.232 68.2774C199.232 70.8227 201.3 72.8907 203.846 72.8907C206.391 72.8907 208.459 70.8227 208.459 68.2774C208.459 65.7321 206.391 63.664 203.846 63.664C201.3 63.664 199.232 65.7321 199.232 68.2774Z" fill="white"/>
<path d="M199.232 68.2774C199.232 70.8227 201.3 72.8907 203.846 72.8907C206.391 72.8907 208.459 70.8227 208.459 68.2774C208.459 65.7321 206.391 63.664 203.846 63.664C201.3 63.664 199.232 65.7321 199.232 68.2774Z" fill="#E7CD1E"/>
<path d="M198.087 102.257C198.087 105.438 200.664 108.015 203.846 108.015C207.027 108.015 209.605 105.438 209.605 102.257C209.605 99.0751 207.027 96.498 203.846 96.5298C200.664 96.498 198.087 99.0751 198.087 102.257Z" fill="#2C1E4A"/>
<path d="M198.087 102.257C198.087 105.438 200.664 108.015 203.846 108.015C207.027 108.015 209.605 105.438 209.605 102.257C209.605 99.0751 207.027 96.498 203.846 96.5298C200.664 96.498 198.087 99.0751 198.087 102.257Z" fill="white"/>
<path d="M198.087 102.257C198.087 105.438 200.664 108.015 203.846 108.015C207.027 108.015 209.605 105.438 209.605 102.257C209.605 99.0751 207.027 96.498 203.846 96.5298C200.664 96.498 198.087 99.0751 198.087 102.257Z" fill="#E7CD1E"/>
<path d="M199.614 136.204C199.614 138.527 201.523 140.436 203.846 140.436C206.2 140.436 208.077 138.527 208.077 136.204C208.077 133.85 206.168 131.973 203.846 131.973C201.491 131.973 199.614 133.85 199.614 136.204Z" fill="#2C1E4A"/>
<path d="M199.614 136.204C199.614 138.527 201.523 140.436 203.846 140.436C206.2 140.436 208.077 138.527 208.077 136.204C208.077 133.85 206.168 131.973 203.846 131.973C201.491 131.973 199.614 133.85 199.614 136.204Z" fill="white"/>
<path d="M199.614 136.204C199.614 138.527 201.523 140.436 203.846 140.436C206.2 140.436 208.077 138.527 208.077 136.204C208.077 133.85 206.168 131.973 203.846 131.973C201.491 131.973 199.614 133.85 199.614 136.204Z" fill="#E7CD1E"/>
<path d="M201.873 170.152C201.873 171.234 202.764 172.125 203.846 172.125C204.928 172.125 205.818 171.234 205.818 170.152C205.818 169.07 204.928 168.179 203.846 168.179C202.732 168.179 201.873 169.07 201.873 170.152Z" fill="#2C1E4A"/>
<path d="M201.873 170.152C201.873 171.234 202.764 172.125 203.846 172.125C204.928 172.125 205.818 171.234 205.818 170.152C205.818 169.07 204.928 168.179 203.846 168.179C202.732 168.179 201.873 169.07 201.873 170.152Z" fill="white"/>
<path d="M201.873 170.152C201.873 171.234 202.764 172.125 203.846 172.125C204.928 172.125 205.818 171.234 205.818 170.152C205.818 169.07 204.928 168.179 203.846 168.179C202.732 168.179 201.873 169.07 201.873 170.152Z" fill="#E7CD1E"/>
<path d="M203.846 204.482C204.057 204.482 204.227 204.311 204.227 204.1C204.227 203.889 204.057 203.718 203.846 203.718C203.635 203.718 203.464 203.889 203.464 204.1C203.464 204.311 203.635 204.482 203.846 204.482Z" fill="#2C1E4A"/>
<path d="M203.846 204.482C204.057 204.482 204.227 204.311 204.227 204.1C204.227 203.889 204.057 203.718 203.846 203.718C203.635 203.718 203.464 203.889 203.464 204.1C203.464 204.311 203.635 204.482 203.846 204.482Z" fill="white"/>
<path d="M203.846 204.482C204.057 204.482 204.227 204.311 204.227 204.1C204.227 203.889 204.057 203.718 203.846 203.718C203.635 203.718 203.464 203.889 203.464 204.1C203.464 204.311 203.635 204.482 203.846 204.482Z" fill="#E7CD1E"/>
<path d="M169.516 0.381839C169.516 0.604551 169.675 0.763616 169.898 0.763616C170.121 0.763616 170.28 0.604551 170.28 0.381839C170.28 0.159126 170.121 6.09364e-05 169.898 6.09728e-05C169.675 6.10092e-05 169.516 0.159126 169.516 0.381839Z" fill="#2C1E4A"/>
<path d="M169.516 0.381839C169.516 0.604551 169.675 0.763616 169.898 0.763616C170.121 0.763616 170.28 0.604551 170.28 0.381839C170.28 0.159126 170.121 6.09364e-05 169.898 6.09728e-05C169.675 6.10092e-05 169.516 0.159126 169.516 0.381839Z" fill="white"/>
<path d="M169.516 0.381839C169.516 0.604551 169.675 0.763616 169.898 0.763616C170.121 0.763616 170.28 0.604551 170.28 0.381839C170.28 0.159126 170.121 6.09364e-05 169.898 6.09728e-05C169.675 6.10092e-05 169.516 0.159126 169.516 0.381839Z" fill="#E7CD1E"/>
<path d="M168.084 34.3294C168.084 35.3157 168.88 36.1113 169.866 36.1113C170.852 36.1113 171.648 35.3157 171.648 34.3294C171.648 33.3431 170.852 32.5477 169.866 32.5477C168.88 32.5477 168.084 33.3431 168.084 34.3294Z" fill="#2C1E4A"/>
<path d="M168.084 34.3294C168.084 35.3157 168.88 36.1113 169.866 36.1113C170.852 36.1113 171.648 35.3157 171.648 34.3294C171.648 33.3431 170.852 32.5477 169.866 32.5477C168.88 32.5477 168.084 33.3431 168.084 34.3294Z" fill="white"/>
<path d="M168.084 34.3294C168.084 35.3157 168.88 36.1113 169.866 36.1113C170.852 36.1113 171.648 35.3157 171.648 34.3294C171.648 33.3431 170.852 32.5477 169.866 32.5477C168.88 32.5477 168.084 33.3431 168.084 34.3294Z" fill="#E7CD1E"/>
<path d="M166.207 68.2775C166.207 70.3137 167.862 71.9362 169.866 71.9362C171.902 71.9362 173.525 70.2819 173.557 68.2775C173.557 66.2412 171.902 64.6185 169.866 64.6185C167.862 64.6185 166.207 66.273 166.207 68.2775Z" fill="#2C1E4A"/>
<path d="M166.207 68.2775C166.207 70.3137 167.862 71.9362 169.866 71.9362C171.902 71.9362 173.525 70.2819 173.557 68.2775C173.557 66.2412 171.902 64.6185 169.866 64.6185C167.862 64.6185 166.207 66.273 166.207 68.2775Z" fill="white"/>
<path d="M166.207 68.2775C166.207 70.3137 167.862 71.9362 169.866 71.9362C171.902 71.9362 173.525 70.2819 173.557 68.2775C173.557 66.2412 171.902 64.6185 169.866 64.6185C167.862 64.6185 166.207 66.273 166.207 68.2775Z" fill="#E7CD1E"/>
<path d="M165.285 102.257C165.285 104.802 167.353 106.87 169.898 106.87C172.444 106.87 174.511 104.802 174.511 102.257C174.511 99.7116 172.444 97.6435 169.898 97.6435C167.321 97.6435 165.285 99.6798 165.285 102.257Z" fill="#2C1E4A"/>
<path d="M165.285 102.257C165.285 104.802 167.353 106.87 169.898 106.87C172.444 106.87 174.511 104.802 174.511 102.257C174.511 99.7116 172.444 97.6435 169.898 97.6435C167.321 97.6435 165.285 99.6798 165.285 102.257Z" fill="white"/>
<path d="M165.285 102.257C165.285 104.802 167.353 106.87 169.898 106.87C172.444 106.87 174.511 104.802 174.511 102.257C174.511 99.7116 172.444 97.6435 169.898 97.6435C167.321 97.6435 165.285 99.6798 165.285 102.257Z" fill="#E7CD1E"/>
<path d="M166.589 136.205C166.589 138.018 168.053 139.482 169.866 139.482C171.68 139.482 173.175 138.018 173.175 136.173C173.175 134.36 171.712 132.896 169.866 132.896C168.053 132.896 166.589 134.391 166.589 136.205Z" fill="#2C1E4A"/>
<path d="M166.589 136.205C166.589 138.018 168.053 139.482 169.866 139.482C171.68 139.482 173.175 138.018 173.175 136.173C173.175 134.36 171.712 132.896 169.866 132.896C168.053 132.896 166.589 134.391 166.589 136.205Z" fill="white"/>
<path d="M166.589 136.205C166.589 138.018 168.053 139.482 169.866 139.482C171.68 139.482 173.175 138.018 173.175 136.173C173.175 134.36 171.712 132.896 169.866 132.896C168.053 132.896 166.589 134.391 166.589 136.205Z" fill="#E7CD1E"/>
<path d="M168.275 170.153C168.275 171.044 169.007 171.743 169.866 171.743C170.757 171.743 171.457 171.012 171.457 170.153C171.457 169.262 170.725 168.562 169.866 168.562C169.007 168.562 168.275 169.262 168.275 170.153Z" fill="#2C1E4A"/>
<path d="M168.275 170.153C168.275 171.044 169.007 171.743 169.866 171.743C170.757 171.743 171.457 171.012 171.457 170.153C171.457 169.262 170.725 168.562 169.866 168.562C169.007 168.562 168.275 169.262 168.275 170.153Z" fill="white"/>
<path d="M168.275 170.153C168.275 171.044 169.007 171.743 169.866 171.743C170.757 171.743 171.457 171.012 171.457 170.153C171.457 169.262 170.725 168.562 169.866 168.562C169.007 168.562 168.275 169.262 168.275 170.153Z" fill="#E7CD1E"/>
<path d="M169.611 204.1C169.611 204.259 169.739 204.387 169.898 204.387C170.057 204.387 170.184 204.259 170.184 204.1C170.184 203.941 170.057 203.814 169.898 203.814C169.707 203.846 169.579 203.973 169.611 204.1Z" fill="#2C1E4A"/>
<path d="M169.611 204.1C169.611 204.259 169.739 204.387 169.898 204.387C170.057 204.387 170.184 204.259 170.184 204.1C170.184 203.941 170.057 203.814 169.898 203.814C169.707 203.846 169.579 203.973 169.611 204.1Z" fill="white"/>
<path d="M169.611 204.1C169.611 204.259 169.739 204.387 169.898 204.387C170.057 204.387 170.184 204.259 170.184 204.1C170.184 203.941 170.057 203.814 169.898 203.814C169.707 203.846 169.579 203.973 169.611 204.1Z" fill="#E7CD1E"/>
<path d="M135.632 0.381695C135.632 0.540776 135.759 0.668126 135.918 0.668126C136.077 0.668125 136.205 0.540776 136.205 0.381695C136.205 0.222615 136.077 0.0954589 135.918 0.0954589C135.759 0.095459 135.632 0.222615 135.632 0.381695Z" fill="#2C1E4A"/>
<path d="M135.632 0.381695C135.632 0.540776 135.759 0.668126 135.918 0.668126C136.077 0.668125 136.205 0.540776 136.205 0.381695C136.205 0.222615 136.077 0.0954589 135.918 0.0954589C135.759 0.095459 135.632 0.222615 135.632 0.381695Z" fill="white"/>
<path d="M135.632 0.381695C135.632 0.540776 135.759 0.668126 135.918 0.668126C136.077 0.668125 136.205 0.540776 136.205 0.381695C136.205 0.222615 136.077 0.0954589 135.918 0.0954589C135.759 0.095459 135.632 0.222615 135.632 0.381695Z" fill="#E7CD1E"/>
<path d="M134.614 34.3296C134.614 35.0613 135.218 35.666 135.95 35.666C136.682 35.666 137.255 35.0613 137.287 34.3296C137.287 33.5978 136.682 33.0252 135.95 32.9933C135.187 33.0252 134.614 33.5978 134.614 34.3296Z" fill="#2C1E4A"/>
<path d="M134.614 34.3296C134.614 35.0613 135.218 35.666 135.95 35.666C136.682 35.666 137.255 35.0613 137.287 34.3296C137.287 33.5978 136.682 33.0252 135.95 32.9933C135.187 33.0252 134.614 33.5978 134.614 34.3296Z" fill="white"/>
<path d="M134.614 34.3296C134.614 35.0613 135.218 35.666 135.95 35.666C136.682 35.666 137.255 35.0613 137.287 34.3296C137.287 33.5978 136.682 33.0252 135.95 32.9933C135.187 33.0252 134.614 33.5978 134.614 34.3296Z" fill="#E7CD1E"/>
<path d="M133.182 68.2775C133.182 69.7728 134.391 71.0136 135.918 71.0136C137.414 71.0136 138.654 69.7728 138.654 68.2775C138.654 66.7821 137.414 65.5413 135.918 65.5413C134.423 65.5731 133.182 66.7821 133.182 68.2775Z" fill="#2C1E4A"/>
<path d="M133.182 68.2775C133.182 69.7728 134.391 71.0136 135.918 71.0136C137.414 71.0136 138.654 69.7728 138.654 68.2775C138.654 66.7821 137.414 65.5413 135.918 65.5413C134.423 65.5731 133.182 66.7821 133.182 68.2775Z" fill="white"/>
<path d="M133.182 68.2775C133.182 69.7728 134.391 71.0136 135.918 71.0136C137.414 71.0136 138.654 69.7728 138.654 68.2775C138.654 66.7821 137.414 65.5413 135.918 65.5413C134.423 65.5731 133.182 66.7821 133.182 68.2775Z" fill="#E7CD1E"/>
<path d="M132.45 102.257C132.45 104.166 134.009 105.757 135.95 105.757C137.859 105.757 139.418 104.198 139.45 102.257C139.45 100.348 137.891 98.7889 135.95 98.7571C134.009 98.7571 132.45 100.316 132.45 102.257Z" fill="#2C1E4A"/>
<path d="M132.45 102.257C132.45 104.166 134.009 105.757 135.95 105.757C137.859 105.757 139.418 104.198 139.45 102.257C139.45 100.348 137.891 98.7889 135.95 98.7571C134.009 98.7571 132.45 100.316 132.45 102.257Z" fill="white"/>
<path d="M132.45 102.257C132.45 104.166 134.009 105.757 135.95 105.757C137.859 105.757 139.418 104.198 139.45 102.257C139.45 100.348 137.891 98.7889 135.95 98.7571C134.009 98.7571 132.45 100.316 132.45 102.257Z" fill="#E7CD1E"/>
<path d="M133.469 136.205C133.469 137.541 134.55 138.655 135.918 138.655C137.255 138.655 138.368 137.541 138.368 136.205C138.368 134.837 137.255 133.755 135.918 133.755C134.582 133.755 133.469 134.837 133.469 136.205Z" fill="#2C1E4A"/>
<path d="M133.469 136.205C133.469 137.541 134.55 138.655 135.918 138.655C137.255 138.655 138.368 137.541 138.368 136.205C138.368 134.837 137.255 133.755 135.918 133.755C134.582 133.755 133.469 134.837 133.469 136.205Z" fill="white"/>
<path d="M133.469 136.205C133.469 137.541 134.55 138.655 135.918 138.655C137.255 138.655 138.368 137.541 138.368 136.205C138.368 134.837 137.255 133.755 135.918 133.755C134.582 133.755 133.469 134.837 133.469 136.205Z" fill="#E7CD1E"/>
<path d="M134.709 170.152C134.709 170.82 135.25 171.393 135.95 171.361C136.618 171.361 137.159 170.82 137.159 170.152C137.159 169.484 136.618 168.943 135.95 168.912C135.25 168.943 134.709 169.484 134.709 170.152Z" fill="#2C1E4A"/>
<path d="M134.709 170.152C134.709 170.82 135.25 171.393 135.95 171.361C136.618 171.361 137.159 170.82 137.159 170.152C137.159 169.484 136.618 168.943 135.95 168.912C135.25 168.943 134.709 169.484 134.709 170.152Z" fill="white"/>
<path d="M134.709 170.152C134.709 170.82 135.25 171.393 135.95 171.361C136.618 171.361 137.159 170.82 137.159 170.152C137.159 169.484 136.618 168.943 135.95 168.912C135.25 168.943 134.709 169.484 134.709 170.152Z" fill="#E7CD1E"/>
<path d="M135.632 204.1C135.632 204.259 135.759 204.386 135.918 204.386C136.077 204.386 136.205 204.259 136.205 204.1C136.205 203.941 136.077 203.814 135.918 203.814C135.759 203.846 135.632 203.973 135.632 204.1Z" fill="#2C1E4A"/>
<path d="M135.632 204.1C135.632 204.259 135.759 204.386 135.918 204.386C136.077 204.386 136.205 204.259 136.205 204.1C136.205 203.941 136.077 203.814 135.918 203.814C135.759 203.846 135.632 203.973 135.632 204.1Z" fill="white"/>
<path d="M135.632 204.1C135.632 204.259 135.759 204.386 135.918 204.386C136.077 204.386 136.205 204.259 136.205 204.1C136.205 203.941 136.077 203.814 135.918 203.814C135.759 203.846 135.632 203.973 135.632 204.1Z" fill="#E7CD1E"/>
<path d="M101.78 0.382415C101.78 0.478167 101.875 0.573912 101.971 0.573912C102.067 0.573912 102.163 0.478167 102.163 0.382415C102.163 0.286662 102.067 0.190918 101.971 0.190918C101.875 0.190918 101.78 0.254745 101.78 0.382415Z" fill="#2C1E4A"/>
<path d="M101.78 0.382415C101.78 0.478167 101.875 0.573912 101.971 0.573912C102.067 0.573912 102.163 0.478167 102.163 0.382415C102.163 0.286662 102.067 0.190918 101.971 0.190918C101.875 0.190918 101.78 0.254745 101.78 0.382415Z" fill="white"/>
<path d="M101.78 0.382415C101.78 0.478167 101.875 0.573912 101.971 0.573912C102.067 0.573912 102.163 0.478167 102.163 0.382415C102.163 0.286662 102.067 0.190918 101.971 0.190918C101.875 0.190918 101.78 0.254745 101.78 0.382415Z" fill="#E7CD1E"/>
<path d="M101.016 34.3295C101.016 34.8385 101.43 35.2841 101.939 35.2841C102.448 35.2841 102.893 34.8703 102.893 34.3295C102.893 33.7886 102.48 33.4069 101.939 33.4069C101.398 33.4069 101.016 33.8204 101.016 34.3295Z" fill="#2C1E4A"/>
<path d="M101.016 34.3295C101.016 34.8385 101.43 35.2841 101.939 35.2841C102.448 35.2841 102.893 34.8703 102.893 34.3295C102.893 33.7886 102.48 33.4069 101.939 33.4069C101.398 33.4069 101.016 33.8204 101.016 34.3295Z" fill="white"/>
<path d="M101.016 34.3295C101.016 34.8385 101.43 35.2841 101.939 35.2841C102.448 35.2841 102.893 34.8703 102.893 34.3295C102.893 33.7886 102.48 33.4069 101.939 33.4069C101.398 33.4069 101.016 33.8204 101.016 34.3295Z" fill="#E7CD1E"/>
<path d="M99.998 68.2773C99.998 69.359 100.889 70.2499 101.971 70.2499C103.052 70.2499 103.944 69.359 103.944 68.2773C103.944 67.1955 103.052 66.3047 101.971 66.3047C100.857 66.3047 99.998 67.1955 99.998 68.2773Z" fill="#2C1E4A"/>
<path d="M99.998 68.2773C99.998 69.359 100.889 70.2499 101.971 70.2499C103.052 70.2499 103.944 69.359 103.944 68.2773C103.944 67.1955 103.052 66.3047 101.971 66.3047C100.857 66.3047 99.998 67.1955 99.998 68.2773Z" fill="white"/>
<path d="M99.998 68.2773C99.998 69.359 100.889 70.2499 101.971 70.2499C103.052 70.2499 103.944 69.359 103.944 68.2773C103.944 67.1955 103.052 66.3047 101.971 66.3047C100.857 66.3047 99.998 67.1955 99.998 68.2773Z" fill="#E7CD1E"/>
<path d="M99.521 102.257C99.521 103.625 100.634 104.707 101.971 104.707C103.339 104.707 104.42 103.625 104.42 102.257C104.42 100.92 103.339 99.8067 101.971 99.8067C100.602 99.8067 99.521 100.889 99.521 102.257Z" fill="#2C1E4A"/>
<path d="M99.521 102.257C99.521 103.625 100.634 104.707 101.971 104.707C103.339 104.707 104.42 103.625 104.42 102.257C104.42 100.92 103.339 99.8067 101.971 99.8067C100.602 99.8067 99.521 100.889 99.521 102.257Z" fill="white"/>
<path d="M99.521 102.257C99.521 103.625 100.634 104.707 101.971 104.707C103.339 104.707 104.42 103.625 104.42 102.257C104.42 100.92 103.339 99.8067 101.971 99.8067C100.602 99.8067 99.521 100.889 99.521 102.257Z" fill="#E7CD1E"/>
<path d="M100.189 136.205C100.189 137.191 100.984 137.986 101.97 137.986C102.957 137.986 103.752 137.191 103.752 136.205C103.752 135.218 102.957 134.423 101.97 134.423C100.984 134.423 100.189 135.218 100.189 136.205Z" fill="#2C1E4A"/>
<path d="M100.189 136.205C100.189 137.191 100.984 137.986 101.97 137.986C102.957 137.986 103.752 137.191 103.752 136.205C103.752 135.218 102.957 134.423 101.97 134.423C100.984 134.423 100.189 135.218 100.189 136.205Z" fill="white"/>
<path d="M100.189 136.205C100.189 137.191 100.984 137.986 101.97 137.986C102.957 137.986 103.752 137.191 103.752 136.205C103.752 135.218 102.957 134.423 101.97 134.423C100.984 134.423 100.189 135.218 100.189 136.205Z" fill="#E7CD1E"/>
<path d="M101.112 170.152C101.112 170.629 101.493 171.011 101.971 171.011C102.448 171.011 102.83 170.629 102.83 170.152C102.83 169.675 102.448 169.293 101.971 169.293C101.493 169.293 101.112 169.675 101.112 170.152Z" fill="#2C1E4A"/>
<path d="M101.112 170.152C101.112 170.629 101.493 171.011 101.971 171.011C102.448 171.011 102.83 170.629 102.83 170.152C102.83 169.675 102.448 169.293 101.971 169.293C101.493 169.293 101.112 169.675 101.112 170.152Z" fill="white"/>
<path d="M101.112 170.152C101.112 170.629 101.493 171.011 101.971 171.011C102.448 171.011 102.83 170.629 102.83 170.152C102.83 169.675 102.448 169.293 101.971 169.293C101.493 169.293 101.112 169.675 101.112 170.152Z" fill="#E7CD1E"/>
<path d="M101.78 204.133C101.78 204.228 101.876 204.324 101.971 204.324C102.067 204.324 102.163 204.228 102.163 204.133C102.163 204.037 102.067 203.941 101.971 203.941C101.876 203.941 101.78 204.005 101.78 204.133Z" fill="#2C1E4A"/>
<path d="M101.78 204.133C101.78 204.228 101.876 204.324 101.971 204.324C102.067 204.324 102.163 204.228 102.163 204.133C102.163 204.037 102.067 203.941 101.971 203.941C101.876 203.941 101.78 204.005 101.78 204.133Z" fill="white"/>
<path d="M101.78 204.133C101.78 204.228 101.876 204.324 101.971 204.324C102.067 204.324 102.163 204.228 102.163 204.133C102.163 204.037 102.067 203.941 101.971 203.941C101.876 203.941 101.78 204.005 101.78 204.133Z" fill="#E7CD1E"/>
<path d="M67.9275 0.381785C67.9275 0.445418 67.9594 0.477327 68.023 0.477327C68.0548 0.477327 68.1184 0.445418 68.1184 0.381785C68.1184 0.318153 68.0867 0.286438 68.023 0.286438C67.9594 0.286438 67.9275 0.318153 67.9275 0.381785Z" fill="#2C1E4A"/>
<path d="M67.9275 0.381785C67.9275 0.445418 67.9594 0.477327 68.023 0.477327C68.0548 0.477327 68.1184 0.445418 68.1184 0.381785C68.1184 0.318153 68.0867 0.286438 68.023 0.286438C67.9594 0.286438 67.9275 0.318153 67.9275 0.381785Z" fill="white"/>
<path d="M67.9275 0.381785C67.9275 0.445418 67.9594 0.477327 68.023 0.477327C68.0548 0.477327 68.1184 0.445418 68.1184 0.381785C68.1184 0.318153 68.0867 0.286438 68.023 0.286438C67.9594 0.286438 67.9275 0.318153 67.9275 0.381785Z" fill="#E7CD1E"/>
<path d="M67.3547 34.3296C67.3547 34.7114 67.6412 34.9978 68.0229 34.9978C68.3729 34.9978 68.691 34.7114 68.691 34.3296C68.691 33.9478 68.4047 33.6616 68.0229 33.6616C67.6412 33.6616 67.3547 33.9478 67.3547 34.3296Z" fill="#2C1E4A"/>
<path d="M67.3547 34.3296C67.3547 34.7114 67.6412 34.9978 68.0229 34.9978C68.3729 34.9978 68.691 34.7114 68.691 34.3296C68.691 33.9478 68.4047 33.6616 68.0229 33.6616C67.6412 33.6616 67.3547 33.9478 67.3547 34.3296Z" fill="white"/>
<path d="M67.3547 34.3296C67.3547 34.7114 67.6412 34.9978 68.0229 34.9978C68.3729 34.9978 68.691 34.7114 68.691 34.3296C68.691 33.9478 68.4047 33.6616 68.0229 33.6616C67.6412 33.6616 67.3547 33.9478 67.3547 34.3296Z" fill="#E7CD1E"/>
<path d="M66.7822 68.2774C66.7822 68.9455 67.3231 69.4864 67.9913 69.4864C68.6594 69.4864 69.2321 68.9455 69.2321 68.2774C69.2321 67.6092 68.6912 67.0683 67.9913 67.0365C67.3231 67.0683 66.7822 67.6092 66.7822 68.2774Z" fill="#2C1E4A"/>
<path d="M66.7822 68.2774C66.7822 68.9455 67.3231 69.4864 67.9913 69.4864C68.6594 69.4864 69.2321 68.9455 69.2321 68.2774C69.2321 67.6092 68.6912 67.0683 67.9913 67.0365C67.3231 67.0683 66.7822 67.6092 66.7822 68.2774Z" fill="white"/>
<path d="M66.7822 68.2774C66.7822 68.9455 67.3231 69.4864 67.9913 69.4864C68.6594 69.4864 69.2321 68.9455 69.2321 68.2774C69.2321 67.6092 68.6912 67.0683 67.9913 67.0365C67.3231 67.0683 66.7822 67.6092 66.7822 68.2774Z" fill="#E7CD1E"/>
<path d="M66.4956 102.257C66.4956 103.084 67.1638 103.752 67.9911 103.752C68.8183 103.752 69.4863 103.084 69.4863 102.257C69.4863 101.43 68.8183 100.761 67.9911 100.761C67.1638 100.73 66.4956 101.398 66.4956 102.257Z" fill="#2C1E4A"/>
<path d="M66.4956 102.257C66.4956 103.084 67.1638 103.752 67.9911 103.752C68.8183 103.752 69.4863 103.084 69.4863 102.257C69.4863 101.43 68.8183 100.761 67.9911 100.761C67.1638 100.73 66.4956 101.398 66.4956 102.257Z" fill="white"/>
<path d="M66.4956 102.257C66.4956 103.084 67.1638 103.752 67.9911 103.752C68.8183 103.752 69.4863 103.084 69.4863 102.257C69.4863 101.43 68.8183 100.761 67.9911 100.761C67.1638 100.73 66.4956 101.398 66.4956 102.257Z" fill="#E7CD1E"/>
<path d="M68.023 137.35C68.6555 137.35 69.1683 136.837 69.1683 136.205C69.1683 135.572 68.6555 135.06 68.023 135.06C67.3904 135.06 66.8774 135.572 66.8774 136.205C66.8774 136.837 67.3904 137.35 68.023 137.35Z" fill="#2C1E4A"/>
<path d="M68.023 137.35C68.6555 137.35 69.1683 136.837 69.1683 136.205C69.1683 135.572 68.6555 135.06 68.023 135.06C67.3904 135.06 66.8774 135.572 66.8774 136.205C66.8774 136.837 67.3904 137.35 68.023 137.35Z" fill="white"/>
<path d="M68.023 137.35C68.6555 137.35 69.1683 136.837 69.1683 136.205C69.1683 135.572 68.6555 135.06 68.023 135.06C67.3904 135.06 66.8774 135.572 66.8774 136.205C66.8774 136.837 67.3904 137.35 68.023 137.35Z" fill="#E7CD1E"/>
<path d="M67.4502 170.152C67.4502 170.471 67.7047 170.725 68.0229 170.725C68.341 170.725 68.5955 170.471 68.5955 170.152C68.5955 169.834 68.341 169.58 68.0229 169.58C67.7047 169.58 67.4502 169.834 67.4502 170.152Z" fill="#2C1E4A"/>
<path d="M67.4502 170.152C67.4502 170.471 67.7047 170.725 68.0229 170.725C68.341 170.725 68.5955 170.471 68.5955 170.152C68.5955 169.834 68.341 169.58 68.0229 169.58C67.7047 169.58 67.4502 169.834 67.4502 170.152Z" fill="white"/>
<path d="M67.4502 170.152C67.4502 170.471 67.7047 170.725 68.0229 170.725C68.341 170.725 68.5955 170.471 68.5955 170.152C68.5955 169.834 68.341 169.58 68.0229 169.58C67.7047 169.58 67.4502 169.834 67.4502 170.152Z" fill="#E7CD1E"/>
<path d="M67.9275 204.1C67.9275 204.164 67.9594 204.196 68.023 204.196C68.0867 204.196 68.1184 204.164 68.1184 204.1C68.1184 204.037 68.0867 204.005 68.023 204.005C67.9594 204.037 67.9275 204.068 67.9275 204.1Z" fill="#2C1E4A"/>
<path d="M67.9275 204.1C67.9275 204.164 67.9594 204.196 68.023 204.196C68.0867 204.196 68.1184 204.164 68.1184 204.1C68.1184 204.037 68.0867 204.005 68.023 204.005C67.9594 204.037 67.9275 204.068 67.9275 204.1Z" fill="white"/>
<path d="M67.9275 204.1C67.9275 204.164 67.9594 204.196 68.023 204.196C68.0867 204.196 68.1184 204.164 68.1184 204.1C68.1184 204.037 68.0867 204.005 68.023 204.005C67.9594 204.037 67.9275 204.068 67.9275 204.1Z" fill="#E7CD1E"/>
<path d="M33.9478 0.381785C33.9478 0.445418 33.9797 0.477327 34.0433 0.477327C34.0751 0.477327 34.1386 0.445418 34.1386 0.381785C34.1386 0.318153 34.1069 0.286438 34.0433 0.286438C33.9797 0.286438 33.9478 0.318153 33.9478 0.381785Z" fill="#2C1E4A"/>
<path d="M33.9478 0.381785C33.9478 0.445418 33.9797 0.477327 34.0433 0.477327C34.0751 0.477327 34.1386 0.445418 34.1386 0.381785C34.1386 0.318153 34.1069 0.286438 34.0433 0.286438C33.9797 0.286438 33.9478 0.318153 33.9478 0.381785Z" fill="white"/>
<path d="M33.9478 0.381785C33.9478 0.445418 33.9797 0.477327 34.0433 0.477327C34.0751 0.477327 34.1386 0.445418 34.1386 0.381785C34.1386 0.318153 34.1069 0.286438 34.0433 0.286438C33.9797 0.286438 33.9478 0.318153 33.9478 0.381785Z" fill="#E7CD1E"/>
<path d="M34.0433 34.7115C34.2542 34.7115 34.4251 34.5404 34.4251 34.3295C34.4251 34.1187 34.2542 33.9478 34.0433 33.9478C33.8325 33.9478 33.6614 34.1187 33.6614 34.3295C33.6614 34.5404 33.8325 34.7115 34.0433 34.7115Z" fill="#2C1E4A"/>
<path d="M34.0433 34.7115C34.2542 34.7115 34.4251 34.5404 34.4251 34.3295C34.4251 34.1187 34.2542 33.9478 34.0433 33.9478C33.8325 33.9478 33.6614 34.1187 33.6614 34.3295C33.6614 34.5404 33.8325 34.7115 34.0433 34.7115Z" fill="white"/>
<path d="M34.0433 34.7115C34.2542 34.7115 34.4251 34.5404 34.4251 34.3295C34.4251 34.1187 34.2542 33.9478 34.0433 33.9478C33.8325 33.9478 33.6614 34.1187 33.6614 34.3295C33.6614 34.5404 33.8325 34.7115 34.0433 34.7115Z" fill="#E7CD1E"/>
<path d="M33.3752 68.2776C33.3752 68.6276 33.6617 68.9456 34.0435 68.9456C34.3934 68.9456 34.7115 68.6594 34.7115 68.2776C34.7115 67.8958 34.4252 67.6094 34.0435 67.6094C33.6935 67.6094 33.3752 67.9276 33.3752 68.2776Z" fill="#2C1E4A"/>
<path d="M33.3752 68.2776C33.3752 68.6276 33.6617 68.9456 34.0435 68.9456C34.3934 68.9456 34.7115 68.6594 34.7115 68.2776C34.7115 67.8958 34.4252 67.6094 34.0435 67.6094C33.6935 67.6094 33.3752 67.9276 33.3752 68.2776Z" fill="white"/>
<path d="M33.3752 68.2776C33.3752 68.6276 33.6617 68.9456 34.0435 68.9456C34.3934 68.9456 34.7115 68.6594 34.7115 68.2776C34.7115 67.8958 34.4252 67.6094 34.0435 67.6094C33.6935 67.6094 33.3752 67.9276 33.3752 68.2776Z" fill="#E7CD1E"/>
<path d="M33.3115 102.257C33.3115 102.67 33.6615 103.02 34.0751 103.02C34.4887 103.02 34.8388 102.67 34.8388 102.257C34.8388 101.843 34.4887 101.493 34.0751 101.493C33.6297 101.493 33.3115 101.811 33.3115 102.257Z" fill="#2C1E4A"/>
<path d="M33.3115 102.257C33.3115 102.67 33.6615 103.02 34.0751 103.02C34.4887 103.02 34.8388 102.67 34.8388 102.257C34.8388 101.843 34.4887 101.493 34.0751 101.493C33.6297 101.493 33.3115 101.811 33.3115 102.257Z" fill="white"/>
<path d="M33.3115 102.257C33.3115 102.67 33.6615 103.02 34.0751 103.02C34.4887 103.02 34.8388 102.67 34.8388 102.257C34.8388 101.843 34.4887 101.493 34.0751 101.493C33.6297 101.493 33.3115 101.811 33.3115 102.257Z" fill="#E7CD1E"/>
<path d="M33.4705 136.204C33.4705 136.523 33.7252 136.777 34.0433 136.777C34.3615 136.777 34.616 136.523 34.616 136.204C34.616 135.886 34.3615 135.632 34.0433 135.632C33.7252 135.632 33.4705 135.886 33.4705 136.204Z" fill="#2C1E4A"/>
<path d="M33.4705 136.204C33.4705 136.523 33.7252 136.777 34.0433 136.777C34.3615 136.777 34.616 136.523 34.616 136.204C34.616 135.886 34.3615 135.632 34.0433 135.632C33.7252 135.632 33.4705 135.886 33.4705 136.204Z" fill="white"/>
<path d="M33.4705 136.204C33.4705 136.523 33.7252 136.777 34.0433 136.777C34.3615 136.777 34.616 136.523 34.616 136.204C34.616 135.886 34.3615 135.632 34.0433 135.632C33.7252 135.632 33.4705 135.886 33.4705 136.204Z" fill="#E7CD1E"/>
<path d="M33.7568 170.152C33.7568 170.311 33.8842 170.439 34.0433 170.439C34.2023 170.439 34.3295 170.311 34.3295 170.152C34.3295 169.993 34.2023 169.866 34.0433 169.866C33.8842 169.866 33.7568 169.993 33.7568 170.152Z" fill="#2C1E4A"/>
<path d="M33.7568 170.152C33.7568 170.311 33.8842 170.439 34.0433 170.439C34.2023 170.439 34.3295 170.311 34.3295 170.152C34.3295 169.993 34.2023 169.866 34.0433 169.866C33.8842 169.866 33.7568 169.993 33.7568 170.152Z" fill="white"/>
<path d="M33.7568 170.152C33.7568 170.311 33.8842 170.439 34.0433 170.439C34.2023 170.439 34.3295 170.311 34.3295 170.152C34.3295 169.993 34.2023 169.866 34.0433 169.866C33.8842 169.866 33.7568 169.993 33.7568 170.152Z" fill="#E7CD1E"/>
<path d="M33.948 204.1C33.948 204.164 33.9799 204.195 34.0435 204.195C34.0754 204.195 34.1389 204.164 34.1389 204.1C34.1389 204.036 34.1072 204.005 34.0435 204.005C34.0117 204.036 33.948 204.068 33.948 204.1Z" fill="#2C1E4A"/>
<path d="M33.948 204.1C33.948 204.164 33.9799 204.195 34.0435 204.195C34.0754 204.195 34.1389 204.164 34.1389 204.1C34.1389 204.036 34.1072 204.005 34.0435 204.005C34.0117 204.036 33.948 204.068 33.948 204.1Z" fill="white"/>
<path d="M33.948 204.1C33.948 204.164 33.9799 204.195 34.0435 204.195C34.0754 204.195 34.1389 204.164 34.1389 204.1C34.1389 204.036 34.1072 204.005 34.0435 204.005C34.0117 204.036 33.948 204.068 33.948 204.1Z" fill="#E7CD1E"/>
<path d="M3.50451e-08 34.3294C5.84333e-08 34.393 0.0317152 34.425 0.0953474 34.425C0.15898 34.425 0.190889 34.393 0.190889 34.3294C0.190889 34.2658 0.15898 34.2341 0.0953473 34.2341C0.0317151 34.2341 1.1657e-08 34.2658 3.50451e-08 34.3294Z" fill="#2C1E4A"/>
<path d="M3.50451e-08 34.3294C5.84333e-08 34.393 0.0317152 34.425 0.0953474 34.425C0.15898 34.425 0.190889 34.393 0.190889 34.3294C0.190889 34.2658 0.15898 34.2341 0.0953473 34.2341C0.0317151 34.2341 1.1657e-08 34.2658 3.50451e-08 34.3294Z" fill="white"/>
<path d="M3.50451e-08 34.3294C5.84333e-08 34.393 0.0317152 34.425 0.0953474 34.425C0.15898 34.425 0.190889 34.393 0.190889 34.3294C0.190889 34.2658 0.15898 34.2341 0.0953473 34.2341C0.0317151 34.2341 1.1657e-08 34.2658 3.50451e-08 34.3294Z" fill="#E7CD1E"/>
<path d="M3.50913e-08 68.2774C5.84627e-08 68.341 0.0317152 68.3727 0.0953474 68.3727C0.15898 68.3727 0.190889 68.341 0.190889 68.2774L0.0953473 68.1818C0.0317151 68.1818 2.34056e-08 68.2455 3.50913e-08 68.2774Z" fill="#2C1E4A"/>
<path d="M3.50913e-08 68.2774C5.84627e-08 68.341 0.0317152 68.3727 0.0953474 68.3727C0.15898 68.3727 0.190889 68.341 0.190889 68.2774L0.0953473 68.1818C0.0317151 68.1818 2.34056e-08 68.2455 3.50913e-08 68.2774Z" fill="white"/>
<path d="M3.50913e-08 68.2774C5.84627e-08 68.341 0.0317152 68.3727 0.0953474 68.3727C0.15898 68.3727 0.190889 68.341 0.190889 68.2774L0.0953473 68.1818C0.0317151 68.1818 2.34056e-08 68.2455 3.50913e-08 68.2774Z" fill="#E7CD1E"/>
<path d="M3.50948e-08 102.257C5.84686e-08 102.32 0.0317152 102.352 0.0953474 102.352C0.15898 102.352 0.190889 102.32 0.190889 102.257L0.0953473 102.161C0.0317151 102.161 1.17211e-08 102.193 3.50948e-08 102.257Z" fill="#2C1E4A"/>
<path d="M3.50948e-08 102.257C5.84686e-08 102.32 0.0317152 102.352 0.0953474 102.352C0.15898 102.352 0.190889 102.32 0.190889 102.257L0.0953473 102.161C0.0317151 102.161 1.17211e-08 102.193 3.50948e-08 102.257Z" fill="white"/>
<path d="M3.50948e-08 102.257C5.84686e-08 102.32 0.0317152 102.352 0.0953474 102.352C0.15898 102.352 0.190889 102.32 0.190889 102.257L0.0953473 102.161C0.0317151 102.161 1.17211e-08 102.193 3.50948e-08 102.257Z" fill="#E7CD1E"/>
<path d="M3.50235e-08 136.205C5.83972e-08 136.268 0.0317152 136.3 0.0953474 136.3L0.190889 136.205C0.190889 136.141 0.15898 136.109 0.0953473 136.109C0.0317151 136.109 1.16498e-08 136.141 3.50235e-08 136.205Z" fill="#2C1E4A"/>
<path d="M3.50235e-08 136.205C5.83972e-08 136.268 0.0317152 136.3 0.0953474 136.3L0.190889 136.205C0.190889 136.141 0.15898 136.109 0.0953473 136.109C0.0317151 136.109 1.16498e-08 136.141 3.50235e-08 136.205Z" fill="white"/>
<path d="M3.50235e-08 136.205C5.83972e-08 136.268 0.0317152 136.3 0.0953474 136.3L0.190889 136.205C0.190889 136.141 0.15898 136.109 0.0953473 136.109C0.0317151 136.109 1.16498e-08 136.141 3.50235e-08 136.205Z" fill="#E7CD1E"/>
<path d="M3.50235e-08 170.152C4.67104e-08 170.184 0.0317152 170.248 0.0953474 170.248C0.15898 170.248 0.190889 170.216 0.190889 170.152C0.190889 170.088 0.15898 170.057 0.0953473 170.057C0.0317151 170.057 2.33366e-08 170.12 3.50235e-08 170.152Z" fill="#2C1E4A"/>
<path d="M3.50235e-08 170.152C4.67104e-08 170.184 0.0317152 170.248 0.0953474 170.248C0.15898 170.248 0.190889 170.216 0.190889 170.152C0.190889 170.088 0.15898 170.057 0.0953473 170.057C0.0317151 170.057 2.33366e-08 170.12 3.50235e-08 170.152Z" fill="white"/>
<path d="M3.50235e-08 170.152C4.67104e-08 170.184 0.0317152 170.248 0.0953474 170.248C0.15898 170.248 0.190889 170.216 0.190889 170.152C0.190889 170.088 0.15898 170.057 0.0953473 170.057C0.0317151 170.057 2.33366e-08 170.12 3.50235e-08 170.152Z" fill="#E7CD1E"/>
</svg>
