<svg width="268" height="171" viewBox="0 0 268 171" fill="none" xmlns="http://www.w3.org/2000/svg">
<path d="M15.5938 141.861C15.5938 140.216 14.2409 138.863 12.5963 138.863C10.9517 138.863 9.59889 140.19 9.62542 141.861C9.62542 143.505 10.9517 144.858 12.5963 144.858C14.2409 144.858 15.5938 143.505 15.5938 141.861Z" fill="#2C1E4A"/>
<path d="M15.5938 141.861C15.5938 140.216 14.2409 138.863 12.5963 138.863C10.9517 138.863 9.59889 140.19 9.62542 141.861C9.62542 143.505 10.9517 144.858 12.5963 144.858C14.2409 144.858 15.5938 143.505 15.5938 141.861Z" fill="white"/>
<path d="M15.5938 141.861C15.5938 140.216 14.2409 138.863 12.5963 138.863C10.9517 138.863 9.59889 140.19 9.62542 141.861C9.62542 143.505 10.9517 144.858 12.5963 144.858C14.2409 144.858 15.5938 143.505 15.5938 141.861Z" fill="#E7CD1E"/>
<path d="M18.5647 113.081C18.5647 109.529 15.6717 106.636 12.1199 106.636C8.56811 106.636 5.67511 109.529 5.67511 113.081C5.67511 116.633 8.56811 119.526 12.1199 119.526C15.7003 119.526 18.5647 116.633 18.5647 113.081Z" fill="#2C1E4A"/>
<path d="M18.5647 113.081C18.5647 109.529 15.6717 106.636 12.1199 106.636C8.56811 106.636 5.67511 109.529 5.67511 113.081C5.67511 116.633 8.56811 119.526 12.1199 119.526C15.7003 119.526 18.5647 116.633 18.5647 113.081Z" fill="white"/>
<path d="M18.5647 113.081C18.5647 109.529 15.6717 106.636 12.1199 106.636C8.56811 106.636 5.67511 109.529 5.67511 113.081C5.67511 116.633 8.56811 119.526 12.1199 119.526C15.7003 119.526 18.5647 116.633 18.5647 113.081Z" fill="#E7CD1E"/>
<path d="M19.8379 85.2278C19.8379 81.2489 16.6018 78.0128 12.6229 78.0128C8.64403 78.0128 5.40795 81.2489 5.40795 85.2278C5.40795 89.2067 8.64403 92.443 12.6229 92.443C16.6018 92.4695 19.8379 89.2332 19.8379 85.2278Z" fill="#2C1E4A"/>
<path d="M19.8379 85.2278C19.8379 81.2489 16.6018 78.0128 12.6229 78.0128C8.64403 78.0128 5.40795 81.2489 5.40795 85.2278C5.40795 89.2067 8.64403 92.443 12.6229 92.443C16.6018 92.4695 19.8379 89.2332 19.8379 85.2278Z" fill="white"/>
<path d="M19.8379 85.2278C19.8379 81.2489 16.6018 78.0128 12.6229 78.0128C8.64403 78.0128 5.40795 81.2489 5.40795 85.2278C5.40795 89.2067 8.64403 92.443 12.6229 92.443C16.6018 92.4695 19.8379 89.2332 19.8379 85.2278Z" fill="#E7CD1E"/>
<path d="M18.1135 55.9709C18.1135 52.4216 15.2182 49.5261 11.6689 49.5261C8.11963 49.5261 5.22394 52.4216 5.22394 55.9709C5.22394 59.5201 8.11963 62.4156 11.6689 62.4156C15.2182 62.4156 18.1135 59.5513 18.1135 55.9709Z" fill="#2C1E4A"/>
<path d="M18.1135 55.9709C18.1135 52.4216 15.2182 49.5261 11.6689 49.5261C8.11963 49.5261 5.22394 52.4216 5.22394 55.9709C5.22394 59.5201 8.11963 62.4156 11.6689 62.4156C15.2182 62.4156 18.1135 59.5513 18.1135 55.9709Z" fill="white"/>
<path d="M18.1135 55.9709C18.1135 52.4216 15.2182 49.5261 11.6689 49.5261C8.11963 49.5261 5.22394 52.4216 5.22394 55.9709C5.22394 59.5201 8.11963 62.4156 11.6689 62.4156C15.2182 62.4156 18.1135 59.5513 18.1135 55.9709Z" fill="#E7CD1E"/>
<path d="M15.2754 28.6216C15.2754 27.1626 14.0817 25.9424 12.5962 25.9424C11.1108 25.9424 9.9171 27.1361 9.9171 28.6216C9.9171 30.107 11.1108 31.3005 12.5962 31.3005C14.0817 31.3005 15.2754 30.0805 15.2754 28.6216Z" fill="#2C1E4A"/>
<path d="M15.2754 28.6216C15.2754 27.1626 14.0817 25.9424 12.5962 25.9424C11.1108 25.9424 9.9171 27.1361 9.9171 28.6216C9.9171 30.107 11.1108 31.3005 12.5962 31.3005C14.0817 31.3005 15.2754 30.0805 15.2754 28.6216Z" fill="white"/>
<path d="M15.2754 28.6216C15.2754 27.1626 14.0817 25.9424 12.5962 25.9424C11.1108 25.9424 9.9171 27.1361 9.9171 28.6216C9.9171 30.107 11.1108 31.3005 12.5962 31.3005C14.0817 31.3005 15.2754 30.0805 15.2754 28.6216Z" fill="#E7CD1E"/>
<path d="M43.5784 141.861C43.5784 140.375 42.3847 139.182 40.8992 139.182C39.4138 139.182 38.2204 140.375 38.2204 141.861C38.2204 143.346 39.4138 144.54 40.8992 144.54C42.3847 144.54 43.5784 143.346 43.5784 141.861Z" fill="#2C1E4A"/>
<path d="M43.5784 141.861C43.5784 140.375 42.3847 139.182 40.8992 139.182C39.4138 139.182 38.2204 140.375 38.2204 141.861C38.2204 143.346 39.4138 144.54 40.8992 144.54C42.3847 144.54 43.5784 143.346 43.5784 141.861Z" fill="white"/>
<path d="M43.5784 141.861C43.5784 140.375 42.3847 139.182 40.8992 139.182C39.4138 139.182 38.2204 140.375 38.2204 141.861C38.2204 143.346 39.4138 144.54 40.8992 144.54C42.3847 144.54 43.5784 143.346 43.5784 141.861Z" fill="#E7CD1E"/>
<path d="M46.3372 113.558C46.3372 110.56 43.9232 108.146 40.9258 108.146C37.9283 108.146 35.5147 110.56 35.5147 113.558C35.5147 116.555 37.9283 118.969 40.9258 118.969C43.8967 118.969 46.3372 116.529 46.3372 113.558Z" fill="#2C1E4A"/>
<path d="M46.3372 113.558C46.3372 110.56 43.9232 108.146 40.9258 108.146C37.9283 108.146 35.5147 110.56 35.5147 113.558C35.5147 116.555 37.9283 118.969 40.9258 118.969C43.8967 118.969 46.3372 116.529 46.3372 113.558Z" fill="white"/>
<path d="M46.3372 113.558C46.3372 110.56 43.9232 108.146 40.9258 108.146C37.9283 108.146 35.5147 110.56 35.5147 113.558C35.5147 116.555 37.9283 118.969 40.9258 118.969C43.8967 118.969 46.3372 116.529 46.3372 113.558Z" fill="#E7CD1E"/>
<path d="M47.4248 85.2277C47.4248 81.6202 44.5067 78.7023 40.8992 78.7023C37.2917 78.7023 34.3739 81.6202 34.3739 85.2277C34.3739 88.8353 37.2917 91.7532 40.8992 91.7532C44.5067 91.7532 47.4248 88.8353 47.4248 85.2277Z" fill="#2C1E4A"/>
<path d="M47.4248 85.2277C47.4248 81.6202 44.5067 78.7023 40.8992 78.7023C37.2917 78.7023 34.3739 81.6202 34.3739 85.2277C34.3739 88.8353 37.2917 91.7532 40.8992 91.7532C44.5067 91.7532 47.4248 88.8353 47.4248 85.2277Z" fill="white"/>
<path d="M47.4248 85.2277C47.4248 81.6202 44.5067 78.7023 40.8992 78.7023C37.2917 78.7023 34.3739 81.6202 34.3739 85.2277C34.3739 88.8353 37.2917 91.7532 40.8992 91.7532C44.5067 91.7532 47.4248 88.8353 47.4248 85.2277Z" fill="#E7CD1E"/>
<path d="M45.8599 56.9247C45.8599 54.1926 43.6579 51.991 40.9258 51.991C38.1936 51.991 35.992 54.1926 35.992 56.9247C35.992 59.6569 38.1936 61.8585 40.9258 61.8585C43.6579 61.8851 45.8599 59.6569 45.8599 56.9247Z" fill="#2C1E4A"/>
<path d="M45.8599 56.9247C45.8599 54.1926 43.6579 51.991 40.9258 51.991C38.1936 51.991 35.992 54.1926 35.992 56.9247C35.992 59.6569 38.1936 61.8585 40.9258 61.8585C43.6579 61.8851 45.8599 59.6569 45.8599 56.9247Z" fill="white"/>
<path d="M45.8599 56.9247C45.8599 54.1926 43.6579 51.991 40.9258 51.991C38.1936 51.991 35.992 54.1926 35.992 56.9247C35.992 59.6569 38.1936 61.8585 40.9258 61.8585C43.6579 61.8851 45.8599 59.6569 45.8599 56.9247Z" fill="#E7CD1E"/>
<path d="M43.1807 28.6216C43.1807 27.3749 42.1724 26.3403 40.8992 26.3403C39.6524 26.3403 38.618 27.3484 38.618 28.6216C38.618 29.8684 39.6524 30.9028 40.8992 30.9028C42.1724 30.9028 43.1807 29.8684 43.1807 28.6216Z" fill="#2C1E4A"/>
<path d="M43.1807 28.6216C43.1807 27.3749 42.1724 26.3403 40.8992 26.3403C39.6524 26.3403 38.618 27.3484 38.618 28.6216C38.618 29.8684 39.6524 30.9028 40.8992 30.9028C42.1724 30.9028 43.1807 29.8684 43.1807 28.6216Z" fill="white"/>
<path d="M43.1807 28.6216C43.1807 27.3749 42.1724 26.3403 40.8992 26.3403C39.6524 26.3403 38.618 27.3484 38.618 28.6216C38.618 29.8684 39.6524 30.9028 40.8992 30.9028C42.1724 30.9028 43.1807 29.8684 43.1807 28.6216Z" fill="#E7CD1E"/>
<path d="M71.4307 141.861C71.4307 140.641 70.4493 139.659 69.2291 139.659C68.0089 139.659 67.0276 140.641 67.0276 141.861C67.0276 143.081 68.0089 144.062 69.2291 144.062C70.4493 144.062 71.4307 143.081 71.4307 141.861Z" fill="#2C1E4A"/>
<path d="M71.4307 141.861C71.4307 140.641 70.4493 139.659 69.2291 139.659C68.0089 139.659 67.0276 140.641 67.0276 141.861C67.0276 143.081 68.0089 144.062 69.2291 144.062C70.4493 144.062 71.4307 143.081 71.4307 141.861Z" fill="white"/>
<path d="M71.4307 141.861C71.4307 140.641 70.4493 139.659 69.2291 139.659C68.0089 139.659 67.0276 140.641 67.0276 141.861C67.0276 143.081 68.0089 144.062 69.2291 144.062C70.4493 144.062 71.4307 143.081 71.4307 141.861Z" fill="#E7CD1E"/>
<path d="M73.9243 113.558C73.9243 110.958 71.8287 108.863 69.2026 108.863C66.5766 108.863 64.4809 110.958 64.4809 113.558C64.4809 116.157 66.5766 118.279 69.2026 118.279C71.8287 118.253 73.9243 116.157 73.9243 113.558Z" fill="#2C1E4A"/>
<path d="M73.9243 113.558C73.9243 110.958 71.8287 108.863 69.2026 108.863C66.5766 108.863 64.4809 110.958 64.4809 113.558C64.4809 116.157 66.5766 118.279 69.2026 118.279C71.8287 118.253 73.9243 116.157 73.9243 113.558Z" fill="white"/>
<path d="M73.9243 113.558C73.9243 110.958 71.8287 108.863 69.2026 108.863C66.5766 108.863 64.4809 110.958 64.4809 113.558C64.4809 116.157 66.5766 118.279 69.2026 118.279C71.8287 118.253 73.9243 116.157 73.9243 113.558Z" fill="#E7CD1E"/>
<path d="M74.9585 85.2279C74.9585 82.0713 72.3854 79.4983 69.2288 79.4983C66.0722 79.4983 63.4991 82.0713 63.4991 85.2279C63.4991 88.3845 66.0722 90.9576 69.2288 90.9576C72.3854 90.9841 74.9585 88.411 74.9585 85.2279Z" fill="#2C1E4A"/>
<path d="M74.9585 85.2279C74.9585 82.0713 72.3854 79.4983 69.2288 79.4983C66.0722 79.4983 63.4991 82.0713 63.4991 85.2279C63.4991 88.3845 66.0722 90.9576 69.2288 90.9576C72.3854 90.9841 74.9585 88.411 74.9585 85.2279Z" fill="white"/>
<path d="M74.9585 85.2279C74.9585 82.0713 72.3854 79.4983 69.2288 79.4983C66.0722 79.4983 63.4991 82.0713 63.4991 85.2279C63.4991 88.3845 66.0722 90.9576 69.2288 90.9576C72.3854 90.9841 74.9585 88.411 74.9585 85.2279Z" fill="#E7CD1E"/>
<path d="M73.4731 56.9247C73.4731 54.5905 71.5899 52.6805 69.2291 52.6805C66.8948 52.6805 64.985 54.5639 64.985 56.9247C64.985 59.259 66.8683 61.1688 69.2291 61.1688C71.5633 61.1688 73.4731 59.259 73.4731 56.9247Z" fill="#2C1E4A"/>
<path d="M73.4731 56.9247C73.4731 54.5905 71.5899 52.6805 69.2291 52.6805C66.8948 52.6805 64.985 54.5639 64.985 56.9247C64.985 59.259 66.8683 61.1688 69.2291 61.1688C71.5633 61.1688 73.4731 59.259 73.4731 56.9247Z" fill="white"/>
<path d="M73.4731 56.9247C73.4731 54.5905 71.5899 52.6805 69.2291 52.6805C66.8948 52.6805 64.985 54.5639 64.985 56.9247C64.985 59.259 66.8683 61.1688 69.2291 61.1688C71.5633 61.1688 73.4731 59.259 73.4731 56.9247Z" fill="#E7CD1E"/>
<path d="M71.1919 28.6216C71.1919 27.534 70.3166 26.6585 69.229 26.6585C68.1414 26.6585 67.2661 27.534 67.2661 28.6216C67.2661 29.7091 68.1414 30.5845 69.229 30.5845C70.3166 30.5845 71.1919 29.7091 71.1919 28.6216Z" fill="#2C1E4A"/>
<path d="M71.1919 28.6216C71.1919 27.534 70.3166 26.6585 69.229 26.6585C68.1414 26.6585 67.2661 27.534 67.2661 28.6216C67.2661 29.7091 68.1414 30.5845 69.229 30.5845C70.3166 30.5845 71.1919 29.7091 71.1919 28.6216Z" fill="white"/>
<path d="M71.1919 28.6216C71.1919 27.534 70.3166 26.6585 69.229 26.6585C68.1414 26.6585 67.2661 27.534 67.2661 28.6216C67.2661 29.7091 68.1414 30.5845 69.229 30.5845C70.3166 30.5845 71.1919 29.7091 71.1919 28.6216Z" fill="#E7CD1E"/>
<path d="M99.4155 141.861C99.4155 140.826 98.5668 139.977 97.5323 139.977C96.4978 139.977 95.6487 140.826 95.6487 141.861C95.6487 142.895 96.4978 143.744 97.5323 143.744C98.5668 143.744 99.4155 142.895 99.4155 141.861Z" fill="#2C1E4A"/>
<path d="M99.4155 141.861C99.4155 140.826 98.5668 139.977 97.5323 139.977C96.4978 139.977 95.6487 140.826 95.6487 141.861C95.6487 142.895 96.4978 143.744 97.5323 143.744C98.5668 143.744 99.4155 142.895 99.4155 141.861Z" fill="white"/>
<path d="M99.4155 141.861C99.4155 140.826 98.5668 139.977 97.5323 139.977C96.4978 139.977 95.6487 140.826 95.6487 141.861C95.6487 142.895 96.4978 143.744 97.5323 143.744C98.5668 143.744 99.4155 142.895 99.4155 141.861Z" fill="#E7CD1E"/>
<path d="M101.378 113.558C101.378 111.435 99.6544 109.711 97.5323 109.711C95.4102 109.711 93.6858 111.435 93.6858 113.558C93.6858 115.68 95.4102 117.404 97.5323 117.404C99.6544 117.404 101.378 115.68 101.378 113.558Z" fill="#2C1E4A"/>
<path d="M101.378 113.558C101.378 111.435 99.6544 109.711 97.5323 109.711C95.4102 109.711 93.6858 111.435 93.6858 113.558C93.6858 115.68 95.4102 117.404 97.5323 117.404C99.6544 117.404 101.378 115.68 101.378 113.558Z" fill="white"/>
<path d="M101.378 113.558C101.378 111.435 99.6544 109.711 97.5323 109.711C95.4102 109.711 93.6858 111.435 93.6858 113.558C93.6858 115.68 95.4102 117.404 97.5323 117.404C99.6544 117.404 101.378 115.68 101.378 113.558Z" fill="#E7CD1E"/>
<path d="M102.333 85.2279C102.333 82.5753 100.185 80.4267 97.5322 80.4267C94.8796 80.4267 92.7309 82.5753 92.7309 85.2279C92.7309 87.8805 94.8796 90.0291 97.5322 90.0026C100.185 90.0291 102.333 87.8805 102.333 85.2279Z" fill="#2C1E4A"/>
<path d="M102.333 85.2279C102.333 82.5753 100.185 80.4267 97.5322 80.4267C94.8796 80.4267 92.7309 82.5753 92.7309 85.2279C92.7309 87.8805 94.8796 90.0291 97.5322 90.0026C100.185 90.0291 102.333 87.8805 102.333 85.2279Z" fill="white"/>
<path d="M102.333 85.2279C102.333 82.5753 100.185 80.4267 97.5322 80.4267C94.8796 80.4267 92.7309 82.5753 92.7309 85.2279C92.7309 87.8805 94.8796 90.0291 97.5322 90.0026C100.185 90.0291 102.333 87.8805 102.333 85.2279Z" fill="#E7CD1E"/>
<path d="M101.06 56.9248C101.06 54.9884 99.4686 53.3968 97.5322 53.3968C95.5693 53.3968 94.0041 54.9884 94.0041 56.9248C94.0041 58.8877 95.5958 60.4528 97.5322 60.4528C99.4951 60.4528 101.06 58.8877 101.06 56.9248Z" fill="#2C1E4A"/>
<path d="M101.06 56.9248C101.06 54.9884 99.4686 53.3968 97.5322 53.3968C95.5693 53.3968 94.0041 54.9884 94.0041 56.9248C94.0041 58.8877 95.5958 60.4528 97.5322 60.4528C99.4951 60.4528 101.06 58.8877 101.06 56.9248Z" fill="white"/>
<path d="M101.06 56.9248C101.06 54.9884 99.4686 53.3968 97.5322 53.3968C95.5693 53.3968 94.0041 54.9884 94.0041 56.9248C94.0041 58.8877 95.5958 60.4528 97.5322 60.4528C99.4951 60.4528 101.06 58.8877 101.06 56.9248Z" fill="#E7CD1E"/>
<path d="M99.1768 28.6218C99.1768 27.7199 98.434 26.977 97.5322 26.977C96.6303 26.977 95.8876 27.7199 95.8876 28.6218C95.8876 29.5236 96.6303 30.2664 97.5322 30.2664C98.4606 30.2664 99.1768 29.5236 99.1768 28.6218Z" fill="#2C1E4A"/>
<path d="M99.1768 28.6218C99.1768 27.7199 98.434 26.977 97.5322 26.977C96.6303 26.977 95.8876 27.7199 95.8876 28.6218C95.8876 29.5236 96.6303 30.2664 97.5322 30.2664C98.4606 30.2664 99.1768 29.5236 99.1768 28.6218Z" fill="white"/>
<path d="M99.1768 28.6218C99.1768 27.7199 98.434 26.977 97.5322 26.977C96.6303 26.977 95.8876 27.7199 95.8876 28.6218C95.8876 29.5236 96.6303 30.2664 97.5322 30.2664C98.4606 30.2664 99.1768 29.5236 99.1768 28.6218Z" fill="#E7CD1E"/>
<path d="M97.5323 5.34831e-07C97.3565 5.01021e-07 97.214 0.1425 97.214 0.318299C97.214 0.494097 97.3565 0.636597 97.5323 0.636597C97.7081 0.636597 97.8506 0.494097 97.8506 0.318299C97.8506 0.1425 97.7081 5.68641e-07 97.5323 5.34831e-07Z" fill="#2C1E4A"/>
<path d="M97.5323 5.34831e-07C97.3565 5.01021e-07 97.214 0.1425 97.214 0.318299C97.214 0.494097 97.3565 0.636597 97.5323 0.636597C97.7081 0.636597 97.8506 0.494097 97.8506 0.318299C97.8506 0.1425 97.7081 5.68641e-07 97.5323 5.34831e-07Z" fill="white"/>
<path d="M97.5323 5.34831e-07C97.3565 5.01021e-07 97.214 0.1425 97.214 0.318299C97.214 0.494097 97.3565 0.636597 97.5323 0.636597C97.7081 0.636597 97.8506 0.494097 97.8506 0.318299C97.8506 0.1425 97.7081 5.68641e-07 97.5323 5.34831e-07Z" fill="#E7CD1E"/>
<path d="M126.154 170.164C126.154 169.978 126.021 169.846 125.835 169.846C125.65 169.846 125.517 169.978 125.517 170.164C125.517 170.35 125.65 170.482 125.835 170.482C126.021 170.482 126.154 170.35 126.154 170.164Z" fill="#2C1E4A"/>
<path d="M126.154 170.164C126.154 169.978 126.021 169.846 125.835 169.846C125.65 169.846 125.517 169.978 125.517 170.164C125.517 170.35 125.65 170.482 125.835 170.482C126.021 170.482 126.154 170.35 126.154 170.164Z" fill="white"/>
<path d="M126.154 170.164C126.154 169.978 126.021 169.846 125.835 169.846C125.65 169.846 125.517 169.978 125.517 170.164C125.517 170.35 125.65 170.482 125.835 170.482C126.021 170.482 126.154 170.35 126.154 170.164Z" fill="#E7CD1E"/>
<path d="M127.347 141.861C127.347 141.039 126.684 140.375 125.862 140.375C125.04 140.375 124.377 141.039 124.377 141.861C124.377 142.683 125.04 143.346 125.862 143.346C126.684 143.346 127.347 142.683 127.347 141.861Z" fill="#2C1E4A"/>
<path d="M127.347 141.861C127.347 141.039 126.684 140.375 125.862 140.375C125.04 140.375 124.377 141.039 124.377 141.861C124.377 142.683 125.04 143.346 125.862 143.346C126.684 143.346 127.347 142.683 127.347 141.861Z" fill="white"/>
<path d="M127.347 141.861C127.347 141.039 126.684 140.375 125.862 140.375C125.04 140.375 124.377 141.039 124.377 141.861C124.377 142.683 125.04 143.346 125.862 143.346C126.684 143.346 127.347 142.683 127.347 141.861Z" fill="#E7CD1E"/>
<path d="M128.912 113.557C128.912 111.86 127.533 110.507 125.862 110.507C124.164 110.507 122.812 111.886 122.785 113.557C122.785 115.255 124.164 116.608 125.862 116.608C127.533 116.608 128.912 115.229 128.912 113.557Z" fill="#2C1E4A"/>
<path d="M128.912 113.557C128.912 111.86 127.533 110.507 125.862 110.507C124.164 110.507 122.812 111.886 122.785 113.557C122.785 115.255 124.164 116.608 125.862 116.608C127.533 116.608 128.912 115.229 128.912 113.557Z" fill="white"/>
<path d="M128.912 113.557C128.912 111.86 127.533 110.507 125.862 110.507C124.164 110.507 122.812 111.886 122.785 113.557C122.785 115.255 124.164 116.608 125.862 116.608C127.533 116.608 128.912 115.229 128.912 113.557Z" fill="#E7CD1E"/>
<path d="M129.682 85.2279C129.682 83.1059 127.957 81.3816 125.835 81.3816C123.713 81.3816 121.989 83.1059 121.989 85.2279C121.989 87.35 123.713 89.0742 125.835 89.0742C127.984 89.0742 129.682 87.3765 129.682 85.2279Z" fill="#2C1E4A"/>
<path d="M129.682 85.2279C129.682 83.1059 127.957 81.3816 125.835 81.3816C123.713 81.3816 121.989 83.1059 121.989 85.2279C121.989 87.35 123.713 89.0742 125.835 89.0742C127.984 89.0742 129.682 87.3765 129.682 85.2279Z" fill="white"/>
<path d="M129.682 85.2279C129.682 83.1059 127.957 81.3816 125.835 81.3816C123.713 81.3816 121.989 83.1059 121.989 85.2279C121.989 87.35 123.713 89.0742 125.835 89.0742C127.984 89.0742 129.682 87.3765 129.682 85.2279Z" fill="#E7CD1E"/>
<path d="M128.594 56.9246C128.594 55.4126 127.374 54.1923 125.862 54.1923C124.35 54.1923 123.103 55.4126 123.103 56.9511C123.103 58.4631 124.323 59.6832 125.862 59.6832C127.374 59.6832 128.594 58.4366 128.594 56.9246Z" fill="#2C1E4A"/>
<path d="M128.594 56.9246C128.594 55.4126 127.374 54.1923 125.862 54.1923C124.35 54.1923 123.103 55.4126 123.103 56.9511C123.103 58.4631 124.323 59.6832 125.862 59.6832C127.374 59.6832 128.594 58.4366 128.594 56.9246Z" fill="white"/>
<path d="M128.594 56.9246C128.594 55.4126 127.374 54.1923 125.862 54.1923C124.35 54.1923 123.103 55.4126 123.103 56.9511C123.103 58.4631 124.323 59.6832 125.862 59.6832C127.374 59.6832 128.594 58.4366 128.594 56.9246Z" fill="#E7CD1E"/>
<path d="M127.188 28.6215C127.188 27.8787 126.578 27.2952 125.862 27.2952C125.119 27.2952 124.536 27.9053 124.536 28.6215C124.536 29.3642 125.146 29.9478 125.862 29.9478C126.578 29.9478 127.188 29.3642 127.188 28.6215Z" fill="#2C1E4A"/>
<path d="M127.188 28.6215C127.188 27.8787 126.578 27.2952 125.862 27.2952C125.119 27.2952 124.536 27.9053 124.536 28.6215C124.536 29.3642 125.146 29.9478 125.862 29.9478C126.578 29.9478 127.188 29.3642 127.188 28.6215Z" fill="white"/>
<path d="M127.188 28.6215C127.188 27.8787 126.578 27.2952 125.862 27.2952C125.119 27.2952 124.536 27.9053 124.536 28.6215C124.536 29.3642 125.146 29.9478 125.862 29.9478C126.578 29.9478 127.188 29.3642 127.188 28.6215Z" fill="#E7CD1E"/>
<path d="M126.074 0.318447C126.074 0.185817 125.968 0.0798039 125.835 0.0798039C125.703 0.0798039 125.597 0.185817 125.597 0.318446C125.597 0.451076 125.703 0.557251 125.835 0.557251C125.995 0.530725 126.101 0.42455 126.074 0.318447Z" fill="#2C1E4A"/>
<path d="M126.074 0.318447C126.074 0.185817 125.968 0.0798039 125.835 0.0798039C125.703 0.0798039 125.597 0.185817 125.597 0.318446C125.597 0.451076 125.703 0.557251 125.835 0.557251C125.995 0.530725 126.101 0.42455 126.074 0.318447Z" fill="white"/>
<path d="M126.074 0.318447C126.074 0.185817 125.968 0.0798039 125.835 0.0798039C125.703 0.0798039 125.597 0.185817 125.597 0.318446C125.597 0.451076 125.703 0.557251 125.835 0.557251C125.995 0.530725 126.101 0.42455 126.074 0.318447Z" fill="#E7CD1E"/>
<path d="M154.404 170.164C154.404 170.031 154.298 169.925 154.165 169.925C154.033 169.925 153.927 170.031 153.927 170.164C153.927 170.297 154.033 170.403 154.165 170.403C154.298 170.403 154.404 170.297 154.404 170.164Z" fill="#2C1E4A"/>
<path d="M154.404 170.164C154.404 170.031 154.298 169.925 154.165 169.925C154.033 169.925 153.927 170.031 153.927 170.164C153.927 170.297 154.033 170.403 154.165 170.403C154.298 170.403 154.404 170.297 154.404 170.164Z" fill="white"/>
<path d="M154.404 170.164C154.404 170.031 154.298 169.925 154.165 169.925C154.033 169.925 153.927 170.031 153.927 170.164C153.927 170.297 154.033 170.403 154.165 170.403C154.298 170.403 154.404 170.297 154.404 170.164Z" fill="#E7CD1E"/>
<path d="M155.253 141.861C155.253 141.251 154.749 140.746 154.138 140.746C153.528 140.746 153.051 141.251 153.024 141.861C153.024 142.471 153.528 142.948 154.138 142.975C154.775 142.948 155.253 142.471 155.253 141.861Z" fill="#2C1E4A"/>
<path d="M155.253 141.861C155.253 141.251 154.749 140.746 154.138 140.746C153.528 140.746 153.051 141.251 153.024 141.861C153.024 142.471 153.528 142.948 154.138 142.975C154.775 142.948 155.253 142.471 155.253 141.861Z" fill="white"/>
<path d="M155.253 141.861C155.253 141.251 154.749 140.746 154.138 140.746C153.528 140.746 153.051 141.251 153.024 141.861C153.024 142.471 153.528 142.948 154.138 142.975C154.775 142.948 155.253 142.471 155.253 141.861Z" fill="#E7CD1E"/>
<path d="M156.446 113.557C156.446 112.311 155.438 111.276 154.165 111.276C152.918 111.276 151.884 112.311 151.884 113.557C151.884 114.804 152.918 115.839 154.165 115.839C155.412 115.812 156.446 114.804 156.446 113.557Z" fill="#2C1E4A"/>
<path d="M156.446 113.557C156.446 112.311 155.438 111.276 154.165 111.276C152.918 111.276 151.884 112.311 151.884 113.557C151.884 114.804 152.918 115.839 154.165 115.839C155.412 115.812 156.446 114.804 156.446 113.557Z" fill="white"/>
<path d="M156.446 113.557C156.446 112.311 155.438 111.276 154.165 111.276C152.918 111.276 151.884 112.311 151.884 113.557C151.884 114.804 152.918 115.839 154.165 115.839C155.412 115.812 156.446 114.804 156.446 113.557Z" fill="#E7CD1E"/>
<path d="M157.056 85.2278C157.056 83.6362 155.757 82.31 154.139 82.31C152.547 82.31 151.247 83.6097 151.221 85.2278C151.221 86.8194 152.521 88.1192 154.139 88.1458C155.757 88.1458 157.056 86.8459 157.056 85.2278Z" fill="#2C1E4A"/>
<path d="M157.056 85.2278C157.056 83.6362 155.757 82.31 154.139 82.31C152.547 82.31 151.247 83.6097 151.221 85.2278C151.221 86.8194 152.521 88.1192 154.139 88.1458C155.757 88.1458 157.056 86.8459 157.056 85.2278Z" fill="white"/>
<path d="M157.056 85.2278C157.056 83.6362 155.757 82.31 154.139 82.31C152.547 82.31 151.247 83.6097 151.221 85.2278C151.221 86.8194 152.521 88.1192 154.139 88.1458C155.757 88.1458 157.056 86.8459 157.056 85.2278Z" fill="#E7CD1E"/>
<path d="M156.208 56.9246C156.208 55.8105 155.306 54.8821 154.165 54.8821C153.051 54.8821 152.122 55.8105 152.122 56.9246C152.122 58.0652 153.051 58.9672 154.165 58.9672C155.279 58.9672 156.208 58.0652 156.208 56.9246Z" fill="#2C1E4A"/>
<path d="M156.208 56.9246C156.208 55.8105 155.306 54.8821 154.165 54.8821C153.051 54.8821 152.122 55.8105 152.122 56.9246C152.122 58.0652 153.051 58.9672 154.165 58.9672C155.279 58.9672 156.208 58.0652 156.208 56.9246Z" fill="white"/>
<path d="M156.208 56.9246C156.208 55.8105 155.306 54.8821 154.165 54.8821C153.051 54.8821 152.122 55.8105 152.122 56.9246C152.122 58.0652 153.051 58.9672 154.165 58.9672C155.279 58.9672 156.208 58.0652 156.208 56.9246Z" fill="#E7CD1E"/>
<path d="M155.173 28.6216C155.173 28.0646 154.722 27.5871 154.138 27.6136C153.581 27.6136 153.13 28.0646 153.13 28.6216C153.13 29.1787 153.581 29.6295 154.138 29.656C154.722 29.6295 155.173 29.1787 155.173 28.6216Z" fill="#2C1E4A"/>
<path d="M155.173 28.6216C155.173 28.0646 154.722 27.5871 154.138 27.6136C153.581 27.6136 153.13 28.0646 153.13 28.6216C153.13 29.1787 153.581 29.6295 154.138 29.656C154.722 29.6295 155.173 29.1787 155.173 28.6216Z" fill="white"/>
<path d="M155.173 28.6216C155.173 28.0646 154.722 27.5871 154.138 27.6136C153.581 27.6136 153.13 28.0646 153.13 28.6216C153.13 29.1787 153.581 29.6295 154.138 29.656C154.722 29.6295 155.173 29.1787 155.173 28.6216Z" fill="#E7CD1E"/>
<path d="M154.404 0.318447C154.404 0.185817 154.298 0.0798039 154.165 0.0798039C154.032 0.0798039 153.926 0.185817 153.926 0.318446C153.926 0.451076 154.032 0.557251 154.165 0.557251C154.298 0.530725 154.404 0.42455 154.404 0.318447Z" fill="#2C1E4A"/>
<path d="M154.404 0.318447C154.404 0.185817 154.298 0.0798039 154.165 0.0798039C154.032 0.0798039 153.926 0.185817 153.926 0.318446C153.926 0.451076 154.032 0.557251 154.165 0.557251C154.298 0.530725 154.404 0.42455 154.404 0.318447Z" fill="white"/>
<path d="M154.404 0.318447C154.404 0.185817 154.298 0.0798039 154.165 0.0798039C154.032 0.0798039 153.926 0.185817 153.926 0.318446C153.926 0.451076 154.032 0.557251 154.165 0.557251C154.298 0.530725 154.404 0.42455 154.404 0.318447Z" fill="#E7CD1E"/>
<path d="M182.627 170.163C182.627 170.084 182.548 170.004 182.468 170.004C182.388 170.004 182.308 170.084 182.308 170.163C182.308 170.243 182.388 170.323 182.468 170.323C182.548 170.323 182.627 170.27 182.627 170.163Z" fill="#2C1E4A"/>
<path d="M182.627 170.163C182.627 170.084 182.548 170.004 182.468 170.004C182.388 170.004 182.308 170.084 182.308 170.163C182.308 170.243 182.388 170.323 182.468 170.323C182.548 170.323 182.627 170.27 182.627 170.163Z" fill="white"/>
<path d="M182.627 170.163C182.627 170.084 182.548 170.004 182.468 170.004C182.388 170.004 182.308 170.084 182.308 170.163C182.308 170.243 182.388 170.323 182.468 170.323C182.548 170.323 182.627 170.27 182.627 170.163Z" fill="#E7CD1E"/>
<path d="M183.264 141.861C183.264 141.436 182.919 141.065 182.495 141.065C182.07 141.065 181.699 141.41 181.699 141.861C181.699 142.312 182.044 142.63 182.495 142.63C182.946 142.63 183.264 142.285 183.264 141.861Z" fill="#2C1E4A"/>
<path d="M183.264 141.861C183.264 141.436 182.919 141.065 182.495 141.065C182.07 141.065 181.699 141.41 181.699 141.861C181.699 142.312 182.044 142.63 182.495 142.63C182.946 142.63 183.264 142.285 183.264 141.861Z" fill="white"/>
<path d="M183.264 141.861C183.264 141.436 182.919 141.065 182.495 141.065C182.07 141.065 181.699 141.41 181.699 141.861C181.699 142.312 182.044 142.63 182.495 142.63C182.946 142.63 183.264 142.285 183.264 141.861Z" fill="#E7CD1E"/>
<path d="M184.113 113.557C184.113 112.656 183.37 111.913 182.468 111.913C181.566 111.913 180.823 112.656 180.823 113.557C180.823 114.459 181.566 115.202 182.468 115.202C183.397 115.202 184.113 114.459 184.113 113.557Z" fill="#2C1E4A"/>
<path d="M184.113 113.557C184.113 112.656 183.37 111.913 182.468 111.913C181.566 111.913 180.823 112.656 180.823 113.557C180.823 114.459 181.566 115.202 182.468 115.202C183.397 115.202 184.113 114.459 184.113 113.557Z" fill="white"/>
<path d="M184.113 113.557C184.113 112.656 183.37 111.913 182.468 111.913C181.566 111.913 180.823 112.656 180.823 113.557C180.823 114.459 181.566 115.202 182.468 115.202C183.397 115.202 184.113 114.459 184.113 113.557Z" fill="#E7CD1E"/>
<path d="M184.51 85.228C184.51 84.0873 183.582 83.1854 182.468 83.1854C181.328 83.1854 180.426 84.0873 180.426 85.228C180.426 86.342 181.328 87.2705 182.468 87.2705C183.609 87.2705 184.51 86.3686 184.51 85.228Z" fill="#2C1E4A"/>
<path d="M184.51 85.228C184.51 84.0873 183.582 83.1854 182.468 83.1854C181.328 83.1854 180.426 84.0873 180.426 85.228C180.426 86.342 181.328 87.2705 182.468 87.2705C183.609 87.2705 184.51 86.3686 184.51 85.228Z" fill="white"/>
<path d="M184.51 85.228C184.51 84.0873 183.582 83.1854 182.468 83.1854C181.328 83.1854 180.426 84.0873 180.426 85.228C180.426 86.342 181.328 87.2705 182.468 87.2705C183.609 87.2705 184.51 86.3686 184.51 85.228Z" fill="#E7CD1E"/>
<path d="M183.954 56.9246C183.954 56.1023 183.291 55.4391 182.468 55.4391C181.646 55.4391 180.983 56.1023 180.983 56.9246C180.983 57.7469 181.646 58.41 182.468 58.41C183.291 58.41 183.954 57.7469 183.954 56.9246Z" fill="#2C1E4A"/>
<path d="M183.954 56.9246C183.954 56.1023 183.291 55.4391 182.468 55.4391C181.646 55.4391 180.983 56.1023 180.983 56.9246C180.983 57.7469 181.646 58.41 182.468 58.41C183.291 58.41 183.954 57.7469 183.954 56.9246Z" fill="white"/>
<path d="M183.954 56.9246C183.954 56.1023 183.291 55.4391 182.468 55.4391C181.646 55.4391 180.983 56.1023 180.983 56.9246C180.983 57.7469 181.646 58.41 182.468 58.41C183.291 58.41 183.954 57.7469 183.954 56.9246Z" fill="#E7CD1E"/>
<path d="M183.184 28.6217C183.184 28.2238 182.866 27.9054 182.468 27.9054C182.07 27.9054 181.752 28.2238 181.752 28.6217C181.752 29.0196 182.07 29.3378 182.468 29.3378C182.866 29.3378 183.184 29.0196 183.184 28.6217Z" fill="#2C1E4A"/>
<path d="M183.184 28.6217C183.184 28.2238 182.866 27.9054 182.468 27.9054C182.07 27.9054 181.752 28.2238 181.752 28.6217C181.752 29.0196 182.07 29.3378 182.468 29.3378C182.866 29.3378 183.184 29.0196 183.184 28.6217Z" fill="white"/>
<path d="M183.184 28.6217C183.184 28.2238 182.866 27.9054 182.468 27.9054C182.07 27.9054 181.752 28.2238 181.752 28.6217C181.752 29.0196 182.07 29.3378 182.468 29.3378C182.866 29.3378 183.184 29.0196 183.184 28.6217Z" fill="#E7CD1E"/>
<path d="M182.627 0.291272C182.627 0.211441 182.548 0.131616 182.468 0.131616C182.388 0.131616 182.308 0.211441 182.308 0.291272C182.308 0.371103 182.388 0.450928 182.468 0.450928C182.548 0.450928 182.627 0.397713 182.627 0.291272Z" fill="#2C1E4A"/>
<path d="M182.627 0.291272C182.627 0.211441 182.548 0.131616 182.468 0.131616C182.388 0.131616 182.308 0.211441 182.308 0.291272C182.308 0.371103 182.388 0.450928 182.468 0.450928C182.548 0.450928 182.627 0.397713 182.627 0.291272Z" fill="white"/>
<path d="M182.627 0.291272C182.627 0.211441 182.548 0.131616 182.468 0.131616C182.388 0.131616 182.308 0.211441 182.308 0.291272C182.308 0.371103 182.388 0.450928 182.468 0.450928C182.548 0.450928 182.627 0.397713 182.627 0.291272Z" fill="#E7CD1E"/>
<path d="M210.851 170.164C210.851 170.111 210.824 170.084 210.771 170.084C210.745 170.084 210.692 170.111 210.692 170.164C210.692 170.217 210.718 170.243 210.771 170.243C210.824 170.243 210.851 170.217 210.851 170.164Z" fill="#2C1E4A"/>
<path d="M210.851 170.164C210.851 170.111 210.824 170.084 210.771 170.084C210.745 170.084 210.692 170.111 210.692 170.164C210.692 170.217 210.718 170.243 210.771 170.243C210.824 170.243 210.851 170.217 210.851 170.164Z" fill="white"/>
<path d="M210.851 170.164C210.851 170.111 210.824 170.084 210.771 170.084C210.745 170.084 210.692 170.111 210.692 170.164C210.692 170.217 210.718 170.243 210.771 170.243C210.824 170.243 210.851 170.217 210.851 170.164Z" fill="#E7CD1E"/>
<path d="M211.328 141.861C211.328 141.542 211.09 141.304 210.771 141.304C210.479 141.304 210.214 141.542 210.214 141.861C210.214 142.179 210.453 142.418 210.771 142.418C211.09 142.418 211.328 142.179 211.328 141.861Z" fill="#2C1E4A"/>
<path d="M211.328 141.861C211.328 141.542 211.09 141.304 210.771 141.304C210.479 141.304 210.214 141.542 210.214 141.861C210.214 142.179 210.453 142.418 210.771 142.418C211.09 142.418 211.328 142.179 211.328 141.861Z" fill="white"/>
<path d="M211.328 141.861C211.328 141.542 211.09 141.304 210.771 141.304C210.479 141.304 210.214 141.542 210.214 141.861C210.214 142.179 210.453 142.418 210.771 142.418C211.09 142.418 211.328 142.179 211.328 141.861Z" fill="#E7CD1E"/>
<path d="M211.806 113.557C211.806 113 211.355 112.549 210.798 112.549C210.241 112.549 209.763 113 209.763 113.557C209.763 114.115 210.214 114.566 210.798 114.592C211.355 114.566 211.806 114.115 211.806 113.557Z" fill="#2C1E4A"/>
<path d="M211.806 113.557C211.806 113 211.355 112.549 210.798 112.549C210.241 112.549 209.763 113 209.763 113.557C209.763 114.115 210.214 114.566 210.798 114.592C211.355 114.566 211.806 114.115 211.806 113.557Z" fill="white"/>
<path d="M211.806 113.557C211.806 113 211.355 112.549 210.798 112.549C210.241 112.549 209.763 113 209.763 113.557C209.763 114.115 210.214 114.566 210.798 114.592C211.355 114.566 211.806 114.115 211.806 113.557Z" fill="#E7CD1E"/>
<path d="M212.044 85.2279C212.044 84.5382 211.487 83.9812 210.798 83.9812C210.108 83.9812 209.551 84.5382 209.551 85.2279C209.551 85.9175 210.108 86.4747 210.798 86.4747C211.487 86.5012 212.044 85.9441 212.044 85.2279Z" fill="#2C1E4A"/>
<path d="M212.044 85.2279C212.044 84.5382 211.487 83.9812 210.798 83.9812C210.108 83.9812 209.551 84.5382 209.551 85.2279C209.551 85.9175 210.108 86.4747 210.798 86.4747C211.487 86.5012 212.044 85.9441 212.044 85.2279Z" fill="white"/>
<path d="M212.044 85.2279C212.044 84.5382 211.487 83.9812 210.798 83.9812C210.108 83.9812 209.551 84.5382 209.551 85.2279C209.551 85.9175 210.108 86.4747 210.798 86.4747C211.487 86.5012 212.044 85.9441 212.044 85.2279Z" fill="#E7CD1E"/>
<path d="M210.771 55.9697C210.244 55.9697 209.816 56.3972 209.816 56.9246C209.816 57.452 210.244 57.8795 210.771 57.8795C211.299 57.8795 211.726 57.452 211.726 56.9246C211.726 56.3972 211.299 55.9697 210.771 55.9697Z" fill="#2C1E4A"/>
<path d="M210.771 55.9697C210.244 55.9697 209.816 56.3972 209.816 56.9246C209.816 57.452 210.244 57.8795 210.771 57.8795C211.299 57.8795 211.726 57.452 211.726 56.9246C211.726 56.3972 211.299 55.9697 210.771 55.9697Z" fill="white"/>
<path d="M210.771 55.9697C210.244 55.9697 209.816 56.3972 209.816 56.9246C209.816 57.452 210.244 57.8795 210.771 57.8795C211.299 57.8795 211.726 57.452 211.726 56.9246C211.726 56.3972 211.299 55.9697 210.771 55.9697Z" fill="#E7CD1E"/>
<path d="M211.249 28.6217C211.249 28.3564 211.037 28.1441 210.771 28.1441C210.506 28.1441 210.294 28.3564 210.294 28.6217C210.294 28.8869 210.506 29.0991 210.771 29.0991C211.037 29.0991 211.249 28.8869 211.249 28.6217Z" fill="#2C1E4A"/>
<path d="M211.249 28.6217C211.249 28.3564 211.037 28.1441 210.771 28.1441C210.506 28.1441 210.294 28.3564 210.294 28.6217C210.294 28.8869 210.506 29.0991 210.771 29.0991C211.037 29.0991 211.249 28.8869 211.249 28.6217Z" fill="white"/>
<path d="M211.249 28.6217C211.249 28.3564 211.037 28.1441 210.771 28.1441C210.506 28.1441 210.294 28.3564 210.294 28.6217C210.294 28.8869 210.506 29.0991 210.771 29.0991C211.037 29.0991 211.249 28.8869 211.249 28.6217Z" fill="#E7CD1E"/>
<path d="M210.851 0.318416C210.851 0.265364 210.824 0.238922 210.771 0.238922C210.718 0.238922 210.692 0.265364 210.692 0.318416C210.692 0.371468 210.718 0.398071 210.771 0.398071C210.824 0.371545 210.851 0.344942 210.851 0.318416Z" fill="#2C1E4A"/>
<path d="M210.851 0.318416C210.851 0.265364 210.824 0.238922 210.771 0.238922C210.718 0.238922 210.692 0.265364 210.692 0.318416C210.692 0.371468 210.718 0.398071 210.771 0.398071C210.824 0.371545 210.851 0.344942 210.851 0.318416Z" fill="white"/>
<path d="M210.851 0.318416C210.851 0.265364 210.824 0.238922 210.771 0.238922C210.718 0.238922 210.692 0.265364 210.692 0.318416C210.692 0.371468 210.718 0.398071 210.771 0.398071C210.824 0.371545 210.851 0.344942 210.851 0.318416Z" fill="#E7CD1E"/>
<path d="M239.181 170.164C239.181 170.111 239.154 170.084 239.101 170.084C239.074 170.084 239.022 170.111 239.022 170.164C239.022 170.217 239.048 170.243 239.101 170.243C239.154 170.243 239.181 170.217 239.181 170.164Z" fill="#2C1E4A"/>
<path d="M239.181 170.164C239.181 170.111 239.154 170.084 239.101 170.084C239.074 170.084 239.022 170.111 239.022 170.164C239.022 170.217 239.048 170.243 239.101 170.243C239.154 170.243 239.181 170.217 239.181 170.164Z" fill="white"/>
<path d="M239.181 170.164C239.181 170.111 239.154 170.084 239.101 170.084C239.074 170.084 239.022 170.111 239.022 170.164C239.022 170.217 239.048 170.243 239.101 170.243C239.154 170.243 239.181 170.217 239.181 170.164Z" fill="#E7CD1E"/>
<path d="M239.101 141.542C238.925 141.542 238.783 141.685 238.783 141.861C238.783 142.037 238.925 142.179 239.101 142.179C239.277 142.179 239.419 142.037 239.419 141.861C239.419 141.685 239.277 141.542 239.101 141.542Z" fill="#2C1E4A"/>
<path d="M239.101 141.542C238.925 141.542 238.783 141.685 238.783 141.861C238.783 142.037 238.925 142.179 239.101 142.179C239.277 142.179 239.419 142.037 239.419 141.861C239.419 141.685 239.277 141.542 239.101 141.542Z" fill="white"/>
<path d="M239.101 141.542C238.925 141.542 238.783 141.685 238.783 141.861C238.783 142.037 238.925 142.179 239.101 142.179C239.277 142.179 239.419 142.037 239.419 141.861C239.419 141.685 239.277 141.542 239.101 141.542Z" fill="#E7CD1E"/>
<path d="M239.658 113.557C239.658 113.266 239.419 113 239.101 113C238.809 113 238.544 113.239 238.544 113.557C238.544 113.876 238.783 114.115 239.101 114.115C239.393 114.115 239.658 113.849 239.658 113.557Z" fill="#2C1E4A"/>
<path d="M239.658 113.557C239.658 113.266 239.419 113 239.101 113C238.809 113 238.544 113.239 238.544 113.557C238.544 113.876 238.783 114.115 239.101 114.115C239.393 114.115 239.658 113.849 239.658 113.557Z" fill="white"/>
<path d="M239.658 113.557C239.658 113.266 239.419 113 239.101 113C238.809 113 238.544 113.239 238.544 113.557C238.544 113.876 238.783 114.115 239.101 114.115C239.393 114.115 239.658 113.849 239.658 113.557Z" fill="#E7CD1E"/>
<path d="M239.711 85.2279C239.711 84.8831 239.419 84.5913 239.075 84.5913C238.73 84.5913 238.438 84.8831 238.438 85.2279C238.438 85.5727 238.73 85.8645 239.075 85.8645C239.446 85.8645 239.711 85.5993 239.711 85.2279Z" fill="#2C1E4A"/>
<path d="M239.711 85.2279C239.711 84.8831 239.419 84.5913 239.075 84.5913C238.73 84.5913 238.438 84.8831 238.438 85.2279C238.438 85.5727 238.73 85.8645 239.075 85.8645C239.446 85.8645 239.711 85.5993 239.711 85.2279Z" fill="white"/>
<path d="M239.711 85.2279C239.711 84.8831 239.419 84.5913 239.075 84.5913C238.73 84.5913 238.438 84.8831 238.438 85.2279C238.438 85.5727 238.73 85.8645 239.075 85.8645C239.446 85.8645 239.711 85.5993 239.711 85.2279Z" fill="#E7CD1E"/>
<path d="M239.579 56.9248C239.579 56.6595 239.366 56.4473 239.101 56.4473C238.836 56.4473 238.624 56.6595 238.624 56.9248C238.624 57.19 238.836 57.4022 239.101 57.4022C239.366 57.4022 239.579 57.19 239.579 56.9248Z" fill="#2C1E4A"/>
<path d="M239.579 56.9248C239.579 56.6595 239.366 56.4473 239.101 56.4473C238.836 56.4473 238.624 56.6595 238.624 56.9248C238.624 57.19 238.836 57.4022 239.101 57.4022C239.366 57.4022 239.579 57.19 239.579 56.9248Z" fill="white"/>
<path d="M239.579 56.9248C239.579 56.6595 239.366 56.4473 239.101 56.4473C238.836 56.4473 238.624 56.6595 238.624 56.9248C238.624 57.19 238.836 57.4022 239.101 57.4022C239.366 57.4022 239.579 57.19 239.579 56.9248Z" fill="#E7CD1E"/>
<path d="M239.34 28.6217C239.34 28.4891 239.234 28.3829 239.101 28.3829C238.968 28.3829 238.862 28.4891 238.862 28.6217C238.862 28.7543 238.968 28.8604 239.101 28.8604C239.234 28.8604 239.34 28.7543 239.34 28.6217Z" fill="#2C1E4A"/>
<path d="M239.34 28.6217C239.34 28.4891 239.234 28.3829 239.101 28.3829C238.968 28.3829 238.862 28.4891 238.862 28.6217C238.862 28.7543 238.968 28.8604 239.101 28.8604C239.234 28.8604 239.34 28.7543 239.34 28.6217Z" fill="white"/>
<path d="M239.34 28.6217C239.34 28.4891 239.234 28.3829 239.101 28.3829C238.968 28.3829 238.862 28.4891 238.862 28.6217C238.862 28.7543 238.968 28.8604 239.101 28.8604C239.234 28.8604 239.34 28.7543 239.34 28.6217Z" fill="#E7CD1E"/>
<path d="M239.181 0.318416C239.181 0.265364 239.154 0.238922 239.101 0.238922C239.074 0.238922 239.022 0.265364 239.022 0.318416C239.022 0.371468 239.048 0.398071 239.101 0.398071C239.128 0.371545 239.181 0.344942 239.181 0.318416Z" fill="#2C1E4A"/>
<path d="M239.181 0.318416C239.181 0.265364 239.154 0.238922 239.101 0.238922C239.074 0.238922 239.022 0.265364 239.022 0.318416C239.022 0.371468 239.048 0.398071 239.101 0.398071C239.128 0.371545 239.181 0.344942 239.181 0.318416Z" fill="white"/>
<path d="M239.181 0.318416C239.181 0.265364 239.154 0.238922 239.101 0.238922C239.074 0.238922 239.022 0.265364 239.022 0.318416C239.022 0.371468 239.048 0.398071 239.101 0.398071C239.128 0.371545 239.181 0.344942 239.181 0.318416Z" fill="#E7CD1E"/>
<path d="M267.484 141.861C267.484 141.808 267.457 141.781 267.404 141.781C267.351 141.781 267.324 141.808 267.324 141.861C267.324 141.914 267.351 141.94 267.404 141.94C267.457 141.94 267.484 141.914 267.484 141.861Z" fill="#2C1E4A"/>
<path d="M267.484 141.861C267.484 141.808 267.457 141.781 267.404 141.781C267.351 141.781 267.324 141.808 267.324 141.861C267.324 141.914 267.351 141.94 267.404 141.94C267.457 141.94 267.484 141.914 267.484 141.861Z" fill="white"/>
<path d="M267.484 141.861C267.484 141.808 267.457 141.781 267.404 141.781C267.351 141.781 267.324 141.808 267.324 141.861C267.324 141.914 267.351 141.94 267.404 141.94C267.457 141.94 267.484 141.914 267.484 141.861Z" fill="#E7CD1E"/>
<path d="M267.484 113.557C267.484 113.504 267.457 113.478 267.404 113.478C267.351 113.478 267.324 113.504 267.324 113.557L267.404 113.637C267.457 113.637 267.484 113.584 267.484 113.557Z" fill="#2C1E4A"/>
<path d="M267.484 113.557C267.484 113.504 267.457 113.478 267.404 113.478C267.351 113.478 267.324 113.504 267.324 113.557L267.404 113.637C267.457 113.637 267.484 113.584 267.484 113.557Z" fill="white"/>
<path d="M267.484 113.557C267.484 113.504 267.457 113.478 267.404 113.478C267.351 113.478 267.324 113.504 267.324 113.557L267.404 113.637C267.457 113.637 267.484 113.584 267.484 113.557Z" fill="#E7CD1E"/>
<path d="M267.484 85.2277C267.484 85.1747 267.457 85.1482 267.404 85.1482C267.351 85.1482 267.324 85.1747 267.324 85.2277L267.404 85.3074C267.457 85.3074 267.484 85.2808 267.484 85.2277Z" fill="#2C1E4A"/>
<path d="M267.484 85.2277C267.484 85.1747 267.457 85.1482 267.404 85.1482C267.351 85.1482 267.324 85.1747 267.324 85.2277L267.404 85.3074C267.457 85.3074 267.484 85.2808 267.484 85.2277Z" fill="white"/>
<path d="M267.484 85.2277C267.484 85.1747 267.457 85.1482 267.404 85.1482C267.351 85.1482 267.324 85.1747 267.324 85.2277L267.404 85.3074C267.457 85.3074 267.484 85.2808 267.484 85.2277Z" fill="#E7CD1E"/>
<path d="M267.484 56.9247C267.484 56.8716 267.457 56.845 267.404 56.845L267.324 56.9247C267.324 56.9777 267.351 57.0042 267.404 57.0042C267.457 57.0042 267.484 56.9777 267.484 56.9247Z" fill="#2C1E4A"/>
<path d="M267.484 56.9247C267.484 56.8716 267.457 56.845 267.404 56.845L267.324 56.9247C267.324 56.9777 267.351 57.0042 267.404 57.0042C267.457 57.0042 267.484 56.9777 267.484 56.9247Z" fill="white"/>
<path d="M267.484 56.9247C267.484 56.8716 267.457 56.845 267.404 56.845L267.324 56.9247C267.324 56.9777 267.351 57.0042 267.404 57.0042C267.457 57.0042 267.484 56.9777 267.484 56.9247Z" fill="#E7CD1E"/>
<path d="M267.484 28.6217C267.484 28.5952 267.457 28.542 267.404 28.542C267.351 28.542 267.324 28.5686 267.324 28.6217C267.324 28.6747 267.351 28.7012 267.404 28.7012C267.457 28.7012 267.484 28.6482 267.484 28.6217Z" fill="#2C1E4A"/>
<path d="M267.484 28.6217C267.484 28.5952 267.457 28.542 267.404 28.542C267.351 28.542 267.324 28.5686 267.324 28.6217C267.324 28.6747 267.351 28.7012 267.404 28.7012C267.457 28.7012 267.484 28.6482 267.484 28.6217Z" fill="white"/>
<path d="M267.484 28.6217C267.484 28.5952 267.457 28.542 267.404 28.542C267.351 28.542 267.324 28.5686 267.324 28.6217C267.324 28.6747 267.351 28.7012 267.404 28.7012C267.457 28.7012 267.484 28.6482 267.484 28.6217Z" fill="#E7CD1E"/>
</svg>
