<svg width="275" height="171" viewBox="0 0 275 171" fill="none" xmlns="http://www.w3.org/2000/svg">
<path d="M2.44067 141.861C2.44067 141.463 2.12231 141.144 1.72442 141.144C1.32653 141.144 1.00817 141.463 1.00817 141.861C1.00817 142.259 1.32653 142.577 1.72442 142.577C2.12231 142.577 2.44067 142.259 2.44067 141.861Z" fill="#2C1E4A"/>
<path d="M2.44067 141.861C2.44067 141.463 2.12231 141.144 1.72442 141.144C1.32653 141.144 1.00817 141.463 1.00817 141.861C1.00817 142.259 1.32653 142.577 1.72442 142.577C2.12231 142.577 2.44067 142.259 2.44067 141.861Z" fill="white"/>
<path d="M2.44067 141.861C2.44067 141.463 2.12231 141.144 1.72442 141.144C1.32653 141.144 1.00817 141.463 1.00817 141.861C1.00817 142.259 1.32653 142.577 1.72442 142.577C2.12231 142.577 2.44067 142.259 2.44067 141.861Z" fill="#E7CD1E"/>
<path d="M3.15698 113.557C3.15698 112.788 2.52028 112.152 1.75103 112.152C0.955253 112.152 0.34508 112.788 0.345079 113.557C0.345079 114.327 0.981779 114.963 1.75103 114.963C2.52028 114.963 3.15698 114.327 3.15698 113.557Z" fill="#2C1E4A"/>
<path d="M3.15698 113.557C3.15698 112.788 2.52028 112.152 1.75103 112.152C0.955253 112.152 0.34508 112.788 0.345079 113.557C0.345079 114.327 0.981779 114.963 1.75103 114.963C2.52028 114.963 3.15698 114.327 3.15698 113.557Z" fill="white"/>
<path d="M3.15698 113.557C3.15698 112.788 2.52028 112.152 1.75103 112.152C0.955253 112.152 0.34508 112.788 0.345079 113.557C0.345079 114.327 0.981779 114.963 1.75103 114.963C2.52028 114.963 3.15698 114.327 3.15698 113.557Z" fill="#E7CD1E"/>
<path d="M3.44882 85.2277C3.44882 84.2728 2.6795 83.5037 1.72457 83.5037C0.769636 83.5037 0.000320064 84.2728 0.000320026 85.2277C0.000319988 86.1827 0.769636 86.952 1.72457 86.952C2.6795 86.9785 3.47534 86.1827 3.44882 85.2277Z" fill="#2C1E4A"/>
<path d="M3.44882 85.2277C3.44882 84.2728 2.6795 83.5037 1.72457 83.5037C0.769636 83.5037 0.000320064 84.2728 0.000320026 85.2277C0.000319988 86.1827 0.769636 86.952 1.72457 86.952C2.6795 86.9785 3.47534 86.1827 3.44882 85.2277Z" fill="white"/>
<path d="M3.44882 85.2277C3.44882 84.2728 2.6795 83.5037 1.72457 83.5037C0.769636 83.5037 0.000320064 84.2728 0.000320026 85.2277C0.000319988 86.1827 0.769636 86.952 1.72457 86.952C2.6795 86.9785 3.47534 86.1827 3.44882 85.2277Z" fill="#E7CD1E"/>
<path d="M3.07739 56.9247C3.07739 56.182 2.4673 55.5984 1.7511 55.5984C1.00837 55.5984 0.424801 56.2085 0.424801 56.9247C0.424801 57.6674 1.0349 58.251 1.7511 58.251C2.4673 58.251 3.07739 57.6674 3.07739 56.9247Z" fill="#2C1E4A"/>
<path d="M3.07739 56.9247C3.07739 56.182 2.4673 55.5984 1.7511 55.5984C1.00837 55.5984 0.424801 56.2085 0.424801 56.9247C0.424801 57.6674 1.0349 58.251 1.7511 58.251C2.4673 58.251 3.07739 57.6674 3.07739 56.9247Z" fill="white"/>
<path d="M3.07739 56.9247C3.07739 56.182 2.4673 55.5984 1.7511 55.5984C1.00837 55.5984 0.424801 56.2085 0.424801 56.9247C0.424801 57.6674 1.0349 58.251 1.7511 58.251C2.4673 58.251 3.07739 57.6674 3.07739 56.9247Z" fill="#E7CD1E"/>
<path d="M2.36108 28.6216C2.36108 28.2767 2.06932 27.9848 1.72449 27.9848C1.37965 27.9848 1.08789 28.2767 1.08789 28.6216C1.08789 28.9664 1.37965 29.2582 1.72449 29.2582C2.09585 29.2582 2.36108 28.9664 2.36108 28.6216Z" fill="#2C1E4A"/>
<path d="M2.36108 28.6216C2.36108 28.2767 2.06932 27.9848 1.72449 27.9848C1.37965 27.9848 1.08789 28.2767 1.08789 28.6216C1.08789 28.9664 1.37965 29.2582 1.72449 29.2582C2.09585 29.2582 2.36108 28.9664 2.36108 28.6216Z" fill="white"/>
<path d="M2.36108 28.6216C2.36108 28.2767 2.06932 27.9848 1.72449 27.9848C1.37965 27.9848 1.08789 28.2767 1.08789 28.6216C1.08789 28.9664 1.37965 29.2582 1.72449 29.2582C2.09585 29.2582 2.36108 28.9664 2.36108 28.6216Z" fill="#E7CD1E"/>
<path d="M31.5396 141.861C31.5396 141.038 30.8766 140.375 30.0543 140.375C29.232 140.375 28.5687 141.038 28.5687 141.861C28.5687 142.683 29.232 143.346 30.0543 143.346C30.8766 143.346 31.5396 142.683 31.5396 141.861Z" fill="#2C1E4A"/>
<path d="M31.5396 141.861C31.5396 141.038 30.8766 140.375 30.0543 140.375C29.232 140.375 28.5687 141.038 28.5687 141.861C28.5687 142.683 29.232 143.346 30.0543 143.346C30.8766 143.346 31.5396 142.683 31.5396 141.861Z" fill="white"/>
<path d="M31.5396 141.861C31.5396 141.038 30.8766 140.375 30.0543 140.375C29.232 140.375 28.5687 141.038 28.5687 141.861C28.5687 142.683 29.232 143.346 30.0543 143.346C30.8766 143.346 31.5396 142.683 31.5396 141.861Z" fill="#E7CD1E"/>
<path d="M33.0251 113.557C33.0251 111.913 31.6989 110.56 30.0543 110.56C28.4097 110.56 27.0568 111.886 27.0834 113.557C27.0834 115.202 28.4096 116.528 30.0543 116.555C31.6989 116.528 33.0251 115.202 33.0251 113.557Z" fill="#2C1E4A"/>
<path d="M33.0251 113.557C33.0251 111.913 31.6989 110.56 30.0543 110.56C28.4097 110.56 27.0568 111.886 27.0834 113.557C27.0834 115.202 28.4096 116.528 30.0543 116.555C31.6989 116.528 33.0251 115.202 33.0251 113.557Z" fill="white"/>
<path d="M33.0251 113.557C33.0251 111.913 31.6989 110.56 30.0543 110.56C28.4097 110.56 27.0568 111.886 27.0834 113.557C27.0834 115.202 28.4096 116.528 30.0543 116.555C31.6989 116.528 33.0251 115.202 33.0251 113.557Z" fill="#E7CD1E"/>
<path d="M33.8208 85.2278C33.8208 83.1322 32.1233 81.4611 30.0543 81.4611C27.9853 81.4611 26.2875 83.1587 26.2875 85.2277C26.2875 87.2968 27.9853 88.9944 30.0543 88.9944C32.1233 88.9944 33.8208 87.3233 33.8208 85.2278Z" fill="#2C1E4A"/>
<path d="M33.8208 85.2278C33.8208 83.1322 32.1233 81.4611 30.0543 81.4611C27.9853 81.4611 26.2875 83.1587 26.2875 85.2277C26.2875 87.2968 27.9853 88.9944 30.0543 88.9944C32.1233 88.9944 33.8208 87.3233 33.8208 85.2278Z" fill="white"/>
<path d="M33.8208 85.2278C33.8208 83.1322 32.1233 81.4611 30.0543 81.4611C27.9853 81.4611 26.2875 83.1587 26.2875 85.2277C26.2875 87.2968 27.9853 88.9944 30.0543 88.9944C32.1233 88.9944 33.8208 87.3233 33.8208 85.2278Z" fill="#E7CD1E"/>
<path d="M32.7861 56.9247C32.7861 55.4127 31.5662 54.1659 30.0542 54.1659C28.5422 54.1659 27.2954 55.3862 27.2954 56.9247C27.2954 58.4367 28.5157 59.6568 30.0542 59.6568C31.5662 59.6833 32.7861 58.4367 32.7861 56.9247Z" fill="#2C1E4A"/>
<path d="M32.7861 56.9247C32.7861 55.4127 31.5662 54.1659 30.0542 54.1659C28.5422 54.1659 27.2954 55.3862 27.2954 56.9247C27.2954 58.4367 28.5157 59.6568 30.0542 59.6568C31.5662 59.6833 32.7861 58.4367 32.7861 56.9247Z" fill="white"/>
<path d="M32.7861 56.9247C32.7861 55.4127 31.5662 54.1659 30.0542 54.1659C28.5422 54.1659 27.2954 55.3862 27.2954 56.9247C27.2954 58.4367 28.5157 59.6568 30.0542 59.6568C31.5662 59.6833 32.7861 58.4367 32.7861 56.9247Z" fill="#E7CD1E"/>
<path d="M31.3806 28.6215C31.3806 27.8787 30.7705 27.2952 30.0543 27.2952C29.3116 27.2952 28.728 27.8787 28.728 28.6215C28.728 29.3642 29.3381 29.9478 30.0543 29.9478C30.797 29.9478 31.3806 29.3642 31.3806 28.6215Z" fill="#2C1E4A"/>
<path d="M31.3806 28.6215C31.3806 27.8787 30.7705 27.2952 30.0543 27.2952C29.3116 27.2952 28.728 27.8787 28.728 28.6215C28.728 29.3642 29.3381 29.9478 30.0543 29.9478C30.797 29.9478 31.3806 29.3642 31.3806 28.6215Z" fill="white"/>
<path d="M31.3806 28.6215C31.3806 27.8787 30.7705 27.2952 30.0543 27.2952C29.3116 27.2952 28.728 27.8787 28.728 28.6215C28.728 29.3642 29.3381 29.9478 30.0543 29.9478C30.797 29.9478 31.3806 29.3642 31.3806 28.6215Z" fill="#E7CD1E"/>
<path d="M60.718 141.861C60.718 140.561 59.6569 139.5 58.3572 139.5C57.0574 139.5 55.9963 140.561 55.9963 141.861C55.9963 143.16 57.0574 144.221 58.3572 144.221C59.6569 144.221 60.718 143.16 60.718 141.861Z" fill="#2C1E4A"/>
<path d="M60.718 141.861C60.718 140.561 59.6569 139.5 58.3572 139.5C57.0574 139.5 55.9963 140.561 55.9963 141.861C55.9963 143.16 57.0574 144.221 58.3572 144.221C59.6569 144.221 60.718 143.16 60.718 141.861Z" fill="white"/>
<path d="M60.718 141.861C60.718 140.561 59.6569 139.5 58.3572 139.5C57.0574 139.5 55.9963 140.561 55.9963 141.861C55.9963 143.16 57.0574 144.221 58.3572 144.221C59.6569 144.221 60.718 143.16 60.718 141.861Z" fill="#E7CD1E"/>
<path d="M63.2383 113.558C63.2383 110.878 61.0629 108.677 58.3573 108.677C55.6516 108.677 53.5031 110.852 53.4766 113.558C53.4766 116.237 55.6516 118.438 58.3573 118.438C61.0364 118.412 63.2383 116.237 63.2383 113.558Z" fill="#2C1E4A"/>
<path d="M63.2383 113.558C63.2383 110.878 61.0629 108.677 58.3573 108.677C55.6516 108.677 53.5031 110.852 53.4766 113.558C53.4766 116.237 55.6516 118.438 58.3573 118.438C61.0364 118.412 63.2383 116.237 63.2383 113.558Z" fill="white"/>
<path d="M63.2383 113.558C63.2383 110.878 61.0629 108.677 58.3573 108.677C55.6516 108.677 53.5031 110.852 53.4766 113.558C53.4766 116.237 55.6516 118.438 58.3573 118.438C61.0364 118.412 63.2383 116.237 63.2383 113.558Z" fill="#E7CD1E"/>
<path d="M64.3257 85.2277C64.3257 81.9385 61.6466 79.2594 58.3574 79.2594C55.0681 79.2594 52.389 81.9385 52.389 85.2277C52.389 88.5169 55.0681 91.196 58.3574 91.196C61.6466 91.196 64.3257 88.5435 64.3257 85.2277Z" fill="#2C1E4A"/>
<path d="M64.3257 85.2277C64.3257 81.9385 61.6466 79.2594 58.3574 79.2594C55.0681 79.2594 52.389 81.9385 52.389 85.2277C52.389 88.5169 55.0681 91.196 58.3574 91.196C61.6466 91.196 64.3257 88.5435 64.3257 85.2277Z" fill="white"/>
<path d="M64.3257 85.2277C64.3257 81.9385 61.6466 79.2594 58.3574 79.2594C55.0681 79.2594 52.389 81.9385 52.389 85.2277C52.389 88.5169 55.0681 91.196 58.3574 91.196C61.6466 91.196 64.3257 88.5435 64.3257 85.2277Z" fill="#E7CD1E"/>
<path d="M62.8403 56.9247C62.8403 54.4578 60.8242 52.4418 58.3573 52.4418C55.8904 52.4418 53.8746 54.4578 53.8746 56.9247C53.8746 59.3916 55.8904 61.4076 58.3573 61.4076C60.8242 61.4076 62.8403 59.3916 62.8403 56.9247Z" fill="#2C1E4A"/>
<path d="M62.8403 56.9247C62.8403 54.4578 60.8242 52.4418 58.3573 52.4418C55.8904 52.4418 53.8746 54.4578 53.8746 56.9247C53.8746 59.3916 55.8904 61.4076 58.3573 61.4076C60.8242 61.4076 62.8403 59.3916 62.8403 56.9247Z" fill="white"/>
<path d="M62.8403 56.9247C62.8403 54.4578 60.8242 52.4418 58.3573 52.4418C55.8904 52.4418 53.8746 54.4578 53.8746 56.9247C53.8746 59.3916 55.8904 61.4076 58.3573 61.4076C60.8242 61.4076 62.8403 59.3916 62.8403 56.9247Z" fill="#E7CD1E"/>
<path d="M60.3997 28.6216C60.3997 27.4809 59.4977 26.579 58.3571 26.579C57.243 26.579 56.3149 27.4809 56.3149 28.6216C56.3149 29.7356 57.2165 30.6639 58.3571 30.6639C59.4977 30.6639 60.3997 29.7356 60.3997 28.6216Z" fill="#2C1E4A"/>
<path d="M60.3997 28.6216C60.3997 27.4809 59.4977 26.579 58.3571 26.579C57.243 26.579 56.3149 27.4809 56.3149 28.6216C56.3149 29.7356 57.2165 30.6639 58.3571 30.6639C59.4977 30.6639 60.3997 29.7356 60.3997 28.6216Z" fill="white"/>
<path d="M60.3997 28.6216C60.3997 27.4809 59.4977 26.579 58.3571 26.579C57.243 26.579 56.3149 27.4809 56.3149 28.6216C56.3149 29.7356 57.2165 30.6639 58.3571 30.6639C59.4977 30.6639 60.3997 29.7356 60.3997 28.6216Z" fill="#E7CD1E"/>
<path d="M89.8169 141.861C89.8169 140.11 88.4112 138.73 86.687 138.73C84.9628 138.73 83.5568 140.136 83.5568 141.861C83.5568 143.585 84.9628 144.991 86.687 144.991C88.4112 144.991 89.8169 143.585 89.8169 141.861Z" fill="#2C1E4A"/>
<path d="M89.8169 141.861C89.8169 140.11 88.4112 138.73 86.687 138.73C84.9628 138.73 83.5568 140.136 83.5568 141.861C83.5568 143.585 84.9628 144.991 86.687 144.991C88.4112 144.991 89.8169 143.585 89.8169 141.861Z" fill="white"/>
<path d="M89.8169 141.861C89.8169 140.11 88.4112 138.73 86.687 138.73C84.9628 138.73 83.5568 140.136 83.5568 141.861C83.5568 143.585 84.9628 144.991 86.687 144.991C88.4112 144.991 89.8169 143.585 89.8169 141.861Z" fill="#E7CD1E"/>
<path d="M92.9473 113.557C92.9473 110.082 90.1355 107.271 86.6606 107.271C83.1857 107.271 80.374 110.082 80.374 113.557C80.374 117.032 83.1857 119.844 86.6606 119.844C90.1355 119.844 92.9473 117.032 92.9473 113.557Z" fill="#2C1E4A"/>
<path d="M92.9473 113.557C92.9473 110.082 90.1355 107.271 86.6606 107.271C83.1857 107.271 80.374 110.082 80.374 113.557C80.374 117.032 83.1857 119.844 86.6606 119.844C90.1355 119.844 92.9473 117.032 92.9473 113.557Z" fill="white"/>
<path d="M92.9473 113.557C92.9473 110.082 90.1355 107.271 86.6606 107.271C83.1857 107.271 80.374 110.082 80.374 113.557C80.374 117.032 83.1857 119.844 86.6606 119.844C90.1355 119.844 92.9473 117.032 92.9473 113.557Z" fill="#E7CD1E"/>
<path d="M94.1406 85.4664C94.1406 81.4866 90.9056 78.2514 86.9257 78.2514C82.9459 78.2514 79.7105 81.4866 79.7105 85.4664C79.7105 89.4463 82.9459 92.6815 86.9257 92.6815C90.9056 92.7072 94.1406 89.472 94.1406 85.4664Z" fill="#2C1E4A"/>
<path d="M94.1406 85.4664C94.1406 81.4866 90.9056 78.2514 86.9257 78.2514C82.9459 78.2514 79.7105 81.4866 79.7105 85.4664C79.7105 89.4463 82.9459 92.6815 86.9257 92.6815C90.9056 92.7072 94.1406 89.472 94.1406 85.4664Z" fill="white"/>
<path d="M94.1406 85.4664C94.1406 81.4866 90.9056 78.2514 86.9257 78.2514C82.9459 78.2514 79.7105 81.4866 79.7105 85.4664C79.7105 89.4463 82.9459 92.6815 86.9257 92.6815C90.9056 92.7072 94.1406 89.472 94.1406 85.4664Z" fill="#E7CD1E"/>
<path d="M92.3901 56.9246C92.3901 53.7681 89.817 51.195 86.6604 51.195C83.5039 51.195 80.9308 53.7681 80.9308 56.9246C80.9308 60.0812 83.5039 62.6542 86.6604 62.6542C89.8436 62.6542 92.3901 60.1078 92.3901 56.9246Z" fill="#2C1E4A"/>
<path d="M92.3901 56.9246C92.3901 53.7681 89.817 51.195 86.6604 51.195C83.5039 51.195 80.9308 53.7681 80.9308 56.9246C80.9308 60.0812 83.5039 62.6542 86.6604 62.6542C89.8436 62.6542 92.3901 60.1078 92.3901 56.9246Z" fill="white"/>
<path d="M92.3901 56.9246C92.3901 53.7681 89.817 51.195 86.6604 51.195C83.5039 51.195 80.9308 53.7681 80.9308 56.9246C80.9308 60.0812 83.5039 62.6542 86.6604 62.6542C89.8436 62.6542 92.3901 60.1078 92.3901 56.9246Z" fill="#E7CD1E"/>
<path d="M89.4194 28.6217C89.4194 27.1097 88.1992 25.8894 86.6872 25.8894C85.1752 25.8894 83.9284 27.1096 83.9284 28.6481C83.9284 30.16 85.1487 31.4069 86.6872 31.4069C88.2257 31.4069 89.4194 30.1336 89.4194 28.6217Z" fill="#2C1E4A"/>
<path d="M89.4194 28.6217C89.4194 27.1097 88.1992 25.8894 86.6872 25.8894C85.1752 25.8894 83.9284 27.1096 83.9284 28.6481C83.9284 30.16 85.1487 31.4069 86.6872 31.4069C88.2257 31.4069 89.4194 30.1336 89.4194 28.6217Z" fill="white"/>
<path d="M89.4194 28.6217C89.4194 27.1097 88.1992 25.8894 86.6872 25.8894C85.1752 25.8894 83.9284 27.1096 83.9284 28.6481C83.9284 30.16 85.1487 31.4069 86.6872 31.4069C88.2257 31.4069 89.4194 30.1336 89.4194 28.6217Z" fill="#E7CD1E"/>
<path d="M118.359 141.861C118.359 140.004 116.847 138.492 114.99 138.492C113.134 138.492 111.622 140.004 111.622 141.861C111.622 143.718 113.134 145.229 114.99 145.229C116.847 145.229 118.359 143.718 118.359 141.861Z" fill="#2C1E4A"/>
<path d="M118.359 141.861C118.359 140.004 116.847 138.492 114.99 138.492C113.134 138.492 111.622 140.004 111.622 141.861C111.622 143.718 113.134 145.229 114.99 145.229C116.847 145.229 118.359 143.718 118.359 141.861Z" fill="white"/>
<path d="M118.359 141.861C118.359 140.004 116.847 138.492 114.99 138.492C113.134 138.492 111.622 140.004 111.622 141.861C111.622 143.718 113.134 145.229 114.99 145.229C116.847 145.229 118.359 143.718 118.359 141.861Z" fill="#E7CD1E"/>
<path d="M121.569 113.718C121.569 110.172 118.69 107.299 115.137 107.299C111.584 107.299 108.679 110.172 108.679 113.744C108.679 117.316 111.558 120.189 115.137 120.189C118.716 120.189 121.569 117.264 121.569 113.718Z" fill="#2C1E4A"/>
<path d="M121.569 113.718C121.569 110.172 118.69 107.299 115.137 107.299C111.584 107.299 108.679 110.172 108.679 113.744C108.679 117.316 111.558 120.189 115.137 120.189C118.716 120.189 121.569 117.264 121.569 113.718Z" fill="white"/>
<path d="M121.569 113.718C121.569 110.172 118.69 107.299 115.137 107.299C111.584 107.299 108.679 110.172 108.679 113.744C108.679 117.316 111.558 120.189 115.137 120.189C118.716 120.189 121.569 117.264 121.569 113.718Z" fill="#E7CD1E"/>
<path d="M122.842 85.4667C122.842 81.2488 119.421 77.8538 115.229 77.8538C111.011 77.8538 107.616 81.2745 107.616 85.4667C107.616 89.6589 111.011 93.0796 115.229 93.0796C119.421 93.0796 122.842 89.6846 122.842 85.4667Z" fill="#2C1E4A"/>
<path d="M122.842 85.4667C122.842 81.2488 119.421 77.8538 115.229 77.8538C111.011 77.8538 107.616 81.2745 107.616 85.4667C107.616 89.6589 111.011 93.0796 115.229 93.0796C119.421 93.0796 122.842 89.6846 122.842 85.4667Z" fill="white"/>
<path d="M122.842 85.4667C122.842 81.2488 119.421 77.8538 115.229 77.8538C111.011 77.8538 107.616 81.2745 107.616 85.4667C107.616 89.6589 111.011 93.0796 115.229 93.0796C119.421 93.0796 122.842 89.6846 122.842 85.4667Z" fill="#E7CD1E"/>
<path d="M121.118 56.6075C121.118 53.0642 118.244 50.1627 114.673 50.1627C111.102 50.1627 108.228 53.0363 108.228 56.6074C108.228 60.1786 111.102 63.0522 114.673 63.0522C118.216 63.0522 121.118 60.1786 121.118 56.6075Z" fill="#2C1E4A"/>
<path d="M121.118 56.6075C121.118 53.0642 118.244 50.1627 114.673 50.1627C111.102 50.1627 108.228 53.0363 108.228 56.6074C108.228 60.1786 111.102 63.0522 114.673 63.0522C118.216 63.0522 121.118 60.1786 121.118 56.6075Z" fill="white"/>
<path d="M121.118 56.6075C121.118 53.0642 118.244 50.1627 114.673 50.1627C111.102 50.1627 108.228 53.0363 108.228 56.6074C108.228 60.1786 111.102 63.0522 114.673 63.0522C118.216 63.0522 121.118 60.1786 121.118 56.6075Z" fill="#E7CD1E"/>
<path d="M117.961 28.6217C117.961 26.9771 116.635 25.6243 114.99 25.6243C113.346 25.6243 111.993 26.9506 112.019 28.6217C112.019 30.2663 113.346 31.5925 114.99 31.619C116.635 31.5925 117.961 30.2663 117.961 28.6217Z" fill="#2C1E4A"/>
<path d="M117.961 28.6217C117.961 26.9771 116.635 25.6243 114.99 25.6243C113.346 25.6243 111.993 26.9506 112.019 28.6217C112.019 30.2663 113.346 31.5925 114.99 31.619C116.635 31.5925 117.961 30.2663 117.961 28.6217Z" fill="white"/>
<path d="M117.961 28.6217C117.961 26.9771 116.635 25.6243 114.99 25.6243C113.346 25.6243 111.993 26.9506 112.019 28.6217C112.019 30.2663 113.346 31.5925 114.99 31.619C116.635 31.5925 117.961 30.2663 117.961 28.6217Z" fill="#E7CD1E"/>
<path d="M146.503 141.861C146.503 140.084 145.071 138.651 143.293 138.651C141.516 138.651 140.084 140.084 140.084 141.861C140.084 143.638 141.516 145.07 143.293 145.07C145.071 145.07 146.503 143.638 146.503 141.861Z" fill="#2C1E4A"/>
<path d="M146.503 141.861C146.503 140.084 145.071 138.651 143.293 138.651C141.516 138.651 140.084 140.084 140.084 141.861C140.084 143.638 141.516 145.07 143.293 145.07C145.071 145.07 146.503 143.638 146.503 141.861Z" fill="white"/>
<path d="M146.503 141.861C146.503 140.084 145.071 138.651 143.293 138.651C141.516 138.651 140.084 140.084 140.084 141.861C140.084 143.638 141.516 145.07 143.293 145.07C145.071 145.07 146.503 143.638 146.503 141.861Z" fill="#E7CD1E"/>
<path d="M149.739 113.558C149.739 110.003 146.848 107.112 143.293 107.112C139.739 107.112 136.848 110.003 136.848 113.558C136.848 117.112 139.739 120.003 143.293 120.003C146.848 119.977 149.739 117.112 149.739 113.558Z" fill="#2C1E4A"/>
<path d="M149.739 113.558C149.739 110.003 146.848 107.112 143.293 107.112C139.739 107.112 136.848 110.003 136.848 113.558C136.848 117.112 139.739 120.003 143.293 120.003C146.848 119.977 149.739 117.112 149.739 113.558Z" fill="white"/>
<path d="M149.739 113.558C149.739 110.003 146.848 107.112 143.293 107.112C139.739 107.112 136.848 110.003 136.848 113.558C136.848 117.112 139.739 120.003 143.293 120.003C146.848 119.977 149.739 117.112 149.739 113.558Z" fill="#E7CD1E"/>
<path d="M150.906 85.2278C150.906 81.0102 147.484 77.6148 143.293 77.6148C139.076 77.6148 135.68 81.0367 135.68 85.2278C135.68 89.4189 139.102 92.8407 143.293 92.8407C147.484 92.8407 150.906 89.4454 150.906 85.2278Z" fill="#2C1E4A"/>
<path d="M150.906 85.2278C150.906 81.0102 147.484 77.6148 143.293 77.6148C139.076 77.6148 135.68 81.0367 135.68 85.2278C135.68 89.4189 139.102 92.8407 143.293 92.8407C147.484 92.8407 150.906 89.4454 150.906 85.2278Z" fill="white"/>
<path d="M150.906 85.2278C150.906 81.0102 147.484 77.6148 143.293 77.6148C139.076 77.6148 135.68 81.0367 135.68 85.2278C135.68 89.4189 139.102 92.8407 143.293 92.8407C147.484 92.8407 150.906 89.4454 150.906 85.2278Z" fill="#E7CD1E"/>
<path d="M149.262 56.4484C149.262 52.8966 146.369 50.0036 142.817 50.0036C139.265 50.0036 136.372 52.8966 136.372 56.4484C136.372 60.0002 139.265 62.8932 142.817 62.8932C146.369 62.8932 149.262 60.0002 149.262 56.4484Z" fill="#2C1E4A"/>
<path d="M149.262 56.4484C149.262 52.8966 146.369 50.0036 142.817 50.0036C139.265 50.0036 136.372 52.8966 136.372 56.4484C136.372 60.0002 139.265 62.8932 142.817 62.8932C146.369 62.8932 149.262 60.0002 149.262 56.4484Z" fill="white"/>
<path d="M149.262 56.4484C149.262 52.8966 146.369 50.0036 142.817 50.0036C139.265 50.0036 136.372 52.8966 136.372 56.4484C136.372 60.0002 139.265 62.8932 142.817 62.8932C146.369 62.8932 149.262 60.0002 149.262 56.4484Z" fill="#E7CD1E"/>
<path d="M146.132 28.6216C146.132 27.0566 144.858 25.8098 143.293 25.8098C141.728 25.8098 140.455 27.0829 140.455 28.648C140.455 30.213 141.728 31.4597 143.293 31.4597C144.858 31.4332 146.132 30.1866 146.132 28.6216Z" fill="#2C1E4A"/>
<path d="M146.132 28.6216C146.132 27.0566 144.858 25.8098 143.293 25.8098C141.728 25.8098 140.455 27.0829 140.455 28.648C140.455 30.213 141.728 31.4597 143.293 31.4597C144.858 31.4332 146.132 30.1866 146.132 28.6216Z" fill="white"/>
<path d="M146.132 28.6216C146.132 27.0566 144.858 25.8098 143.293 25.8098C141.728 25.8098 140.455 27.0829 140.455 28.648C140.455 30.213 141.728 31.4597 143.293 31.4597C144.858 31.4332 146.132 30.1866 146.132 28.6216Z" fill="#E7CD1E"/>
<path d="M174.594 141.861C174.594 140.216 173.241 138.863 171.597 138.863C169.952 138.863 168.599 140.19 168.626 141.861C168.626 143.505 169.952 144.858 171.597 144.858C173.241 144.858 174.594 143.505 174.594 141.861Z" fill="#2C1E4A"/>
<path d="M174.594 141.861C174.594 140.216 173.241 138.863 171.597 138.863C169.952 138.863 168.599 140.19 168.626 141.861C168.626 143.505 169.952 144.858 171.597 144.858C173.241 144.858 174.594 143.505 174.594 141.861Z" fill="white"/>
<path d="M174.594 141.861C174.594 140.216 173.241 138.863 171.597 138.863C169.952 138.863 168.599 140.19 168.626 141.861C168.626 143.505 169.952 144.858 171.597 144.858C173.241 144.858 174.594 143.505 174.594 141.861Z" fill="#E7CD1E"/>
<path d="M177.565 113.081C177.565 109.529 174.672 106.636 171.12 106.636C167.568 106.636 164.675 109.529 164.675 113.081C164.675 116.633 167.568 119.526 171.12 119.526C174.701 119.526 177.565 116.633 177.565 113.081Z" fill="#2C1E4A"/>
<path d="M177.565 113.081C177.565 109.529 174.672 106.636 171.12 106.636C167.568 106.636 164.675 109.529 164.675 113.081C164.675 116.633 167.568 119.526 171.12 119.526C174.701 119.526 177.565 116.633 177.565 113.081Z" fill="white"/>
<path d="M177.565 113.081C177.565 109.529 174.672 106.636 171.12 106.636C167.568 106.636 164.675 109.529 164.675 113.081C164.675 116.633 167.568 119.526 171.12 119.526C174.701 119.526 177.565 116.633 177.565 113.081Z" fill="#E7CD1E"/>
<path d="M178.838 85.2278C178.838 81.2489 175.602 78.0128 171.623 78.0128C167.644 78.0128 164.408 81.2489 164.408 85.2278C164.408 89.2067 167.644 92.443 171.623 92.443C175.602 92.4695 178.838 89.2332 178.838 85.2278Z" fill="#2C1E4A"/>
<path d="M178.838 85.2278C178.838 81.2489 175.602 78.0128 171.623 78.0128C167.644 78.0128 164.408 81.2489 164.408 85.2278C164.408 89.2067 167.644 92.443 171.623 92.443C175.602 92.4695 178.838 89.2332 178.838 85.2278Z" fill="white"/>
<path d="M178.838 85.2278C178.838 81.2489 175.602 78.0128 171.623 78.0128C167.644 78.0128 164.408 81.2489 164.408 85.2278C164.408 89.2067 167.644 92.443 171.623 92.443C175.602 92.4695 178.838 89.2332 178.838 85.2278Z" fill="#E7CD1E"/>
<path d="M177.114 55.9709C177.114 52.4216 174.218 49.5261 170.669 49.5261C167.12 49.5261 164.224 52.4216 164.224 55.9709C164.224 59.5201 167.12 62.4156 170.669 62.4156C174.218 62.4156 177.114 59.5513 177.114 55.9709Z" fill="#2C1E4A"/>
<path d="M177.114 55.9709C177.114 52.4216 174.218 49.5261 170.669 49.5261C167.12 49.5261 164.224 52.4216 164.224 55.9709C164.224 59.5201 167.12 62.4156 170.669 62.4156C174.218 62.4156 177.114 59.5513 177.114 55.9709Z" fill="white"/>
<path d="M177.114 55.9709C177.114 52.4216 174.218 49.5261 170.669 49.5261C167.12 49.5261 164.224 52.4216 164.224 55.9709C164.224 59.5201 167.12 62.4156 170.669 62.4156C174.218 62.4156 177.114 59.5513 177.114 55.9709Z" fill="#E7CD1E"/>
<path d="M174.276 28.6216C174.276 27.1626 173.082 25.9424 171.596 25.9424C170.111 25.9424 168.917 27.1361 168.917 28.6216C168.917 30.107 170.111 31.3005 171.596 31.3005C173.082 31.3005 174.276 30.0805 174.276 28.6216Z" fill="#2C1E4A"/>
<path d="M174.276 28.6216C174.276 27.1626 173.082 25.9424 171.596 25.9424C170.111 25.9424 168.917 27.1361 168.917 28.6216C168.917 30.107 170.111 31.3005 171.596 31.3005C173.082 31.3005 174.276 30.0805 174.276 28.6216Z" fill="white"/>
<path d="M174.276 28.6216C174.276 27.1626 173.082 25.9424 171.596 25.9424C170.111 25.9424 168.917 27.1361 168.917 28.6216C168.917 30.107 170.111 31.3005 171.596 31.3005C173.082 31.3005 174.276 30.0805 174.276 28.6216Z" fill="#E7CD1E"/>
<path d="M202.579 141.861C202.579 140.375 201.385 139.182 199.899 139.182C198.414 139.182 197.221 140.375 197.221 141.861C197.221 143.346 198.414 144.54 199.899 144.54C201.385 144.54 202.579 143.346 202.579 141.861Z" fill="#2C1E4A"/>
<path d="M202.579 141.861C202.579 140.375 201.385 139.182 199.899 139.182C198.414 139.182 197.221 140.375 197.221 141.861C197.221 143.346 198.414 144.54 199.899 144.54C201.385 144.54 202.579 143.346 202.579 141.861Z" fill="white"/>
<path d="M202.579 141.861C202.579 140.375 201.385 139.182 199.899 139.182C198.414 139.182 197.221 140.375 197.221 141.861C197.221 143.346 198.414 144.54 199.899 144.54C201.385 144.54 202.579 143.346 202.579 141.861Z" fill="#E7CD1E"/>
<path d="M205.337 113.558C205.337 110.56 202.923 108.146 199.926 108.146C196.929 108.146 194.515 110.56 194.515 113.558C194.515 116.555 196.929 118.969 199.926 118.969C202.897 118.969 205.337 116.529 205.337 113.558Z" fill="#2C1E4A"/>
<path d="M205.337 113.558C205.337 110.56 202.923 108.146 199.926 108.146C196.929 108.146 194.515 110.56 194.515 113.558C194.515 116.555 196.929 118.969 199.926 118.969C202.897 118.969 205.337 116.529 205.337 113.558Z" fill="white"/>
<path d="M205.337 113.558C205.337 110.56 202.923 108.146 199.926 108.146C196.929 108.146 194.515 110.56 194.515 113.558C194.515 116.555 196.929 118.969 199.926 118.969C202.897 118.969 205.337 116.529 205.337 113.558Z" fill="#E7CD1E"/>
<path d="M206.425 85.2277C206.425 81.6202 203.507 78.7023 199.899 78.7023C196.292 78.7023 193.374 81.6202 193.374 85.2277C193.374 88.8353 196.292 91.7532 199.899 91.7532C203.507 91.7532 206.425 88.8353 206.425 85.2277Z" fill="#2C1E4A"/>
<path d="M206.425 85.2277C206.425 81.6202 203.507 78.7023 199.899 78.7023C196.292 78.7023 193.374 81.6202 193.374 85.2277C193.374 88.8353 196.292 91.7532 199.899 91.7532C203.507 91.7532 206.425 88.8353 206.425 85.2277Z" fill="white"/>
<path d="M206.425 85.2277C206.425 81.6202 203.507 78.7023 199.899 78.7023C196.292 78.7023 193.374 81.6202 193.374 85.2277C193.374 88.8353 196.292 91.7532 199.899 91.7532C203.507 91.7532 206.425 88.8353 206.425 85.2277Z" fill="#E7CD1E"/>
<path d="M204.86 56.9247C204.86 54.1926 202.658 51.991 199.926 51.991C197.194 51.991 194.992 54.1926 194.992 56.9247C194.992 59.6569 197.194 61.8585 199.926 61.8585C202.658 61.8851 204.86 59.6569 204.86 56.9247Z" fill="#2C1E4A"/>
<path d="M204.86 56.9247C204.86 54.1926 202.658 51.991 199.926 51.991C197.194 51.991 194.992 54.1926 194.992 56.9247C194.992 59.6569 197.194 61.8585 199.926 61.8585C202.658 61.8851 204.86 59.6569 204.86 56.9247Z" fill="white"/>
<path d="M204.86 56.9247C204.86 54.1926 202.658 51.991 199.926 51.991C197.194 51.991 194.992 54.1926 194.992 56.9247C194.992 59.6569 197.194 61.8585 199.926 61.8585C202.658 61.8851 204.86 59.6569 204.86 56.9247Z" fill="#E7CD1E"/>
<path d="M202.181 28.6216C202.181 27.3749 201.173 26.3403 199.899 26.3403C198.653 26.3403 197.618 27.3484 197.618 28.6216C197.618 29.8684 198.653 30.9028 199.899 30.9028C201.173 30.9028 202.181 29.8684 202.181 28.6216Z" fill="#2C1E4A"/>
<path d="M202.181 28.6216C202.181 27.3749 201.173 26.3403 199.899 26.3403C198.653 26.3403 197.618 27.3484 197.618 28.6216C197.618 29.8684 198.653 30.9028 199.899 30.9028C201.173 30.9028 202.181 29.8684 202.181 28.6216Z" fill="white"/>
<path d="M202.181 28.6216C202.181 27.3749 201.173 26.3403 199.899 26.3403C198.653 26.3403 197.618 27.3484 197.618 28.6216C197.618 29.8684 198.653 30.9028 199.899 30.9028C201.173 30.9028 202.181 29.8684 202.181 28.6216Z" fill="#E7CD1E"/>
<path d="M230.431 141.861C230.431 140.641 229.45 139.659 228.229 139.659C227.009 139.659 226.028 140.641 226.028 141.861C226.028 143.081 227.009 144.062 228.229 144.062C229.45 144.062 230.431 143.081 230.431 141.861Z" fill="#2C1E4A"/>
<path d="M230.431 141.861C230.431 140.641 229.45 139.659 228.229 139.659C227.009 139.659 226.028 140.641 226.028 141.861C226.028 143.081 227.009 144.062 228.229 144.062C229.45 144.062 230.431 143.081 230.431 141.861Z" fill="white"/>
<path d="M230.431 141.861C230.431 140.641 229.45 139.659 228.229 139.659C227.009 139.659 226.028 140.641 226.028 141.861C226.028 143.081 227.009 144.062 228.229 144.062C229.45 144.062 230.431 143.081 230.431 141.861Z" fill="#E7CD1E"/>
<path d="M232.925 113.558C232.925 110.958 230.829 108.863 228.203 108.863C225.577 108.863 223.481 110.958 223.481 113.558C223.481 116.157 225.577 118.279 228.203 118.279C230.829 118.253 232.925 116.157 232.925 113.558Z" fill="#2C1E4A"/>
<path d="M232.925 113.558C232.925 110.958 230.829 108.863 228.203 108.863C225.577 108.863 223.481 110.958 223.481 113.558C223.481 116.157 225.577 118.279 228.203 118.279C230.829 118.253 232.925 116.157 232.925 113.558Z" fill="white"/>
<path d="M232.925 113.558C232.925 110.958 230.829 108.863 228.203 108.863C225.577 108.863 223.481 110.958 223.481 113.558C223.481 116.157 225.577 118.279 228.203 118.279C230.829 118.253 232.925 116.157 232.925 113.558Z" fill="#E7CD1E"/>
<path d="M233.959 85.2279C233.959 82.0713 231.386 79.4983 228.229 79.4983C225.073 79.4983 222.5 82.0713 222.5 85.2279C222.5 88.3845 225.073 90.9576 228.229 90.9576C231.386 90.9841 233.959 88.411 233.959 85.2279Z" fill="#2C1E4A"/>
<path d="M233.959 85.2279C233.959 82.0713 231.386 79.4983 228.229 79.4983C225.073 79.4983 222.5 82.0713 222.5 85.2279C222.5 88.3845 225.073 90.9576 228.229 90.9576C231.386 90.9841 233.959 88.411 233.959 85.2279Z" fill="white"/>
<path d="M233.959 85.2279C233.959 82.0713 231.386 79.4983 228.229 79.4983C225.073 79.4983 222.5 82.0713 222.5 85.2279C222.5 88.3845 225.073 90.9576 228.229 90.9576C231.386 90.9841 233.959 88.411 233.959 85.2279Z" fill="#E7CD1E"/>
<path d="M232.473 56.9247C232.473 54.5905 230.59 52.6805 228.229 52.6805C225.895 52.6805 223.985 54.5639 223.985 56.9247C223.985 59.259 225.869 61.1688 228.229 61.1688C230.564 61.1688 232.473 59.259 232.473 56.9247Z" fill="#2C1E4A"/>
<path d="M232.473 56.9247C232.473 54.5905 230.59 52.6805 228.229 52.6805C225.895 52.6805 223.985 54.5639 223.985 56.9247C223.985 59.259 225.869 61.1688 228.229 61.1688C230.564 61.1688 232.473 59.259 232.473 56.9247Z" fill="white"/>
<path d="M232.473 56.9247C232.473 54.5905 230.59 52.6805 228.229 52.6805C225.895 52.6805 223.985 54.5639 223.985 56.9247C223.985 59.259 225.869 61.1688 228.229 61.1688C230.564 61.1688 232.473 59.259 232.473 56.9247Z" fill="#E7CD1E"/>
<path d="M230.192 28.6216C230.192 27.534 229.317 26.6585 228.229 26.6585C227.142 26.6585 226.266 27.534 226.266 28.6216C226.266 29.7091 227.142 30.5845 228.229 30.5845C229.317 30.5845 230.192 29.7091 230.192 28.6216Z" fill="#2C1E4A"/>
<path d="M230.192 28.6216C230.192 27.534 229.317 26.6585 228.229 26.6585C227.142 26.6585 226.266 27.534 226.266 28.6216C226.266 29.7091 227.142 30.5845 228.229 30.5845C229.317 30.5845 230.192 29.7091 230.192 28.6216Z" fill="white"/>
<path d="M230.192 28.6216C230.192 27.534 229.317 26.6585 228.229 26.6585C227.142 26.6585 226.266 27.534 226.266 28.6216C226.266 29.7091 227.142 30.5845 228.229 30.5845C229.317 30.5845 230.192 29.7091 230.192 28.6216Z" fill="#E7CD1E"/>
<path d="M258.416 141.861C258.416 140.826 257.567 139.977 256.533 139.977C255.498 139.977 254.649 140.826 254.649 141.861C254.649 142.895 255.498 143.744 256.533 143.744C257.567 143.744 258.416 142.895 258.416 141.861Z" fill="#2C1E4A"/>
<path d="M258.416 141.861C258.416 140.826 257.567 139.977 256.533 139.977C255.498 139.977 254.649 140.826 254.649 141.861C254.649 142.895 255.498 143.744 256.533 143.744C257.567 143.744 258.416 142.895 258.416 141.861Z" fill="white"/>
<path d="M258.416 141.861C258.416 140.826 257.567 139.977 256.533 139.977C255.498 139.977 254.649 140.826 254.649 141.861C254.649 142.895 255.498 143.744 256.533 143.744C257.567 143.744 258.416 142.895 258.416 141.861Z" fill="#E7CD1E"/>
<path d="M260.379 113.558C260.379 111.435 258.655 109.711 256.533 109.711C254.41 109.711 252.686 111.435 252.686 113.558C252.686 115.68 254.41 117.404 256.533 117.404C258.655 117.404 260.379 115.68 260.379 113.558Z" fill="#2C1E4A"/>
<path d="M260.379 113.558C260.379 111.435 258.655 109.711 256.533 109.711C254.41 109.711 252.686 111.435 252.686 113.558C252.686 115.68 254.41 117.404 256.533 117.404C258.655 117.404 260.379 115.68 260.379 113.558Z" fill="white"/>
<path d="M260.379 113.558C260.379 111.435 258.655 109.711 256.533 109.711C254.41 109.711 252.686 111.435 252.686 113.558C252.686 115.68 254.41 117.404 256.533 117.404C258.655 117.404 260.379 115.68 260.379 113.558Z" fill="#E7CD1E"/>
<path d="M261.333 85.2279C261.333 82.5753 259.185 80.4267 256.532 80.4267C253.88 80.4267 251.731 82.5753 251.731 85.2279C251.731 87.8805 253.88 90.0291 256.532 90.0026C259.185 90.0291 261.333 87.8805 261.333 85.2279Z" fill="#2C1E4A"/>
<path d="M261.333 85.2279C261.333 82.5753 259.185 80.4267 256.532 80.4267C253.88 80.4267 251.731 82.5753 251.731 85.2279C251.731 87.8805 253.88 90.0291 256.532 90.0026C259.185 90.0291 261.333 87.8805 261.333 85.2279Z" fill="white"/>
<path d="M261.333 85.2279C261.333 82.5753 259.185 80.4267 256.532 80.4267C253.88 80.4267 251.731 82.5753 251.731 85.2279C251.731 87.8805 253.88 90.0291 256.532 90.0026C259.185 90.0291 261.333 87.8805 261.333 85.2279Z" fill="#E7CD1E"/>
<path d="M260.06 56.9248C260.06 54.9884 258.469 53.3968 256.532 53.3968C254.57 53.3968 253.004 54.9884 253.004 56.9248C253.004 58.8877 254.596 60.4528 256.532 60.4528C258.495 60.4528 260.06 58.8877 260.06 56.9248Z" fill="#2C1E4A"/>
<path d="M260.06 56.9248C260.06 54.9884 258.469 53.3968 256.532 53.3968C254.57 53.3968 253.004 54.9884 253.004 56.9248C253.004 58.8877 254.596 60.4528 256.532 60.4528C258.495 60.4528 260.06 58.8877 260.06 56.9248Z" fill="white"/>
<path d="M260.06 56.9248C260.06 54.9884 258.469 53.3968 256.532 53.3968C254.57 53.3968 253.004 54.9884 253.004 56.9248C253.004 58.8877 254.596 60.4528 256.532 60.4528C258.495 60.4528 260.06 58.8877 260.06 56.9248Z" fill="#E7CD1E"/>
<path d="M258.177 28.6218C258.177 27.7199 257.434 26.977 256.532 26.977C255.631 26.977 254.888 27.7199 254.888 28.6218C254.888 29.5236 255.631 30.2664 256.532 30.2664C257.461 30.2664 258.177 29.5236 258.177 28.6218Z" fill="#2C1E4A"/>
<path d="M258.177 28.6218C258.177 27.7199 257.434 26.977 256.532 26.977C255.631 26.977 254.888 27.7199 254.888 28.6218C254.888 29.5236 255.631 30.2664 256.532 30.2664C257.461 30.2664 258.177 29.5236 258.177 28.6218Z" fill="white"/>
<path d="M258.177 28.6218C258.177 27.7199 257.434 26.977 256.532 26.977C255.631 26.977 254.888 27.7199 254.888 28.6218C254.888 29.5236 255.631 30.2664 256.532 30.2664C257.461 30.2664 258.177 29.5236 258.177 28.6218Z" fill="#E7CD1E"/>
<path d="M256.533 5.34831e-07C256.357 5.01021e-07 256.214 0.1425 256.214 0.318299C256.214 0.494097 256.357 0.636597 256.533 0.636597C256.708 0.636597 256.851 0.494097 256.851 0.318299C256.851 0.1425 256.708 5.68641e-07 256.533 5.34831e-07Z" fill="#2C1E4A"/>
<path d="M256.533 5.34831e-07C256.357 5.01021e-07 256.214 0.1425 256.214 0.318299C256.214 0.494097 256.357 0.636597 256.533 0.636597C256.708 0.636597 256.851 0.494097 256.851 0.318299C256.851 0.1425 256.708 5.68641e-07 256.533 5.34831e-07Z" fill="white"/>
<path d="M256.533 5.34831e-07C256.357 5.01021e-07 256.214 0.1425 256.214 0.318299C256.214 0.494097 256.357 0.636597 256.533 0.636597C256.708 0.636597 256.851 0.494097 256.851 0.318299C256.851 0.1425 256.708 5.68641e-07 256.533 5.34831e-07Z" fill="#E7CD1E"/>
</svg>
