<svg width="140" height="341" viewBox="0 0 140 341" fill="none" xmlns="http://www.w3.org/2000/svg">
<mask id="mask0" mask-type="alpha" maskUnits="userSpaceOnUse" x="0" y="0" width="140" height="341">
<rect width="140" height="341" rx="16" fill="#2C1E4A"/>
</mask>
<g mask="url(#mask0)">
<path d="M69.9415 209.263C70.1474 209.263 70.3121 209.098 70.3121 208.892C70.3121 208.686 70.1474 208.522 69.9415 208.522C69.7357 208.522 69.571 208.686 69.571 208.892C69.571 209.098 69.7357 209.263 69.9415 209.263Z" fill="#2C1E4A"/>
<path d="M69.9415 209.263C70.1474 209.263 70.3121 209.098 70.3121 208.892C70.3121 208.686 70.1474 208.522 69.9415 208.522C69.7357 208.522 69.571 208.686 69.571 208.892C69.571 209.098 69.7357 209.263 69.9415 209.263Z" fill="white"/>
<path d="M69.9415 209.263C70.1474 209.263 70.3121 209.098 70.3121 208.892C70.3121 208.686 70.1474 208.522 69.9415 208.522C69.7357 208.522 69.571 208.686 69.571 208.892C69.571 209.098 69.7357 209.263 69.9415 209.263Z" fill="#E7CD1E"/>
<path d="M84.5853 209.633C84.9833 209.633 85.3127 209.304 85.3127 208.906C85.3127 208.494 84.9833 208.178 84.5853 208.178C84.1873 208.178 83.8579 208.508 83.8579 208.906C83.8579 209.304 84.1873 209.633 84.5853 209.633Z" fill="#2C1E4A"/>
<path d="M84.5853 209.633C84.9833 209.633 85.3127 209.304 85.3127 208.906C85.3127 208.494 84.9833 208.178 84.5853 208.178C84.1873 208.178 83.8579 208.508 83.8579 208.906C83.8579 209.304 84.1873 209.633 84.5853 209.633Z" fill="white"/>
<path d="M84.5853 209.633C84.9833 209.633 85.3127 209.304 85.3127 208.906C85.3127 208.494 84.9833 208.178 84.5853 208.178C84.1873 208.178 83.8579 208.508 83.8579 208.906C83.8579 209.304 84.1873 209.633 84.5853 209.633Z" fill="#E7CD1E"/>
<path d="M99.2428 209.784C99.7369 209.784 100.135 209.386 100.135 208.892C100.135 208.398 99.7369 208 99.2428 208C98.7487 208 98.3507 208.398 98.3507 208.892C98.337 209.386 98.7487 209.798 99.2428 209.784Z" fill="#2C1E4A"/>
<path d="M99.2428 209.784C99.7369 209.784 100.135 209.386 100.135 208.892C100.135 208.398 99.7369 208 99.2428 208C98.7487 208 98.3507 208.398 98.3507 208.892C98.337 209.386 98.7487 209.798 99.2428 209.784Z" fill="white"/>
<path d="M99.2428 209.784C99.7369 209.784 100.135 209.386 100.135 208.892C100.135 208.398 99.7369 208 99.2428 208C98.7487 208 98.3507 208.398 98.3507 208.892C98.337 209.386 98.7487 209.798 99.2428 209.784Z" fill="#E7CD1E"/>
<path d="M113.887 209.592C114.271 209.592 114.573 209.277 114.573 208.906C114.573 208.522 114.257 208.22 113.887 208.22C113.503 208.22 113.201 208.536 113.201 208.906C113.201 209.277 113.503 209.592 113.887 209.592Z" fill="#2C1E4A"/>
<path d="M113.887 209.592C114.271 209.592 114.573 209.277 114.573 208.906C114.573 208.522 114.257 208.22 113.887 208.22C113.503 208.22 113.201 208.536 113.201 208.906C113.201 209.277 113.503 209.592 113.887 209.592Z" fill="white"/>
<path d="M113.887 209.592C114.271 209.592 114.573 209.277 114.573 208.906C114.573 208.522 114.257 208.22 113.887 208.22C113.503 208.22 113.201 208.536 113.201 208.906C113.201 209.277 113.503 209.592 113.887 209.592Z" fill="#E7CD1E"/>
<path d="M128.531 209.222C128.709 209.222 128.86 209.071 128.86 208.892C128.86 208.714 128.709 208.563 128.531 208.563C128.352 208.563 128.201 208.714 128.201 208.892C128.201 209.084 128.352 209.222 128.531 209.222Z" fill="#2C1E4A"/>
<path d="M128.531 209.222C128.709 209.222 128.86 209.071 128.86 208.892C128.86 208.714 128.709 208.563 128.531 208.563C128.352 208.563 128.201 208.714 128.201 208.892C128.201 209.084 128.352 209.222 128.531 209.222Z" fill="white"/>
<path d="M128.531 209.222C128.709 209.222 128.86 209.071 128.86 208.892C128.86 208.714 128.709 208.563 128.531 208.563C128.352 208.563 128.201 208.714 128.201 208.892C128.201 209.084 128.352 209.222 128.531 209.222Z" fill="#E7CD1E"/>
<path d="M70.3511 224.318C71.0034 224.318 71.5295 223.792 71.5295 223.14C71.5295 222.488 71.0034 221.962 70.3511 221.962C69.6989 221.962 69.1729 222.488 69.1729 223.14C69.1729 223.792 69.6989 224.318 70.3511 224.318Z" fill="#2C1E4A"/>
<path d="M70.3511 224.318C71.0034 224.318 71.5295 223.792 71.5295 223.14C71.5295 222.488 71.0034 221.962 70.3511 221.962C69.6989 221.962 69.1729 222.488 69.1729 223.14C69.1729 223.792 69.6989 224.318 70.3511 224.318Z" fill="white"/>
<path d="M70.3511 224.318C71.0034 224.318 71.5295 223.792 71.5295 223.14C71.5295 222.488 71.0034 221.962 70.3511 221.962C69.6989 221.962 69.1729 222.488 69.1729 223.14C69.1729 223.792 69.6989 224.318 70.3511 224.318Z" fill="#E7CD1E"/>
<path d="M84.5853 225.087C85.4362 225.087 86.1361 224.401 86.1361 223.55C86.1361 222.699 85.4499 221.999 84.5853 222.013C83.7344 222.013 83.0481 222.699 83.0344 223.55C83.0481 224.401 83.7344 225.087 84.5853 225.087Z" fill="#2C1E4A"/>
<path d="M84.5853 225.087C85.4362 225.087 86.1361 224.401 86.1361 223.55C86.1361 222.699 85.4499 221.999 84.5853 222.013C83.7344 222.013 83.0481 222.699 83.0344 223.55C83.0481 224.401 83.7344 225.087 84.5853 225.087Z" fill="white"/>
<path d="M84.5853 225.087C85.4362 225.087 86.1361 224.401 86.1361 223.55C86.1361 222.699 85.4499 221.999 84.5853 222.013C83.7344 222.013 83.0481 222.699 83.0344 223.55C83.0481 224.401 83.7344 225.087 84.5853 225.087Z" fill="#E7CD1E"/>
<path d="M99.243 225.499C100.327 225.499 101.192 224.62 101.192 223.55C101.192 222.479 100.314 221.601 99.243 221.601C98.1725 221.601 97.2942 222.479 97.2942 223.55C97.2942 224.62 98.1588 225.499 99.243 225.499Z" fill="#2C1E4A"/>
<path d="M99.243 225.499C100.327 225.499 101.192 224.62 101.192 223.55C101.192 222.479 100.314 221.601 99.243 221.601C98.1725 221.601 97.2942 222.479 97.2942 223.55C97.2942 224.62 98.1588 225.499 99.243 225.499Z" fill="white"/>
<path d="M99.243 225.499C100.327 225.499 101.192 224.62 101.192 223.55C101.192 222.479 100.314 221.601 99.243 221.601C98.1725 221.601 97.2942 222.479 97.2942 223.55C97.2942 224.62 98.1588 225.499 99.243 225.499Z" fill="#E7CD1E"/>
<path d="M113.887 224.963C114.669 224.963 115.314 224.332 115.314 223.549C115.314 222.767 114.683 222.122 113.887 222.122C113.104 222.122 112.473 222.753 112.473 223.549C112.459 224.332 113.104 224.963 113.887 224.963Z" fill="#2C1E4A"/>
<path d="M113.887 224.963C114.669 224.963 115.314 224.332 115.314 223.549C115.314 222.767 114.683 222.122 113.887 222.122C113.104 222.122 112.473 222.753 112.473 223.549C112.459 224.332 113.104 224.963 113.887 224.963Z" fill="white"/>
<path d="M113.887 224.963C114.669 224.963 115.314 224.332 115.314 223.549C115.314 222.767 114.683 222.122 113.887 222.122C113.104 222.122 112.473 222.753 112.473 223.549C112.459 224.332 113.104 224.963 113.887 224.963Z" fill="#E7CD1E"/>
<path d="M129.023 224.236C129.683 224.236 130.201 223.694 130.201 223.058C130.201 222.398 129.683 221.879 129.023 221.879C128.363 221.879 127.845 222.421 127.845 223.058C127.845 223.717 128.363 224.236 129.023 224.236Z" fill="#2C1E4A"/>
<path d="M129.023 224.236C129.683 224.236 130.201 223.694 130.201 223.058C130.201 222.398 129.683 221.879 129.023 221.879C128.363 221.879 127.845 222.421 127.845 223.058C127.845 223.717 128.363 224.236 129.023 224.236Z" fill="white"/>
<path d="M129.023 224.236C129.683 224.236 130.201 223.694 130.201 223.058C130.201 222.398 129.683 221.879 129.023 221.879C128.363 221.879 127.845 222.421 127.845 223.058C127.845 223.717 128.363 224.236 129.023 224.236Z" fill="#E7CD1E"/>
<path d="M70.1062 239.415C70.8694 239.415 71.4925 238.792 71.4925 238.029C71.4925 237.266 70.8694 236.643 70.1062 236.643C69.343 236.643 68.72 237.266 68.72 238.029C68.72 238.792 69.343 239.415 70.1062 239.415Z" fill="#2C1E4A"/>
<path d="M70.1062 239.415C70.8694 239.415 71.4925 238.792 71.4925 238.029C71.4925 237.266 70.8694 236.643 70.1062 236.643C69.343 236.643 68.72 237.266 68.72 238.029C68.72 238.792 69.343 239.415 70.1062 239.415Z" fill="white"/>
<path d="M70.1062 239.415C70.8694 239.415 71.4925 238.792 71.4925 238.029C71.4925 237.266 70.8694 236.643 70.1062 236.643C69.343 236.643 68.72 237.266 68.72 238.029C68.72 238.792 69.343 239.415 70.1062 239.415Z" fill="#E7CD1E"/>
<path d="M84.5856 240.719C85.9718 240.719 87.1109 239.593 87.1109 238.193C87.1109 236.793 85.9855 235.682 84.5856 235.668C83.1995 235.668 82.0603 236.793 82.0603 238.193C82.074 239.58 83.1995 240.719 84.5856 240.719Z" fill="#2C1E4A"/>
<path d="M84.5856 240.719C85.9718 240.719 87.1109 239.593 87.1109 238.193C87.1109 236.793 85.9855 235.682 84.5856 235.668C83.1995 235.668 82.0603 236.793 82.0603 238.193C82.074 239.58 83.1995 240.719 84.5856 240.719Z" fill="white"/>
<path d="M84.5856 240.719C85.9718 240.719 87.1109 239.593 87.1109 238.193C87.1109 236.793 85.9855 235.682 84.5856 235.668C83.1995 235.668 82.0603 236.793 82.0603 238.193C82.074 239.58 83.1995 240.719 84.5856 240.719Z" fill="#E7CD1E"/>
<path d="M99.243 241.281C100.945 241.281 102.331 239.895 102.331 238.193C102.331 236.491 100.945 235.105 99.243 235.105C97.5412 235.105 96.155 236.491 96.155 238.193C96.155 239.895 97.5275 241.281 99.243 241.281Z" fill="#2C1E4A"/>
<path d="M99.243 241.281C100.945 241.281 102.331 239.895 102.331 238.193C102.331 236.491 100.945 235.105 99.243 235.105C97.5412 235.105 96.155 236.491 96.155 238.193C96.155 239.895 97.5275 241.281 99.243 241.281Z" fill="white"/>
<path d="M99.243 241.281C100.945 241.281 102.331 239.895 102.331 238.193C102.331 236.491 100.945 235.105 99.243 235.105C97.5412 235.105 96.155 236.491 96.155 238.193C96.155 239.895 97.5275 241.281 99.243 241.281Z" fill="#E7CD1E"/>
<path d="M113.887 240.513C115.163 240.513 116.206 239.47 116.206 238.194C116.206 236.917 115.163 235.874 113.887 235.874C112.61 235.874 111.567 236.917 111.567 238.194C111.567 239.47 112.61 240.513 113.887 240.513Z" fill="#2C1E4A"/>
<path d="M113.887 240.513C115.163 240.513 116.206 239.47 116.206 238.194C116.206 236.917 115.163 235.874 113.887 235.874C112.61 235.874 111.567 236.917 111.567 238.194C111.567 239.47 112.61 240.513 113.887 240.513Z" fill="white"/>
<path d="M113.887 240.513C115.163 240.513 116.206 239.47 116.206 238.194C116.206 236.917 115.163 235.874 113.887 235.874C112.61 235.874 111.567 236.917 111.567 238.194C111.567 239.47 112.61 240.513 113.887 240.513Z" fill="#E7CD1E"/>
<path d="M128.861 239.25C129.635 239.25 130.247 238.638 130.247 237.864C130.247 237.108 129.635 236.478 128.861 236.478C128.104 236.478 127.474 237.09 127.474 237.864C127.474 238.638 128.104 239.25 128.861 239.25Z" fill="#2C1E4A"/>
<path d="M128.861 239.25C129.635 239.25 130.247 238.638 130.247 237.864C130.247 237.108 129.635 236.478 128.861 236.478C128.104 236.478 127.474 237.09 127.474 237.864C127.474 238.638 128.104 239.25 128.861 239.25Z" fill="white"/>
<path d="M128.861 239.25C129.635 239.25 130.247 238.638 130.247 237.864C130.247 237.108 129.635 236.478 128.861 236.478C128.104 236.478 127.474 237.09 127.474 237.864C127.474 238.638 128.104 239.25 128.861 239.25Z" fill="#E7CD1E"/>
<path d="M69.7501 254.471C70.5487 254.471 71.178 253.829 71.178 253.043C71.178 252.256 70.5366 251.615 69.7501 251.615C68.9636 251.615 68.3223 252.256 68.3223 253.043C68.3223 253.829 68.9636 254.471 69.7501 254.471Z" fill="#2C1E4A"/>
<path d="M69.7501 254.471C70.5487 254.471 71.178 253.829 71.178 253.043C71.178 252.256 70.5366 251.615 69.7501 251.615C68.9636 251.615 68.3223 252.256 68.3223 253.043C68.3223 253.829 68.9636 254.471 69.7501 254.471Z" fill="white"/>
<path d="M69.7501 254.471C70.5487 254.471 71.178 253.829 71.178 253.043C71.178 252.256 70.5366 251.615 69.7501 251.615C68.9636 251.615 68.3223 252.256 68.3223 253.043C68.3223 253.829 68.9636 254.471 69.7501 254.471Z" fill="#E7CD1E"/>
<path d="M84.5857 256.09C86.3836 256.09 87.8383 254.636 87.8383 252.838C87.8383 251.04 86.3836 249.585 84.5857 249.585C82.7878 249.585 81.333 251.04 81.333 252.838C81.333 254.636 82.7878 256.09 84.5857 256.09Z" fill="#2C1E4A"/>
<path d="M84.5857 256.09C86.3836 256.09 87.8383 254.636 87.8383 252.838C87.8383 251.04 86.3836 249.585 84.5857 249.585C82.7878 249.585 81.333 251.04 81.333 252.838C81.333 254.636 82.7878 256.09 84.5857 256.09Z" fill="white"/>
<path d="M84.5857 256.09C86.3836 256.09 87.8383 254.636 87.8383 252.838C87.8383 251.04 86.3836 249.585 84.5857 249.585C82.7878 249.585 81.333 251.04 81.333 252.838C81.333 254.636 82.7878 256.09 84.5857 256.09Z" fill="#E7CD1E"/>
<path d="M99.1196 256.708C101.179 256.708 102.853 255.034 102.853 252.975C102.853 250.915 101.179 249.241 99.1196 249.241C97.0604 249.241 95.3866 250.915 95.3866 252.975C95.3733 255.034 97.0471 256.708 99.1196 256.708Z" fill="#2C1E4A"/>
<path d="M99.1196 256.708C101.179 256.708 102.853 255.034 102.853 252.975C102.853 250.915 101.179 249.241 99.1196 249.241C97.0604 249.241 95.3866 250.915 95.3866 252.975C95.3733 255.034 97.0471 256.708 99.1196 256.708Z" fill="white"/>
<path d="M99.1196 256.708C101.179 256.708 102.853 255.034 102.853 252.975C102.853 250.915 101.179 249.241 99.1196 249.241C97.0604 249.241 95.3866 250.915 95.3866 252.975C95.3733 255.034 97.0471 256.708 99.1196 256.708Z" fill="#E7CD1E"/>
<path d="M113.887 255.802C115.52 255.802 116.852 254.471 116.852 252.838C116.852 251.205 115.52 249.873 113.887 249.873C112.254 249.873 110.923 251.205 110.923 252.838C110.923 254.485 112.24 255.802 113.887 255.802Z" fill="#2C1E4A"/>
<path d="M113.887 255.802C115.52 255.802 116.852 254.471 116.852 252.838C116.852 251.205 115.52 249.873 113.887 249.873C112.254 249.873 110.923 251.205 110.923 252.838C110.923 254.485 112.24 255.802 113.887 255.802Z" fill="white"/>
<path d="M113.887 255.802C115.52 255.802 116.852 254.471 116.852 252.838C116.852 251.205 115.52 249.873 113.887 249.873C112.254 249.873 110.923 251.205 110.923 252.838C110.923 254.485 112.24 255.802 113.887 255.802Z" fill="#E7CD1E"/>
<path d="M128.531 254.265C129.313 254.265 129.945 253.631 129.945 252.844C129.945 252.058 129.313 251.409 128.517 251.409C127.735 251.409 127.09 252.044 127.09 252.844C127.09 253.644 127.749 254.265 128.531 254.265Z" fill="#2C1E4A"/>
<path d="M128.531 254.265C129.313 254.265 129.945 253.631 129.945 252.844C129.945 252.058 129.313 251.409 128.517 251.409C127.735 251.409 127.09 252.044 127.09 252.844C127.09 253.644 127.749 254.265 128.531 254.265Z" fill="white"/>
<path d="M128.531 254.265C129.313 254.265 129.945 253.631 129.945 252.844C129.945 252.058 129.313 251.409 128.517 251.409C127.735 251.409 127.09 252.044 127.09 252.844C127.09 253.644 127.749 254.265 128.531 254.265Z" fill="#E7CD1E"/>
<path d="M69.7374 269.238C70.5856 269.238 71.2762 268.548 71.2762 267.7C71.2762 266.851 70.5856 266.161 69.7374 266.161C68.8893 266.161 68.1987 266.851 68.1987 267.7C68.1987 268.548 68.8893 269.238 69.7374 269.238Z" fill="#2C1E4A"/>
<path d="M69.7374 269.238C70.5856 269.238 71.2762 268.548 71.2762 267.7C71.2762 266.851 70.5856 266.161 69.7374 266.161C68.8893 266.161 68.1987 266.851 68.1987 267.7C68.1987 268.548 68.8893 269.238 69.7374 269.238Z" fill="white"/>
<path d="M69.7374 269.238C70.5856 269.238 71.2762 268.548 71.2762 267.7C71.2762 266.851 70.5856 266.161 69.7374 266.161C68.8893 266.161 68.1987 266.851 68.1987 267.7C68.1987 268.548 68.8893 269.238 69.7374 269.238Z" fill="#E7CD1E"/>
<path d="M84.5024 270.899C86.3371 270.899 87.8235 269.41 87.8235 267.571C87.8235 265.733 86.3371 264.23 84.489 264.23C82.641 264.23 81.1545 265.72 81.1545 267.571C81.1545 269.423 82.6678 270.899 84.5024 270.899Z" fill="#2C1E4A"/>
<path d="M84.5024 270.899C86.3371 270.899 87.8235 269.41 87.8235 267.571C87.8235 265.733 86.3371 264.23 84.489 264.23C82.641 264.23 81.1545 265.72 81.1545 267.571C81.1545 269.423 82.6678 270.899 84.5024 270.899Z" fill="white"/>
<path d="M84.5024 270.899C86.3371 270.899 87.8235 269.41 87.8235 267.571C87.8235 265.733 86.3371 264.23 84.489 264.23C82.641 264.23 81.1545 265.72 81.1545 267.571C81.1545 269.423 82.6678 270.899 84.5024 270.899Z" fill="#E7CD1E"/>
<path d="M99.1198 271.557C101.302 271.557 103.059 269.787 103.059 267.618C103.059 265.436 101.289 263.679 99.1198 263.679C96.9507 263.679 95.1809 265.436 95.1809 267.618C95.1809 269.787 96.9374 271.557 99.1198 271.557Z" fill="#2C1E4A"/>
<path d="M99.1198 271.557C101.302 271.557 103.059 269.787 103.059 267.618C103.059 265.436 101.289 263.679 99.1198 263.679C96.9507 263.679 95.1809 265.436 95.1809 267.618C95.1809 269.787 96.9374 271.557 99.1198 271.557Z" fill="white"/>
<path d="M99.1198 271.557C101.302 271.557 103.059 269.787 103.059 267.618C103.059 265.436 101.289 263.679 99.1198 263.679C96.9507 263.679 95.1809 265.436 95.1809 267.618C95.1809 269.787 96.9374 271.557 99.1198 271.557Z" fill="#E7CD1E"/>
<path d="M114.051 270.666C115.885 270.666 117.386 269.179 117.386 267.331C117.386 265.483 115.899 263.997 114.051 263.997C112.204 263.997 110.717 265.483 110.717 267.331C110.717 269.164 112.204 270.666 114.051 270.666Z" fill="#2C1E4A"/>
<path d="M114.051 270.666C115.885 270.666 117.386 269.179 117.386 267.331C117.386 265.483 115.899 263.997 114.051 263.997C112.204 263.997 110.717 265.483 110.717 267.331C110.717 269.164 112.204 270.666 114.051 270.666Z" fill="white"/>
<path d="M114.051 270.666C115.885 270.666 117.386 269.179 117.386 267.331C117.386 265.483 115.899 263.997 114.051 263.997C112.204 263.997 110.717 265.483 110.717 267.331C110.717 269.164 112.204 270.666 114.051 270.666Z" fill="#E7CD1E"/>
<path d="M128.519 269.033C129.363 269.033 130.058 268.347 130.058 267.496C130.058 266.645 129.377 265.945 128.519 265.958C127.675 265.958 126.994 266.645 126.98 267.496C126.994 268.347 127.675 269.033 128.519 269.033Z" fill="#2C1E4A"/>
<path d="M128.519 269.033C129.363 269.033 130.058 268.347 130.058 267.496C130.058 266.645 129.377 265.945 128.519 265.958C127.675 265.958 126.994 266.645 126.98 267.496C126.994 268.347 127.675 269.033 128.519 269.033Z" fill="white"/>
<path d="M128.519 269.033C129.363 269.033 130.058 268.347 130.058 267.496C130.058 266.645 129.377 265.945 128.519 265.958C127.675 265.958 126.994 266.645 126.98 267.496C126.994 268.347 127.675 269.033 128.519 269.033Z" fill="#E7CD1E"/>
<path d="M69.7504 283.799C70.5641 283.799 71.2199 283.143 71.2199 282.33C71.2199 281.516 70.5641 280.86 69.7504 280.86C68.9367 280.86 68.281 281.516 68.281 282.33C68.281 283.143 68.9367 283.799 69.7504 283.799Z" fill="#2C1E4A"/>
<path d="M69.7504 283.799C70.5641 283.799 71.2199 283.143 71.2199 282.33C71.2199 281.516 70.5641 280.86 69.7504 280.86C68.9367 280.86 68.281 281.516 68.281 282.33C68.281 283.143 68.9367 283.799 69.7504 283.799Z" fill="white"/>
<path d="M69.7504 283.799C70.5641 283.799 71.2199 283.143 71.2199 282.33C71.2199 281.516 70.5641 280.86 69.7504 280.86C68.9367 280.86 68.281 281.516 68.281 282.33C68.281 283.143 68.9367 283.799 69.7504 283.799Z" fill="#E7CD1E"/>
<path d="M84.5855 285.474C86.4246 285.474 87.9205 283.978 87.9205 282.139C87.9205 280.3 86.4246 278.804 84.5855 278.804C82.7464 278.804 81.2505 280.3 81.2505 282.139C81.2642 283.978 82.7464 285.474 84.5855 285.474Z" fill="#2C1E4A"/>
<path d="M84.5855 285.474C86.4246 285.474 87.9205 283.978 87.9205 282.139C87.9205 280.3 86.4246 278.804 84.5855 278.804C82.7464 278.804 81.2505 280.3 81.2505 282.139C81.2642 283.978 82.7464 285.474 84.5855 285.474Z" fill="white"/>
<path d="M84.5855 285.474C86.4246 285.474 87.9205 283.978 87.9205 282.139C87.9205 280.3 86.4246 278.804 84.5855 278.804C82.7464 278.804 81.2505 280.3 81.2505 282.139C81.2642 283.978 82.7464 285.474 84.5855 285.474Z" fill="#E7CD1E"/>
<path d="M99.2431 286.078C101.425 286.078 103.182 284.308 103.182 282.139C103.182 279.957 101.412 278.2 99.2431 278.2C97.0746 278.2 95.3042 279.971 95.3042 282.139C95.3042 284.308 97.0609 286.078 99.2431 286.078Z" fill="#2C1E4A"/>
<path d="M99.2431 286.078C101.425 286.078 103.182 284.308 103.182 282.139C103.182 279.957 101.412 278.2 99.2431 278.2C97.0746 278.2 95.3042 279.971 95.3042 282.139C95.3042 284.308 97.0609 286.078 99.2431 286.078Z" fill="white"/>
<path d="M99.2431 286.078C101.425 286.078 103.182 284.308 103.182 282.139C103.182 279.957 101.412 278.2 99.2431 278.2C97.0746 278.2 95.3042 279.971 95.3042 282.139C95.3042 284.308 97.0609 286.078 99.2431 286.078Z" fill="#E7CD1E"/>
<path d="M114.133 285.227C115.971 285.227 117.468 283.73 117.468 281.893C117.468 280.055 115.971 278.558 114.133 278.558C112.296 278.558 110.799 280.055 110.799 281.893C110.799 283.73 112.296 285.227 114.133 285.227Z" fill="#2C1E4A"/>
<path d="M114.133 285.227C115.971 285.227 117.468 283.73 117.468 281.893C117.468 280.055 115.971 278.558 114.133 278.558C112.296 278.558 110.799 280.055 110.799 281.893C110.799 283.73 112.296 285.227 114.133 285.227Z" fill="white"/>
<path d="M114.133 285.227C115.971 285.227 117.468 283.73 117.468 281.893C117.468 280.055 115.971 278.558 114.133 278.558C112.296 278.558 110.799 280.055 110.799 281.893C110.799 283.73 112.296 285.227 114.133 285.227Z" fill="#E7CD1E"/>
<path d="M128.539 283.608C129.353 283.608 130.001 282.949 130.001 282.139C130.001 281.33 129.339 280.671 128.525 280.671C127.711 280.671 127.062 281.33 127.062 282.139C127.076 282.949 127.724 283.608 128.539 283.608Z" fill="#2C1E4A"/>
<path d="M128.539 283.608C129.353 283.608 130.001 282.949 130.001 282.139C130.001 281.33 129.339 280.671 128.525 280.671C127.711 280.671 127.062 281.33 127.062 282.139C127.076 282.949 127.724 283.608 128.539 283.608Z" fill="white"/>
<path d="M128.539 283.608C129.353 283.608 130.001 282.949 130.001 282.139C130.001 281.33 129.339 280.671 128.525 280.671C127.711 280.671 127.062 281.33 127.062 282.139C127.076 282.949 127.724 283.608 128.539 283.608Z" fill="#E7CD1E"/>
<path d="M69.7769 298.333C70.5375 298.333 71.1632 297.705 71.1632 296.941C71.1632 296.177 70.5497 295.549 69.7769 295.561C69.0162 295.561 68.3906 296.177 68.3906 296.941C68.3906 297.705 69.0162 298.333 69.7769 298.333Z" fill="#2C1E4A"/>
<path d="M69.7769 298.333C70.5375 298.333 71.1632 297.705 71.1632 296.941C71.1632 296.177 70.5497 295.549 69.7769 295.561C69.0162 295.561 68.3906 296.177 68.3906 296.941C68.3906 297.705 69.0162 298.333 69.7769 298.333Z" fill="white"/>
<path d="M69.7769 298.333C70.5375 298.333 71.1632 297.705 71.1632 296.941C71.1632 296.177 70.5497 295.549 69.7769 295.561C69.0162 295.561 68.3906 296.177 68.3906 296.941C68.3906 297.705 69.0162 298.333 69.7769 298.333Z" fill="#E7CD1E"/>
<path d="M84.8318 299.871C86.6695 299.871 88.1663 298.374 88.1663 296.537C88.1663 294.699 86.6695 293.202 84.8318 293.202C82.9941 293.202 81.4973 294.699 81.4973 296.537C81.4973 298.389 82.9941 299.871 84.8318 299.871Z" fill="#2C1E4A"/>
<path d="M84.8318 299.871C86.6695 299.871 88.1663 298.374 88.1663 296.537C88.1663 294.699 86.6695 293.202 84.8318 293.202C82.9941 293.202 81.4973 294.699 81.4973 296.537C81.4973 298.389 82.9941 299.871 84.8318 299.871Z" fill="white"/>
<path d="M84.8318 299.871C86.6695 299.871 88.1663 298.374 88.1663 296.537C88.1663 294.699 86.6695 293.202 84.8318 293.202C82.9941 293.202 81.4973 294.699 81.4973 296.537C81.4973 298.389 82.9941 299.871 84.8318 299.871Z" fill="#E7CD1E"/>
<path d="M99.2429 300.53C101.302 300.53 102.976 298.855 102.976 296.797C102.976 294.738 101.302 293.064 99.2429 293.064C97.1843 293.064 95.5098 294.738 95.5098 296.797C95.4961 298.855 97.1705 300.53 99.2429 300.53Z" fill="#2C1E4A"/>
<path d="M99.2429 300.53C101.302 300.53 102.976 298.855 102.976 296.797C102.976 294.738 101.302 293.064 99.2429 293.064C97.1843 293.064 95.5098 294.738 95.5098 296.797C95.4961 298.855 97.1705 300.53 99.2429 300.53Z" fill="white"/>
<path d="M99.2429 300.53C101.302 300.53 102.976 298.855 102.976 296.797C102.976 294.738 101.302 293.064 99.2429 293.064C97.1843 293.064 95.5098 294.738 95.5098 296.797C95.4961 298.855 97.1705 300.53 99.2429 300.53Z" fill="#E7CD1E"/>
<path d="M114.38 299.638C116.217 299.638 117.715 298.14 117.715 296.303C117.715 294.467 116.217 292.969 114.38 292.969C112.544 292.969 111.046 294.467 111.046 296.303C111.046 298.14 112.528 299.638 114.38 299.638Z" fill="#2C1E4A"/>
<path d="M114.38 299.638C116.217 299.638 117.715 298.14 117.715 296.303C117.715 294.467 116.217 292.969 114.38 292.969C112.544 292.969 111.046 294.467 111.046 296.303C111.046 298.14 112.528 299.638 114.38 299.638Z" fill="white"/>
<path d="M114.38 299.638C116.217 299.638 117.715 298.14 117.715 296.303C117.715 294.467 116.217 292.969 114.38 292.969C112.544 292.969 111.046 294.467 111.046 296.303C111.046 298.14 112.528 299.638 114.38 299.638Z" fill="#E7CD1E"/>
<path d="M128.531 298.169C129.286 298.169 129.917 297.551 129.917 296.783C129.917 296.014 129.299 295.397 128.531 295.397C127.762 295.397 127.145 296.014 127.145 296.783C127.145 297.551 127.776 298.169 128.531 298.169Z" fill="#2C1E4A"/>
<path d="M128.531 298.169C129.286 298.169 129.917 297.551 129.917 296.783C129.917 296.014 129.299 295.397 128.531 295.397C127.762 295.397 127.145 296.014 127.145 296.783C127.145 297.551 127.776 298.169 128.531 298.169Z" fill="white"/>
<path d="M128.531 298.169C129.286 298.169 129.917 297.551 129.917 296.783C129.917 296.014 129.299 295.397 128.531 295.397C127.762 295.397 127.145 296.014 127.145 296.783C127.145 297.551 127.776 298.169 128.531 298.169Z" fill="#E7CD1E"/>
<path d="M69.7335 312.812C70.3869 312.812 70.9119 312.287 70.9119 311.634C70.9119 310.981 70.3869 310.456 69.7335 310.456C69.0801 310.456 68.5552 310.981 68.5552 311.634C68.5552 312.287 69.0801 312.812 69.7335 312.812Z" fill="#2C1E4A"/>
<path d="M69.7335 312.812C70.3869 312.812 70.9119 312.287 70.9119 311.634C70.9119 310.981 70.3869 310.456 69.7335 310.456C69.0801 310.456 68.5552 310.981 68.5552 311.634C68.5552 312.287 69.0801 312.812 69.7335 312.812Z" fill="white"/>
<path d="M69.7335 312.812C70.3869 312.812 70.9119 312.287 70.9119 311.634C70.9119 310.981 70.3869 310.456 69.7335 310.456C69.0801 310.456 68.5552 310.981 68.5552 311.634C68.5552 312.287 69.0801 312.812 69.7335 312.812Z" fill="#E7CD1E"/>
<path d="M84.3362 314.24C85.7491 314.24 86.8869 313.102 86.8869 311.689C86.8869 310.277 85.7491 309.139 84.3362 309.139C82.9233 309.139 81.7854 310.277 81.7854 311.689C81.7854 313.09 82.9358 314.24 84.3362 314.24Z" fill="#2C1E4A"/>
<path d="M84.3362 314.24C85.7491 314.24 86.8869 313.102 86.8869 311.689C86.8869 310.277 85.7491 309.139 84.3362 309.139C82.9233 309.139 81.7854 310.277 81.7854 311.689C81.7854 313.09 82.9358 314.24 84.3362 314.24Z" fill="white"/>
<path d="M84.3362 314.24C85.7491 314.24 86.8869 313.102 86.8869 311.689C86.8869 310.277 85.7491 309.139 84.3362 309.139C82.9233 309.139 81.7854 310.277 81.7854 311.689C81.7854 313.09 82.9358 314.24 84.3362 314.24Z" fill="#E7CD1E"/>
<path d="M98.9539 314.803C100.66 314.803 102.041 313.423 102.041 311.716C102.041 310.01 100.66 308.63 98.9539 308.63C97.2475 308.63 95.8672 310.01 95.8672 311.716C95.8672 313.423 97.2475 314.803 98.9539 314.803Z" fill="#2C1E4A"/>
<path d="M98.9539 314.803C100.66 314.803 102.041 313.423 102.041 311.716C102.041 310.01 100.66 308.63 98.9539 308.63C97.2475 308.63 95.8672 310.01 95.8672 311.716C95.8672 313.423 97.2475 314.803 98.9539 314.803Z" fill="white"/>
<path d="M98.9539 314.803C100.66 314.803 102.041 313.423 102.041 311.716C102.041 310.01 100.66 308.63 98.9539 308.63C97.2475 308.63 95.8672 310.01 95.8672 311.716C95.8672 313.423 97.2475 314.803 98.9539 314.803Z" fill="#E7CD1E"/>
<path d="M113.887 313.993C115.301 313.993 116.44 312.854 116.44 311.44C116.44 310.027 115.301 308.888 113.887 308.888C112.473 308.888 111.334 310.027 111.334 311.44C111.321 312.854 112.473 313.993 113.887 313.993Z" fill="#2C1E4A"/>
<path d="M113.887 313.993C115.301 313.993 116.44 312.854 116.44 311.44C116.44 310.027 115.301 308.888 113.887 308.888C112.473 308.888 111.334 310.027 111.334 311.44C111.321 312.854 112.473 313.993 113.887 313.993Z" fill="white"/>
<path d="M113.887 313.993C115.301 313.993 116.44 312.854 116.44 311.44C116.44 310.027 115.301 308.888 113.887 308.888C112.473 308.888 111.334 310.027 111.334 311.44C111.321 312.854 112.473 313.993 113.887 313.993Z" fill="#E7CD1E"/>
<path d="M128.531 312.607C129.176 312.607 129.711 312.085 129.711 311.426C129.711 310.781 129.19 310.246 128.531 310.246C127.886 310.246 127.351 310.781 127.351 311.426C127.351 312.085 127.886 312.607 128.531 312.607Z" fill="#2C1E4A"/>
<path d="M128.531 312.607C129.176 312.607 129.711 312.085 129.711 311.426C129.711 310.781 129.19 310.246 128.531 310.246C127.886 310.246 127.351 310.781 127.351 311.426C127.351 312.085 127.886 312.607 128.531 312.607Z" fill="white"/>
<path d="M128.531 312.607C129.176 312.607 129.711 312.085 129.711 311.426C129.711 310.781 129.19 310.246 128.531 310.246C127.886 310.246 127.351 310.781 127.351 311.426C127.351 312.085 127.886 312.607 128.531 312.607Z" fill="#E7CD1E"/>
<path d="M69.9416 327.224C70.5729 327.224 71.0807 326.716 71.0807 326.085C71.0807 325.453 70.5729 324.946 69.9416 324.946C69.3102 324.946 68.8025 325.453 68.8025 326.085C68.8025 326.716 69.3102 327.224 69.9416 327.224Z" fill="#2C1E4A"/>
<path d="M69.9416 327.224C70.5729 327.224 71.0807 326.716 71.0807 326.085C71.0807 325.453 70.5729 324.946 69.9416 324.946C69.3102 324.946 68.8025 325.453 68.8025 326.085C68.8025 326.716 69.3102 327.224 69.9416 327.224Z" fill="white"/>
<path d="M69.9416 327.224C70.5729 327.224 71.0807 326.716 71.0807 326.085C71.0807 325.453 70.5729 324.946 69.9416 324.946C69.3102 324.946 68.8025 325.453 68.8025 326.085C68.8025 326.716 69.3102 327.224 69.9416 327.224Z" fill="#E7CD1E"/>
<path d="M83.5655 328.514C84.3487 328.514 84.98 327.884 84.98 327.095C84.98 326.306 84.3487 325.676 83.5655 325.676C82.7822 325.676 82.1428 326.306 82.1428 327.095C82.1508 327.884 82.7822 328.514 83.5655 328.514Z" fill="#2C1E4A"/>
<path d="M83.5655 328.514C84.3487 328.514 84.98 327.884 84.98 327.095C84.98 326.306 84.3487 325.676 83.5655 325.676C82.7822 325.676 82.1428 326.306 82.1428 327.095C82.1508 327.884 82.7822 328.514 83.5655 328.514Z" fill="white"/>
<path d="M83.5655 328.514C84.3487 328.514 84.98 327.884 84.98 327.095C84.98 326.306 84.3487 325.676 83.5655 325.676C82.7822 325.676 82.1428 326.306 82.1428 327.095C82.1508 327.884 82.7822 328.514 83.5655 328.514Z" fill="#E7CD1E"/>
<path d="M98.2284 329.049C99.3027 329.049 100.178 328.173 100.178 327.099C100.178 326.025 99.3027 325.149 98.2284 325.149C97.1541 325.149 96.2784 326.025 96.2784 327.099C96.2694 328.173 97.1451 329.049 98.2284 329.049Z" fill="#2C1E4A"/>
<path d="M98.2284 329.049C99.3027 329.049 100.178 328.173 100.178 327.099C100.178 326.025 99.3027 325.149 98.2284 325.149C97.1541 325.149 96.2784 326.025 96.2784 327.099C96.2694 328.173 97.1451 329.049 98.2284 329.049Z" fill="white"/>
<path d="M98.2284 329.049C99.3027 329.049 100.178 328.173 100.178 327.099C100.178 326.025 99.3027 325.149 98.2284 325.149C97.1541 325.149 96.2784 326.025 96.2784 327.099C96.2694 328.173 97.1451 329.049 98.2284 329.049Z" fill="#E7CD1E"/>
<path d="M113.11 328.28C113.89 328.28 114.528 327.651 114.528 326.862C114.528 326.081 113.899 325.443 113.11 325.443C112.33 325.443 111.691 326.073 111.691 326.862C111.691 327.642 112.33 328.28 113.11 328.28Z" fill="#2C1E4A"/>
<path d="M113.11 328.28C113.89 328.28 114.528 327.651 114.528 326.862C114.528 326.081 113.899 325.443 113.11 325.443C112.33 325.443 111.691 326.073 111.691 326.862C111.691 327.642 112.33 328.28 113.11 328.28Z" fill="white"/>
<path d="M113.11 328.28C113.89 328.28 114.528 327.651 114.528 326.862C114.528 326.081 113.899 325.443 113.11 325.443C112.33 325.443 111.691 326.073 111.691 326.862C111.691 327.642 112.33 328.28 113.11 328.28Z" fill="#E7CD1E"/>
<path d="M128.531 327.1C129.093 327.1 129.546 326.647 129.546 326.085C129.546 325.522 129.093 325.069 128.531 325.069C127.968 325.069 127.515 325.522 127.515 326.085C127.515 326.647 127.968 327.1 128.531 327.1Z" fill="#2C1E4A"/>
<path d="M128.531 327.1C129.093 327.1 129.546 326.647 129.546 326.085C129.546 325.522 129.093 325.069 128.531 325.069C127.968 325.069 127.515 325.522 127.515 326.085C127.515 326.647 127.968 327.1 128.531 327.1Z" fill="white"/>
<path d="M128.531 327.1C129.093 327.1 129.546 326.647 129.546 326.085C129.546 325.522 129.093 325.069 128.531 325.069C127.968 325.069 127.515 325.522 127.515 326.085C127.515 326.647 127.968 327.1 128.531 327.1Z" fill="#E7CD1E"/>
<path d="M69.3369 341.703C69.54 341.703 69.7066 341.536 69.7066 341.333C69.7066 341.13 69.54 340.963 69.3369 340.963C69.1339 340.963 68.9673 341.13 68.9673 341.333C68.9673 341.536 69.1339 341.703 69.3369 341.703Z" fill="#2C1E4A"/>
<path d="M69.3369 341.703C69.54 341.703 69.7066 341.536 69.7066 341.333C69.7066 341.13 69.54 340.963 69.3369 340.963C69.1339 340.963 68.9673 341.13 68.9673 341.333C68.9673 341.536 69.1339 341.703 69.3369 341.703Z" fill="white"/>
<path d="M69.3369 341.703C69.54 341.703 69.7066 341.536 69.7066 341.333C69.7066 341.13 69.54 340.963 69.3369 340.963C69.1339 340.963 68.9673 341.13 68.9673 341.333C68.9673 341.536 69.1339 341.703 69.3369 341.703Z" fill="#E7CD1E"/>
<path d="M83.4875 342.718C83.9796 342.718 84.3794 342.319 84.3794 341.826C84.3794 341.334 83.9796 340.935 83.4875 340.935C82.9955 340.935 82.5957 341.334 82.5957 341.826C82.5957 342.319 82.9955 342.718 83.4875 342.718Z" fill="#2C1E4A"/>
<path d="M83.4875 342.718C83.9796 342.718 84.3794 342.319 84.3794 341.826C84.3794 341.334 83.9796 340.935 83.4875 340.935C82.9955 340.935 82.5957 341.334 82.5957 341.826C82.5957 342.319 82.9955 342.718 83.4875 342.718Z" fill="white"/>
<path d="M83.4875 342.718C83.9796 342.718 84.3794 342.319 84.3794 341.826C84.3794 341.334 83.9796 340.935 83.4875 340.935C82.9955 340.935 82.5957 341.334 82.5957 341.826C82.5957 342.319 82.9955 342.718 83.4875 342.718Z" fill="#E7CD1E"/>
<path d="M112.953 342.554C113.443 342.554 113.845 342.151 113.845 341.662C113.845 341.166 113.443 340.77 112.953 340.77C112.457 340.77 112.062 341.172 112.062 341.662C112.062 342.158 112.457 342.554 112.953 342.554Z" fill="#2C1E4A"/>
<path d="M112.953 342.554C113.443 342.554 113.845 342.151 113.845 341.662C113.845 341.166 113.443 340.77 112.953 340.77C112.457 340.77 112.062 341.172 112.062 341.662C112.062 342.158 112.457 342.554 112.953 342.554Z" fill="white"/>
<path d="M112.953 342.554C113.443 342.554 113.845 342.151 113.845 341.662C113.845 341.166 113.443 340.77 112.953 340.77C112.457 340.77 112.062 341.172 112.062 341.662C112.062 342.158 112.457 342.554 112.953 342.554Z" fill="#E7CD1E"/>
<path d="M128.05 341.579C128.252 341.579 128.419 341.412 128.419 341.209C128.419 341.007 128.252 340.84 128.05 340.84C127.847 340.84 127.68 341.007 127.68 341.209C127.68 341.418 127.847 341.579 128.05 341.579Z" fill="#2C1E4A"/>
<path d="M128.05 341.579C128.252 341.579 128.419 341.412 128.419 341.209C128.419 341.007 128.252 340.84 128.05 340.84C127.847 340.84 127.68 341.007 127.68 341.209C127.68 341.418 127.847 341.579 128.05 341.579Z" fill="white"/>
<path d="M128.05 341.579C128.252 341.579 128.419 341.412 128.419 341.209C128.419 341.007 128.252 340.84 128.05 340.84C127.847 340.84 127.68 341.007 127.68 341.209C127.68 341.418 127.847 341.579 128.05 341.579Z" fill="#E7CD1E"/>
</g>
</svg>
