<svg width="238" height="114" viewBox="0 0 238 114" fill="none" xmlns="http://www.w3.org/2000/svg">
<path d="M224.104 19.052C224.104 20.2174 225.039 21.1357 226.187 21.1357C227.335 21.1357 228.271 20.1997 228.271 19.052C228.271 17.9043 227.335 16.9685 226.187 16.9685C225.039 16.9685 224.104 17.9043 224.104 19.052Z" fill="#2C1E4A"/>
<path d="M224.104 19.052C224.104 20.2174 225.039 21.1357 226.187 21.1357C227.335 21.1357 228.271 20.1997 228.271 19.052C228.271 17.9043 227.335 16.9685 226.187 16.9685C225.039 16.9685 224.104 17.9043 224.104 19.052Z" fill="white"/>
<path d="M224.104 19.052C224.104 20.2174 225.039 21.1357 226.187 21.1357C227.335 21.1357 228.271 20.1997 228.271 19.052C228.271 17.9043 227.335 16.9685 226.187 16.9685C225.039 16.9685 224.104 17.9043 224.104 19.052Z" fill="#E7CD1E"/>
<path d="M222.02 37.8922C222.02 40.2053 223.892 42.077 226.205 42.077C228.518 42.077 230.389 40.2053 230.389 37.8922C230.389 35.5792 228.518 33.7075 226.205 33.7075C223.892 33.7075 222.02 35.5792 222.02 37.8922Z" fill="#2C1E4A"/>
<path d="M222.02 37.8922C222.02 40.2053 223.892 42.077 226.205 42.077C228.518 42.077 230.389 40.2053 230.389 37.8922C230.389 35.5792 228.518 33.7075 226.205 33.7075C223.892 33.7075 222.02 35.5792 222.02 37.8922Z" fill="white"/>
<path d="M222.02 37.8922C222.02 40.2053 223.892 42.077 226.205 42.077C228.518 42.077 230.389 40.2053 230.389 37.8922C230.389 35.5792 228.518 33.7075 226.205 33.7075C223.892 33.7075 222.02 35.5792 222.02 37.8922Z" fill="#E7CD1E"/>
<path d="M221.226 56.5911C221.226 59.2403 223.379 61.3938 226.028 61.3938C228.677 61.3938 230.831 59.2403 230.831 56.5911C230.831 53.9419 228.677 51.7884 226.028 51.7884C223.379 51.7713 221.226 53.9248 221.226 56.5911Z" fill="#2C1E4A"/>
<path d="M221.226 56.5911C221.226 59.2403 223.379 61.3938 226.028 61.3938C228.677 61.3938 230.831 59.2403 230.831 56.5911C230.831 53.9419 228.677 51.7884 226.028 51.7884C223.379 51.7713 221.226 53.9248 221.226 56.5911Z" fill="white"/>
<path d="M221.226 56.5911C221.226 59.2403 223.379 61.3938 226.028 61.3938C228.677 61.3938 230.831 59.2403 230.831 56.5911C230.831 53.9419 228.677 51.7884 226.028 51.7884C223.379 51.7713 221.226 53.9248 221.226 56.5911Z" fill="#E7CD1E"/>
<path d="M222.391 75.5899C222.391 77.6911 224.104 79.4039 226.205 79.4039C228.306 79.4039 230.019 77.6911 230.019 75.5899C230.019 73.4887 228.306 71.7761 226.205 71.7761C224.086 71.7761 222.391 73.4711 222.391 75.5899Z" fill="#2C1E4A"/>
<path d="M222.391 75.5899C222.391 77.6911 224.104 79.4039 226.205 79.4039C228.306 79.4039 230.019 77.6911 230.019 75.5899C230.019 73.4887 228.306 71.7761 226.205 71.7761C224.086 71.7761 222.391 73.4711 222.391 75.5899Z" fill="white"/>
<path d="M222.391 75.5899C222.391 77.6911 224.104 79.4039 226.205 79.4039C228.306 79.4039 230.019 77.6911 230.019 75.5899C230.019 73.4887 228.306 71.7761 226.205 71.7761C224.086 71.7761 222.391 73.4711 222.391 75.5899Z" fill="#E7CD1E"/>
<path d="M224.368 94.4299C224.368 95.4364 225.181 96.2486 226.187 96.2486C227.194 96.2486 228.023 95.4364 228.023 94.4123C228.023 93.4059 227.211 92.5759 226.187 92.5759C225.163 92.5759 224.368 93.4234 224.368 94.4299Z" fill="#2C1E4A"/>
<path d="M224.368 94.4299C224.368 95.4364 225.181 96.2486 226.187 96.2486C227.194 96.2486 228.023 95.4364 228.023 94.4123C228.023 93.4059 227.211 92.5759 226.187 92.5759C225.163 92.5759 224.368 93.4234 224.368 94.4299Z" fill="white"/>
<path d="M224.368 94.4299C224.368 95.4364 225.181 96.2486 226.187 96.2486C227.194 96.2486 228.023 95.4364 228.023 94.4123C228.023 93.4059 227.211 92.5759 226.187 92.5759C225.163 92.5759 224.368 93.4234 224.368 94.4299Z" fill="#E7CD1E"/>
<path d="M205.105 19.0519C205.105 20.2879 206.111 21.2944 207.347 21.2944C208.583 21.2944 209.589 20.2879 209.589 19.0519C209.589 17.8159 208.583 16.8095 207.347 16.8095C206.111 16.8095 205.105 17.8159 205.105 19.0519Z" fill="#2C1E4A"/>
<path d="M205.105 19.0519C205.105 20.2879 206.111 21.2944 207.347 21.2944C208.583 21.2944 209.589 20.2879 209.589 19.0519C209.589 17.8159 208.583 16.8095 207.347 16.8095C206.111 16.8095 205.105 17.8159 205.105 19.0519Z" fill="white"/>
<path d="M205.105 19.0519C205.105 20.2879 206.111 21.2944 207.347 21.2944C208.583 21.2944 209.589 20.2879 209.589 19.0519C209.589 17.8159 208.583 16.8095 207.347 16.8095C206.111 16.8095 205.105 17.8159 205.105 19.0519Z" fill="#E7CD1E"/>
<path d="M202.968 37.785C202.968 40.1453 204.884 42.0577 207.249 42.0577C209.614 42.0577 211.548 40.1453 211.548 37.7677C211.548 35.3901 209.632 33.4777 207.249 33.4777C204.867 33.4777 202.968 35.4246 202.968 37.785Z" fill="#2C1E4A"/>
<path d="M202.968 37.785C202.968 40.1453 204.884 42.0577 207.249 42.0577C209.614 42.0577 211.548 40.1453 211.548 37.7677C211.548 35.3901 209.632 33.4777 207.249 33.4777C204.867 33.4777 202.968 35.4246 202.968 37.785Z" fill="white"/>
<path d="M202.968 37.785C202.968 40.1453 204.884 42.0577 207.249 42.0577C209.614 42.0577 211.548 40.1453 211.548 37.7677C211.548 35.3901 209.632 33.4777 207.249 33.4777C204.867 33.4777 202.968 35.4246 202.968 37.785Z" fill="#E7CD1E"/>
<path d="M202.121 56.5907C202.121 59.3984 204.397 61.6583 207.188 61.6583C209.996 61.6583 212.256 59.3813 212.256 56.5907C212.256 53.8002 209.996 51.5232 207.188 51.5232C204.397 51.5232 202.121 53.7831 202.121 56.5907Z" fill="#2C1E4A"/>
<path d="M202.121 56.5907C202.121 59.3984 204.397 61.6583 207.188 61.6583C209.996 61.6583 212.256 59.3813 212.256 56.5907C212.256 53.8002 209.996 51.5232 207.188 51.5232C204.397 51.5232 202.121 53.7831 202.121 56.5907Z" fill="white"/>
<path d="M202.121 56.5907C202.121 59.3984 204.397 61.6583 207.188 61.6583C209.996 61.6583 212.256 59.3813 212.256 56.5907C212.256 53.8002 209.996 51.5232 207.188 51.5232C204.397 51.5232 202.121 53.7831 202.121 56.5907Z" fill="#E7CD1E"/>
<path d="M203.268 75.801C203.268 78.1596 205.181 80.0911 207.558 80.091C209.935 80.091 211.848 78.1782 211.848 75.801C211.848 73.4239 209.935 71.511 207.558 71.511C205.2 71.511 203.268 73.4239 203.268 75.801Z" fill="#2C1E4A"/>
<path d="M203.268 75.801C203.268 78.1596 205.181 80.0911 207.558 80.091C209.935 80.091 211.848 78.1782 211.848 75.801C211.848 73.4239 209.935 71.511 207.558 71.511C205.2 71.511 203.268 73.4239 203.268 75.801Z" fill="white"/>
<path d="M203.268 75.801C203.268 78.1596 205.181 80.0911 207.558 80.091C209.935 80.091 211.848 78.1782 211.848 75.801C211.848 73.4239 209.935 71.511 207.558 71.511C205.2 71.511 203.268 73.4239 203.268 75.801Z" fill="#E7CD1E"/>
<path d="M205.369 94.4298C205.369 95.5246 206.252 96.4251 207.347 96.4251C208.442 96.4251 209.342 95.5422 209.325 94.4298C209.325 93.3351 208.442 92.4523 207.347 92.4347C206.252 92.4523 205.369 93.3351 205.369 94.4298Z" fill="#2C1E4A"/>
<path d="M205.369 94.4298C205.369 95.5246 206.252 96.4251 207.347 96.4251C208.442 96.4251 209.342 95.5422 209.325 94.4298C209.325 93.3351 208.442 92.4523 207.347 92.4347C206.252 92.4523 205.369 93.3351 205.369 94.4298Z" fill="white"/>
<path d="M205.369 94.4298C205.369 95.5246 206.252 96.4251 207.347 96.4251C208.442 96.4251 209.342 95.5422 209.325 94.4298C209.325 93.3351 208.442 92.4523 207.347 92.4347C206.252 92.4523 205.369 93.3351 205.369 94.4298Z" fill="#E7CD1E"/>
<path d="M186.37 19.052C186.37 20.235 187.324 21.1885 188.507 21.1885C189.69 21.1885 190.643 20.235 190.643 19.052C190.643 17.8689 189.69 16.9155 188.507 16.9155C187.324 16.9155 186.37 17.8689 186.37 19.052Z" fill="#2C1E4A"/>
<path d="M186.37 19.052C186.37 20.235 187.324 21.1885 188.507 21.1885C189.69 21.1885 190.643 20.235 190.643 19.052C190.643 17.8689 189.69 16.9155 188.507 16.9155C187.324 16.9155 186.37 17.8689 186.37 19.052Z" fill="white"/>
<path d="M186.37 19.052C186.37 20.235 187.324 21.1885 188.507 21.1885C189.69 21.1885 190.643 20.235 190.643 19.052C190.643 17.8689 189.69 16.9155 188.507 16.9155C187.324 16.9155 186.37 17.8689 186.37 19.052Z" fill="#E7CD1E"/>
<path d="M184.216 37.892C184.216 40.258 186.141 42.1826 188.507 42.1826C190.873 42.1826 192.798 40.258 192.798 37.892C192.798 35.5259 190.873 33.6013 188.507 33.6013C186.141 33.619 184.216 35.5259 184.216 37.892Z" fill="#2C1E4A"/>
<path d="M184.216 37.892C184.216 40.258 186.141 42.1826 188.507 42.1826C190.873 42.1826 192.798 40.258 192.798 37.892C192.798 35.5259 190.873 33.6013 188.507 33.6013C186.141 33.619 184.216 35.5259 184.216 37.892Z" fill="white"/>
<path d="M184.216 37.892C184.216 40.258 186.141 42.1826 188.507 42.1826C190.873 42.1826 192.798 40.258 192.798 37.892C192.798 35.5259 190.873 33.6013 188.507 33.6013C186.141 33.619 184.216 35.5259 184.216 37.892Z" fill="#E7CD1E"/>
<path d="M183.439 56.7498C183.439 59.5573 185.717 61.8174 188.507 61.8174C191.314 61.8174 193.574 59.5396 193.574 56.7498C193.574 53.96 191.297 51.6822 188.507 51.6822C185.717 51.6823 183.439 53.9423 183.439 56.7498Z" fill="#2C1E4A"/>
<path d="M183.439 56.7498C183.439 59.5573 185.717 61.8174 188.507 61.8174C191.314 61.8174 193.574 59.5396 193.574 56.7498C193.574 53.96 191.297 51.6822 188.507 51.6822C185.717 51.6823 183.439 53.9423 183.439 56.7498Z" fill="white"/>
<path d="M183.439 56.7498C183.439 59.5573 185.717 61.8174 188.507 61.8174C191.314 61.8174 193.574 59.5396 193.574 56.7498C193.574 53.96 191.297 51.6822 188.507 51.6822C185.717 51.6823 183.439 53.9423 183.439 56.7498Z" fill="#E7CD1E"/>
<path d="M184.534 75.907C184.534 78.2713 186.46 80.197 188.824 80.197C191.188 80.197 193.114 78.2713 193.114 75.907C193.114 73.5427 191.188 71.617 188.824 71.617C186.46 71.617 184.534 73.5427 184.534 75.907Z" fill="#2C1E4A"/>
<path d="M184.534 75.907C184.534 78.2713 186.46 80.197 188.824 80.197C191.188 80.197 193.114 78.2713 193.114 75.907C193.114 73.5427 191.188 71.617 188.824 71.617C186.46 71.617 184.534 73.5427 184.534 75.907Z" fill="white"/>
<path d="M184.534 75.907C184.534 78.2713 186.46 80.197 188.824 80.197C191.188 80.197 193.114 78.2713 193.114 75.907C193.114 73.5427 191.188 71.617 188.824 71.617C186.46 71.617 184.534 73.5427 184.534 75.907Z" fill="#E7CD1E"/>
<path d="M186.618 94.43C186.618 95.4718 187.465 96.3016 188.507 96.3016C189.549 96.3016 190.396 95.4542 190.396 94.4124C190.396 93.3706 189.549 92.5408 188.507 92.5408C187.465 92.5584 186.618 93.3882 186.618 94.43Z" fill="#2C1E4A"/>
<path d="M186.618 94.43C186.618 95.4718 187.465 96.3016 188.507 96.3016C189.549 96.3016 190.396 95.4542 190.396 94.4124C190.396 93.3706 189.549 92.5408 188.507 92.5408C187.465 92.5584 186.618 93.3882 186.618 94.43Z" fill="white"/>
<path d="M186.618 94.43C186.618 95.4718 187.465 96.3016 188.507 96.3016C189.549 96.3016 190.396 95.4542 190.396 94.4124C190.396 93.3706 189.549 92.5408 188.507 92.5408C187.465 92.5584 186.618 93.3882 186.618 94.43Z" fill="#E7CD1E"/>
<path d="M167.672 19.0519C167.672 20.1466 168.572 21.0471 169.667 21.0471C170.762 21.0471 171.662 20.1642 171.644 19.0519C171.644 17.9571 170.762 17.0567 169.667 17.0567C168.572 17.0567 167.672 17.9571 167.672 19.0519Z" fill="#2C1E4A"/>
<path d="M167.672 19.0519C167.672 20.1466 168.572 21.0471 169.667 21.0471C170.762 21.0471 171.662 20.1642 171.644 19.0519C171.644 17.9571 170.762 17.0567 169.667 17.0567C168.572 17.0567 167.672 17.9571 167.672 19.0519Z" fill="white"/>
<path d="M167.672 19.0519C167.672 20.1466 168.572 21.0471 169.667 21.0471C170.762 21.0471 171.662 20.1642 171.644 19.0519C171.644 17.9571 170.762 17.0567 169.667 17.0567C168.572 17.0567 167.672 17.9571 167.672 19.0519Z" fill="#E7CD1E"/>
<path d="M165.694 38.2091C165.694 40.5734 167.62 42.4991 169.984 42.4991C172.348 42.4991 174.274 40.5734 174.274 38.2091C174.274 35.8449 172.348 33.9191 169.984 33.9191C167.601 33.9191 165.694 35.8449 165.694 38.2091Z" fill="#2C1E4A"/>
<path d="M165.694 38.2091C165.694 40.5734 167.62 42.4991 169.984 42.4991C172.348 42.4991 174.274 40.5734 174.274 38.2091C174.274 35.8449 172.348 33.9191 169.984 33.9191C167.601 33.9191 165.694 35.8449 165.694 38.2091Z" fill="white"/>
<path d="M165.694 38.2091C165.694 40.5734 167.62 42.4991 169.984 42.4991C172.348 42.4991 174.274 40.5734 174.274 38.2091C174.274 35.8449 172.348 33.9191 169.984 33.9191C167.601 33.9191 165.694 35.8449 165.694 38.2091Z" fill="#E7CD1E"/>
<path d="M164.846 56.7498C164.846 59.3983 167.001 61.5525 169.649 61.5525C172.298 61.5525 174.452 59.3983 174.452 56.7498C174.452 54.1012 172.298 51.947 169.649 51.947C167.001 51.9293 164.846 54.0836 164.846 56.7498Z" fill="#2C1E4A"/>
<path d="M164.846 56.7498C164.846 59.3983 167.001 61.5525 169.649 61.5525C172.298 61.5525 174.452 59.3983 174.452 56.7498C174.452 54.1012 172.298 51.947 169.649 51.947C167.001 51.9293 164.846 54.0836 164.846 56.7498Z" fill="white"/>
<path d="M164.846 56.7498C164.846 59.3983 167.001 61.5525 169.649 61.5525C172.298 61.5525 174.452 59.3983 174.452 56.7498C174.452 54.1012 172.298 51.947 169.649 51.947C167.001 51.9293 164.846 54.0836 164.846 56.7498Z" fill="#E7CD1E"/>
<path d="M165.994 76.2249C165.994 78.5875 167.922 80.5149 170.284 80.5149C172.647 80.5149 174.574 78.5875 174.574 76.2249C174.574 73.8623 172.647 71.9349 170.284 71.9349C167.922 71.9349 165.994 73.8416 165.994 76.2249Z" fill="#2C1E4A"/>
<path d="M165.994 76.2249C165.994 78.5875 167.922 80.5149 170.284 80.5149C172.647 80.5149 174.574 78.5875 174.574 76.2249C174.574 73.8623 172.647 71.9349 170.284 71.9349C167.922 71.9349 165.994 73.8416 165.994 76.2249Z" fill="white"/>
<path d="M165.994 76.2249C165.994 78.5875 167.922 80.5149 170.284 80.5149C172.647 80.5149 174.574 78.5875 174.574 76.2249C174.574 73.8623 172.647 71.9349 170.284 71.9349C167.922 71.9349 165.994 73.8416 165.994 76.2249Z" fill="#E7CD1E"/>
<path d="M167.883 94.43C167.883 95.4011 168.678 96.2134 169.667 96.2134C170.656 96.2134 171.45 95.4188 171.45 94.43C171.45 93.4412 170.656 92.6467 169.667 92.6467C168.678 92.6467 167.883 93.4589 167.883 94.43Z" fill="#2C1E4A"/>
<path d="M167.883 94.43C167.883 95.4011 168.678 96.2134 169.667 96.2134C170.656 96.2134 171.45 95.4188 171.45 94.43C171.45 93.4412 170.656 92.6467 169.667 92.6467C168.678 92.6467 167.883 93.4589 167.883 94.43Z" fill="white"/>
<path d="M167.883 94.43C167.883 95.4011 168.678 96.2134 169.667 96.2134C170.656 96.2134 171.45 95.4188 171.45 94.43C171.45 93.4412 170.656 92.6467 169.667 92.6467C168.678 92.6467 167.883 93.4589 167.883 94.43Z" fill="#E7CD1E"/>
<path d="M149.044 19.052C149.044 20.0407 149.838 20.8353 150.827 20.8353C151.816 20.8353 152.61 20.0407 152.61 19.0519C152.61 18.0632 151.816 17.2687 150.827 17.2687C149.838 17.2687 149.044 18.0632 149.044 19.052Z" fill="#2C1E4A"/>
<path d="M149.044 19.052C149.044 20.0407 149.838 20.8353 150.827 20.8353C151.816 20.8353 152.61 20.0407 152.61 19.0519C152.61 18.0632 151.816 17.2687 150.827 17.2687C149.838 17.2687 149.044 18.0632 149.044 19.052Z" fill="white"/>
<path d="M149.044 19.052C149.044 20.0407 149.838 20.8353 150.827 20.8353C151.816 20.8353 152.61 20.0407 152.61 19.0519C152.61 18.0632 151.816 17.2687 150.827 17.2687C149.838 17.2687 149.044 18.0632 149.044 19.052Z" fill="#E7CD1E"/>
<path d="M147.207 37.8921C147.207 39.8873 148.814 41.4941 150.809 41.4941C152.804 41.4941 154.411 39.8873 154.411 37.8921C154.411 35.8968 152.804 34.29 150.809 34.29C148.832 34.29 147.207 35.9145 147.207 37.8921Z" fill="#2C1E4A"/>
<path d="M147.207 37.8921C147.207 39.8873 148.814 41.4941 150.809 41.4941C152.804 41.4941 154.411 39.8873 154.411 37.8921C154.411 35.8968 152.804 34.29 150.809 34.29C148.832 34.29 147.207 35.9145 147.207 37.8921Z" fill="white"/>
<path d="M147.207 37.8921C147.207 39.8873 148.814 41.4941 150.809 41.4941C152.804 41.4941 154.411 39.8873 154.411 37.8921C154.411 35.8968 152.804 34.29 150.809 34.29C148.832 34.29 147.207 35.9145 147.207 37.8921Z" fill="#E7CD1E"/>
<path d="M146.483 56.7499C146.483 59.1512 148.425 61.0935 150.827 61.0935C153.228 61.0935 155.17 59.1512 155.17 56.7499C155.17 54.3485 153.228 52.4062 150.827 52.4062C148.425 52.4062 146.483 54.3485 146.483 56.7499Z" fill="#2C1E4A"/>
<path d="M146.483 56.7499C146.483 59.1512 148.425 61.0935 150.827 61.0935C153.228 61.0935 155.17 59.1512 155.17 56.7499C155.17 54.3485 153.228 52.4062 150.827 52.4062C148.425 52.4062 146.483 54.3485 146.483 56.7499Z" fill="white"/>
<path d="M146.483 56.7499C146.483 59.1512 148.425 61.0935 150.827 61.0935C153.228 61.0935 155.17 59.1512 155.17 56.7499C155.17 54.3485 153.228 52.4062 150.827 52.4062C148.425 52.4062 146.483 54.3485 146.483 56.7499Z" fill="#E7CD1E"/>
<path d="M147.525 75.5899C147.525 77.4086 148.991 78.8741 150.809 78.8741C152.628 78.8741 154.093 77.4086 154.093 75.5899C154.093 73.7713 152.628 72.3058 150.809 72.3058C148.991 72.2881 147.525 73.7713 147.525 75.5899Z" fill="#2C1E4A"/>
<path d="M147.525 75.5899C147.525 77.4086 148.991 78.8741 150.809 78.8741C152.628 78.8741 154.093 77.4086 154.093 75.5899C154.093 73.7713 152.628 72.3058 150.809 72.3058C148.991 72.2881 147.525 73.7713 147.525 75.5899Z" fill="white"/>
<path d="M147.525 75.5899C147.525 77.4086 148.991 78.8741 150.809 78.8741C152.628 78.8741 154.093 77.4086 154.093 75.5899C154.093 73.7713 152.628 72.3058 150.809 72.3058C148.991 72.2881 147.525 73.7713 147.525 75.5899Z" fill="#E7CD1E"/>
<path d="M149.308 94.4299C149.308 95.2597 149.979 95.9484 150.827 95.9484C151.657 95.9484 152.345 95.2774 152.345 94.4299C152.345 93.6 151.657 92.9114 150.827 92.9114C149.979 92.9114 149.308 93.6 149.308 94.4299Z" fill="#2C1E4A"/>
<path d="M149.308 94.4299C149.308 95.2597 149.979 95.9484 150.827 95.9484C151.657 95.9484 152.345 95.2774 152.345 94.4299C152.345 93.6 151.657 92.9114 150.827 92.9114C149.979 92.9114 149.308 93.6 149.308 94.4299Z" fill="white"/>
<path d="M149.308 94.4299C149.308 95.2597 149.979 95.9484 150.827 95.9484C151.657 95.9484 152.345 95.2774 152.345 94.4299C152.345 93.6 151.657 92.9114 150.827 92.9114C149.979 92.9114 149.308 93.6 149.308 94.4299Z" fill="#E7CD1E"/>
<path d="M130.504 19.0518C130.504 19.864 131.157 20.5173 131.969 20.5173C132.781 20.5173 133.434 19.864 133.434 19.0518C133.434 18.2395 132.781 17.5863 131.969 17.5863C131.157 17.5863 130.504 18.2395 130.504 19.0518Z" fill="#2C1E4A"/>
<path d="M130.504 19.0518C130.504 19.864 131.157 20.5173 131.969 20.5173C132.781 20.5173 133.434 19.864 133.434 19.0518C133.434 18.2395 132.781 17.5863 131.969 17.5863C131.157 17.5863 130.504 18.2395 130.504 19.0518Z" fill="white"/>
<path d="M130.504 19.0518C130.504 19.864 131.157 20.5173 131.969 20.5173C132.781 20.5173 133.434 19.864 133.434 19.0518C133.434 18.2395 132.781 17.5863 131.969 17.5863C131.157 17.5863 130.504 18.2395 130.504 19.0518Z" fill="#E7CD1E"/>
<path d="M128.844 37.8919C128.844 39.6223 130.239 41.0171 131.987 41.0171C133.735 41.0171 135.13 39.6223 135.13 37.8919C135.13 36.1615 133.735 34.7489 131.987 34.7489C130.239 34.7666 128.844 36.1615 128.844 37.8919Z" fill="#2C1E4A"/>
<path d="M128.844 37.8919C128.844 39.6223 130.239 41.0171 131.987 41.0171C133.735 41.0171 135.13 39.6223 135.13 37.8919C135.13 36.1615 133.735 34.7489 131.987 34.7489C130.239 34.7666 128.844 36.1615 128.844 37.8919Z" fill="white"/>
<path d="M128.844 37.8919C128.844 39.6223 130.239 41.0171 131.987 41.0171C133.735 41.0171 135.13 39.6223 135.13 37.8919C135.13 36.1615 133.735 34.7489 131.987 34.7489C130.239 34.7666 128.844 36.1615 128.844 37.8919Z" fill="#E7CD1E"/>
<path d="M128.155 56.7498C128.155 58.851 129.868 60.5637 131.969 60.5637C134.07 60.5637 135.783 58.851 135.783 56.7498C135.783 54.6486 134.07 52.9358 131.969 52.9358C129.868 52.9181 128.155 54.6309 128.155 56.7498Z" fill="#2C1E4A"/>
<path d="M128.155 56.7498C128.155 58.851 129.868 60.5637 131.969 60.5637C134.07 60.5637 135.783 58.851 135.783 56.7498C135.783 54.6486 134.07 52.9358 131.969 52.9358C129.868 52.9181 128.155 54.6309 128.155 56.7498Z" fill="white"/>
<path d="M128.155 56.7498C128.155 58.851 129.868 60.5637 131.969 60.5637C134.07 60.5637 135.783 58.851 135.783 56.7498C135.783 54.6486 134.07 52.9358 131.969 52.9358C129.868 52.9181 128.155 54.6309 128.155 56.7498Z" fill="#E7CD1E"/>
<path d="M129.144 75.5899C129.144 77.1437 130.398 78.4151 131.969 78.4151C133.523 78.4151 134.794 77.1613 134.794 75.5899C134.794 74.036 133.54 72.7648 131.969 72.7648C130.415 72.7648 129.144 74.036 129.144 75.5899Z" fill="#2C1E4A"/>
<path d="M129.144 75.5899C129.144 77.1437 130.398 78.4151 131.969 78.4151C133.523 78.4151 134.794 77.1613 134.794 75.5899C134.794 74.036 133.54 72.7648 131.969 72.7648C130.415 72.7648 129.144 74.036 129.144 75.5899Z" fill="white"/>
<path d="M129.144 75.5899C129.144 77.1437 130.398 78.4151 131.969 78.4151C133.523 78.4151 134.794 77.1613 134.794 75.5899C134.794 74.036 133.54 72.7648 131.969 72.7648C130.415 72.7648 129.144 74.036 129.144 75.5899Z" fill="#E7CD1E"/>
<path d="M130.662 94.43C130.662 95.154 131.245 95.7367 131.969 95.7367C132.693 95.7367 133.276 95.154 133.276 94.43C133.276 93.7061 132.693 93.1234 131.969 93.1234C131.245 93.1234 130.662 93.7061 130.662 94.43Z" fill="#2C1E4A"/>
<path d="M130.662 94.43C130.662 95.154 131.245 95.7367 131.969 95.7367C132.693 95.7367 133.276 95.154 133.276 94.43C133.276 93.7061 132.693 93.1234 131.969 93.1234C131.245 93.1234 130.662 93.7061 130.662 94.43Z" fill="white"/>
<path d="M130.662 94.43C130.662 95.154 131.245 95.7367 131.969 95.7367C132.693 95.7367 133.276 95.154 133.276 94.43C133.276 93.7061 132.693 93.1234 131.969 93.1234C131.245 93.1234 130.662 93.7061 130.662 94.43Z" fill="#E7CD1E"/>
<path d="M111.875 19.0519C111.875 19.7405 112.44 20.3056 113.129 20.3056C113.817 20.3056 114.383 19.7405 114.383 19.0519C114.383 18.3633 113.817 17.7983 113.129 17.7983C112.44 17.7983 111.875 18.3633 111.875 19.0519Z" fill="#2C1E4A"/>
<path d="M111.875 19.0519C111.875 19.7405 112.44 20.3056 113.129 20.3056C113.817 20.3056 114.383 19.7405 114.383 19.0519C114.383 18.3633 113.817 17.7983 113.129 17.7983C112.44 17.7983 111.875 18.3633 111.875 19.0519Z" fill="white"/>
<path d="M111.875 19.0519C111.875 19.7405 112.44 20.3056 113.129 20.3056C113.817 20.3056 114.383 19.7405 114.383 19.0519C114.383 18.3633 113.817 17.7983 113.129 17.7983C112.44 17.7983 111.875 18.3633 111.875 19.0519Z" fill="#E7CD1E"/>
<path d="M110.569 37.8921C110.569 39.3047 111.716 40.4524 113.129 40.4524C114.541 40.4524 115.689 39.3046 115.689 37.8921C115.689 36.4795 114.541 35.3318 113.129 35.3318C111.716 35.3318 110.569 36.4795 110.569 37.8921Z" fill="#2C1E4A"/>
<path d="M110.569 37.8921C110.569 39.3047 111.716 40.4524 113.129 40.4524C114.541 40.4524 115.689 39.3046 115.689 37.8921C115.689 36.4795 114.541 35.3318 113.129 35.3318C111.716 35.3318 110.569 36.4795 110.569 37.8921Z" fill="white"/>
<path d="M110.569 37.8921C110.569 39.3047 111.716 40.4524 113.129 40.4524C114.541 40.4524 115.689 39.3046 115.689 37.8921C115.689 36.4795 114.541 35.3318 113.129 35.3318C111.716 35.3318 110.569 36.4795 110.569 37.8921Z" fill="#E7CD1E"/>
<path d="M109.933 56.7497C109.933 58.5154 111.363 59.9456 113.129 59.9456C114.895 59.9456 116.325 58.5154 116.325 56.7497C116.325 54.984 114.895 53.5538 113.129 53.5714C111.363 53.5538 109.933 54.984 109.933 56.7497Z" fill="#2C1E4A"/>
<path d="M109.933 56.7497C109.933 58.5154 111.363 59.9456 113.129 59.9456C114.895 59.9456 116.325 58.5154 116.325 56.7497C116.325 54.984 114.895 53.5538 113.129 53.5714C111.363 53.5538 109.933 54.984 109.933 56.7497Z" fill="white"/>
<path d="M109.933 56.7497C109.933 58.5154 111.363 59.9456 113.129 59.9456C114.895 59.9456 116.325 58.5154 116.325 56.7497C116.325 54.984 114.895 53.5538 113.129 53.5714C111.363 53.5538 109.933 54.984 109.933 56.7497Z" fill="#E7CD1E"/>
<path d="M110.781 75.5899C110.781 76.8788 111.84 77.9383 113.129 77.9383C114.435 77.9383 115.477 76.8788 115.477 75.5899C115.477 74.2833 114.418 73.2415 113.129 73.2415C111.822 73.2415 110.781 74.2833 110.781 75.5899Z" fill="#2C1E4A"/>
<path d="M110.781 75.5899C110.781 76.8788 111.84 77.9383 113.129 77.9383C114.435 77.9383 115.477 76.8788 115.477 75.5899C115.477 74.2833 114.418 73.2415 113.129 73.2415C111.822 73.2415 110.781 74.2833 110.781 75.5899Z" fill="white"/>
<path d="M110.781 75.5899C110.781 76.8788 111.84 77.9383 113.129 77.9383C114.435 77.9383 115.477 76.8788 115.477 75.5899C115.477 74.2833 114.418 73.2415 113.129 73.2415C111.822 73.2415 110.781 74.2833 110.781 75.5899Z" fill="#E7CD1E"/>
<path d="M112.034 94.4298C112.034 95.0302 112.529 95.5247 113.129 95.5247C113.729 95.5247 114.224 95.0302 114.224 94.4298C114.224 93.8295 113.729 93.3351 113.129 93.3351C112.511 93.3351 112.034 93.8295 112.034 94.4298Z" fill="#2C1E4A"/>
<path d="M112.034 94.4298C112.034 95.0302 112.529 95.5247 113.129 95.5247C113.729 95.5247 114.224 95.0302 114.224 94.4298C114.224 93.8295 113.729 93.3351 113.129 93.3351C112.511 93.3351 112.034 93.8295 112.034 94.4298Z" fill="white"/>
<path d="M112.034 94.4298C112.034 95.0302 112.529 95.5247 113.129 95.5247C113.729 95.5247 114.224 95.0302 114.224 94.4298C114.224 93.8295 113.729 93.3351 113.129 93.3351C112.511 93.3351 112.034 93.8295 112.034 94.4298Z" fill="#E7CD1E"/>
<path d="M113.129 113.482C113.246 113.482 113.341 113.387 113.341 113.27C113.341 113.153 113.246 113.058 113.129 113.058C113.012 113.058 112.917 113.153 112.917 113.27C112.917 113.387 113.012 113.482 113.129 113.482Z" fill="#2C1E4A"/>
<path d="M113.129 113.482C113.246 113.482 113.341 113.387 113.341 113.27C113.341 113.153 113.246 113.058 113.129 113.058C113.012 113.058 112.917 113.153 112.917 113.27C112.917 113.387 113.012 113.482 113.129 113.482Z" fill="white"/>
<path d="M113.129 113.482C113.246 113.482 113.341 113.387 113.341 113.27C113.341 113.153 113.246 113.058 113.129 113.058C113.012 113.058 112.917 113.153 112.917 113.27C112.917 113.387 113.012 113.482 113.129 113.482Z" fill="#E7CD1E"/>
<path d="M94.0769 0.211876C94.0769 0.335476 94.1652 0.423753 94.2888 0.423753C94.4124 0.423752 94.5007 0.335476 94.5007 0.211876C94.5007 0.0882766 94.4124 -1.21011e-07 94.2888 -7.64268e-08C94.1652 -3.18427e-08 94.0769 0.0882768 94.0769 0.211876Z" fill="#2C1E4A"/>
<path d="M94.0769 0.211876C94.0769 0.335476 94.1652 0.423753 94.2888 0.423753C94.4124 0.423752 94.5007 0.335476 94.5007 0.211876C94.5007 0.0882766 94.4124 -1.21011e-07 94.2888 -7.64268e-08C94.1652 -3.18427e-08 94.0769 0.0882768 94.0769 0.211876Z" fill="white"/>
<path d="M94.0769 0.211876C94.0769 0.335476 94.1652 0.423753 94.2888 0.423753C94.4124 0.423752 94.5007 0.335476 94.5007 0.211876C94.5007 0.0882766 94.4124 -1.21011e-07 94.2888 -7.64268e-08C94.1652 -3.18427e-08 94.0769 0.0882768 94.0769 0.211876Z" fill="#E7CD1E"/>
<path d="M93.2822 19.0518C93.2822 19.5992 93.7238 20.0407 94.2711 20.0407C94.8185 20.0407 95.2598 19.5992 95.2598 19.0518C95.2598 18.5045 94.8185 18.063 94.2711 18.063C93.7238 18.063 93.2822 18.5045 93.2822 19.0518Z" fill="#2C1E4A"/>
<path d="M93.2822 19.0518C93.2822 19.5992 93.7238 20.0407 94.2711 20.0407C94.8185 20.0407 95.2598 19.5992 95.2598 19.0518C95.2598 18.5045 94.8185 18.063 94.2711 18.063C93.7238 18.063 93.2822 18.5045 93.2822 19.0518Z" fill="white"/>
<path d="M93.2822 19.0518C93.2822 19.5992 93.7238 20.0407 94.2711 20.0407C94.8185 20.0407 95.2598 19.5992 95.2598 19.0518C95.2598 18.5045 94.8185 18.063 94.2711 18.063C93.7238 18.063 93.2822 18.5045 93.2822 19.0518Z" fill="#E7CD1E"/>
<path d="M92.2406 37.8921C92.2406 39.0222 93.1588 39.9226 94.2712 39.9226C95.4013 39.9226 96.3016 39.0045 96.3193 37.8921C96.3193 36.7621 95.4013 35.8615 94.2712 35.8615C93.1588 35.8615 92.2406 36.7797 92.2406 37.8921Z" fill="#2C1E4A"/>
<path d="M92.2406 37.8921C92.2406 39.0222 93.1588 39.9226 94.2712 39.9226C95.4013 39.9226 96.3016 39.0045 96.3193 37.8921C96.3193 36.7621 95.4013 35.8615 94.2712 35.8615C93.1588 35.8615 92.2406 36.7797 92.2406 37.8921Z" fill="white"/>
<path d="M92.2406 37.8921C92.2406 39.0222 93.1588 39.9226 94.2712 39.9226C95.4013 39.9226 96.3016 39.0045 96.3193 37.8921C96.3193 36.7621 95.4013 35.8615 94.2712 35.8615C93.1588 35.8615 92.2406 36.7797 92.2406 37.8921Z" fill="#E7CD1E"/>
<path d="M91.7285 56.7498C91.7285 58.1623 92.8763 59.31 94.2889 59.31C95.7014 59.31 96.8491 58.1623 96.8491 56.7497C96.8491 55.3372 95.7014 54.1895 94.2889 54.1895C92.8586 54.1895 91.7285 55.3195 91.7285 56.7498Z" fill="#2C1E4A"/>
<path d="M91.7285 56.7498C91.7285 58.1623 92.8763 59.31 94.2889 59.31C95.7014 59.31 96.8491 58.1623 96.8491 56.7497C96.8491 55.3372 95.7014 54.1895 94.2889 54.1895C92.8586 54.1895 91.7285 55.3195 91.7285 56.7498Z" fill="white"/>
<path d="M91.7285 56.7498C91.7285 58.1623 92.8763 59.31 94.2889 59.31C95.7014 59.31 96.8491 58.1623 96.8491 56.7497C96.8491 55.3372 95.7014 54.1895 94.2889 54.1895C92.8586 54.1895 91.7285 55.3195 91.7285 56.7498Z" fill="#E7CD1E"/>
<path d="M92.4524 75.5901C92.4524 76.5966 93.2647 77.4089 94.2712 77.4089C95.2776 77.4089 96.1074 76.5966 96.1074 75.5725C96.1074 74.566 95.2953 73.7538 94.2712 73.7538C93.2647 73.7538 92.4524 74.5837 92.4524 75.5901Z" fill="#2C1E4A"/>
<path d="M92.4524 75.5901C92.4524 76.5966 93.2647 77.4089 94.2712 77.4089C95.2776 77.4089 96.1074 76.5966 96.1074 75.5725C96.1074 74.566 95.2953 73.7538 94.2712 73.7538C93.2647 73.7538 92.4524 74.5837 92.4524 75.5901Z" fill="white"/>
<path d="M92.4524 75.5901C92.4524 76.5966 93.2647 77.4089 94.2712 77.4089C95.2776 77.4089 96.1074 76.5966 96.1074 75.5725C96.1074 74.566 95.2953 73.7538 94.2712 73.7538C93.2647 73.7538 92.4524 74.5837 92.4524 75.5901Z" fill="#E7CD1E"/>
<path d="M93.3883 94.4301C93.3883 94.9245 93.7944 95.3129 94.2711 95.3129C94.7655 95.3129 95.154 94.9068 95.154 94.4301C95.154 93.9357 94.7479 93.5472 94.2711 93.5472C93.7944 93.5472 93.3883 93.9357 93.3883 94.4301Z" fill="#2C1E4A"/>
<path d="M93.3883 94.4301C93.3883 94.9245 93.7944 95.3129 94.2711 95.3129C94.7655 95.3129 95.154 94.9068 95.154 94.4301C95.154 93.9357 94.7479 93.5472 94.2711 93.5472C93.7944 93.5472 93.3883 93.9357 93.3883 94.4301Z" fill="white"/>
<path d="M93.3883 94.4301C93.3883 94.9245 93.7944 95.3129 94.2711 95.3129C94.7655 95.3129 95.154 94.9068 95.154 94.4301C95.154 93.9357 94.7479 93.5472 94.2711 93.5472C93.7944 93.5472 93.3883 93.9357 93.3883 94.4301Z" fill="#E7CD1E"/>
<path d="M94.1297 113.27C94.1297 113.358 94.2005 113.429 94.2888 113.429C94.377 113.429 94.4476 113.358 94.4476 113.27C94.4476 113.182 94.377 113.111 94.2888 113.111C94.1828 113.129 94.112 113.2 94.1297 113.27Z" fill="#2C1E4A"/>
<path d="M94.1297 113.27C94.1297 113.358 94.2005 113.429 94.2888 113.429C94.377 113.429 94.4476 113.358 94.4476 113.27C94.4476 113.182 94.377 113.111 94.2888 113.111C94.1828 113.129 94.112 113.2 94.1297 113.27Z" fill="white"/>
<path d="M94.1297 113.27C94.1297 113.358 94.2005 113.429 94.2888 113.429C94.377 113.429 94.4476 113.358 94.4476 113.27C94.4476 113.182 94.377 113.111 94.2888 113.111C94.1828 113.129 94.112 113.2 94.1297 113.27Z" fill="#E7CD1E"/>
<path d="M75.2721 0.211832C75.2721 0.300117 75.3427 0.370793 75.431 0.370793C75.5193 0.370793 75.5898 0.300117 75.5898 0.211832C75.5898 0.123546 75.5193 0.0529784 75.431 0.0529785C75.3427 0.0529785 75.2721 0.123546 75.2721 0.211832Z" fill="#2C1E4A"/>
<path d="M75.2721 0.211832C75.2721 0.300117 75.3427 0.370793 75.431 0.370793C75.5193 0.370793 75.5898 0.300117 75.5898 0.211832C75.5898 0.123546 75.5193 0.0529784 75.431 0.0529785C75.3427 0.0529785 75.2721 0.123546 75.2721 0.211832Z" fill="white"/>
<path d="M75.2721 0.211832C75.2721 0.300117 75.3427 0.370793 75.431 0.370793C75.5193 0.370793 75.5898 0.300117 75.5898 0.211832C75.5898 0.123546 75.5193 0.0529784 75.431 0.0529785C75.3427 0.0529785 75.2721 0.123546 75.2721 0.211832Z" fill="#E7CD1E"/>
<path d="M74.707 19.052C74.707 19.4581 75.0426 19.7937 75.4487 19.7937C75.8548 19.7937 76.1727 19.4581 76.1904 19.052C76.1904 18.6459 75.8548 18.3281 75.4487 18.3104C75.0249 18.3281 74.707 18.6459 74.707 19.052Z" fill="#2C1E4A"/>
<path d="M74.707 19.052C74.707 19.4581 75.0426 19.7937 75.4487 19.7937C75.8548 19.7937 76.1727 19.4581 76.1904 19.052C76.1904 18.6459 75.8548 18.3281 75.4487 18.3104C75.0249 18.3281 74.707 18.6459 74.707 19.052Z" fill="white"/>
<path d="M74.707 19.052C74.707 19.4581 75.0426 19.7937 75.4487 19.7937C75.8548 19.7937 76.1727 19.4581 76.1904 19.052C76.1904 18.6459 75.8548 18.3281 75.4487 18.3104C75.0249 18.3281 74.707 18.6459 74.707 19.052Z" fill="#E7CD1E"/>
<path d="M73.9125 37.8921C73.9125 38.722 74.5835 39.4106 75.431 39.4106C76.2609 39.4106 76.9495 38.722 76.9495 37.8921C76.9495 37.0623 76.2609 36.3737 75.431 36.3737C74.6011 36.3913 73.9125 37.0623 73.9125 37.8921Z" fill="#2C1E4A"/>
<path d="M73.9125 37.8921C73.9125 38.722 74.5835 39.4106 75.431 39.4106C76.2609 39.4106 76.9495 38.722 76.9495 37.8921C76.9495 37.0623 76.2609 36.3737 75.431 36.3737C74.6011 36.3913 73.9125 37.0623 73.9125 37.8921Z" fill="white"/>
<path d="M73.9125 37.8921C73.9125 38.722 74.5835 39.4106 75.431 39.4106C76.2609 39.4106 76.9495 38.722 76.9495 37.8921C76.9495 37.0623 76.2609 36.3737 75.431 36.3737C74.6011 36.3913 73.9125 37.0623 73.9125 37.8921Z" fill="#E7CD1E"/>
<path d="M73.5064 56.7498C73.5064 57.8093 74.3716 58.6921 75.4487 58.6921C76.5081 58.6921 77.3733 57.8269 77.3909 56.7498C77.3909 55.6904 76.5258 54.8252 75.4487 54.8075C74.3716 54.8075 73.5064 55.6728 73.5064 56.7498Z" fill="#2C1E4A"/>
<path d="M73.5064 56.7498C73.5064 57.8093 74.3716 58.6921 75.4487 58.6921C76.5081 58.6921 77.3733 57.8269 77.3909 56.7498C77.3909 55.6904 76.5258 54.8252 75.4487 54.8075C74.3716 54.8075 73.5064 55.6728 73.5064 56.7498Z" fill="white"/>
<path d="M73.5064 56.7498C73.5064 57.8093 74.3716 58.6921 75.4487 58.6921C76.5081 58.6921 77.3733 57.8269 77.3909 56.7498C77.3909 55.6904 76.5258 54.8252 75.4487 54.8075C74.3716 54.8075 73.5064 55.6728 73.5064 56.7498Z" fill="#E7CD1E"/>
<path d="M74.0714 75.59C74.0714 76.3316 74.6718 76.9497 75.431 76.9497C76.1726 76.9497 76.7907 76.3316 76.7907 75.59C76.7907 74.8308 76.1726 74.2304 75.431 74.2304C74.6894 74.2304 74.0714 74.8308 74.0714 75.59Z" fill="#2C1E4A"/>
<path d="M74.0714 75.59C74.0714 76.3316 74.6718 76.9497 75.431 76.9497C76.1726 76.9497 76.7907 76.3316 76.7907 75.59C76.7907 74.8308 76.1726 74.2304 75.431 74.2304C74.6894 74.2304 74.0714 74.8308 74.0714 75.59Z" fill="white"/>
<path d="M74.0714 75.59C74.0714 76.3316 74.6718 76.9497 75.431 76.9497C76.1726 76.9497 76.7907 76.3316 76.7907 75.59C76.7907 74.8308 76.1726 74.2304 75.431 74.2304C74.6894 74.2304 74.0714 74.8308 74.0714 75.59Z" fill="#E7CD1E"/>
<path d="M74.76 94.4299C74.76 94.8007 75.0602 95.1185 75.4487 95.1009C75.8195 95.1009 76.1197 94.8007 76.1197 94.4299C76.1197 94.0591 75.8195 93.759 75.4487 93.7413C75.0602 93.759 74.76 94.0591 74.76 94.4299Z" fill="#2C1E4A"/>
<path d="M74.76 94.4299C74.76 94.8007 75.0602 95.1185 75.4487 95.1009C75.8195 95.1009 76.1197 94.8007 76.1197 94.4299C76.1197 94.0591 75.8195 93.759 75.4487 93.7413C75.0602 93.759 74.76 94.0591 74.76 94.4299Z" fill="white"/>
<path d="M74.76 94.4299C74.76 94.8007 75.0602 95.1185 75.4487 95.1009C75.8195 95.1009 76.1197 94.8007 76.1197 94.4299C76.1197 94.0591 75.8195 93.759 75.4487 93.7413C75.0602 93.759 74.76 94.0591 74.76 94.4299Z" fill="#E7CD1E"/>
<path d="M75.2722 113.27C75.2722 113.358 75.3428 113.429 75.4311 113.429C75.5193 113.429 75.5899 113.358 75.5899 113.27C75.5899 113.182 75.5193 113.111 75.4311 113.111C75.3428 113.129 75.2722 113.199 75.2722 113.27Z" fill="#2C1E4A"/>
<path d="M75.2722 113.27C75.2722 113.358 75.3428 113.429 75.4311 113.429C75.5193 113.429 75.5899 113.358 75.5899 113.27C75.5899 113.182 75.5193 113.111 75.4311 113.111C75.3428 113.129 75.2722 113.199 75.2722 113.27Z" fill="white"/>
<path d="M75.2722 113.27C75.2722 113.358 75.3428 113.429 75.4311 113.429C75.5193 113.429 75.5899 113.358 75.5899 113.27C75.5899 113.182 75.5193 113.111 75.4311 113.111C75.3428 113.129 75.2722 113.199 75.2722 113.27Z" fill="#E7CD1E"/>
<path d="M56.4851 0.212172C56.4851 0.265311 56.5381 0.318447 56.5912 0.318447C56.6444 0.318447 56.6976 0.265311 56.6976 0.212171C56.6976 0.159032 56.6444 0.105896 56.5912 0.105896C56.5381 0.105896 56.4851 0.141318 56.4851 0.212172Z" fill="#2C1E4A"/>
<path d="M56.4851 0.212172C56.4851 0.265311 56.5381 0.318447 56.5912 0.318447C56.6444 0.318447 56.6976 0.265311 56.6976 0.212171C56.6976 0.159032 56.6444 0.105896 56.5912 0.105896C56.5381 0.105896 56.4851 0.141318 56.4851 0.212172Z" fill="white"/>
<path d="M56.4851 0.212172C56.4851 0.265311 56.5381 0.318447 56.5912 0.318447C56.6444 0.318447 56.6976 0.265311 56.6976 0.212171C56.6976 0.159032 56.6444 0.105896 56.5912 0.105896C56.5381 0.105896 56.4851 0.141318 56.4851 0.212172Z" fill="#E7CD1E"/>
<path d="M56.0612 19.0519C56.0612 19.3344 56.2908 19.5817 56.5733 19.5817C56.8558 19.5817 57.1029 19.352 57.1029 19.0519C57.1029 18.7517 56.8735 18.5399 56.5733 18.5399C56.2732 18.5399 56.0612 18.7694 56.0612 19.0519Z" fill="#2C1E4A"/>
<path d="M56.0612 19.0519C56.0612 19.3344 56.2908 19.5817 56.5733 19.5817C56.8558 19.5817 57.1029 19.352 57.1029 19.0519C57.1029 18.7517 56.8735 18.5399 56.5733 18.5399C56.2732 18.5399 56.0612 18.7694 56.0612 19.0519Z" fill="white"/>
<path d="M56.0612 19.0519C56.0612 19.3344 56.2908 19.5817 56.5733 19.5817C56.8558 19.5817 57.1029 19.352 57.1029 19.0519C57.1029 18.7517 56.8735 18.5399 56.5733 18.5399C56.2732 18.5399 56.0612 18.7694 56.0612 19.0519Z" fill="#E7CD1E"/>
<path d="M55.4961 37.892C55.4961 38.4923 55.9905 38.9867 56.5909 38.9867C57.1912 38.9867 57.6858 38.4923 57.6858 37.892C57.6858 37.2916 57.1912 36.7972 56.5909 36.7972C55.9729 36.7972 55.4961 37.2916 55.4961 37.892Z" fill="#2C1E4A"/>
<path d="M55.4961 37.892C55.4961 38.4923 55.9905 38.9867 56.5909 38.9867C57.1912 38.9867 57.6858 38.4923 57.6858 37.892C57.6858 37.2916 57.1912 36.7972 56.5909 36.7972C55.9729 36.7972 55.4961 37.2916 55.4961 37.892Z" fill="white"/>
<path d="M55.4961 37.892C55.4961 38.4923 55.9905 38.9867 56.5909 38.9867C57.1912 38.9867 57.6858 38.4923 57.6858 37.892C57.6858 37.2916 57.1912 36.7972 56.5909 36.7972C55.9729 36.7972 55.4961 37.2916 55.4961 37.892Z" fill="#E7CD1E"/>
<path d="M55.2314 56.7496C55.2314 57.5089 55.8492 58.1093 56.5908 58.1093C57.3501 58.1093 57.9505 57.5089 57.9505 56.7496C57.9505 56.008 57.3501 55.39 56.5908 55.39C55.8316 55.39 55.2314 55.9904 55.2314 56.7496Z" fill="#2C1E4A"/>
<path d="M55.2314 56.7496C55.2314 57.5089 55.8492 58.1093 56.5908 58.1093C57.3501 58.1093 57.9505 57.5089 57.9505 56.7496C57.9505 56.008 57.3501 55.39 56.5908 55.39C55.8316 55.39 55.2314 55.9904 55.2314 56.7496Z" fill="white"/>
<path d="M55.2314 56.7496C55.2314 57.5089 55.8492 58.1093 56.5908 58.1093C57.3501 58.1093 57.9505 57.5089 57.9505 56.7496C57.9505 56.008 57.3501 55.39 56.5908 55.39C55.8316 55.39 55.2314 55.9904 55.2314 56.7496Z" fill="#E7CD1E"/>
<path d="M55.6021 75.5899C55.6021 76.1373 56.0434 76.5787 56.5908 76.5787C57.1382 76.5787 57.5797 76.1373 57.5797 75.5899C57.5797 75.0426 57.1382 74.6011 56.5908 74.6011C56.0434 74.6011 55.6021 75.0426 55.6021 75.5899Z" fill="#2C1E4A"/>
<path d="M55.6021 75.5899C55.6021 76.1373 56.0434 76.5787 56.5908 76.5787C57.1382 76.5787 57.5797 76.1373 57.5797 75.5899C57.5797 75.0426 57.1382 74.6011 56.5908 74.6011C56.0434 74.6011 55.6021 75.0426 55.6021 75.5899Z" fill="white"/>
<path d="M55.6021 75.5899C55.6021 76.1373 56.0434 76.5787 56.5908 76.5787C57.1382 76.5787 57.5797 76.1373 57.5797 75.5899C57.5797 75.0426 57.1382 74.6011 56.5908 74.6011C56.0434 74.6011 55.6021 75.0426 55.6021 75.5899Z" fill="#E7CD1E"/>
<path d="M56.1143 94.4298C56.1143 94.6946 56.326 94.9066 56.5908 94.9066C56.8557 94.9066 57.0676 94.6946 57.0676 94.4298C57.0676 94.1649 56.8557 93.9531 56.5908 93.9531C56.326 93.9531 56.1143 94.1649 56.1143 94.4298Z" fill="#2C1E4A"/>
<path d="M56.1143 94.4298C56.1143 94.6946 56.326 94.9066 56.5908 94.9066C56.8557 94.9066 57.0676 94.6946 57.0676 94.4298C57.0676 94.1649 56.8557 93.9531 56.5908 93.9531C56.326 93.9531 56.1143 94.1649 56.1143 94.4298Z" fill="white"/>
<path d="M56.1143 94.4298C56.1143 94.6946 56.326 94.9066 56.5908 94.9066C56.8557 94.9066 57.0676 94.6946 57.0676 94.4298C57.0676 94.1649 56.8557 93.9531 56.5908 93.9531C56.326 93.9531 56.1143 94.1649 56.1143 94.4298Z" fill="#E7CD1E"/>
<path d="M56.4851 113.288C56.4851 113.341 56.5382 113.394 56.5913 113.394C56.6444 113.394 56.6977 113.341 56.6977 113.288C56.6977 113.235 56.6444 113.182 56.5913 113.182C56.5382 113.182 56.4851 113.217 56.4851 113.288Z" fill="#2C1E4A"/>
<path d="M56.4851 113.288C56.4851 113.341 56.5382 113.394 56.5913 113.394C56.6444 113.394 56.6977 113.341 56.6977 113.288C56.6977 113.235 56.6444 113.182 56.5913 113.182C56.5382 113.182 56.4851 113.217 56.4851 113.288Z" fill="white"/>
<path d="M56.4851 113.288C56.4851 113.341 56.5382 113.394 56.5913 113.394C56.6444 113.394 56.6977 113.341 56.6977 113.288C56.6977 113.235 56.6444 113.182 56.5913 113.182C56.5382 113.182 56.4851 113.217 56.4851 113.288Z" fill="#E7CD1E"/>
<path d="M37.6979 0.211912C37.6979 0.247226 37.7156 0.264935 37.7509 0.264935C37.7686 0.264935 37.8038 0.247226 37.8038 0.211912C37.8038 0.176598 37.7862 0.158997 37.7509 0.158997C37.7156 0.158997 37.6979 0.176598 37.6979 0.211912Z" fill="#2C1E4A"/>
<path d="M37.6979 0.211912C37.6979 0.247226 37.7156 0.264935 37.7509 0.264935C37.7686 0.264935 37.8038 0.247226 37.8038 0.211912C37.8038 0.176598 37.7862 0.158997 37.7509 0.158997C37.7156 0.158997 37.6979 0.176598 37.6979 0.211912Z" fill="white"/>
<path d="M37.6979 0.211912C37.6979 0.247226 37.7156 0.264935 37.7509 0.264935C37.7686 0.264935 37.8038 0.247226 37.8038 0.211912C37.8038 0.176598 37.7862 0.158997 37.7509 0.158997C37.7156 0.158997 37.6979 0.176598 37.6979 0.211912Z" fill="#E7CD1E"/>
<path d="M37.38 19.052C37.38 19.2639 37.539 19.4228 37.7508 19.4228C37.9451 19.4228 38.1216 19.2639 38.1216 19.052C38.1216 18.8401 37.9627 18.6813 37.7508 18.6813C37.539 18.6813 37.38 18.8401 37.38 19.052Z" fill="#2C1E4A"/>
<path d="M37.38 19.052C37.38 19.2639 37.539 19.4228 37.7508 19.4228C37.9451 19.4228 38.1216 19.2639 38.1216 19.052C38.1216 18.8401 37.9627 18.6813 37.7508 18.6813C37.539 18.6813 37.38 18.8401 37.38 19.052Z" fill="white"/>
<path d="M37.38 19.052C37.38 19.2639 37.539 19.4228 37.7508 19.4228C37.9451 19.4228 38.1216 19.2639 38.1216 19.052C38.1216 18.8401 37.9627 18.6813 37.7508 18.6813C37.539 18.6813 37.38 18.8401 37.38 19.052Z" fill="#E7CD1E"/>
<path d="M37.0623 37.8921C37.0623 38.2629 37.3625 38.5631 37.7333 38.5631C38.1041 38.5631 38.4219 38.2629 38.4219 37.8921C38.4219 37.5213 38.1217 37.2211 37.7333 37.2034C37.3625 37.2211 37.0623 37.5213 37.0623 37.8921Z" fill="#2C1E4A"/>
<path d="M37.0623 37.8921C37.0623 38.2629 37.3625 38.5631 37.7333 38.5631C38.1041 38.5631 38.4219 38.2629 38.4219 37.8921C38.4219 37.5213 38.1217 37.2211 37.7333 37.2034C37.3625 37.2211 37.0623 37.5213 37.0623 37.8921Z" fill="white"/>
<path d="M37.0623 37.8921C37.0623 38.2629 37.3625 38.5631 37.7333 38.5631C38.1041 38.5631 38.4219 38.2629 38.4219 37.8921C38.4219 37.5213 38.1217 37.2211 37.7333 37.2034C37.3625 37.2211 37.0623 37.5213 37.0623 37.8921Z" fill="#E7CD1E"/>
<path d="M36.9033 56.7499C36.9033 57.2089 37.2741 57.5797 37.7332 57.5797C38.1923 57.5797 38.563 57.2089 38.563 56.7499C38.563 56.2908 38.1923 55.9199 37.7332 55.9199C37.2741 55.9023 36.9033 56.2731 36.9033 56.7499Z" fill="#2C1E4A"/>
<path d="M36.9033 56.7499C36.9033 57.2089 37.2741 57.5797 37.7332 57.5797C38.1923 57.5797 38.563 57.2089 38.563 56.7499C38.563 56.2908 38.1923 55.9199 37.7332 55.9199C37.2741 55.9023 36.9033 56.2731 36.9033 56.7499Z" fill="white"/>
<path d="M36.9033 56.7499C36.9033 57.2089 37.2741 57.5797 37.7332 57.5797C38.1923 57.5797 38.563 57.2089 38.563 56.7499C38.563 56.2908 38.1923 55.9199 37.7332 55.9199C37.2741 55.9023 36.9033 56.2731 36.9033 56.7499Z" fill="#E7CD1E"/>
<path d="M37.7509 76.2258C38.102 76.2258 38.3866 75.9412 38.3866 75.5902C38.3866 75.2391 38.102 74.9545 37.7509 74.9545C37.3999 74.9545 37.1152 75.2391 37.1152 75.5902C37.1152 75.9412 37.3999 76.2258 37.7509 76.2258Z" fill="#2C1E4A"/>
<path d="M37.7509 76.2258C38.102 76.2258 38.3866 75.9412 38.3866 75.5902C38.3866 75.2391 38.102 74.9545 37.7509 74.9545C37.3999 74.9545 37.1152 75.2391 37.1152 75.5902C37.1152 75.9412 37.3999 76.2258 37.7509 76.2258Z" fill="white"/>
<path d="M37.7509 76.2258C38.102 76.2258 38.3866 75.9412 38.3866 75.5902C38.3866 75.2391 38.102 74.9545 37.7509 74.9545C37.3999 74.9545 37.1152 75.2391 37.1152 75.5902C37.1152 75.9412 37.3999 76.2258 37.7509 76.2258Z" fill="#E7CD1E"/>
<path d="M37.4331 94.43C37.4331 94.6066 37.5743 94.7479 37.7509 94.7479C37.9275 94.7479 38.0687 94.6066 38.0687 94.43C38.0687 94.2534 37.9275 94.1122 37.7509 94.1122C37.5743 94.1122 37.4331 94.2534 37.4331 94.43Z" fill="#2C1E4A"/>
<path d="M37.4331 94.43C37.4331 94.6066 37.5743 94.7479 37.7509 94.7479C37.9275 94.7479 38.0687 94.6066 38.0687 94.43C38.0687 94.2534 37.9275 94.1122 37.7509 94.1122C37.5743 94.1122 37.4331 94.2534 37.4331 94.43Z" fill="white"/>
<path d="M37.4331 94.43C37.4331 94.6066 37.5743 94.7479 37.7509 94.7479C37.9275 94.7479 38.0687 94.6066 38.0687 94.43C38.0687 94.2534 37.9275 94.1122 37.7509 94.1122C37.5743 94.1122 37.4331 94.2534 37.4331 94.43Z" fill="#E7CD1E"/>
<path d="M37.698 113.27C37.698 113.306 37.7157 113.323 37.751 113.323C37.7863 113.323 37.8039 113.306 37.8039 113.27C37.8039 113.235 37.7863 113.217 37.751 113.217C37.7157 113.235 37.698 113.253 37.698 113.27Z" fill="#2C1E4A"/>
<path d="M37.698 113.27C37.698 113.306 37.7157 113.323 37.751 113.323C37.7863 113.323 37.8039 113.306 37.8039 113.27C37.8039 113.235 37.7863 113.217 37.751 113.217C37.7157 113.235 37.698 113.253 37.698 113.27Z" fill="white"/>
<path d="M37.698 113.27C37.698 113.306 37.7157 113.323 37.751 113.323C37.7863 113.323 37.8039 113.306 37.8039 113.27C37.8039 113.235 37.7863 113.217 37.751 113.217C37.7157 113.235 37.698 113.253 37.698 113.27Z" fill="#E7CD1E"/>
<path d="M18.8401 0.211851C18.8401 0.247165 18.8578 0.264874 18.8931 0.264874C18.9108 0.264874 18.946 0.247165 18.946 0.211851C18.946 0.176537 18.9284 0.158936 18.8931 0.158936C18.8578 0.158936 18.8401 0.176537 18.8401 0.211851Z" fill="#2C1E4A"/>
<path d="M18.8401 0.211851C18.8401 0.247165 18.8578 0.264874 18.8931 0.264874C18.9108 0.264874 18.946 0.247165 18.946 0.211851C18.946 0.176537 18.9284 0.158936 18.8931 0.158936C18.8578 0.158936 18.8401 0.176537 18.8401 0.211851Z" fill="white"/>
<path d="M18.8401 0.211851C18.8401 0.247165 18.8578 0.264874 18.8931 0.264874C18.9108 0.264874 18.946 0.247165 18.946 0.211851C18.946 0.176537 18.9284 0.158936 18.8931 0.158936C18.8578 0.158936 18.8401 0.176537 18.8401 0.211851Z" fill="#E7CD1E"/>
<path d="M18.8931 19.2639C19.0102 19.2639 19.105 19.1689 19.105 19.0519C19.105 18.9349 19.0102 18.84 18.8931 18.84C18.7761 18.84 18.6812 18.9349 18.6812 19.0519C18.6812 19.1689 18.7761 19.2639 18.8931 19.2639Z" fill="#2C1E4A"/>
<path d="M18.8931 19.2639C19.0102 19.2639 19.105 19.1689 19.105 19.0519C19.105 18.9349 19.0102 18.84 18.8931 18.84C18.7761 18.84 18.6812 18.9349 18.6812 19.0519C18.6812 19.1689 18.7761 19.2639 18.8931 19.2639Z" fill="white"/>
<path d="M18.8931 19.2639C19.0102 19.2639 19.105 19.1689 19.105 19.0519C19.105 18.9349 19.0102 18.84 18.8931 18.84C18.7761 18.84 18.6812 18.9349 18.6812 19.0519C18.6812 19.1689 18.7761 19.2639 18.8931 19.2639Z" fill="#E7CD1E"/>
<path d="M18.5223 37.8921C18.5223 38.0864 18.6813 38.2629 18.8931 38.2629C19.0874 38.2629 19.2639 38.104 19.2639 37.8921C19.2639 37.6803 19.105 37.5213 18.8931 37.5213C18.6989 37.5213 18.5223 37.6979 18.5223 37.8921Z" fill="#2C1E4A"/>
<path d="M18.5223 37.8921C18.5223 38.0864 18.6813 38.2629 18.8931 38.2629C19.0874 38.2629 19.2639 38.104 19.2639 37.8921C19.2639 37.6803 19.105 37.5213 18.8931 37.5213C18.6989 37.5213 18.5223 37.6979 18.5223 37.8921Z" fill="white"/>
<path d="M18.5223 37.8921C18.5223 38.0864 18.6813 38.2629 18.8931 38.2629C19.0874 38.2629 19.2639 38.104 19.2639 37.8921C19.2639 37.6803 19.105 37.5213 18.8931 37.5213C18.6989 37.5213 18.5223 37.6979 18.5223 37.8921Z" fill="#E7CD1E"/>
<path d="M18.487 56.7498C18.487 56.9793 18.6812 57.1736 18.9107 57.1736C19.1403 57.1736 19.3346 56.9793 19.3346 56.7498C19.3346 56.5203 19.1403 56.326 18.9107 56.326C18.6635 56.326 18.487 56.5026 18.487 56.7498Z" fill="#2C1E4A"/>
<path d="M18.487 56.7498C18.487 56.9793 18.6812 57.1736 18.9107 57.1736C19.1403 57.1736 19.3346 56.9793 19.3346 56.7498C19.3346 56.5203 19.1403 56.326 18.9107 56.326C18.6635 56.326 18.487 56.5026 18.487 56.7498Z" fill="white"/>
<path d="M18.487 56.7498C18.487 56.9793 18.6812 57.1736 18.9107 57.1736C19.1403 57.1736 19.3346 56.9793 19.3346 56.7498C19.3346 56.5203 19.1403 56.326 18.9107 56.326C18.6635 56.326 18.487 56.5026 18.487 56.7498Z" fill="#E7CD1E"/>
<path d="M18.5752 75.5898C18.5752 75.7664 18.7165 75.9076 18.8931 75.9076C19.0697 75.9076 19.2109 75.7664 19.2109 75.5898C19.2109 75.4132 19.0697 75.272 18.8931 75.272C18.7165 75.272 18.5752 75.4132 18.5752 75.5898Z" fill="#2C1E4A"/>
<path d="M18.5752 75.5898C18.5752 75.7664 18.7165 75.9076 18.8931 75.9076C19.0697 75.9076 19.2109 75.7664 19.2109 75.5898C19.2109 75.4132 19.0697 75.272 18.8931 75.272C18.7165 75.272 18.5752 75.4132 18.5752 75.5898Z" fill="white"/>
<path d="M18.5752 75.5898C18.5752 75.7664 18.7165 75.9076 18.8931 75.9076C19.0697 75.9076 19.2109 75.7664 19.2109 75.5898C19.2109 75.4132 19.0697 75.272 18.8931 75.272C18.7165 75.272 18.5752 75.4132 18.5752 75.5898Z" fill="#E7CD1E"/>
<path d="M18.7341 94.4298C18.7341 94.5181 18.8048 94.5888 18.8931 94.5888C18.9814 94.5888 19.052 94.5181 19.052 94.4298C19.052 94.3416 18.9814 94.271 18.8931 94.271C18.8048 94.271 18.7341 94.3416 18.7341 94.4298Z" fill="#2C1E4A"/>
<path d="M18.7341 94.4298C18.7341 94.5181 18.8048 94.5888 18.8931 94.5888C18.9814 94.5888 19.052 94.5181 19.052 94.4298C19.052 94.3416 18.9814 94.271 18.8931 94.271C18.8048 94.271 18.7341 94.3416 18.7341 94.4298Z" fill="white"/>
<path d="M18.7341 94.4298C18.7341 94.5181 18.8048 94.5888 18.8931 94.5888C18.9814 94.5888 19.052 94.5181 19.052 94.4298C19.052 94.3416 18.9814 94.271 18.8931 94.271C18.8048 94.271 18.7341 94.3416 18.7341 94.4298Z" fill="#E7CD1E"/>
<path d="M18.8402 113.27C18.8402 113.305 18.8579 113.323 18.8932 113.323C18.9109 113.323 18.9461 113.305 18.9461 113.27C18.9461 113.235 18.9285 113.217 18.8932 113.217C18.8755 113.235 18.8402 113.252 18.8402 113.27Z" fill="#2C1E4A"/>
<path d="M18.8402 113.27C18.8402 113.305 18.8579 113.323 18.8932 113.323C18.9109 113.323 18.9461 113.305 18.9461 113.27C18.9461 113.235 18.9285 113.217 18.8932 113.217C18.8755 113.235 18.8402 113.252 18.8402 113.27Z" fill="white"/>
<path d="M18.8402 113.27C18.8402 113.305 18.8579 113.323 18.8932 113.323C18.9109 113.323 18.9461 113.305 18.9461 113.27C18.9461 113.235 18.9285 113.217 18.8932 113.217C18.8755 113.235 18.8402 113.252 18.8402 113.27Z" fill="#E7CD1E"/>
<path d="M3.05264e-05 19.0518C3.05323e-05 19.0871 0.0176316 19.1048 0.0529457 19.1048C0.0882599 19.1048 0.105969 19.0871 0.105969 19.0518C0.105969 19.0165 0.0882599 18.9989 0.0529457 18.9989C0.0176316 18.9989 3.05205e-05 19.0165 3.05264e-05 19.0518Z" fill="#2C1E4A"/>
<path d="M3.05264e-05 19.0518C3.05323e-05 19.0871 0.0176316 19.1048 0.0529457 19.1048C0.0882599 19.1048 0.105969 19.0871 0.105969 19.0518C0.105969 19.0165 0.0882599 18.9989 0.0529457 18.9989C0.0176316 18.9989 3.05205e-05 19.0165 3.05264e-05 19.0518Z" fill="white"/>
<path d="M3.05264e-05 19.0518C3.05323e-05 19.0871 0.0176316 19.1048 0.0529457 19.1048C0.0882599 19.1048 0.105969 19.0871 0.105969 19.0518C0.105969 19.0165 0.0882599 18.9989 0.0529457 18.9989C0.0176316 18.9989 3.05205e-05 19.0165 3.05264e-05 19.0518Z" fill="#E7CD1E"/>
<path d="M3.05264e-05 37.8921C3.05322e-05 37.9274 0.0176316 37.945 0.0529457 37.945C0.0882599 37.945 0.105969 37.9274 0.105969 37.8921L0.0529457 37.8391C0.0176316 37.8391 3.05235e-05 37.8744 3.05264e-05 37.8921Z" fill="#2C1E4A"/>
<path d="M3.05264e-05 37.8921C3.05322e-05 37.9274 0.0176316 37.945 0.0529457 37.945C0.0882599 37.945 0.105969 37.9274 0.105969 37.8921L0.0529457 37.8391C0.0176316 37.8391 3.05235e-05 37.8744 3.05264e-05 37.8921Z" fill="white"/>
<path d="M3.05264e-05 37.8921C3.05322e-05 37.9274 0.0176316 37.945 0.0529457 37.945C0.0882599 37.945 0.105969 37.9274 0.105969 37.8921L0.0529457 37.8391C0.0176316 37.8391 3.05235e-05 37.8744 3.05264e-05 37.8921Z" fill="#E7CD1E"/>
<path d="M3.05264e-05 56.7498C3.05323e-05 56.7851 0.0176316 56.8027 0.0529457 56.8027C0.0882599 56.8027 0.105969 56.7851 0.105969 56.7498L0.0529457 56.6968C0.0176316 56.6968 3.05205e-05 56.7145 3.05264e-05 56.7498Z" fill="#2C1E4A"/>
<path d="M3.05264e-05 56.7498C3.05323e-05 56.7851 0.0176316 56.8027 0.0529457 56.8027C0.0882599 56.8027 0.105969 56.7851 0.105969 56.7498L0.0529457 56.6968C0.0176316 56.6968 3.05205e-05 56.7145 3.05264e-05 56.7498Z" fill="white"/>
<path d="M3.05264e-05 56.7498C3.05323e-05 56.7851 0.0176316 56.8027 0.0529457 56.8027C0.0882599 56.8027 0.105969 56.7851 0.105969 56.7498L0.0529457 56.6968C0.0176316 56.6968 3.05205e-05 56.7145 3.05264e-05 56.7498Z" fill="#E7CD1E"/>
<path d="M3.05264e-05 75.5899C3.05322e-05 75.6252 0.0176316 75.6429 0.0529457 75.6429L0.105969 75.5899C0.105969 75.5546 0.0882599 75.537 0.0529457 75.537C0.0176316 75.537 3.05205e-05 75.5546 3.05264e-05 75.5899Z" fill="#2C1E4A"/>
<path d="M3.05264e-05 75.5899C3.05322e-05 75.6252 0.0176316 75.6429 0.0529457 75.6429L0.105969 75.5899C0.105969 75.5546 0.0882599 75.537 0.0529457 75.537C0.0176316 75.537 3.05205e-05 75.5546 3.05264e-05 75.5899Z" fill="white"/>
<path d="M3.05264e-05 75.5899C3.05322e-05 75.6252 0.0176316 75.6429 0.0529457 75.6429L0.105969 75.5899C0.105969 75.5546 0.0882599 75.537 0.0529457 75.537C0.0176316 75.537 3.05205e-05 75.5546 3.05264e-05 75.5899Z" fill="#E7CD1E"/>
<path d="M3.05264e-05 94.4299C3.05293e-05 94.4475 0.0176316 94.4829 0.0529457 94.4829C0.0882599 94.4829 0.105969 94.4652 0.105969 94.4299C0.105969 94.3946 0.0882599 94.377 0.0529457 94.377C0.0176316 94.377 3.05234e-05 94.4122 3.05264e-05 94.4299Z" fill="#2C1E4A"/>
<path d="M3.05264e-05 94.4299C3.05293e-05 94.4475 0.0176316 94.4829 0.0529457 94.4829C0.0882599 94.4829 0.105969 94.4652 0.105969 94.4299C0.105969 94.3946 0.0882599 94.377 0.0529457 94.377C0.0176316 94.377 3.05234e-05 94.4122 3.05264e-05 94.4299Z" fill="white"/>
<path d="M3.05264e-05 94.4299C3.05293e-05 94.4475 0.0176316 94.4829 0.0529457 94.4829C0.0882599 94.4829 0.105969 94.4652 0.105969 94.4299C0.105969 94.3946 0.0882599 94.377 0.0529457 94.377C0.0176316 94.377 3.05234e-05 94.4122 3.05264e-05 94.4299Z" fill="#E7CD1E"/>
</svg>
