<svg width="148" height="111" viewBox="0 0 148 111" fill="none" xmlns="http://www.w3.org/2000/svg">
<path d="M145.126 18.5511C145.126 19.5139 145.899 20.2876 146.862 20.2876C147.825 20.2876 148.599 19.5139 148.599 18.5511C148.599 17.5883 147.825 16.8147 146.862 16.8147C145.899 16.8147 145.126 17.5883 145.126 18.5511Z" fill="#2C1E4A"/>
<path d="M145.126 18.5511C145.126 19.5139 145.899 20.2876 146.862 20.2876C147.825 20.2876 148.599 19.5139 148.599 18.5511C148.599 17.5883 147.825 16.8147 146.862 16.8147C145.899 16.8147 145.126 17.5883 145.126 18.5511Z" fill="white"/>
<path d="M145.126 18.5511C145.126 19.5139 145.899 20.2876 146.862 20.2876C147.825 20.2876 148.599 19.5139 148.599 18.5511C148.599 17.5883 147.825 16.8147 146.862 16.8147C145.899 16.8147 145.126 17.5883 145.126 18.5511Z" fill="#E7CD1E"/>
<path d="M143.338 36.8959C143.338 38.8387 144.902 40.4032 146.845 40.4032C148.788 40.4032 150.352 38.8387 150.352 36.8959C150.352 34.9531 148.788 33.3884 146.845 33.3884C144.919 33.3884 143.338 34.9702 143.338 36.8959Z" fill="#2C1E4A"/>
<path d="M143.338 36.8959C143.338 38.8387 144.902 40.4032 146.845 40.4032C148.788 40.4032 150.352 38.8387 150.352 36.8959C150.352 34.9531 148.788 33.3884 146.845 33.3884C144.919 33.3884 143.338 34.9702 143.338 36.8959Z" fill="white"/>
<path d="M143.338 36.8959C143.338 38.8387 144.902 40.4032 146.845 40.4032C148.788 40.4032 150.352 38.8387 150.352 36.8959C150.352 34.9531 148.788 33.3884 146.845 33.3884C144.919 33.3884 143.338 34.9702 143.338 36.8959Z" fill="#E7CD1E"/>
<path d="M142.633 55.2581C142.633 57.5963 144.524 59.4876 146.862 59.4876C149.2 59.4876 151.092 57.5963 151.092 55.2581C151.092 52.9198 149.2 51.0286 146.862 51.0286C144.524 51.0286 142.633 52.9198 142.633 55.2581Z" fill="#2C1E4A"/>
<path d="M142.633 55.2581C142.633 57.5963 144.524 59.4876 146.862 59.4876C149.2 59.4876 151.092 57.5963 151.092 55.2581C151.092 52.9198 149.2 51.0286 146.862 51.0286C144.524 51.0286 142.633 52.9198 142.633 55.2581Z" fill="white"/>
<path d="M142.633 55.2581C142.633 57.5963 144.524 59.4876 146.862 59.4876C149.2 59.4876 151.092 57.5963 151.092 55.2581C151.092 52.9198 149.2 51.0286 146.862 51.0286C144.524 51.0286 142.633 52.9198 142.633 55.2581Z" fill="#E7CD1E"/>
<path d="M143.647 73.6028C143.647 75.3737 145.074 76.8007 146.845 76.8007C148.616 76.8007 150.043 75.3737 150.043 73.6028C150.043 71.8319 148.616 70.4049 146.845 70.4049C145.074 70.3877 143.647 71.8319 143.647 73.6028Z" fill="#2C1E4A"/>
<path d="M143.647 73.6028C143.647 75.3737 145.074 76.8007 146.845 76.8007C148.616 76.8007 150.043 75.3737 150.043 73.6028C150.043 71.8319 148.616 70.4049 146.845 70.4049C145.074 70.3877 143.647 71.8319 143.647 73.6028Z" fill="white"/>
<path d="M143.647 73.6028C143.647 75.3737 145.074 76.8007 146.845 76.8007C148.616 76.8007 150.043 75.3737 150.043 73.6028C150.043 71.8319 148.616 70.4049 146.845 70.4049C145.074 70.3877 143.647 71.8319 143.647 73.6028Z" fill="#E7CD1E"/>
<path d="M145.383 91.9476C145.383 92.7556 146.037 93.4262 146.862 93.4262C147.67 93.4262 148.341 92.7728 148.341 91.9476C148.341 91.1395 147.67 90.469 146.862 90.469C146.037 90.469 145.383 91.1395 145.383 91.9476Z" fill="#2C1E4A"/>
<path d="M145.383 91.9476C145.383 92.7556 146.037 93.4262 146.862 93.4262C147.67 93.4262 148.341 92.7728 148.341 91.9476C148.341 91.1395 147.67 90.469 146.862 90.469C146.037 90.469 145.383 91.1395 145.383 91.9476Z" fill="white"/>
<path d="M145.383 91.9476C145.383 92.7556 146.037 93.4262 146.862 93.4262C147.67 93.4262 148.341 92.7728 148.341 91.9476C148.341 91.1395 147.67 90.469 146.862 90.469C146.037 90.469 145.383 91.1395 145.383 91.9476Z" fill="#E7CD1E"/>
<path d="M127.073 18.551C127.073 19.3418 127.709 19.978 128.5 19.978C129.291 19.978 129.927 19.3418 129.927 18.551C129.927 17.7601 129.291 17.124 128.5 17.124C127.709 17.124 127.073 17.7601 127.073 18.551Z" fill="#2C1E4A"/>
<path d="M127.073 18.551C127.073 19.3418 127.709 19.978 128.5 19.978C129.291 19.978 129.927 19.3418 129.927 18.551C129.927 17.7601 129.291 17.124 128.5 17.124C127.709 17.124 127.073 17.7601 127.073 18.551Z" fill="white"/>
<path d="M127.073 18.551C127.073 19.3418 127.709 19.978 128.5 19.978C129.291 19.978 129.927 19.3418 129.927 18.551C129.927 17.7601 129.291 17.124 128.5 17.124C127.709 17.124 127.073 17.7601 127.073 18.551Z" fill="#E7CD1E"/>
<path d="M125.457 36.8958C125.457 38.5808 126.815 39.9389 128.517 39.9389C130.219 39.9389 131.578 38.5808 131.578 36.8958C131.578 35.2109 130.219 33.8354 128.517 33.8354C126.815 33.8526 125.457 35.2109 125.457 36.8958Z" fill="#2C1E4A"/>
<path d="M125.457 36.8958C125.457 38.5808 126.815 39.9389 128.517 39.9389C130.219 39.9389 131.578 38.5808 131.578 36.8958C131.578 35.2109 130.219 33.8354 128.517 33.8354C126.815 33.8526 125.457 35.2109 125.457 36.8958Z" fill="white"/>
<path d="M125.457 36.8958C125.457 38.5808 126.815 39.9389 128.517 39.9389C130.219 39.9389 131.578 38.5808 131.578 36.8958C131.578 35.2109 130.219 33.8354 128.517 33.8354C126.815 33.8526 125.457 35.2109 125.457 36.8958Z" fill="#E7CD1E"/>
<path d="M124.786 55.2579C124.786 57.3039 126.454 58.9716 128.5 58.9716C130.546 58.9716 132.214 57.3039 132.214 55.2579C132.214 53.212 130.546 51.5442 128.5 51.5442C126.454 51.527 124.786 53.1948 124.786 55.2579Z" fill="#2C1E4A"/>
<path d="M124.786 55.2579C124.786 57.3039 126.454 58.9716 128.5 58.9716C130.546 58.9716 132.214 57.3039 132.214 55.2579C132.214 53.212 130.546 51.5442 128.5 51.5442C126.454 51.527 124.786 53.1948 124.786 55.2579Z" fill="white"/>
<path d="M124.786 55.2579C124.786 57.3039 126.454 58.9716 128.5 58.9716C130.546 58.9716 132.214 57.3039 132.214 55.2579C132.214 53.212 130.546 51.5442 128.5 51.5442C126.454 51.527 124.786 53.1948 124.786 55.2579Z" fill="#E7CD1E"/>
<path d="M125.749 73.6028C125.749 75.1157 126.97 76.3537 128.5 76.3537C130.013 76.3537 131.251 75.1329 131.251 73.6028C131.251 72.0898 130.03 70.8519 128.5 70.8519C126.987 70.8519 125.749 72.0898 125.749 73.6028Z" fill="#2C1E4A"/>
<path d="M125.749 73.6028C125.749 75.1157 126.97 76.3537 128.5 76.3537C130.013 76.3537 131.251 75.1329 131.251 73.6028C131.251 72.0898 130.03 70.8519 128.5 70.8519C126.987 70.8519 125.749 72.0898 125.749 73.6028Z" fill="white"/>
<path d="M125.749 73.6028C125.749 75.1157 126.97 76.3537 128.5 76.3537C130.013 76.3537 131.251 75.1329 131.251 73.6028C131.251 72.0898 130.03 70.8519 128.5 70.8519C126.987 70.8519 125.749 72.0898 125.749 73.6028Z" fill="#E7CD1E"/>
<path d="M127.228 91.9478C127.228 92.6527 127.795 93.2202 128.5 93.2202C129.205 93.2202 129.772 92.6527 129.772 91.9478C129.772 91.2429 129.205 90.6755 128.5 90.6755C127.795 90.6755 127.228 91.2429 127.228 91.9478Z" fill="#2C1E4A"/>
<path d="M127.228 91.9478C127.228 92.6527 127.795 93.2202 128.5 93.2202C129.205 93.2202 129.772 92.6527 129.772 91.9478C129.772 91.2429 129.205 90.6755 128.5 90.6755C127.795 90.6755 127.228 91.2429 127.228 91.9478Z" fill="white"/>
<path d="M127.228 91.9478C127.228 92.6527 127.795 93.2202 128.5 93.2202C129.205 93.2202 129.772 92.6527 129.772 91.9478C129.772 91.2429 129.205 90.6755 128.5 90.6755C127.795 90.6755 127.228 91.2429 127.228 91.9478Z" fill="#E7CD1E"/>
<path d="M108.934 18.5511C108.934 19.2216 109.485 19.7718 110.155 19.7718C110.826 19.7718 111.376 19.2216 111.376 18.5511C111.376 17.8806 110.826 17.3304 110.155 17.3304C109.485 17.3304 108.934 17.8806 108.934 18.5511Z" fill="#2C1E4A"/>
<path d="M108.934 18.5511C108.934 19.2216 109.485 19.7718 110.155 19.7718C110.826 19.7718 111.376 19.2216 111.376 18.5511C111.376 17.8806 110.826 17.3304 110.155 17.3304C109.485 17.3304 108.934 17.8806 108.934 18.5511Z" fill="white"/>
<path d="M108.934 18.5511C108.934 19.2216 109.485 19.7718 110.155 19.7718C110.826 19.7718 111.376 19.2216 111.376 18.5511C111.376 17.8806 110.826 17.3304 110.155 17.3304C109.485 17.3304 108.934 17.8806 108.934 18.5511Z" fill="#E7CD1E"/>
<path d="M107.662 36.896C107.662 38.2714 108.78 39.3889 110.155 39.3889C111.531 39.3889 112.648 38.2714 112.648 36.896C112.648 35.5205 111.531 34.403 110.155 34.403C108.78 34.403 107.662 35.5205 107.662 36.896Z" fill="#2C1E4A"/>
<path d="M107.662 36.896C107.662 38.2714 108.78 39.3889 110.155 39.3889C111.531 39.3889 112.648 38.2714 112.648 36.896C112.648 35.5205 111.531 34.403 110.155 34.403C108.78 34.403 107.662 35.5205 107.662 36.896Z" fill="white"/>
<path d="M107.662 36.896C107.662 38.2714 108.78 39.3889 110.155 39.3889C111.531 39.3889 112.648 38.2714 112.648 36.896C112.648 35.5205 111.531 34.403 110.155 34.403C108.78 34.403 107.662 35.5205 107.662 36.896Z" fill="#E7CD1E"/>
<path d="M107.043 55.258C107.043 56.9772 108.436 58.3699 110.155 58.3699C111.874 58.3699 113.267 56.9772 113.267 55.2579C113.267 53.5387 111.874 52.146 110.155 52.1632C108.436 52.146 107.043 53.5387 107.043 55.258Z" fill="#2C1E4A"/>
<path d="M107.043 55.258C107.043 56.9772 108.436 58.3699 110.155 58.3699C111.874 58.3699 113.267 56.9772 113.267 55.2579C113.267 53.5387 111.874 52.146 110.155 52.1632C108.436 52.146 107.043 53.5387 107.043 55.258Z" fill="white"/>
<path d="M107.043 55.258C107.043 56.9772 108.436 58.3699 110.155 58.3699C111.874 58.3699 113.267 56.9772 113.267 55.2579C113.267 53.5387 111.874 52.146 110.155 52.1632C108.436 52.146 107.043 53.5387 107.043 55.258Z" fill="#E7CD1E"/>
<path d="M107.869 73.6029C107.869 74.8579 108.9 75.8895 110.155 75.8895C111.427 75.8895 112.442 74.8579 112.442 73.6029C112.442 72.3306 111.41 71.3162 110.155 71.3162C108.883 71.3162 107.869 72.3306 107.869 73.6029Z" fill="#2C1E4A"/>
<path d="M107.869 73.6029C107.869 74.8579 108.9 75.8895 110.155 75.8895C111.427 75.8895 112.442 74.8579 112.442 73.6029C112.442 72.3306 111.41 71.3162 110.155 71.3162C108.883 71.3162 107.869 72.3306 107.869 73.6029Z" fill="white"/>
<path d="M107.869 73.6029C107.869 74.8579 108.9 75.8895 110.155 75.8895C111.427 75.8895 112.442 74.8579 112.442 73.6029C112.442 72.3306 111.41 71.3162 110.155 71.3162C108.883 71.3162 107.869 72.3306 107.869 73.6029Z" fill="#E7CD1E"/>
<path d="M109.089 91.9475C109.089 92.5321 109.571 93.0136 110.155 93.0136C110.74 93.0136 111.221 92.5321 111.221 91.9475C111.221 91.363 110.74 90.8816 110.155 90.8816C109.553 90.8816 109.089 91.363 109.089 91.9475Z" fill="#2C1E4A"/>
<path d="M109.089 91.9475C109.089 92.5321 109.571 93.0136 110.155 93.0136C110.74 93.0136 111.221 92.5321 111.221 91.9475C111.221 91.363 110.74 90.8816 110.155 90.8816C109.553 90.8816 109.089 91.363 109.089 91.9475Z" fill="white"/>
<path d="M109.089 91.9475C109.089 92.5321 109.571 93.0136 110.155 93.0136C110.74 93.0136 111.221 92.5321 111.221 91.9475C111.221 91.363 110.74 90.8816 110.155 90.8816C109.553 90.8816 109.089 91.363 109.089 91.9475Z" fill="#E7CD1E"/>
<path d="M110.155 110.499C110.269 110.499 110.361 110.406 110.361 110.292C110.361 110.179 110.269 110.086 110.155 110.086C110.041 110.086 109.949 110.179 109.949 110.292C109.949 110.406 110.041 110.499 110.155 110.499Z" fill="#2C1E4A"/>
<path d="M110.155 110.499C110.269 110.499 110.361 110.406 110.361 110.292C110.361 110.179 110.269 110.086 110.155 110.086C110.041 110.086 109.949 110.179 109.949 110.292C109.949 110.406 110.041 110.499 110.155 110.499Z" fill="white"/>
<path d="M110.155 110.499C110.269 110.499 110.361 110.406 110.361 110.292C110.361 110.179 110.269 110.086 110.155 110.086C110.041 110.086 109.949 110.179 109.949 110.292C109.949 110.406 110.041 110.499 110.155 110.499Z" fill="#E7CD1E"/>
<path d="M91.604 0.206307C91.604 0.326658 91.69 0.412614 91.8103 0.412614C91.9307 0.412614 92.0166 0.326657 92.0166 0.206307C92.0166 0.0859562 91.9307 -1.17786e-07 91.8103 -7.43901e-08C91.69 -3.09941e-08 91.604 0.0859563 91.604 0.206307Z" fill="#2C1E4A"/>
<path d="M91.604 0.206307C91.604 0.326658 91.69 0.412614 91.8103 0.412614C91.9307 0.412614 92.0166 0.326657 92.0166 0.206307C92.0166 0.0859562 91.9307 -1.17786e-07 91.8103 -7.43901e-08C91.69 -3.09941e-08 91.604 0.0859563 91.604 0.206307Z" fill="white"/>
<path d="M91.604 0.206307C91.604 0.326658 91.69 0.412614 91.8103 0.412614C91.9307 0.412614 92.0166 0.326657 92.0166 0.206307C92.0166 0.0859562 91.9307 -1.17786e-07 91.8103 -7.43901e-08C91.69 -3.09941e-08 91.604 0.0859563 91.604 0.206307Z" fill="#E7CD1E"/>
<path d="M90.8302 18.5511C90.8302 19.084 91.2601 19.514 91.7931 19.514C92.3261 19.514 92.7558 19.084 92.7558 18.5511C92.7558 18.0181 92.3261 17.5883 91.7931 17.5883C91.2601 17.5883 90.8302 18.0181 90.8302 18.5511Z" fill="#2C1E4A"/>
<path d="M90.8302 18.5511C90.8302 19.084 91.2601 19.514 91.7931 19.514C92.3261 19.514 92.7558 19.084 92.7558 18.5511C92.7558 18.0181 92.3261 17.5883 91.7931 17.5883C91.2601 17.5883 90.8302 18.0181 90.8302 18.5511Z" fill="white"/>
<path d="M90.8302 18.5511C90.8302 19.084 91.2601 19.514 91.7931 19.514C92.3261 19.514 92.7558 19.084 92.7558 18.5511C92.7558 18.0181 92.3261 17.5883 91.7931 17.5883C91.2601 17.5883 90.8302 18.0181 90.8302 18.5511Z" fill="#E7CD1E"/>
<path d="M89.816 36.8959C89.816 37.9963 90.7101 38.8731 91.7932 38.8731C92.8936 38.8731 93.7702 37.9791 93.7874 36.8959C93.7874 35.7956 92.8936 34.9187 91.7932 34.9187C90.7101 34.9187 89.816 35.8128 89.816 36.8959Z" fill="#2C1E4A"/>
<path d="M89.816 36.8959C89.816 37.9963 90.7101 38.8731 91.7932 38.8731C92.8936 38.8731 93.7702 37.9791 93.7874 36.8959C93.7874 35.7956 92.8936 34.9187 91.7932 34.9187C90.7101 34.9187 89.816 35.8128 89.816 36.8959Z" fill="white"/>
<path d="M89.816 36.8959C89.816 37.9963 90.7101 38.8731 91.7932 38.8731C92.8936 38.8731 93.7702 37.9791 93.7874 36.8959C93.7874 35.7956 92.8936 34.9187 91.7932 34.9187C90.7101 34.9187 89.816 35.8128 89.816 36.8959Z" fill="#E7CD1E"/>
<path d="M89.3173 55.2579C89.3173 56.6333 90.435 57.7509 91.8104 57.7509C93.1859 57.7509 94.3033 56.6333 94.3033 55.2579C94.3033 53.8825 93.1859 52.7649 91.8104 52.7649C90.4178 52.7649 89.3173 53.8653 89.3173 55.2579Z" fill="#2C1E4A"/>
<path d="M89.3173 55.2579C89.3173 56.6333 90.435 57.7509 91.8104 57.7509C93.1859 57.7509 94.3033 56.6333 94.3033 55.2579C94.3033 53.8825 93.1859 52.7649 91.8104 52.7649C90.4178 52.7649 89.3173 53.8653 89.3173 55.2579Z" fill="white"/>
<path d="M89.3173 55.2579C89.3173 56.6333 90.435 57.7509 91.8104 57.7509C93.1859 57.7509 94.3033 56.6333 94.3033 55.2579C94.3033 53.8825 93.1859 52.7649 91.8104 52.7649C90.4178 52.7649 89.3173 53.8653 89.3173 55.2579Z" fill="#E7CD1E"/>
<path d="M90.0222 73.603C90.0222 74.583 90.8132 75.3739 91.7932 75.3739C92.7732 75.3739 93.5811 74.5829 93.5811 73.5858C93.5811 72.6058 92.7904 71.8149 91.7932 71.8149C90.8132 71.8149 90.0222 72.623 90.0222 73.603Z" fill="#2C1E4A"/>
<path d="M90.0222 73.603C90.0222 74.583 90.8132 75.3739 91.7932 75.3739C92.7732 75.3739 93.5811 74.5829 93.5811 73.5858C93.5811 72.6058 92.7904 71.8149 91.7932 71.8149C90.8132 71.8149 90.0222 72.623 90.0222 73.603Z" fill="white"/>
<path d="M90.0222 73.603C90.0222 74.583 90.8132 75.3739 91.7932 75.3739C92.7732 75.3739 93.5811 74.5829 93.5811 73.5858C93.5811 72.6058 92.7904 71.8149 91.7932 71.8149C90.8132 71.8149 90.0222 72.623 90.0222 73.603Z" fill="#E7CD1E"/>
<path d="M90.9335 91.9479C90.9335 92.4293 91.3289 92.8076 91.7931 92.8076C92.2745 92.8076 92.6528 92.4121 92.6528 91.9479C92.6528 91.4665 92.2573 91.0883 91.7931 91.0883C91.3289 91.0883 90.9335 91.4665 90.9335 91.9479Z" fill="#2C1E4A"/>
<path d="M90.9335 91.9479C90.9335 92.4293 91.3289 92.8076 91.7931 92.8076C92.2745 92.8076 92.6528 92.4121 92.6528 91.9479C92.6528 91.4665 92.2573 91.0883 91.7931 91.0883C91.3289 91.0883 90.9335 91.4665 90.9335 91.9479Z" fill="white"/>
<path d="M90.9335 91.9479C90.9335 92.4293 91.3289 92.8076 91.7931 92.8076C92.2745 92.8076 92.6528 92.4121 92.6528 91.9479C92.6528 91.4665 92.2573 91.0883 91.7931 91.0883C91.3289 91.0883 90.9335 91.4665 90.9335 91.9479Z" fill="#E7CD1E"/>
<path d="M91.6554 110.293C91.6554 110.379 91.7243 110.447 91.8103 110.447C91.8963 110.447 91.965 110.379 91.965 110.293C91.965 110.207 91.8963 110.138 91.8103 110.138C91.7071 110.155 91.6382 110.224 91.6554 110.293Z" fill="#2C1E4A"/>
<path d="M91.6554 110.293C91.6554 110.379 91.7243 110.447 91.8103 110.447C91.8963 110.447 91.965 110.379 91.965 110.293C91.965 110.207 91.8963 110.138 91.8103 110.138C91.7071 110.155 91.6382 110.224 91.6554 110.293Z" fill="white"/>
<path d="M91.6554 110.293C91.6554 110.379 91.7243 110.447 91.8103 110.447C91.8963 110.447 91.965 110.379 91.965 110.293C91.965 110.207 91.8963 110.138 91.8103 110.138C91.7071 110.155 91.6382 110.224 91.6554 110.293Z" fill="#E7CD1E"/>
<path d="M73.2935 0.206313C73.2935 0.292278 73.3622 0.361096 73.4482 0.361096C73.5342 0.361096 73.6029 0.292278 73.6029 0.206313C73.6029 0.120349 73.5342 0.0516357 73.4482 0.0516357C73.3622 0.0516357 73.2935 0.120349 73.2935 0.206313Z" fill="#2C1E4A"/>
<path d="M73.2935 0.206313C73.2935 0.292278 73.3622 0.361096 73.4482 0.361096C73.5342 0.361096 73.6029 0.292278 73.6029 0.206313C73.6029 0.120349 73.5342 0.0516357 73.4482 0.0516357C73.3622 0.0516357 73.2935 0.120349 73.2935 0.206313Z" fill="white"/>
<path d="M73.2935 0.206313C73.2935 0.292278 73.3622 0.361096 73.4482 0.361096C73.5342 0.361096 73.6029 0.292278 73.6029 0.206313C73.6029 0.120349 73.5342 0.0516357 73.4482 0.0516357C73.3622 0.0516357 73.2935 0.120349 73.2935 0.206313Z" fill="#E7CD1E"/>
<path d="M72.7433 18.5512C72.7433 18.9466 73.07 19.2734 73.4654 19.2734C73.8609 19.2734 74.1704 18.9466 74.1876 18.5512C74.1876 18.1557 73.8609 17.8463 73.4654 17.8291C73.0528 17.8463 72.7433 18.1557 72.7433 18.5512Z" fill="#2C1E4A"/>
<path d="M72.7433 18.5512C72.7433 18.9466 73.07 19.2734 73.4654 19.2734C73.8609 19.2734 74.1704 18.9466 74.1876 18.5512C74.1876 18.1557 73.8609 17.8463 73.4654 17.8291C73.0528 17.8463 72.7433 18.1557 72.7433 18.5512Z" fill="white"/>
<path d="M72.7433 18.5512C72.7433 18.9466 73.07 19.2734 73.4654 19.2734C73.8609 19.2734 74.1704 18.9466 74.1876 18.5512C74.1876 18.1557 73.8609 17.8463 73.4654 17.8291C73.0528 17.8463 72.7433 18.1557 72.7433 18.5512Z" fill="#E7CD1E"/>
<path d="M71.9697 36.896C71.9697 37.7041 72.623 38.3746 73.4482 38.3746C74.2563 38.3746 74.9268 37.7041 74.9268 36.896C74.9268 36.088 74.2563 35.4175 73.4482 35.4175C72.6402 35.4347 71.9697 36.088 71.9697 36.896Z" fill="#2C1E4A"/>
<path d="M71.9697 36.896C71.9697 37.7041 72.623 38.3746 73.4482 38.3746C74.2563 38.3746 74.9268 37.7041 74.9268 36.896C74.9268 36.088 74.2563 35.4175 73.4482 35.4175C72.6402 35.4347 71.9697 36.088 71.9697 36.896Z" fill="white"/>
<path d="M71.9697 36.896C71.9697 37.7041 72.623 38.3746 73.4482 38.3746C74.2563 38.3746 74.9268 37.7041 74.9268 36.896C74.9268 36.088 74.2563 35.4175 73.4482 35.4175C72.6402 35.4347 71.9697 36.088 71.9697 36.896Z" fill="#E7CD1E"/>
<path d="M71.5742 55.2581C71.5742 56.2897 72.4167 57.1493 73.4654 57.1493C74.497 57.1493 75.3394 56.3069 75.3566 55.2581C75.3566 54.2265 74.5142 53.384 73.4654 53.3668C72.4167 53.3668 71.5742 54.2093 71.5742 55.2581Z" fill="#2C1E4A"/>
<path d="M71.5742 55.2581C71.5742 56.2897 72.4167 57.1493 73.4654 57.1493C74.497 57.1493 75.3394 56.3069 75.3566 55.2581C75.3566 54.2265 74.5142 53.384 73.4654 53.3668C72.4167 53.3668 71.5742 54.2093 71.5742 55.2581Z" fill="white"/>
<path d="M71.5742 55.2581C71.5742 56.2897 72.4167 57.1493 73.4654 57.1493C74.497 57.1493 75.3394 56.3069 75.3566 55.2581C75.3566 54.2265 74.5142 53.384 73.4654 53.3668C72.4167 53.3668 71.5742 54.2093 71.5742 55.2581Z" fill="#E7CD1E"/>
<path d="M72.1244 73.6031C72.1244 74.3252 72.709 74.927 73.4482 74.927C74.1704 74.927 74.7721 74.3252 74.7721 73.6031C74.7721 72.8638 74.1704 72.2792 73.4482 72.2792C72.7261 72.2792 72.1244 72.8638 72.1244 73.6031Z" fill="#2C1E4A"/>
<path d="M72.1244 73.6031C72.1244 74.3252 72.709 74.927 73.4482 74.927C74.1704 74.927 74.7721 74.3252 74.7721 73.6031C74.7721 72.8638 74.1704 72.2792 73.4482 72.2792C72.7261 72.2792 72.1244 72.8638 72.1244 73.6031Z" fill="white"/>
<path d="M72.1244 73.6031C72.1244 74.3252 72.709 74.927 73.4482 74.927C74.1704 74.927 74.7721 74.3252 74.7721 73.6031C74.7721 72.8638 74.1704 72.2792 73.4482 72.2792C72.7261 72.2792 72.1244 72.8638 72.1244 73.6031Z" fill="#E7CD1E"/>
<path d="M72.7949 91.9477C72.7949 92.3087 73.0872 92.6182 73.4655 92.601C73.8265 92.601 74.1188 92.3087 74.1188 91.9477C74.1188 91.5866 73.8265 91.2944 73.4655 91.2772C73.0872 91.2944 72.7949 91.5866 72.7949 91.9477Z" fill="#2C1E4A"/>
<path d="M72.7949 91.9477C72.7949 92.3087 73.0872 92.6182 73.4655 92.601C73.8265 92.601 74.1188 92.3087 74.1188 91.9477C74.1188 91.5866 73.8265 91.2944 73.4655 91.2772C73.0872 91.2944 72.7949 91.5866 72.7949 91.9477Z" fill="white"/>
<path d="M72.7949 91.9477C72.7949 92.3087 73.0872 92.6182 73.4655 92.601C73.8265 92.601 74.1188 92.3087 74.1188 91.9477C74.1188 91.5866 73.8265 91.2944 73.4655 91.2772C73.0872 91.2944 72.7949 91.5866 72.7949 91.9477Z" fill="#E7CD1E"/>
<path d="M73.2936 110.293C73.2936 110.379 73.3623 110.447 73.4483 110.447C73.5342 110.447 73.6029 110.379 73.6029 110.293C73.6029 110.207 73.5342 110.138 73.4483 110.138C73.3623 110.155 73.2936 110.224 73.2936 110.293Z" fill="#2C1E4A"/>
<path d="M73.2936 110.293C73.2936 110.379 73.3623 110.447 73.4483 110.447C73.5342 110.447 73.6029 110.379 73.6029 110.293C73.6029 110.207 73.5342 110.138 73.4483 110.138C73.3623 110.155 73.2936 110.224 73.2936 110.293Z" fill="white"/>
<path d="M73.2936 110.293C73.2936 110.379 73.3623 110.447 73.4483 110.447C73.5342 110.447 73.6029 110.379 73.6029 110.293C73.6029 110.207 73.5342 110.138 73.4483 110.138C73.3623 110.155 73.2936 110.224 73.2936 110.293Z" fill="#E7CD1E"/>
<path d="M55.0003 0.206631C55.0003 0.258374 55.0519 0.310113 55.1037 0.310113C55.1554 0.310113 55.2072 0.258374 55.2072 0.206631C55.2072 0.154888 55.1554 0.103149 55.1037 0.103149C55.0519 0.103149 55.0003 0.137641 55.0003 0.206631Z" fill="#2C1E4A"/>
<path d="M55.0003 0.206631C55.0003 0.258374 55.0519 0.310113 55.1037 0.310113C55.1554 0.310113 55.2072 0.258374 55.2072 0.206631C55.2072 0.154888 55.1554 0.103149 55.1037 0.103149C55.0519 0.103149 55.0003 0.137641 55.0003 0.206631Z" fill="white"/>
<path d="M55.0003 0.206631C55.0003 0.258374 55.0519 0.310113 55.1037 0.310113C55.1554 0.310113 55.2072 0.258374 55.2072 0.206631C55.2072 0.154888 55.1554 0.103149 55.1037 0.103149C55.0519 0.103149 55.0003 0.137641 55.0003 0.206631Z" fill="#E7CD1E"/>
<path d="M54.5876 18.551C54.5876 18.8261 54.8112 19.0669 55.0863 19.0669C55.3614 19.0669 55.6019 18.8433 55.6019 18.551C55.6019 18.2588 55.3786 18.0525 55.0863 18.0525C54.794 18.0525 54.5876 18.276 54.5876 18.551Z" fill="#2C1E4A"/>
<path d="M54.5876 18.551C54.5876 18.8261 54.8112 19.0669 55.0863 19.0669C55.3614 19.0669 55.6019 18.8433 55.6019 18.551C55.6019 18.2588 55.3786 18.0525 55.0863 18.0525C54.794 18.0525 54.5876 18.276 54.5876 18.551Z" fill="white"/>
<path d="M54.5876 18.551C54.5876 18.8261 54.8112 19.0669 55.0863 19.0669C55.3614 19.0669 55.6019 18.8433 55.6019 18.551C55.6019 18.2588 55.3786 18.0525 55.0863 18.0525C54.794 18.0525 54.5876 18.276 54.5876 18.551Z" fill="#E7CD1E"/>
<path d="M54.0374 36.8959C54.0374 37.4805 54.5188 37.9619 55.1033 37.9619C55.6879 37.9619 56.1695 37.4805 56.1695 36.8959C56.1695 36.3113 55.6879 35.83 55.1033 35.83C54.5016 35.83 54.0374 36.3114 54.0374 36.8959Z" fill="#2C1E4A"/>
<path d="M54.0374 36.8959C54.0374 37.4805 54.5188 37.9619 55.1033 37.9619C55.6879 37.9619 56.1695 37.4805 56.1695 36.8959C56.1695 36.3113 55.6879 35.83 55.1033 35.83C54.5016 35.83 54.0374 36.3114 54.0374 36.8959Z" fill="white"/>
<path d="M54.0374 36.8959C54.0374 37.4805 54.5188 37.9619 55.1033 37.9619C55.6879 37.9619 56.1695 37.4805 56.1695 36.8959C56.1695 36.3113 55.6879 35.83 55.1033 35.83C54.5016 35.83 54.0374 36.3114 54.0374 36.8959Z" fill="#E7CD1E"/>
<path d="M53.7796 55.258C53.7796 55.9973 54.3812 56.5819 55.1033 56.5819C55.8426 56.5819 56.4272 55.9973 56.4272 55.258C56.4272 54.5359 55.8426 53.9341 55.1033 53.9341C54.364 53.9341 53.7796 54.5187 53.7796 55.258Z" fill="#2C1E4A"/>
<path d="M53.7796 55.258C53.7796 55.9973 54.3812 56.5819 55.1033 56.5819C55.8426 56.5819 56.4272 55.9973 56.4272 55.258C56.4272 54.5359 55.8426 53.9341 55.1033 53.9341C54.364 53.9341 53.7796 54.5187 53.7796 55.258Z" fill="white"/>
<path d="M53.7796 55.258C53.7796 55.9973 54.3812 56.5819 55.1033 56.5819C55.8426 56.5819 56.4272 55.9973 56.4272 55.258C56.4272 54.5359 55.8426 53.9341 55.1033 53.9341C54.364 53.9341 53.7796 54.5187 53.7796 55.258Z" fill="#E7CD1E"/>
<path d="M54.1406 73.6028C54.1406 74.1358 54.5703 74.5656 55.1033 74.5656C55.6363 74.5656 56.0662 74.1358 56.0662 73.6028C56.0662 73.0698 55.6363 72.64 55.1033 72.64C54.5703 72.64 54.1406 73.0698 54.1406 73.6028Z" fill="#2C1E4A"/>
<path d="M54.1406 73.6028C54.1406 74.1358 54.5703 74.5656 55.1033 74.5656C55.6363 74.5656 56.0662 74.1358 56.0662 73.6028C56.0662 73.0698 55.6363 72.64 55.1033 72.64C54.5703 72.64 54.1406 73.0698 54.1406 73.6028Z" fill="white"/>
<path d="M54.1406 73.6028C54.1406 74.1358 54.5703 74.5656 55.1033 74.5656C55.6363 74.5656 56.0662 74.1358 56.0662 73.6028C56.0662 73.0698 55.6363 72.64 55.1033 72.64C54.5703 72.64 54.1406 73.0698 54.1406 73.6028Z" fill="#E7CD1E"/>
<path d="M54.6393 91.9477C54.6393 92.2056 54.8454 92.4119 55.1033 92.4119C55.3612 92.4119 55.5675 92.2056 55.5675 91.9477C55.5675 91.6898 55.3612 91.4835 55.1033 91.4835C54.8454 91.4835 54.6393 91.6898 54.6393 91.9477Z" fill="#2C1E4A"/>
<path d="M54.6393 91.9477C54.6393 92.2056 54.8454 92.4119 55.1033 92.4119C55.3612 92.4119 55.5675 92.2056 55.5675 91.9477C55.5675 91.6898 55.3612 91.4835 55.1033 91.4835C54.8454 91.4835 54.6393 91.6898 54.6393 91.9477Z" fill="white"/>
<path d="M54.6393 91.9477C54.6393 92.2056 54.8454 92.4119 55.1033 92.4119C55.3612 92.4119 55.5675 92.2056 55.5675 91.9477C55.5675 91.6898 55.3612 91.4835 55.1033 91.4835C54.8454 91.4835 54.6393 91.6898 54.6393 91.9477Z" fill="#E7CD1E"/>
<path d="M55.0004 110.31C55.0004 110.362 55.052 110.414 55.1037 110.414C55.1555 110.414 55.2073 110.362 55.2073 110.31C55.2073 110.258 55.1555 110.207 55.1037 110.207C55.052 110.207 55.0004 110.241 55.0004 110.31Z" fill="#2C1E4A"/>
<path d="M55.0004 110.31C55.0004 110.362 55.052 110.414 55.1037 110.414C55.1555 110.414 55.2073 110.362 55.2073 110.31C55.2073 110.258 55.1555 110.207 55.1037 110.207C55.052 110.207 55.0004 110.241 55.0004 110.31Z" fill="white"/>
<path d="M55.0004 110.31C55.0004 110.362 55.052 110.414 55.1037 110.414C55.1555 110.414 55.2073 110.362 55.2073 110.31C55.2073 110.258 55.1555 110.207 55.1037 110.207C55.052 110.207 55.0004 110.241 55.0004 110.31Z" fill="#E7CD1E"/>
<path d="M36.707 0.206309C36.707 0.240695 36.7242 0.257939 36.7586 0.257939C36.7758 0.257939 36.8101 0.240695 36.8101 0.206309C36.8101 0.171923 36.793 0.154785 36.7586 0.154785C36.7242 0.154785 36.707 0.171924 36.707 0.206309Z" fill="#2C1E4A"/>
<path d="M36.707 0.206309C36.707 0.240695 36.7242 0.257939 36.7586 0.257939C36.7758 0.257939 36.8101 0.240695 36.8101 0.206309C36.8101 0.171923 36.793 0.154785 36.7586 0.154785C36.7242 0.154785 36.707 0.171924 36.707 0.206309Z" fill="white"/>
<path d="M36.707 0.206309C36.707 0.240695 36.7242 0.257939 36.7586 0.257939C36.7758 0.257939 36.8101 0.240695 36.8101 0.206309C36.8101 0.171923 36.793 0.154785 36.7586 0.154785C36.7242 0.154785 36.707 0.171924 36.707 0.206309Z" fill="#E7CD1E"/>
<path d="M36.3974 18.5512C36.3974 18.7575 36.5522 18.9123 36.7585 18.9123C36.9476 18.9123 37.1195 18.7575 37.1195 18.5512C37.1195 18.3449 36.9648 18.1902 36.7585 18.1902C36.5522 18.1902 36.3974 18.3449 36.3974 18.5512Z" fill="#2C1E4A"/>
<path d="M36.3974 18.5512C36.3974 18.7575 36.5522 18.9123 36.7585 18.9123C36.9476 18.9123 37.1195 18.7575 37.1195 18.5512C37.1195 18.3449 36.9648 18.1902 36.7585 18.1902C36.5522 18.1902 36.3974 18.3449 36.3974 18.5512Z" fill="white"/>
<path d="M36.3974 18.5512C36.3974 18.7575 36.5522 18.9123 36.7585 18.9123C36.9476 18.9123 37.1195 18.7575 37.1195 18.5512C37.1195 18.3449 36.9648 18.1902 36.7585 18.1902C36.5522 18.1902 36.3974 18.3449 36.3974 18.5512Z" fill="#E7CD1E"/>
<path d="M36.0881 36.8959C36.0881 37.2569 36.3804 37.5492 36.7414 37.5492C37.1025 37.5492 37.412 37.2569 37.412 36.8959C37.412 36.5348 37.1197 36.2425 36.7414 36.2253C36.3804 36.2425 36.0881 36.5348 36.0881 36.8959Z" fill="#2C1E4A"/>
<path d="M36.0881 36.8959C36.0881 37.2569 36.3804 37.5492 36.7414 37.5492C37.1025 37.5492 37.412 37.2569 37.412 36.8959C37.412 36.5348 37.1197 36.2425 36.7414 36.2253C36.3804 36.2425 36.0881 36.5348 36.0881 36.8959Z" fill="white"/>
<path d="M36.0881 36.8959C36.0881 37.2569 36.3804 37.5492 36.7414 37.5492C37.1025 37.5492 37.412 37.2569 37.412 36.8959C37.412 36.5348 37.1197 36.2425 36.7414 36.2253C36.3804 36.2425 36.0881 36.5348 36.0881 36.8959Z" fill="#E7CD1E"/>
<path d="M35.9332 55.2581C35.9332 55.7051 36.2943 56.0661 36.7414 56.0661C37.1884 56.0661 37.5494 55.7051 37.5494 55.2581C37.5494 54.811 37.1884 54.4499 36.7414 54.4499C36.2943 54.4327 35.9332 54.7938 35.9332 55.2581Z" fill="#2C1E4A"/>
<path d="M35.9332 55.2581C35.9332 55.7051 36.2943 56.0661 36.7414 56.0661C37.1884 56.0661 37.5494 55.7051 37.5494 55.2581C37.5494 54.811 37.1884 54.4499 36.7414 54.4499C36.2943 54.4327 35.9332 54.7938 35.9332 55.2581Z" fill="white"/>
<path d="M35.9332 55.2581C35.9332 55.7051 36.2943 56.0661 36.7414 56.0661C37.1884 56.0661 37.5494 55.7051 37.5494 55.2581C37.5494 54.811 37.1884 54.4499 36.7414 54.4499C36.2943 54.4327 35.9332 54.7938 35.9332 55.2581Z" fill="#E7CD1E"/>
<path d="M36.7586 74.222C37.1004 74.222 37.3775 73.9449 37.3775 73.6031C37.3775 73.2612 37.1004 72.9841 36.7586 72.9841C36.4168 72.9841 36.1396 73.2612 36.1396 73.6031C36.1396 73.9449 36.4168 74.222 36.7586 74.222Z" fill="#2C1E4A"/>
<path d="M36.7586 74.222C37.1004 74.222 37.3775 73.9449 37.3775 73.6031C37.3775 73.2612 37.1004 72.9841 36.7586 72.9841C36.4168 72.9841 36.1396 73.2612 36.1396 73.6031C36.1396 73.9449 36.4168 74.222 36.7586 74.222Z" fill="white"/>
<path d="M36.7586 74.222C37.1004 74.222 37.3775 73.9449 37.3775 73.6031C37.3775 73.2612 37.1004 72.9841 36.7586 72.9841C36.4168 72.9841 36.1396 73.2612 36.1396 73.6031C36.1396 73.9449 36.4168 74.222 36.7586 74.222Z" fill="#E7CD1E"/>
<path d="M36.4491 91.9476C36.4491 92.1196 36.5866 92.2572 36.7586 92.2572C36.9305 92.2572 37.068 92.1196 37.068 91.9476C37.068 91.7757 36.9305 91.6382 36.7586 91.6382C36.5866 91.6382 36.4491 91.7757 36.4491 91.9476Z" fill="#2C1E4A"/>
<path d="M36.4491 91.9476C36.4491 92.1196 36.5866 92.2572 36.7586 92.2572C36.9305 92.2572 37.068 92.1196 37.068 91.9476C37.068 91.7757 36.9305 91.6382 36.7586 91.6382C36.5866 91.6382 36.4491 91.7757 36.4491 91.9476Z" fill="white"/>
<path d="M36.4491 91.9476C36.4491 92.1196 36.5866 92.2572 36.7586 92.2572C36.9305 92.2572 37.068 92.1196 37.068 91.9476C37.068 91.7757 36.9305 91.6382 36.7586 91.6382C36.5866 91.6382 36.4491 91.7757 36.4491 91.9476Z" fill="#E7CD1E"/>
<path d="M36.707 110.293C36.707 110.327 36.7243 110.344 36.7587 110.344C36.793 110.344 36.8102 110.327 36.8102 110.293C36.8102 110.258 36.793 110.241 36.7587 110.241C36.7243 110.258 36.707 110.275 36.707 110.293Z" fill="#2C1E4A"/>
<path d="M36.707 110.293C36.707 110.327 36.7243 110.344 36.7587 110.344C36.793 110.344 36.8102 110.327 36.8102 110.293C36.8102 110.258 36.793 110.241 36.7587 110.241C36.7243 110.258 36.707 110.275 36.707 110.293Z" fill="white"/>
<path d="M36.707 110.293C36.707 110.327 36.7243 110.344 36.7587 110.344C36.793 110.344 36.8102 110.327 36.8102 110.293C36.8102 110.258 36.793 110.241 36.7587 110.241C36.7243 110.258 36.707 110.275 36.707 110.293Z" fill="#E7CD1E"/>
<path d="M18.3449 0.206309C18.3449 0.240695 18.3621 0.257939 18.3965 0.257939C18.4137 0.257939 18.448 0.240695 18.448 0.206309C18.448 0.171923 18.4309 0.154785 18.3965 0.154785C18.3621 0.154785 18.3449 0.171924 18.3449 0.206309Z" fill="#2C1E4A"/>
<path d="M18.3449 0.206309C18.3449 0.240695 18.3621 0.257939 18.3965 0.257939C18.4137 0.257939 18.448 0.240695 18.448 0.206309C18.448 0.171923 18.4309 0.154785 18.3965 0.154785C18.3621 0.154785 18.3449 0.171924 18.3449 0.206309Z" fill="white"/>
<path d="M18.3449 0.206309C18.3449 0.240695 18.3621 0.257939 18.3965 0.257939C18.4137 0.257939 18.448 0.240695 18.448 0.206309C18.448 0.171923 18.4309 0.154785 18.3965 0.154785C18.3621 0.154785 18.3449 0.171924 18.3449 0.206309Z" fill="#E7CD1E"/>
<path d="M18.3965 18.7574C18.5105 18.7574 18.6028 18.665 18.6028 18.551C18.6028 18.4371 18.5105 18.3447 18.3965 18.3447C18.2826 18.3447 18.1901 18.4371 18.1901 18.551C18.1901 18.665 18.2826 18.7574 18.3965 18.7574Z" fill="#2C1E4A"/>
<path d="M18.3965 18.7574C18.5105 18.7574 18.6028 18.665 18.6028 18.551C18.6028 18.4371 18.5105 18.3447 18.3965 18.3447C18.2826 18.3447 18.1901 18.4371 18.1901 18.551C18.1901 18.665 18.2826 18.7574 18.3965 18.7574Z" fill="white"/>
<path d="M18.3965 18.7574C18.5105 18.7574 18.6028 18.665 18.6028 18.551C18.6028 18.4371 18.5105 18.3447 18.3965 18.3447C18.2826 18.3447 18.1901 18.4371 18.1901 18.551C18.1901 18.665 18.2826 18.7574 18.3965 18.7574Z" fill="#E7CD1E"/>
<path d="M18.0354 36.8961C18.0354 37.0852 18.1902 37.2571 18.3965 37.2571C18.5856 37.2571 18.7575 37.1024 18.7575 36.8961C18.7575 36.6898 18.6028 36.535 18.3965 36.535C18.2074 36.535 18.0354 36.707 18.0354 36.8961Z" fill="#2C1E4A"/>
<path d="M18.0354 36.8961C18.0354 37.0852 18.1902 37.2571 18.3965 37.2571C18.5856 37.2571 18.7575 37.1024 18.7575 36.8961C18.7575 36.6898 18.6028 36.535 18.3965 36.535C18.2074 36.535 18.0354 36.707 18.0354 36.8961Z" fill="white"/>
<path d="M18.0354 36.8961C18.0354 37.0852 18.1902 37.2571 18.3965 37.2571C18.5856 37.2571 18.7575 37.1024 18.7575 36.8961C18.7575 36.6898 18.6028 36.535 18.3965 36.535C18.2074 36.535 18.0354 36.707 18.0354 36.8961Z" fill="#E7CD1E"/>
<path d="M18.001 55.258C18.001 55.4815 18.1901 55.6706 18.4136 55.6706C18.6371 55.6706 18.8263 55.4815 18.8263 55.258C18.8263 55.0344 18.6371 54.8453 18.4136 54.8453C18.1729 54.8453 18.001 55.0172 18.001 55.258Z" fill="#2C1E4A"/>
<path d="M18.001 55.258C18.001 55.4815 18.1901 55.6706 18.4136 55.6706C18.6371 55.6706 18.8263 55.4815 18.8263 55.258C18.8263 55.0344 18.6371 54.8453 18.4136 54.8453C18.1729 54.8453 18.001 55.0172 18.001 55.258Z" fill="white"/>
<path d="M18.001 55.258C18.001 55.4815 18.1901 55.6706 18.4136 55.6706C18.6371 55.6706 18.8263 55.4815 18.8263 55.258C18.8263 55.0344 18.6371 54.8453 18.4136 54.8453C18.1729 54.8453 18.001 55.0172 18.001 55.258Z" fill="#E7CD1E"/>
<path d="M18.0869 73.6028C18.0869 73.7747 18.2246 73.9123 18.3965 73.9123C18.5684 73.9123 18.706 73.7747 18.706 73.6028C18.706 73.4309 18.5684 73.2933 18.3965 73.2933C18.2246 73.2933 18.0869 73.4309 18.0869 73.6028Z" fill="#2C1E4A"/>
<path d="M18.0869 73.6028C18.0869 73.7747 18.2246 73.9123 18.3965 73.9123C18.5684 73.9123 18.706 73.7747 18.706 73.6028C18.706 73.4309 18.5684 73.2933 18.3965 73.2933C18.2246 73.2933 18.0869 73.4309 18.0869 73.6028Z" fill="white"/>
<path d="M18.0869 73.6028C18.0869 73.7747 18.2246 73.9123 18.3965 73.9123C18.5684 73.9123 18.706 73.7747 18.706 73.6028C18.706 73.4309 18.5684 73.2933 18.3965 73.2933C18.2246 73.2933 18.0869 73.4309 18.0869 73.6028Z" fill="#E7CD1E"/>
<path d="M18.2417 91.9476C18.2417 92.0336 18.3105 92.1024 18.3965 92.1024C18.4825 92.1024 18.5512 92.0336 18.5512 91.9476C18.5512 91.8617 18.4825 91.793 18.3965 91.793C18.3105 91.793 18.2417 91.8617 18.2417 91.9476Z" fill="#2C1E4A"/>
<path d="M18.2417 91.9476C18.2417 92.0336 18.3105 92.1024 18.3965 92.1024C18.4825 92.1024 18.5512 92.0336 18.5512 91.9476C18.5512 91.8617 18.4825 91.793 18.3965 91.793C18.3105 91.793 18.2417 91.8617 18.2417 91.9476Z" fill="white"/>
<path d="M18.2417 91.9476C18.2417 92.0336 18.3105 92.1024 18.3965 92.1024C18.4825 92.1024 18.5512 92.0336 18.5512 91.9476C18.5512 91.8617 18.4825 91.793 18.3965 91.793C18.3105 91.793 18.2417 91.8617 18.2417 91.9476Z" fill="#E7CD1E"/>
<path d="M18.345 110.292C18.345 110.327 18.3622 110.344 18.3966 110.344C18.4138 110.344 18.4481 110.327 18.4481 110.292C18.4481 110.258 18.431 110.241 18.3966 110.241C18.3794 110.258 18.345 110.275 18.345 110.292Z" fill="#2C1E4A"/>
<path d="M18.345 110.292C18.345 110.327 18.3622 110.344 18.3966 110.344C18.4138 110.344 18.4481 110.327 18.4481 110.292C18.4481 110.258 18.431 110.241 18.3966 110.241C18.3794 110.258 18.345 110.275 18.345 110.292Z" fill="white"/>
<path d="M18.345 110.292C18.345 110.327 18.3622 110.344 18.3966 110.344C18.4138 110.344 18.4481 110.327 18.4481 110.292C18.4481 110.258 18.431 110.241 18.3966 110.241C18.3794 110.258 18.345 110.275 18.345 110.292Z" fill="#E7CD1E"/>
<path d="M3.05262e-05 18.551C3.05319e-05 18.5854 0.0171689 18.6027 0.0515548 18.6027C0.0859407 18.6027 0.103184 18.5854 0.103184 18.551C0.103184 18.5167 0.0859407 18.4995 0.0515548 18.4995C0.0171689 18.4995 3.05204e-05 18.5167 3.05262e-05 18.551Z" fill="#2C1E4A"/>
<path d="M3.05262e-05 18.551C3.05319e-05 18.5854 0.0171689 18.6027 0.0515548 18.6027C0.0859407 18.6027 0.103184 18.5854 0.103184 18.551C0.103184 18.5167 0.0859407 18.4995 0.0515548 18.4995C0.0171689 18.4995 3.05204e-05 18.5167 3.05262e-05 18.551Z" fill="white"/>
<path d="M3.05262e-05 18.551C3.05319e-05 18.5854 0.0171689 18.6027 0.0515548 18.6027C0.0859407 18.6027 0.103184 18.5854 0.103184 18.551C0.103184 18.5167 0.0859407 18.4995 0.0515548 18.4995C0.0171689 18.4995 3.05204e-05 18.5167 3.05262e-05 18.551Z" fill="#E7CD1E"/>
<path d="M3.05262e-05 36.896C3.05319e-05 36.9304 0.0171689 36.9475 0.0515548 36.9475C0.0859407 36.9475 0.103184 36.9304 0.103184 36.896L0.0515548 36.8444C0.0171689 36.8444 3.05233e-05 36.8788 3.05262e-05 36.896Z" fill="#2C1E4A"/>
<path d="M3.05262e-05 36.896C3.05319e-05 36.9304 0.0171689 36.9475 0.0515548 36.9475C0.0859407 36.9475 0.103184 36.9304 0.103184 36.896L0.0515548 36.8444C0.0171689 36.8444 3.05233e-05 36.8788 3.05262e-05 36.896Z" fill="white"/>
<path d="M3.05262e-05 36.896C3.05319e-05 36.9304 0.0171689 36.9475 0.0515548 36.9475C0.0859407 36.9475 0.103184 36.9304 0.103184 36.896L0.0515548 36.8444C0.0171689 36.8444 3.05233e-05 36.8788 3.05262e-05 36.896Z" fill="#E7CD1E"/>
<path d="M3.05262e-05 55.2579C3.05319e-05 55.2923 0.0171689 55.3095 0.0515548 55.3095C0.0859407 55.3095 0.103184 55.2923 0.103184 55.2579L0.0515548 55.2063C0.0171689 55.2063 3.05204e-05 55.2235 3.05262e-05 55.2579Z" fill="#2C1E4A"/>
<path d="M3.05262e-05 55.2579C3.05319e-05 55.2923 0.0171689 55.3095 0.0515548 55.3095C0.0859407 55.3095 0.103184 55.2923 0.103184 55.2579L0.0515548 55.2063C0.0171689 55.2063 3.05204e-05 55.2235 3.05262e-05 55.2579Z" fill="white"/>
<path d="M3.05262e-05 55.2579C3.05319e-05 55.2923 0.0171689 55.3095 0.0515548 55.3095C0.0859407 55.3095 0.103184 55.2923 0.103184 55.2579L0.0515548 55.2063C0.0171689 55.2063 3.05204e-05 55.2235 3.05262e-05 55.2579Z" fill="#E7CD1E"/>
<path d="M3.05261e-05 73.6028C3.05319e-05 73.6372 0.0171689 73.6544 0.0515548 73.6544L0.103184 73.6028C0.103184 73.5684 0.0859407 73.5513 0.0515548 73.5513C0.0171689 73.5513 3.05204e-05 73.5684 3.05261e-05 73.6028Z" fill="#2C1E4A"/>
<path d="M3.05261e-05 73.6028C3.05319e-05 73.6372 0.0171689 73.6544 0.0515548 73.6544L0.103184 73.6028C0.103184 73.5684 0.0859407 73.5513 0.0515548 73.5513C0.0171689 73.5513 3.05204e-05 73.5684 3.05261e-05 73.6028Z" fill="white"/>
<path d="M3.05261e-05 73.6028C3.05319e-05 73.6372 0.0171689 73.6544 0.0515548 73.6544L0.103184 73.6028C0.103184 73.5684 0.0859407 73.5513 0.0515548 73.5513C0.0171689 73.5513 3.05204e-05 73.5684 3.05261e-05 73.6028Z" fill="#E7CD1E"/>
<path d="M3.05261e-05 91.9475C3.0529e-05 91.9647 0.0171689 91.9991 0.0515548 91.9991C0.0859407 91.9991 0.103184 91.9819 0.103184 91.9475C0.103184 91.9131 0.0859407 91.896 0.0515548 91.896C0.0171689 91.896 3.05233e-05 91.9303 3.05261e-05 91.9475Z" fill="#2C1E4A"/>
<path d="M3.05261e-05 91.9475C3.0529e-05 91.9647 0.0171689 91.9991 0.0515548 91.9991C0.0859407 91.9991 0.103184 91.9819 0.103184 91.9475C0.103184 91.9131 0.0859407 91.896 0.0515548 91.896C0.0171689 91.896 3.05233e-05 91.9303 3.05261e-05 91.9475Z" fill="white"/>
<path d="M3.05261e-05 91.9475C3.0529e-05 91.9647 0.0171689 91.9991 0.0515548 91.9991C0.0859407 91.9991 0.103184 91.9819 0.103184 91.9475C0.103184 91.9131 0.0859407 91.896 0.0515548 91.896C0.0171689 91.896 3.05233e-05 91.9303 3.05261e-05 91.9475Z" fill="#E7CD1E"/>
</svg>
