<svg width="207" height="95" viewBox="0 0 207 95" fill="none" xmlns="http://www.w3.org/2000/svg">
<path d="M1.93335 92.3312C1.93335 92.016 1.68115 91.7638 1.36596 91.7638C1.05077 91.7638 0.79857 92.016 0.79857 92.3312C0.79857 92.6464 1.05077 92.8984 1.36596 92.8984C1.68115 92.8984 1.93335 92.6464 1.93335 92.3312Z" fill="#2C1E4A"/>
<path d="M2.50049 69.9112C2.50049 69.3018 1.99612 68.7975 1.38674 68.7975C0.756355 68.7975 0.272996 69.3018 0.272996 69.9112C0.272996 70.5205 0.777368 71.0249 1.38674 71.0249C1.99612 71.0249 2.50049 70.5205 2.50049 69.9112Z" fill="#2C1E4A"/>
<path d="M2.73167 47.4695C2.73167 46.7131 2.12224 46.1038 1.36578 46.1038C0.609311 46.1038 -0.000114432 46.7131 -0.000114265 47.4695C-0.000114099 48.226 0.609312 48.8354 1.36578 48.8354C2.12224 48.8564 2.75268 48.226 2.73167 47.4695Z" fill="#2C1E4A"/>
<path d="M2.43774 25.0485C2.43774 24.4601 1.95445 23.9978 1.3871 23.9978C0.798737 23.9978 0.336453 24.4811 0.336453 25.0485C0.336453 25.6368 0.81975 26.0991 1.3871 26.0991C1.95445 26.0991 2.43774 25.6368 2.43774 25.0485Z" fill="#2C1E4A"/>
<path d="M1.87036 2.62657C1.87036 2.3534 1.63924 2.12215 1.36607 2.12215C1.0929 2.12215 0.861782 2.3534 0.861782 2.62657C0.861782 2.89974 1.0929 3.13086 1.36607 3.13086C1.66025 3.13086 1.87036 2.89974 1.87036 2.62657Z" fill="#2C1E4A"/>
<path d="M24.9822 91.7038C24.9822 90.7052 24.177 89.8996 23.1783 89.8996C22.1796 89.8996 21.374 90.7052 21.374 91.7038C21.374 92.7025 22.1796 93.5078 23.1783 93.5078C24.177 93.5078 24.9822 92.7025 24.9822 91.7038Z" fill="#2C1E4A"/>
<path d="M26.1594 69.9107C26.1594 68.6079 25.1088 67.5362 23.806 67.5362C22.5032 67.5362 21.4315 68.5869 21.4526 69.9107C21.4526 71.2135 22.5032 72.2641 23.806 72.2852C25.1088 72.2641 26.1594 71.2135 26.1594 69.9107Z" fill="#2C1E4A"/>
<path d="M26.7888 47.4688C26.7888 45.8088 25.4442 44.485 23.8051 44.485C22.1661 44.485 20.8212 45.8298 20.8212 47.4688C20.8212 49.1078 22.1661 50.4526 23.8051 50.4526C25.4442 50.4526 26.7888 49.1289 26.7888 47.4688Z" fill="#2C1E4A"/>
<path d="M25.969 25.0478C25.969 23.8501 25.0026 22.8624 23.8049 22.8624C22.6071 22.8624 21.6194 23.8291 21.6194 25.0478C21.6194 26.2455 22.5861 27.2121 23.8049 27.2121C25.0026 27.2331 25.969 26.2455 25.969 25.0478Z" fill="#2C1E4A"/>
<path d="M24.8557 1.87364C24.8557 0.863344 24.0258 0.069542 23.0516 0.0695421C22.0413 0.0695422 21.2475 0.863345 21.2475 1.87364C21.2475 2.88393 22.0774 3.67773 23.0516 3.67773C24.0619 3.67773 24.8557 2.88393 24.8557 1.87364Z" fill="#2C1E4A"/>
<path d="M48.094 92.0793C48.094 90.9107 47.1401 89.9567 45.9715 89.9567C44.803 89.9567 43.8491 90.9107 43.8491 92.0793C43.8491 93.2478 44.803 94.2017 45.9715 94.2017C47.1401 94.2017 48.094 93.2478 48.094 92.0793Z" fill="#2C1E4A"/>
<path d="M50.0898 69.9104C50.0898 67.7881 48.3666 66.0441 46.2233 66.0441C44.08 66.0441 42.378 67.7671 42.357 69.9104C42.357 72.0327 44.08 73.7769 46.2233 73.7769C48.3456 73.7558 50.0898 72.0327 50.0898 69.9104Z" fill="#2C1E4A"/>
<path d="M50.9509 47.4694C50.9509 44.8638 48.8286 42.7415 46.223 42.7415C43.6174 42.7415 41.4951 44.8638 41.4951 47.4694C41.4951 50.075 43.6174 52.1973 46.223 52.1973C48.8286 52.1973 50.9509 50.096 50.9509 47.4694Z" fill="#2C1E4A"/>
<path d="M49.7754 25.0479C49.7754 23.0937 48.1783 21.4967 46.2241 21.4967C44.2699 21.4967 42.673 23.0937 42.673 25.0479C42.673 27.0021 44.2699 28.5991 46.2241 28.5991C48.1783 28.5991 49.7754 27.0021 49.7754 25.0479Z" fill="#2C1E4A"/>
<path d="M47.8423 2.12274C47.8423 0.937445 46.905 0.000185095 45.7197 0.000185198C44.5619 0.0001853 43.5974 0.937446 43.5974 2.12274C43.5974 3.28046 44.5343 4.24512 45.7197 4.24512C46.905 4.24512 47.8423 3.28046 47.8423 2.12274Z" fill="#2C1E4A"/>
<path d="M71.1433 92.6245C71.1433 91.4017 70.1615 90.4383 68.9573 90.4383C67.753 90.4383 66.771 91.4203 66.771 92.6245C66.771 93.8287 67.753 94.8105 68.9573 94.8105C70.1615 94.8105 71.1433 93.8287 71.1433 92.6245Z" fill="#2C1E4A"/>
<path d="M73.6228 69.9106C73.6228 67.1579 71.3954 64.9305 68.6428 64.9305C65.8901 64.9305 63.6627 67.1579 63.6627 69.9106C63.6627 72.6633 65.8901 74.8906 68.6428 74.8906C71.3954 74.8906 73.6228 72.6633 73.6228 69.9106Z" fill="#2C1E4A"/>
<path d="M74.5676 47.6579C74.5676 44.5052 72.0052 41.9424 68.8528 41.9424C65.7003 41.9424 63.1376 44.5052 63.1376 47.6579C63.1376 50.8106 65.7003 53.3734 68.8528 53.3734C72.0052 53.3938 74.5676 50.8309 74.5676 47.6579Z" fill="#2C1E4A"/>
<path d="M73.1819 25.0482C73.1819 22.5476 71.1436 20.5093 68.643 20.5093C66.1425 20.5093 64.1042 22.5476 64.1042 25.0482C64.1042 27.5487 66.1425 29.5869 68.643 29.5869C71.1646 29.5869 73.1819 27.5697 73.1819 25.0482Z" fill="#2C1E4A"/>
<path d="M70.8286 2.62765C70.8286 1.42992 69.857 0.463262 68.653 0.463262C67.4491 0.463262 66.4563 1.42981 66.4563 2.64856C66.4563 3.8463 67.428 4.83398 68.653 4.83398C69.8781 4.83398 70.8286 3.82539 70.8286 2.62765Z" fill="#2C1E4A"/>
<path d="M93.7515 92.6441C93.7515 91.3456 92.6942 90.2881 91.3956 90.2881C90.097 90.2881 89.0396 91.3456 89.0396 92.6441C89.0396 93.9427 90.097 95 91.3956 95C92.6942 95 93.7515 93.9427 93.7515 92.6441Z" fill="#2C1E4A"/>
<path d="M96.2937 70.0372C96.2937 67.2282 94.0133 64.9524 91.1988 64.9524C88.3842 64.9524 86.083 67.2283 86.083 70.0577C86.083 72.8872 88.3637 75.1631 91.1988 75.1631C94.0339 75.1631 96.2937 72.8462 96.2937 70.0372Z" fill="#2C1E4A"/>
<path d="M97.3015 47.6573C97.3015 44.3161 94.5921 41.6267 91.2715 41.6267C87.9305 41.6267 85.2413 44.3364 85.2413 47.6573C85.2413 50.9782 87.9305 53.688 91.2715 53.688C94.5921 53.688 97.3015 50.9986 97.3015 47.6573Z" fill="#2C1E4A"/>
<path d="M95.9365 24.796C95.9365 21.9892 93.6603 19.6907 90.8313 19.6907C88.0024 19.6907 85.7258 21.9671 85.7258 24.796C85.7258 27.625 88.0024 29.9014 90.8313 29.9014C93.6382 29.9014 95.9365 27.625 95.9365 24.796Z" fill="#2C1E4A"/>
<path d="M93.4368 2.64559C93.4368 1.35292 92.3861 0.28959 91.0833 0.28959C89.7805 0.28959 88.7089 1.33207 88.7299 2.64559C88.7299 3.93826 89.7805 4.98062 91.0833 5.00147C92.3861 4.98062 93.4368 3.93826 93.4368 2.64559Z" fill="#2C1E4A"/>
<path d="M116.043 92.6243C116.043 91.3785 115.039 90.3744 113.794 90.3744C112.548 90.3744 111.544 91.3785 111.544 92.6243C111.544 93.87 112.548 94.874 113.794 94.874C115.039 94.874 116.043 93.87 116.043 92.6243Z" fill="#2C1E4A"/>
<path d="M118.607 69.911C118.607 67.0952 116.317 64.8048 113.501 64.8048C110.685 64.8048 108.395 67.0952 108.395 69.911C108.395 72.7267 110.685 75.0171 113.501 75.0171C116.317 74.9961 118.607 72.7267 118.607 69.911Z" fill="#2C1E4A"/>
<path d="M119.532 47.4688C119.532 44.1278 116.822 41.4381 113.502 41.4381C110.161 41.4381 107.472 44.1488 107.472 47.4688C107.472 50.7889 110.182 53.4995 113.502 53.4995C116.822 53.4995 119.532 50.8099 119.532 47.4688Z" fill="#2C1E4A"/>
<path d="M118.229 24.6705C118.229 21.8569 115.938 19.5652 113.124 19.5652C110.31 19.5652 108.019 21.8569 108.019 24.6705C108.019 27.4841 110.31 29.7759 113.124 29.7759C115.938 29.7759 118.229 27.4841 118.229 24.6705Z" fill="#2C1E4A"/>
<path d="M115.75 2.61517C115.75 1.36876 114.741 0.37586 113.502 0.37586C112.262 0.375861 111.253 1.38977 111.253 2.63618C111.253 3.88259 112.262 4.87549 113.502 4.87549C114.741 4.85436 115.75 3.86157 115.75 2.61517Z" fill="#2C1E4A"/>
<path d="M138.294 92.5832C138.294 91.4186 137.332 90.4606 136.162 90.4606C134.993 90.4606 134.031 91.3998 134.05 92.5832C134.05 93.7477 134.993 94.7056 136.162 94.7056C137.332 94.7056 138.294 93.7477 138.294 92.5832Z" fill="#2C1E4A"/>
<path d="M140.648 69.5333C140.648 66.7197 138.356 64.428 135.543 64.428C132.729 64.428 130.438 66.7197 130.438 69.5333C130.438 72.3469 132.729 74.6387 135.543 74.6387C138.379 74.6387 140.648 72.3469 140.648 69.5333Z" fill="#2C1E4A"/>
<path d="M141.657 47.4684C141.657 44.3164 139.093 41.7529 135.942 41.7529C132.79 41.7529 130.227 44.3164 130.227 47.4684C130.227 50.6203 132.79 53.184 135.942 53.184C139.093 53.205 141.657 50.6413 141.657 47.4684Z" fill="#2C1E4A"/>
<path d="M140.291 24.2926C140.291 21.481 137.997 19.1873 135.186 19.1873C132.374 19.1873 130.08 21.481 130.08 24.2926C130.08 27.1042 132.374 29.3979 135.186 29.3979C137.997 29.3979 140.291 27.1289 140.291 24.2926Z" fill="#2C1E4A"/>
<path d="M138.042 2.62732C138.042 1.47161 137.097 0.504991 135.92 0.504991C134.743 0.504991 133.798 1.45059 133.798 2.62732C133.798 3.80404 134.743 4.74951 135.92 4.74951C137.097 4.74951 138.042 3.78303 138.042 2.62732Z" fill="#2C1E4A"/>
<path d="M160.46 92.6495C160.46 91.6492 159.657 90.8453 158.656 90.8453C157.656 90.8453 156.852 91.6492 156.852 92.6495C156.852 93.6499 157.656 94.4536 158.656 94.4536C159.657 94.4536 160.46 93.6499 160.46 92.6495Z" fill="#2C1E4A"/>
<path d="M162.646 70.2924C162.646 68.1291 160.904 66.3871 158.741 66.3871C156.578 66.3871 154.836 68.1291 154.836 70.2924C154.836 72.4556 156.578 74.1978 158.741 74.1978C160.885 74.1978 162.646 72.4365 162.646 70.2924Z" fill="#2C1E4A"/>
<path d="M163.508 47.9126C163.508 45.2999 161.395 43.1866 158.782 43.1866C156.169 43.1866 154.056 45.2999 154.056 47.9126C154.056 50.5254 156.169 52.6387 158.782 52.6387C161.395 52.6387 163.508 50.5254 163.508 47.9126Z" fill="#2C1E4A"/>
<path d="M162.268 25.048C162.268 22.8837 160.524 21.1396 158.359 21.1396C156.195 21.1396 154.451 22.8837 154.451 25.048C154.451 27.2123 156.195 28.9564 158.359 28.9564C160.524 28.9774 162.268 27.2123 162.268 25.048Z" fill="#2C1E4A"/>
<path d="M160.146 2.627C160.146 1.6394 159.347 0.819794 158.338 0.819795C157.351 0.819795 156.531 1.61838 156.531 2.627C156.531 3.61461 157.351 4.43408 158.338 4.43408C159.347 4.43408 160.146 3.61461 160.146 2.627Z" fill="#2C1E4A"/>
<path d="M182.523 92.3317C182.523 91.3651 181.746 90.5876 180.779 90.5876C179.812 90.5876 179.035 91.3651 179.035 92.3317C179.035 93.2983 179.812 94.0757 180.779 94.0757C181.746 94.0757 182.523 93.2983 182.523 92.3317Z" fill="#2C1E4A"/>
<path d="M184.498 71.4727C184.498 70.2735 183.534 69.3069 182.326 69.3069C181.118 69.3069 180.154 70.2735 180.154 71.4727C180.154 72.6719 181.118 73.6509 182.326 73.6509C183.534 73.6386 184.498 72.6719 184.498 71.4727Z" fill="#2C1E4A"/>
<path d="M185.317 49.0221C185.317 47.3773 183.977 46.0366 182.332 46.0366C180.687 46.0366 179.346 47.3773 179.346 49.0221C179.346 50.6669 180.687 52.0077 182.332 52.0077C183.977 52.0215 185.317 50.6808 185.317 49.0221Z" fill="#2C1E4A"/>
<path d="M184.141 26.2377C184.141 25.0431 183.177 24.0657 181.969 24.0657C180.774 24.0657 179.797 25.0296 179.797 26.2377C179.797 27.4323 180.76 28.4097 181.969 28.4097C183.163 28.4097 184.141 27.4323 184.141 26.2377Z" fill="#2C1E4A"/>
<path d="M182.334 2.62719C182.334 1.76566 181.641 1.07213 180.779 1.07213C179.918 1.07213 179.224 1.76566 179.224 2.62719C179.224 3.48872 179.918 4.18213 180.779 4.18213C181.641 4.18213 182.334 3.48872 182.334 2.62719Z" fill="#2C1E4A"/>
<path d="M204.689 93.2568C204.689 92.9459 204.434 92.6908 204.124 92.6908C203.813 92.6908 203.557 92.9459 203.557 93.2568C203.557 93.5677 203.813 93.8228 204.124 93.8228C204.434 93.8228 204.689 93.5677 204.689 93.2568Z" fill="#2C1E4A"/>
<path d="M206.244 71.5921C206.244 70.8387 205.632 70.2266 204.879 70.2266C204.125 70.2266 203.513 70.8387 203.513 71.5921C203.513 72.3454 204.125 72.9575 204.879 72.9575C205.632 72.9575 206.244 72.3454 206.244 71.5921Z" fill="#2C1E4A"/>
<path d="M207 49.8893C207 49.1328 206.389 48.5201 205.635 48.5201C204.88 48.5201 204.269 49.1328 204.269 49.8893C204.269 50.6457 204.88 51.2585 205.635 51.2509C206.389 51.2585 207 50.6457 207 49.8893Z" fill="#2C1E4A"/>
<path d="M205.992 26.4768C205.992 25.7274 205.376 25.1114 204.627 25.1114C203.867 25.1114 203.261 25.7274 203.261 26.4768C203.261 27.2365 203.877 27.8423 204.627 27.8423C205.387 27.8423 205.992 27.2365 205.992 26.4768Z" fill="#2C1E4A"/>
<path d="M204.5 3.36372C204.5 3.05335 204.245 2.79771 203.934 2.79771C203.624 2.79771 203.368 3.05336 203.368 3.36372C203.368 3.67409 203.624 3.92969 203.934 3.92969C204.254 3.92969 204.5 3.67409 204.5 3.36372Z" fill="#2C1E4A"/>
</svg>
