<svg width="85" height="133" viewBox="0 0 85 133" fill="none" xmlns="http://www.w3.org/2000/svg">
<path d="M14.9415 1.2627C15.1474 1.2627 15.3121 1.09798 15.3121 0.892111C15.3121 0.686246 15.1474 0.521527 14.9415 0.521527C14.7357 0.521527 14.571 0.686246 14.571 0.892111C14.571 1.09798 14.7357 1.2627 14.9415 1.2627Z" fill="#2C1E4A"/>
<path d="M14.9415 1.2627C15.1474 1.2627 15.3121 1.09798 15.3121 0.892111C15.3121 0.686246 15.1474 0.521527 14.9415 0.521527C14.7357 0.521527 14.571 0.686246 14.571 0.892111C14.571 1.09798 14.7357 1.2627 14.9415 1.2627Z" fill="white"/>
<path d="M14.9415 1.2627C15.1474 1.2627 15.3121 1.09798 15.3121 0.892111C15.3121 0.686246 15.1474 0.521527 14.9415 0.521527C14.7357 0.521527 14.571 0.686246 14.571 0.892111C14.571 1.09798 14.7357 1.2627 14.9415 1.2627Z" fill="#E7CD1E"/>
<path d="M29.5853 1.6333C29.9833 1.6333 30.3127 1.30388 30.3127 0.90587C30.3127 0.494139 29.9833 0.178439 29.5853 0.178439C29.1873 0.178439 28.8579 0.507864 28.8579 0.90587C28.8579 1.30388 29.1873 1.6333 29.5853 1.6333Z" fill="#2C1E4A"/>
<path d="M29.5853 1.6333C29.9833 1.6333 30.3127 1.30388 30.3127 0.90587C30.3127 0.494139 29.9833 0.178439 29.5853 0.178439C29.1873 0.178439 28.8579 0.507864 28.8579 0.90587C28.8579 1.30388 29.1873 1.6333 29.5853 1.6333Z" fill="white"/>
<path d="M29.5853 1.6333C29.9833 1.6333 30.3127 1.30388 30.3127 0.90587C30.3127 0.494139 29.9833 0.178439 29.5853 0.178439C29.1873 0.178439 28.8579 0.507864 28.8579 0.90587C28.8579 1.30388 29.1873 1.6333 29.5853 1.6333Z" fill="#E7CD1E"/>
<path d="M44.2428 1.78433C44.7369 1.78433 45.1348 1.38629 45.1348 0.892218C45.1348 0.398141 44.7369 0.000101827 44.2428 0.000101904C43.7487 0.000101981 43.3507 0.398142 43.3507 0.892218C43.337 1.38629 43.7487 1.79806 44.2428 1.78433Z" fill="#2C1E4A"/>
<path d="M44.2428 1.78433C44.7369 1.78433 45.1348 1.38629 45.1348 0.892218C45.1348 0.398141 44.7369 0.000101827 44.2428 0.000101904C43.7487 0.000101981 43.3507 0.398142 43.3507 0.892218C43.337 1.38629 43.7487 1.79806 44.2428 1.78433Z" fill="white"/>
<path d="M44.2428 1.78433C44.7369 1.78433 45.1348 1.38629 45.1348 0.892218C45.1348 0.398141 44.7369 0.000101827 44.2428 0.000101904C43.7487 0.000101981 43.3507 0.398142 43.3507 0.892218C43.337 1.38629 43.7487 1.79806 44.2428 1.78433Z" fill="#E7CD1E"/>
<path d="M58.8869 1.59229C59.2712 1.59228 59.5731 1.27662 59.5731 0.906068C59.5731 0.521786 59.2575 0.21985 58.8869 0.21985C58.5026 0.21985 58.2007 0.53551 58.2007 0.906068C58.2007 1.27663 58.5026 1.59229 58.8869 1.59229Z" fill="#2C1E4A"/>
<path d="M58.8869 1.59229C59.2712 1.59228 59.5731 1.27662 59.5731 0.906068C59.5731 0.521786 59.2575 0.21985 58.8869 0.21985C58.5026 0.21985 58.2007 0.53551 58.2007 0.906068C58.2007 1.27663 58.5026 1.59229 58.8869 1.59229Z" fill="white"/>
<path d="M58.8869 1.59229C59.2712 1.59228 59.5731 1.27662 59.5731 0.906068C59.5731 0.521786 59.2575 0.21985 58.8869 0.21985C58.5026 0.21985 58.2007 0.53551 58.2007 0.906068C58.2007 1.27663 58.5026 1.59229 58.8869 1.59229Z" fill="#E7CD1E"/>
<path d="M73.5308 1.22168C73.7092 1.22168 73.8602 1.07073 73.8602 0.892309C73.8602 0.713892 73.7092 0.562938 73.5308 0.562938C73.3524 0.562938 73.2014 0.713892 73.2014 0.892309C73.2014 1.08445 73.3524 1.22168 73.5308 1.22168Z" fill="#2C1E4A"/>
<path d="M73.5308 1.22168C73.7092 1.22168 73.8602 1.07073 73.8602 0.892309C73.8602 0.713892 73.7092 0.562938 73.5308 0.562938C73.3524 0.562938 73.2014 0.713892 73.2014 0.892309C73.2014 1.08445 73.3524 1.22168 73.5308 1.22168Z" fill="white"/>
<path d="M73.5308 1.22168C73.7092 1.22168 73.8602 1.07073 73.8602 0.892309C73.8602 0.713892 73.7092 0.562938 73.5308 0.562938C73.3524 0.562938 73.2014 0.713892 73.2014 0.892309C73.2014 1.08445 73.3524 1.22168 73.5308 1.22168Z" fill="#E7CD1E"/>
<path d="M15.3511 16.3184C16.0034 16.3184 16.5295 15.7925 16.5295 15.1402C16.5295 14.4879 16.0034 13.9617 15.3511 13.9617C14.6989 13.9617 14.1729 14.4879 14.1729 15.1402C14.1729 15.7925 14.6989 16.3184 15.3511 16.3184Z" fill="#2C1E4A"/>
<path d="M15.3511 16.3184C16.0034 16.3184 16.5295 15.7925 16.5295 15.1402C16.5295 14.4879 16.0034 13.9617 15.3511 13.9617C14.6989 13.9617 14.1729 14.4879 14.1729 15.1402C14.1729 15.7925 14.6989 16.3184 15.3511 16.3184Z" fill="white"/>
<path d="M15.3511 16.3184C16.0034 16.3184 16.5295 15.7925 16.5295 15.1402C16.5295 14.4879 16.0034 13.9617 15.3511 13.9617C14.6989 13.9617 14.1729 14.4879 14.1729 15.1402C14.1729 15.7925 14.6989 16.3184 15.3511 16.3184Z" fill="#E7CD1E"/>
<path d="M29.5853 17.0874C30.4362 17.0874 31.1361 16.4012 31.1361 15.5503C31.1361 14.6994 30.4499 13.9994 29.5853 14.0132C28.7344 14.0132 28.0481 14.6994 28.0344 15.5503C28.0481 16.4012 28.7344 17.0874 29.5853 17.0874Z" fill="#2C1E4A"/>
<path d="M29.5853 17.0874C30.4362 17.0874 31.1361 16.4012 31.1361 15.5503C31.1361 14.6994 30.4499 13.9994 29.5853 14.0132C28.7344 14.0132 28.0481 14.6994 28.0344 15.5503C28.0481 16.4012 28.7344 17.0874 29.5853 17.0874Z" fill="white"/>
<path d="M29.5853 17.0874C30.4362 17.0874 31.1361 16.4012 31.1361 15.5503C31.1361 14.6994 30.4499 13.9994 29.5853 14.0132C28.7344 14.0132 28.0481 14.6994 28.0344 15.5503C28.0481 16.4012 28.7344 17.0874 29.5853 17.0874Z" fill="#E7CD1E"/>
<path d="M44.243 17.4985C45.3272 17.4985 46.1919 16.6203 46.1919 15.5498C46.1919 14.4793 45.3135 13.6009 44.243 13.6009C43.1725 13.6009 42.2942 14.4793 42.2942 15.5498C42.2942 16.6203 43.1588 17.4985 44.243 17.4985Z" fill="#2C1E4A"/>
<path d="M44.243 17.4985C45.3272 17.4985 46.1919 16.6203 46.1919 15.5498C46.1919 14.4793 45.3135 13.6009 44.243 13.6009C43.1725 13.6009 42.2942 14.4793 42.2942 15.5498C42.2942 16.6203 43.1588 17.4985 44.243 17.4985Z" fill="white"/>
<path d="M44.243 17.4985C45.3272 17.4985 46.1919 16.6203 46.1919 15.5498C46.1919 14.4793 45.3135 13.6009 44.243 13.6009C43.1725 13.6009 42.2942 14.4793 42.2942 15.5498C42.2942 16.6203 43.1588 17.4985 44.243 17.4985Z" fill="#E7CD1E"/>
<path d="M58.8867 16.9629C59.669 16.9629 60.3141 16.3317 60.3141 15.5494C60.3141 14.7671 59.6827 14.122 58.8867 14.122C58.1044 14.122 57.4731 14.7534 57.4731 15.5494C57.4594 16.3317 58.1044 16.9629 58.8867 16.9629Z" fill="#2C1E4A"/>
<path d="M58.8867 16.9629C59.669 16.9629 60.3141 16.3317 60.3141 15.5494C60.3141 14.7671 59.6827 14.122 58.8867 14.122C58.1044 14.122 57.4731 14.7534 57.4731 15.5494C57.4594 16.3317 58.1044 16.9629 58.8867 16.9629Z" fill="white"/>
<path d="M58.8867 16.9629C59.669 16.9629 60.3141 16.3317 60.3141 15.5494C60.3141 14.7671 59.6827 14.122 58.8867 14.122C58.1044 14.122 57.4731 14.7534 57.4731 15.5494C57.4594 16.3317 58.1044 16.9629 58.8867 16.9629Z" fill="#E7CD1E"/>
<path d="M74.0231 16.2358C74.6829 16.2358 75.2014 15.6938 75.2014 15.0575C75.2014 14.3977 74.6829 13.8792 74.0231 13.8792C73.3632 13.8792 72.8447 14.4212 72.8447 15.0575C72.8447 15.7174 73.3632 16.2358 74.0231 16.2358Z" fill="#2C1E4A"/>
<path d="M74.0231 16.2358C74.6829 16.2358 75.2014 15.6938 75.2014 15.0575C75.2014 14.3977 74.6829 13.8792 74.0231 13.8792C73.3632 13.8792 72.8447 14.4212 72.8447 15.0575C72.8447 15.7174 73.3632 16.2358 74.0231 16.2358Z" fill="white"/>
<path d="M74.0231 16.2358C74.6829 16.2358 75.2014 15.6938 75.2014 15.0575C75.2014 14.3977 74.6829 13.8792 74.0231 13.8792C73.3632 13.8792 72.8447 14.4212 72.8447 15.0575C72.8447 15.7174 73.3632 16.2358 74.0231 16.2358Z" fill="#E7CD1E"/>
<path d="M15.1062 31.415C15.8694 31.415 16.4925 30.792 16.4925 30.0288C16.4925 29.2656 15.8694 28.6425 15.1062 28.6425C14.343 28.6425 13.72 29.2656 13.72 30.0288C13.72 30.792 14.343 31.415 15.1062 31.415Z" fill="#2C1E4A"/>
<path d="M15.1062 31.415C15.8694 31.415 16.4925 30.792 16.4925 30.0288C16.4925 29.2656 15.8694 28.6425 15.1062 28.6425C14.343 28.6425 13.72 29.2656 13.72 30.0288C13.72 30.792 14.343 31.415 15.1062 31.415Z" fill="white"/>
<path d="M15.1062 31.415C15.8694 31.415 16.4925 30.792 16.4925 30.0288C16.4925 29.2656 15.8694 28.6425 15.1062 28.6425C14.343 28.6425 13.72 29.2656 13.72 30.0288C13.72 30.792 14.343 31.415 15.1062 31.415Z" fill="#E7CD1E"/>
<path d="M29.5856 32.7187C30.9718 32.7187 32.1109 31.5932 32.1109 30.1933C32.1109 28.7935 30.9855 27.6818 29.5856 27.6681C28.1995 27.6681 27.0603 28.7935 27.0603 30.1933C27.074 31.5795 28.1995 32.7187 29.5856 32.7187Z" fill="#2C1E4A"/>
<path d="M29.5856 32.7187C30.9718 32.7187 32.1109 31.5932 32.1109 30.1933C32.1109 28.7935 30.9855 27.6818 29.5856 27.6681C28.1995 27.6681 27.0603 28.7935 27.0603 30.1933C27.074 31.5795 28.1995 32.7187 29.5856 32.7187Z" fill="white"/>
<path d="M29.5856 32.7187C30.9718 32.7187 32.1109 31.5932 32.1109 30.1933C32.1109 28.7935 30.9855 27.6818 29.5856 27.6681C28.1995 27.6681 27.0603 28.7935 27.0603 30.1933C27.074 31.5795 28.1995 32.7187 29.5856 32.7187Z" fill="#E7CD1E"/>
<path d="M44.243 33.2812C45.9448 33.2812 47.331 31.8951 47.331 30.1933C47.331 28.4915 45.9448 27.1053 44.243 27.1053C42.5412 27.1053 41.155 28.4915 41.155 30.1933C41.155 31.8951 42.5275 33.2812 44.243 33.2812Z" fill="#2C1E4A"/>
<path d="M44.243 33.2812C45.9448 33.2812 47.331 31.8951 47.331 30.1933C47.331 28.4915 45.9448 27.1053 44.243 27.1053C42.5412 27.1053 41.155 28.4915 41.155 30.1933C41.155 31.8951 42.5275 33.2812 44.243 33.2812Z" fill="white"/>
<path d="M44.243 33.2812C45.9448 33.2812 47.331 31.8951 47.331 30.1933C47.331 28.4915 45.9448 27.1053 44.243 27.1053C42.5412 27.1053 41.155 28.4915 41.155 30.1933C41.155 31.8951 42.5275 33.2812 44.243 33.2812Z" fill="#E7CD1E"/>
<path d="M58.8868 32.5132C60.1632 32.5132 61.2062 31.47 61.2062 30.1937C61.2062 28.9173 60.1632 27.8743 58.8868 27.8743C57.6104 27.8743 56.5674 28.9173 56.5674 30.1937C56.5674 31.47 57.6104 32.5132 58.8868 32.5132Z" fill="#2C1E4A"/>
<path d="M58.8868 32.5132C60.1632 32.5132 61.2062 31.47 61.2062 30.1937C61.2062 28.9173 60.1632 27.8743 58.8868 27.8743C57.6104 27.8743 56.5674 28.9173 56.5674 30.1937C56.5674 31.47 57.6104 32.5132 58.8868 32.5132Z" fill="white"/>
<path d="M58.8868 32.5132C60.1632 32.5132 61.2062 31.47 61.2062 30.1937C61.2062 28.9173 60.1632 27.8743 58.8868 27.8743C57.6104 27.8743 56.5674 28.9173 56.5674 30.1937C56.5674 31.47 57.6104 32.5132 58.8868 32.5132Z" fill="#E7CD1E"/>
<path d="M73.8606 31.2505C74.6347 31.2505 75.2469 30.6383 75.2469 29.8641C75.2469 29.1079 74.6347 28.478 73.8606 28.478C73.1044 28.478 72.4744 29.0899 72.4744 29.8641C72.4744 30.6383 73.1044 31.2505 73.8606 31.2505Z" fill="#2C1E4A"/>
<path d="M73.8606 31.2505C74.6347 31.2505 75.2469 30.6383 75.2469 29.8641C75.2469 29.1079 74.6347 28.478 73.8606 28.478C73.1044 28.478 72.4744 29.0899 72.4744 29.8641C72.4744 30.6383 73.1044 31.2505 73.8606 31.2505Z" fill="white"/>
<path d="M73.8606 31.2505C74.6347 31.2505 75.2469 30.6383 75.2469 29.8641C75.2469 29.1079 74.6347 28.478 73.8606 28.478C73.1044 28.478 72.4744 29.0899 72.4744 29.8641C72.4744 30.6383 73.1044 31.2505 73.8606 31.2505Z" fill="#E7CD1E"/>
<path d="M14.7501 46.4707C15.5487 46.4707 16.178 45.8295 16.178 45.0429C16.178 44.2564 15.5366 43.615 14.7501 43.615C13.9636 43.615 13.3223 44.2564 13.3223 45.0429C13.3223 45.8295 13.9636 46.4707 14.7501 46.4707Z" fill="#2C1E4A"/>
<path d="M14.7501 46.4707C15.5487 46.4707 16.178 45.8295 16.178 45.0429C16.178 44.2564 15.5366 43.615 14.7501 43.615C13.9636 43.615 13.3223 44.2564 13.3223 45.0429C13.3223 45.8295 13.9636 46.4707 14.7501 46.4707Z" fill="white"/>
<path d="M14.7501 46.4707C15.5487 46.4707 16.178 45.8295 16.178 45.0429C16.178 44.2564 15.5366 43.615 14.7501 43.615C13.9636 43.615 13.3223 44.2564 13.3223 45.0429C13.3223 45.8295 13.9636 46.4707 14.7501 46.4707Z" fill="#E7CD1E"/>
<path d="M29.5857 48.0903C31.3836 48.0903 32.8383 46.6356 32.8383 44.8377C32.8383 43.0398 31.3836 41.585 29.5857 41.585C27.7878 41.585 26.333 43.0398 26.333 44.8377C26.333 46.6356 27.7878 48.0903 29.5857 48.0903Z" fill="#2C1E4A"/>
<path d="M29.5857 48.0903C31.3836 48.0903 32.8383 46.6356 32.8383 44.8377C32.8383 43.0398 31.3836 41.585 29.5857 41.585C27.7878 41.585 26.333 43.0398 26.333 44.8377C26.333 46.6356 27.7878 48.0903 29.5857 48.0903Z" fill="white"/>
<path d="M29.5857 48.0903C31.3836 48.0903 32.8383 46.6356 32.8383 44.8377C32.8383 43.0398 31.3836 41.585 29.5857 41.585C27.7878 41.585 26.333 43.0398 26.333 44.8377C26.333 46.6356 27.7878 48.0903 29.5857 48.0903Z" fill="#E7CD1E"/>
<path d="M44.1196 48.7075C46.1787 48.7075 47.8526 47.0337 47.8526 44.9746C47.8526 42.9154 46.1787 41.2415 44.1196 41.2415C42.0604 41.2415 40.3866 42.9154 40.3866 44.9746C40.3733 47.0337 42.0471 48.7075 44.1196 48.7075Z" fill="#2C1E4A"/>
<path d="M44.1196 48.7075C46.1787 48.7075 47.8526 47.0337 47.8526 44.9746C47.8526 42.9154 46.1787 41.2415 44.1196 41.2415C42.0604 41.2415 40.3866 42.9154 40.3866 44.9746C40.3733 47.0337 42.0471 48.7075 44.1196 48.7075Z" fill="white"/>
<path d="M44.1196 48.7075C46.1787 48.7075 47.8526 47.0337 47.8526 44.9746C47.8526 42.9154 46.1787 41.2415 44.1196 41.2415C42.0604 41.2415 40.3866 42.9154 40.3866 44.9746C40.3733 47.0337 42.0471 48.7075 44.1196 48.7075Z" fill="#E7CD1E"/>
<path d="M58.887 47.8022C60.5202 47.8022 61.8515 46.4709 61.8515 44.8377C61.8515 43.2045 60.5202 41.8732 58.887 41.8732C57.2538 41.8732 55.9226 43.2045 55.9226 44.8377C55.9226 46.4847 57.2401 47.8022 58.887 47.8022Z" fill="#2C1E4A"/>
<path d="M58.887 47.8022C60.5202 47.8022 61.8515 46.4709 61.8515 44.8377C61.8515 43.2045 60.5202 41.8732 58.887 41.8732C57.2538 41.8732 55.9226 43.2045 55.9226 44.8377C55.9226 46.4847 57.2401 47.8022 58.887 47.8022Z" fill="white"/>
<path d="M58.887 47.8022C60.5202 47.8022 61.8515 46.4709 61.8515 44.8377C61.8515 43.2045 60.5202 41.8732 58.887 41.8732C57.2538 41.8732 55.9226 43.2045 55.9226 44.8377C55.9226 46.4847 57.2401 47.8022 58.887 47.8022Z" fill="#E7CD1E"/>
<path d="M73.5309 46.2651C74.3132 46.2651 74.9445 45.6305 74.9445 44.8442C74.9445 44.0579 74.3132 43.4094 73.5172 43.4094C72.7349 43.4094 72.0898 44.0441 72.0898 44.8442C72.0898 45.6443 72.7486 46.2651 73.5309 46.2651Z" fill="#2C1E4A"/>
<path d="M73.5309 46.2651C74.3132 46.2651 74.9445 45.6305 74.9445 44.8442C74.9445 44.0579 74.3132 43.4094 73.5172 43.4094C72.7349 43.4094 72.0898 44.0441 72.0898 44.8442C72.0898 45.6443 72.7486 46.2651 73.5309 46.2651Z" fill="white"/>
<path d="M73.5309 46.2651C74.3132 46.2651 74.9445 45.6305 74.9445 44.8442C74.9445 44.0579 74.3132 43.4094 73.5172 43.4094C72.7349 43.4094 72.0898 44.0441 72.0898 44.8442C72.0898 45.6443 72.7486 46.2651 73.5309 46.2651Z" fill="#E7CD1E"/>
<path d="M14.7374 61.2383C15.5856 61.2383 16.2762 60.5478 16.2762 59.6996C16.2762 58.8514 15.5856 58.1608 14.7374 58.1608C13.8893 58.1608 13.1987 58.8514 13.1987 59.6996C13.1987 60.5478 13.8893 61.2383 14.7374 61.2383Z" fill="#2C1E4A"/>
<path d="M14.7374 61.2383C15.5856 61.2383 16.2762 60.5478 16.2762 59.6996C16.2762 58.8514 15.5856 58.1608 14.7374 58.1608C13.8893 58.1608 13.1987 58.8514 13.1987 59.6996C13.1987 60.5478 13.8893 61.2383 14.7374 61.2383Z" fill="white"/>
<path d="M14.7374 61.2383C15.5856 61.2383 16.2762 60.5478 16.2762 59.6996C16.2762 58.8514 15.5856 58.1608 14.7374 58.1608C13.8893 58.1608 13.1987 58.8514 13.1987 59.6996C13.1987 60.5478 13.8893 61.2383 14.7374 61.2383Z" fill="#E7CD1E"/>
<path d="M29.5024 62.8989C31.3371 62.8989 32.8235 61.4095 32.8235 59.5712C32.8235 57.7329 31.3371 56.2299 29.489 56.2299C27.641 56.2299 26.1545 57.7195 26.1545 59.5712C26.1545 61.4229 27.6678 62.8989 29.5024 62.8989Z" fill="#2C1E4A"/>
<path d="M29.5024 62.8989C31.3371 62.8989 32.8235 61.4095 32.8235 59.5712C32.8235 57.7329 31.3371 56.2299 29.489 56.2299C27.641 56.2299 26.1545 57.7195 26.1545 59.5712C26.1545 61.4229 27.6678 62.8989 29.5024 62.8989Z" fill="white"/>
<path d="M29.5024 62.8989C31.3371 62.8989 32.8235 61.4095 32.8235 59.5712C32.8235 57.7329 31.3371 56.2299 29.489 56.2299C27.641 56.2299 26.1545 57.7195 26.1545 59.5712C26.1545 61.4229 27.6678 62.8989 29.5024 62.8989Z" fill="#E7CD1E"/>
<path d="M44.1198 63.5571C46.3021 63.5571 48.0586 61.7874 48.0586 59.6184C48.0586 57.436 46.2888 55.6794 44.1198 55.6794C41.9507 55.6794 40.1809 57.436 40.1809 59.6184C40.1809 61.7874 41.9374 63.5571 44.1198 63.5571Z" fill="#2C1E4A"/>
<path d="M44.1198 63.5571C46.3021 63.5571 48.0586 61.7874 48.0586 59.6184C48.0586 57.436 46.2888 55.6794 44.1198 55.6794C41.9507 55.6794 40.1809 57.436 40.1809 59.6184C40.1809 61.7874 41.9374 63.5571 44.1198 63.5571Z" fill="white"/>
<path d="M44.1198 63.5571C46.3021 63.5571 48.0586 61.7874 48.0586 59.6184C48.0586 57.436 46.2888 55.6794 44.1198 55.6794C41.9507 55.6794 40.1809 57.436 40.1809 59.6184C40.1809 61.7874 41.9374 63.5571 44.1198 63.5571Z" fill="#E7CD1E"/>
<path d="M59.0513 62.6655C60.8845 62.6655 62.3858 61.1788 62.3858 59.3311C62.3858 57.4834 60.899 55.9965 59.0513 55.9965C57.2036 55.9965 55.7168 57.4834 55.7168 59.3311C55.7168 61.1644 57.2036 62.6655 59.0513 62.6655Z" fill="#2C1E4A"/>
<path d="M59.0513 62.6655C60.8845 62.6655 62.3858 61.1788 62.3858 59.3311C62.3858 57.4834 60.899 55.9965 59.0513 55.9965C57.2036 55.9965 55.7168 57.4834 55.7168 59.3311C55.7168 61.1644 57.2036 62.6655 59.0513 62.6655Z" fill="white"/>
<path d="M59.0513 62.6655C60.8845 62.6655 62.3858 61.1788 62.3858 59.3311C62.3858 57.4834 60.899 55.9965 59.0513 55.9965C57.2036 55.9965 55.7168 57.4834 55.7168 59.3311C55.7168 61.1644 57.2036 62.6655 59.0513 62.6655Z" fill="#E7CD1E"/>
<path d="M73.5189 61.0327C74.3632 61.0327 75.0577 60.3465 75.0577 59.4956C75.0577 58.6447 74.3768 57.9447 73.5189 57.9585C72.6746 57.9585 71.9938 58.6447 71.9802 59.4956C71.9938 60.3465 72.6746 61.0327 73.5189 61.0327Z" fill="#2C1E4A"/>
<path d="M73.5189 61.0327C74.3632 61.0327 75.0577 60.3465 75.0577 59.4956C75.0577 58.6447 74.3768 57.9447 73.5189 57.9585C72.6746 57.9585 71.9938 58.6447 71.9802 59.4956C71.9938 60.3465 72.6746 61.0327 73.5189 61.0327Z" fill="white"/>
<path d="M73.5189 61.0327C74.3632 61.0327 75.0577 60.3465 75.0577 59.4956C75.0577 58.6447 74.3768 57.9447 73.5189 57.9585C72.6746 57.9585 71.9938 58.6447 71.9802 59.4956C71.9938 60.3465 72.6746 61.0327 73.5189 61.0327Z" fill="#E7CD1E"/>
<path d="M14.7504 75.7993C15.5641 75.7993 16.2199 75.1434 16.2199 74.3298C16.2199 73.5162 15.5641 72.8604 14.7504 72.8604C13.9367 72.8604 13.281 73.5162 13.281 74.3298C13.281 75.1434 13.9367 75.7993 14.7504 75.7993Z" fill="#2C1E4A"/>
<path d="M14.7504 75.7993C15.5641 75.7993 16.2199 75.1434 16.2199 74.3298C16.2199 73.5162 15.5641 72.8604 14.7504 72.8604C13.9367 72.8604 13.281 73.5162 13.281 74.3298C13.281 75.1434 13.9367 75.7993 14.7504 75.7993Z" fill="white"/>
<path d="M14.7504 75.7993C15.5641 75.7993 16.2199 75.1434 16.2199 74.3298C16.2199 73.5162 15.5641 72.8604 14.7504 72.8604C13.9367 72.8604 13.281 73.5162 13.281 74.3298C13.281 75.1434 13.9367 75.7993 14.7504 75.7993Z" fill="#E7CD1E"/>
<path d="M29.5855 77.4741C31.4246 77.4741 32.9205 75.9781 32.9205 74.139C32.9205 72.3 31.4246 70.8041 29.5855 70.8041C27.7464 70.8041 26.2505 72.3 26.2505 74.139C26.2642 75.9781 27.7464 77.4741 29.5855 77.4741Z" fill="#2C1E4A"/>
<path d="M29.5855 77.4741C31.4246 77.4741 32.9205 75.9781 32.9205 74.139C32.9205 72.3 31.4246 70.8041 29.5855 70.8041C27.7464 70.8041 26.2505 72.3 26.2505 74.139C26.2642 75.9781 27.7464 77.4741 29.5855 77.4741Z" fill="white"/>
<path d="M29.5855 77.4741C31.4246 77.4741 32.9205 75.9781 32.9205 74.139C32.9205 72.3 31.4246 70.8041 29.5855 70.8041C27.7464 70.8041 26.2505 72.3 26.2505 74.139C26.2642 75.9781 27.7464 77.4741 29.5855 77.4741Z" fill="#E7CD1E"/>
<path d="M44.2431 78.0781C46.4253 78.0781 48.182 76.3077 48.182 74.1392C48.182 71.9571 46.4115 70.2004 44.2431 70.2004C42.0746 70.2004 40.3042 71.9708 40.3042 74.1392C40.3042 76.3077 42.0609 78.0781 44.2431 78.0781Z" fill="#2C1E4A"/>
<path d="M44.2431 78.0781C46.4253 78.0781 48.182 76.3077 48.182 74.1392C48.182 71.9571 46.4115 70.2004 44.2431 70.2004C42.0746 70.2004 40.3042 71.9708 40.3042 74.1392C40.3042 76.3077 42.0609 78.0781 44.2431 78.0781Z" fill="white"/>
<path d="M44.2431 78.0781C46.4253 78.0781 48.182 76.3077 48.182 74.1392C48.182 71.9571 46.4115 70.2004 44.2431 70.2004C42.0746 70.2004 40.3042 71.9708 40.3042 74.1392C40.3042 76.3077 42.0609 78.0781 44.2431 78.0781Z" fill="#E7CD1E"/>
<path d="M59.1333 77.2271C60.971 77.227 62.4678 75.7302 62.4678 73.8926C62.4678 72.0549 60.971 70.5581 59.1333 70.5581C57.2956 70.5581 55.7988 72.0549 55.7988 73.8926C55.7988 75.7302 57.2956 77.2271 59.1333 77.2271Z" fill="#2C1E4A"/>
<path d="M59.1333 77.2271C60.971 77.227 62.4678 75.7302 62.4678 73.8926C62.4678 72.0549 60.971 70.5581 59.1333 70.5581C57.2956 70.5581 55.7988 72.0549 55.7988 73.8926C55.7988 75.7302 57.2956 77.2271 59.1333 77.2271Z" fill="white"/>
<path d="M59.1333 77.2271C60.971 77.227 62.4678 75.7302 62.4678 73.8926C62.4678 72.0549 60.971 70.5581 59.1333 70.5581C57.2956 70.5581 55.7988 72.0549 55.7988 73.8926C55.7988 75.7302 57.2956 77.2271 59.1333 77.2271Z" fill="#E7CD1E"/>
<path d="M73.5386 75.6079C74.3526 75.6079 75.0011 74.949 75.0011 74.1393C75.0011 73.3296 74.3389 72.6709 73.5248 72.6709C72.7108 72.6709 72.0623 73.3296 72.0623 74.1393C72.0761 74.949 72.7245 75.6079 73.5386 75.6079Z" fill="#2C1E4A"/>
<path d="M73.5386 75.6079C74.3526 75.6079 75.0011 74.949 75.0011 74.1393C75.0011 73.3296 74.3389 72.6709 73.5248 72.6709C72.7108 72.6709 72.0623 73.3296 72.0623 74.1393C72.0761 74.949 72.7245 75.6079 73.5386 75.6079Z" fill="white"/>
<path d="M73.5386 75.6079C74.3526 75.6079 75.0011 74.949 75.0011 74.1393C75.0011 73.3296 74.3389 72.6709 73.5248 72.6709C72.7108 72.6709 72.0623 73.3296 72.0623 74.1393C72.0761 74.949 72.7245 75.6079 73.5386 75.6079Z" fill="#E7CD1E"/>
<path d="M14.7769 90.3335C15.5375 90.3335 16.1632 89.7051 16.1632 88.9412C16.1632 88.1772 15.5497 87.5488 14.7769 87.5611C14.0162 87.5611 13.3906 88.1772 13.3906 88.9412C13.3906 89.7051 14.0162 90.3335 14.7769 90.3335Z" fill="#2C1E4A"/>
<path d="M14.7769 90.3335C15.5375 90.3335 16.1632 89.7051 16.1632 88.9412C16.1632 88.1772 15.5497 87.5488 14.7769 87.5611C14.0162 87.5611 13.3906 88.1772 13.3906 88.9412C13.3906 89.7051 14.0162 90.3335 14.7769 90.3335Z" fill="white"/>
<path d="M14.7769 90.3335C15.5375 90.3335 16.1632 89.7051 16.1632 88.9412C16.1632 88.1772 15.5497 87.5488 14.7769 87.5611C14.0162 87.5611 13.3906 88.1772 13.3906 88.9412C13.3906 89.7051 14.0162 90.3335 14.7769 90.3335Z" fill="#E7CD1E"/>
<path d="M29.8318 91.8711C31.6695 91.8711 33.1663 90.3743 33.1663 88.5366C33.1663 86.6989 31.6695 85.2021 29.8318 85.2021C27.9941 85.2021 26.4973 86.6989 26.4973 88.5366C26.4973 90.3891 27.9941 91.8711 29.8318 91.8711Z" fill="#2C1E4A"/>
<path d="M29.8318 91.8711C31.6695 91.8711 33.1663 90.3743 33.1663 88.5366C33.1663 86.6989 31.6695 85.2021 29.8318 85.2021C27.9941 85.2021 26.4973 86.6989 26.4973 88.5366C26.4973 90.3891 27.9941 91.8711 29.8318 91.8711Z" fill="white"/>
<path d="M29.8318 91.8711C31.6695 91.8711 33.1663 90.3743 33.1663 88.5366C33.1663 86.6989 31.6695 85.2021 29.8318 85.2021C27.9941 85.2021 26.4973 86.6989 26.4973 88.5366C26.4973 90.3891 27.9941 91.8711 29.8318 91.8711Z" fill="#E7CD1E"/>
<path d="M44.2429 92.5298C46.3016 92.5298 47.9759 90.8555 47.9759 88.7968C47.9759 86.7381 46.3016 85.0638 44.2429 85.0638C42.1843 85.0638 40.5098 86.7381 40.5098 88.7968C40.4961 90.8555 42.1705 92.5298 44.2429 92.5298Z" fill="#2C1E4A"/>
<path d="M44.2429 92.5298C46.3016 92.5298 47.9759 90.8555 47.9759 88.7968C47.9759 86.7381 46.3016 85.0638 44.2429 85.0638C42.1843 85.0638 40.5098 86.7381 40.5098 88.7968C40.4961 90.8555 42.1705 92.5298 44.2429 92.5298Z" fill="white"/>
<path d="M44.2429 92.5298C46.3016 92.5298 47.9759 90.8555 47.9759 88.7968C47.9759 86.7381 46.3016 85.0638 44.2429 85.0638C42.1843 85.0638 40.5098 86.7381 40.5098 88.7968C40.4961 90.8555 42.1705 92.5298 44.2429 92.5298Z" fill="#E7CD1E"/>
<path d="M59.3802 91.6377C61.2165 91.6377 62.7147 90.1397 62.7147 88.3033C62.7146 86.4669 61.2165 84.9687 59.3802 84.9687C57.5438 84.9687 56.0457 86.4669 56.0457 88.3033C56.0457 90.1397 57.5277 91.6377 59.3802 91.6377Z" fill="#2C1E4A"/>
<path d="M59.3802 91.6377C61.2165 91.6377 62.7147 90.1397 62.7147 88.3033C62.7146 86.4669 61.2165 84.9687 59.3802 84.9687C57.5438 84.9687 56.0457 86.4669 56.0457 88.3033C56.0457 90.1397 57.5277 91.6377 59.3802 91.6377Z" fill="white"/>
<path d="M59.3802 91.6377C61.2165 91.6377 62.7147 90.1397 62.7147 88.3033C62.7146 86.4669 61.2165 84.9687 59.3802 84.9687C57.5438 84.9687 56.0457 86.4669 56.0457 88.3033C56.0457 90.1397 57.5277 91.6377 59.3802 91.6377Z" fill="#E7CD1E"/>
<path d="M73.5309 90.1689C74.2857 90.1689 74.917 89.5513 74.917 88.7828C74.917 88.0142 74.2994 87.3966 73.5309 87.3966C72.7623 87.3966 72.1448 88.0142 72.1448 88.7828C72.1448 89.5513 72.776 90.1689 73.5309 90.1689Z" fill="#2C1E4A"/>
<path d="M73.5309 90.1689C74.2857 90.1689 74.917 89.5513 74.917 88.7828C74.917 88.0142 74.2994 87.3966 73.5309 87.3966C72.7623 87.3966 72.1448 88.0142 72.1448 88.7828C72.1448 89.5513 72.776 90.1689 73.5309 90.1689Z" fill="white"/>
<path d="M73.5309 90.1689C74.2857 90.1689 74.917 89.5513 74.917 88.7828C74.917 88.0142 74.2994 87.3966 73.5309 87.3966C72.7623 87.3966 72.1448 88.0142 72.1448 88.7828C72.1448 89.5513 72.776 90.1689 73.5309 90.1689Z" fill="#E7CD1E"/>
<path d="M14.7335 104.812C15.3869 104.812 15.9119 104.287 15.9119 103.634C15.9119 102.981 15.3869 102.456 14.7335 102.456C14.0801 102.456 13.5552 102.981 13.5552 103.634C13.5552 104.287 14.0801 104.812 14.7335 104.812Z" fill="#2C1E4A"/>
<path d="M14.7335 104.812C15.3869 104.812 15.9119 104.287 15.9119 103.634C15.9119 102.981 15.3869 102.456 14.7335 102.456C14.0801 102.456 13.5552 102.981 13.5552 103.634C13.5552 104.287 14.0801 104.812 14.7335 104.812Z" fill="white"/>
<path d="M14.7335 104.812C15.3869 104.812 15.9119 104.287 15.9119 103.634C15.9119 102.981 15.3869 102.456 14.7335 102.456C14.0801 102.456 13.5552 102.981 13.5552 103.634C13.5552 104.287 14.0801 104.812 14.7335 104.812Z" fill="#E7CD1E"/>
<path d="M29.3362 106.24C30.7491 106.24 31.8869 105.102 31.8869 103.689C31.8869 102.277 30.7491 101.139 29.3362 101.139C27.9233 101.139 26.7854 102.277 26.7854 103.689C26.7854 105.09 27.9358 106.24 29.3362 106.24Z" fill="#2C1E4A"/>
<path d="M29.3362 106.24C30.7491 106.24 31.8869 105.102 31.8869 103.689C31.8869 102.277 30.7491 101.139 29.3362 101.139C27.9233 101.139 26.7854 102.277 26.7854 103.689C26.7854 105.09 27.9358 106.24 29.3362 106.24Z" fill="white"/>
<path d="M29.3362 106.24C30.7491 106.24 31.8869 105.102 31.8869 103.689C31.8869 102.277 30.7491 101.139 29.3362 101.139C27.9233 101.139 26.7854 102.277 26.7854 103.689C26.7854 105.09 27.9358 106.24 29.3362 106.24Z" fill="#E7CD1E"/>
<path d="M43.9539 106.803C45.6604 106.803 47.0407 105.423 47.0407 103.716C47.0407 102.01 45.6604 100.63 43.9539 100.63C42.2475 100.63 40.8672 102.01 40.8672 103.716C40.8672 105.423 42.2475 106.803 43.9539 106.803Z" fill="#2C1E4A"/>
<path d="M43.9539 106.803C45.6604 106.803 47.0407 105.423 47.0407 103.716C47.0407 102.01 45.6604 100.63 43.9539 100.63C42.2475 100.63 40.8672 102.01 40.8672 103.716C40.8672 105.423 42.2475 106.803 43.9539 106.803Z" fill="white"/>
<path d="M43.9539 106.803C45.6604 106.803 47.0407 105.423 47.0407 103.716C47.0407 102.01 45.6604 100.63 43.9539 100.63C42.2475 100.63 40.8672 102.01 40.8672 103.716C40.8672 105.423 42.2475 106.803 43.9539 106.803Z" fill="#E7CD1E"/>
<path d="M58.8871 105.993C60.3007 105.993 61.4398 104.854 61.4398 103.44C61.4398 102.027 60.3007 100.888 58.8871 100.888C57.4735 100.888 56.3343 102.027 56.3343 103.44C56.3206 104.854 57.4735 105.993 58.8871 105.993Z" fill="#2C1E4A"/>
<path d="M58.8871 105.993C60.3007 105.993 61.4398 104.854 61.4398 103.44C61.4398 102.027 60.3007 100.888 58.8871 100.888C57.4735 100.888 56.3343 102.027 56.3343 103.44C56.3206 104.854 57.4735 105.993 58.8871 105.993Z" fill="white"/>
<path d="M58.8871 105.993C60.3007 105.993 61.4398 104.854 61.4398 103.44C61.4398 102.027 60.3007 100.888 58.8871 100.888C57.4735 100.888 56.3343 102.027 56.3343 103.44C56.3206 104.854 57.4735 105.993 58.8871 105.993Z" fill="#E7CD1E"/>
<path d="M73.5311 104.607C74.1761 104.607 74.7115 104.085 74.7115 103.426C74.7115 102.781 74.1899 102.246 73.5311 102.246C72.8861 102.246 72.3508 102.781 72.3508 103.426C72.3508 104.085 72.8861 104.607 73.5311 104.607Z" fill="#2C1E4A"/>
<path d="M73.5311 104.607C74.1761 104.607 74.7115 104.085 74.7115 103.426C74.7115 102.781 74.1899 102.246 73.5311 102.246C72.8861 102.246 72.3508 102.781 72.3508 103.426C72.3508 104.085 72.8861 104.607 73.5311 104.607Z" fill="white"/>
<path d="M73.5311 104.607C74.1761 104.607 74.7115 104.085 74.7115 103.426C74.7115 102.781 74.1899 102.246 73.5311 102.246C72.8861 102.246 72.3508 102.781 72.3508 103.426C72.3508 104.085 72.8861 104.607 73.5311 104.607Z" fill="#E7CD1E"/>
<path d="M14.9416 119.224C15.5729 119.224 16.0807 118.716 16.0807 118.085C16.0807 117.453 15.5729 116.946 14.9416 116.946C14.3102 116.946 13.8025 117.453 13.8025 118.085C13.8025 118.716 14.3102 119.224 14.9416 119.224Z" fill="#2C1E4A"/>
<path d="M14.9416 119.224C15.5729 119.224 16.0807 118.716 16.0807 118.085C16.0807 117.453 15.5729 116.946 14.9416 116.946C14.3102 116.946 13.8025 117.453 13.8025 118.085C13.8025 118.716 14.3102 119.224 14.9416 119.224Z" fill="white"/>
<path d="M14.9416 119.224C15.5729 119.224 16.0807 118.716 16.0807 118.085C16.0807 117.453 15.5729 116.946 14.9416 116.946C14.3102 116.946 13.8025 117.453 13.8025 118.085C13.8025 118.716 14.3102 119.224 14.9416 119.224Z" fill="#E7CD1E"/>
<path d="M28.5655 120.514C29.3487 120.514 29.98 119.884 29.98 119.095C29.98 118.306 29.3487 117.676 28.5655 117.676C27.7822 117.676 27.1428 118.306 27.1428 119.095C27.1508 119.884 27.7822 120.514 28.5655 120.514Z" fill="#2C1E4A"/>
<path d="M28.5655 120.514C29.3487 120.514 29.98 119.884 29.98 119.095C29.98 118.306 29.3487 117.676 28.5655 117.676C27.7822 117.676 27.1428 118.306 27.1428 119.095C27.1508 119.884 27.7822 120.514 28.5655 120.514Z" fill="white"/>
<path d="M28.5655 120.514C29.3487 120.514 29.98 119.884 29.98 119.095C29.98 118.306 29.3487 117.676 28.5655 117.676C27.7822 117.676 27.1428 118.306 27.1428 119.095C27.1508 119.884 27.7822 120.514 28.5655 120.514Z" fill="#E7CD1E"/>
<path d="M43.2284 121.049C44.3027 121.049 45.1783 120.173 45.1783 119.099C45.1783 118.025 44.3027 117.149 43.2284 117.149C42.1541 117.149 41.2784 118.025 41.2784 119.099C41.2694 120.173 42.1451 121.049 43.2284 121.049Z" fill="#2C1E4A"/>
<path d="M43.2284 121.049C44.3027 121.049 45.1783 120.173 45.1783 119.099C45.1783 118.025 44.3027 117.149 43.2284 117.149C42.1541 117.149 41.2784 118.025 41.2784 119.099C41.2694 120.173 42.1451 121.049 43.2284 121.049Z" fill="white"/>
<path d="M43.2284 121.049C44.3027 121.049 45.1783 120.173 45.1783 119.099C45.1783 118.025 44.3027 117.149 43.2284 117.149C42.1541 117.149 41.2784 118.025 41.2784 119.099C41.2694 120.173 42.1451 121.049 43.2284 121.049Z" fill="#E7CD1E"/>
<path d="M58.1097 120.28C58.89 120.28 59.5284 119.651 59.5284 118.862C59.5284 118.081 58.8988 117.443 58.1097 117.443C57.3295 117.443 56.6912 118.073 56.6912 118.862C56.6912 119.642 57.3295 120.28 58.1097 120.28Z" fill="#2C1E4A"/>
<path d="M58.1097 120.28C58.89 120.28 59.5284 119.651 59.5284 118.862C59.5284 118.081 58.8988 117.443 58.1097 117.443C57.3295 117.443 56.6912 118.073 56.6912 118.862C56.6912 119.642 57.3295 120.28 58.1097 120.28Z" fill="white"/>
<path d="M58.1097 120.28C58.89 120.28 59.5284 119.651 59.5284 118.862C59.5284 118.081 58.8988 117.443 58.1097 117.443C57.3295 117.443 56.6912 118.073 56.6912 118.862C56.6912 119.642 57.3295 120.28 58.1097 120.28Z" fill="#E7CD1E"/>
<path d="M73.5307 119.1C74.0934 119.1 74.5464 118.647 74.5464 118.085C74.5464 117.522 74.0934 117.069 73.5307 117.069C72.968 117.069 72.5151 117.522 72.5151 118.085C72.5151 118.647 72.968 119.1 73.5307 119.1Z" fill="#2C1E4A"/>
<path d="M73.5307 119.1C74.0934 119.1 74.5464 118.647 74.5464 118.085C74.5464 117.522 74.0934 117.069 73.5307 117.069C72.968 117.069 72.5151 117.522 72.5151 118.085C72.5151 118.647 72.968 119.1 73.5307 119.1Z" fill="white"/>
<path d="M73.5307 119.1C74.0934 119.1 74.5464 118.647 74.5464 118.085C74.5464 117.522 74.0934 117.069 73.5307 117.069C72.968 117.069 72.5151 117.522 72.5151 118.085C72.5151 118.647 72.968 119.1 73.5307 119.1Z" fill="#E7CD1E"/>
<path d="M14.3369 133.703C14.54 133.703 14.7066 133.536 14.7066 133.333C14.7066 133.13 14.54 132.963 14.3369 132.963C14.1339 132.963 13.9673 133.13 13.9673 133.333C13.9673 133.536 14.1339 133.703 14.3369 133.703Z" fill="#2C1E4A"/>
<path d="M14.3369 133.703C14.54 133.703 14.7066 133.536 14.7066 133.333C14.7066 133.13 14.54 132.963 14.3369 132.963C14.1339 132.963 13.9673 133.13 13.9673 133.333C13.9673 133.536 14.1339 133.703 14.3369 133.703Z" fill="white"/>
<path d="M14.3369 133.703C14.54 133.703 14.7066 133.536 14.7066 133.333C14.7066 133.13 14.54 132.963 14.3369 132.963C14.1339 132.963 13.9673 133.13 13.9673 133.333C13.9673 133.536 14.1339 133.703 14.3369 133.703Z" fill="#E7CD1E"/>
<path d="M28.4875 134.718C28.9796 134.718 29.3794 134.319 29.3794 133.826C29.3794 133.334 28.9796 132.935 28.4875 132.935C27.9955 132.935 27.5957 133.334 27.5957 133.826C27.5957 134.319 27.9955 134.718 28.4875 134.718Z" fill="#2C1E4A"/>
<path d="M28.4875 134.718C28.9796 134.718 29.3794 134.319 29.3794 133.826C29.3794 133.334 28.9796 132.935 28.4875 132.935C27.9955 132.935 27.5957 133.334 27.5957 133.826C27.5957 134.319 27.9955 134.718 28.4875 134.718Z" fill="white"/>
<path d="M28.4875 134.718C28.9796 134.718 29.3794 134.319 29.3794 133.826C29.3794 133.334 28.9796 132.935 28.4875 132.935C27.9955 132.935 27.5957 133.334 27.5957 133.826C27.5957 134.319 27.9955 134.718 28.4875 134.718Z" fill="#E7CD1E"/>
<path d="M57.9534 134.554C58.4428 134.554 58.8452 134.151 58.8452 133.662C58.8452 133.166 58.4428 132.77 57.9534 132.77C57.4572 132.77 57.0615 133.172 57.0615 133.662C57.0615 134.158 57.4572 134.554 57.9534 134.554Z" fill="#2C1E4A"/>
<path d="M57.9534 134.554C58.4428 134.554 58.8452 134.151 58.8452 133.662C58.8452 133.166 58.4428 132.77 57.9534 132.77C57.4572 132.77 57.0615 133.172 57.0615 133.662C57.0615 134.158 57.4572 134.554 57.9534 134.554Z" fill="white"/>
<path d="M57.9534 134.554C58.4428 134.554 58.8452 134.151 58.8452 133.662C58.8452 133.166 58.4428 132.77 57.9534 132.77C57.4572 132.77 57.0615 133.172 57.0615 133.662C57.0615 134.158 57.4572 134.554 57.9534 134.554Z" fill="#E7CD1E"/>
<path d="M73.0496 133.579C73.2523 133.579 73.4193 133.412 73.4193 133.209C73.4193 133.007 73.2523 132.84 73.0496 132.84C72.8469 132.84 72.6799 133.007 72.6799 133.209C72.6799 133.418 72.8469 133.579 73.0496 133.579Z" fill="#2C1E4A"/>
<path d="M73.0496 133.579C73.2523 133.579 73.4193 133.412 73.4193 133.209C73.4193 133.007 73.2523 132.84 73.0496 132.84C72.8469 132.84 72.6799 133.007 72.6799 133.209C72.6799 133.418 72.8469 133.579 73.0496 133.579Z" fill="white"/>
<path d="M73.0496 133.579C73.2523 133.579 73.4193 133.412 73.4193 133.209C73.4193 133.007 73.2523 132.84 73.0496 132.84C72.8469 132.84 72.6799 133.007 72.6799 133.209C72.6799 133.418 72.8469 133.579 73.0496 133.579Z" fill="#E7CD1E"/>
</svg>
