<svg width="135" height="40" viewBox="0 0 135 40" fill="none" xmlns="http://www.w3.org/2000/svg">
<path d="M20 40C31.0457 40 40 31.0457 40 20C40 8.9543 31.0457 0 20 0C8.9543 0 0 8.9543 0 20C0 31.0457 8.9543 40 20 40Z" fill="#E7CD1E"/>
<path d="M10.1718 22.5844C10.6459 24.2995 11.9324 25.157 14.0313 25.157C14.6147 25.1946 15.1984 25.0899 15.7324 24.852C16.2663 24.6141 16.7345 24.25 17.0967 23.7912L19.9435 25.4331C19.2833 26.3916 18.3877 27.1642 17.3428 27.6767C16.2979 28.1893 15.1387 28.4245 13.9767 28.36C12.9772 28.4065 11.9787 28.2489 11.0422 27.8966C10.1057 27.5444 9.25086 27.0049 8.52984 26.3112C7.48944 25.3019 6.77694 24.0029 6.48506 22.5831C6.19317 21.1633 6.33542 19.6885 6.89328 18.3507C7.45115 17.0128 8.39881 15.8739 9.61292 15.0821C10.827 14.2903 12.2514 13.8823 13.7006 13.9112C14.6289 13.8845 15.5523 14.0563 16.409 14.415C17.2657 14.7737 18.036 15.311 18.6684 15.9912C19.9745 17.381 20.678 19.231 20.6255 21.1375C20.6227 21.6242 20.577 22.1096 20.4889 22.5883L10.1718 22.5844ZM10.1172 19.8468H17.0976C16.9604 19.0209 16.5152 18.2776 15.8518 17.7668C15.2287 17.3136 14.4758 17.0741 13.7054 17.0839C12.8611 17.0508 12.0308 17.3065 11.3513 17.8088C10.7116 18.3207 10.274 19.0428 10.1162 19.8468H10.1172Z" fill="white"/>
<path d="M29.4966 28.36C27.5801 28.36 25.742 27.5986 24.3868 26.2434C23.0316 24.8882 22.2703 23.0502 22.2703 21.1337C22.2703 19.2171 23.0316 17.3791 24.3868 16.0239C25.742 14.6687 27.5801 13.9073 29.4966 13.9073C30.7744 13.893 32.0323 14.224 33.1376 14.8654C34.196 15.4691 35.059 16.3636 35.6244 17.4429L32.5864 19.2224C32.316 18.6601 31.8821 18.1925 31.3415 17.881C30.7729 17.5492 30.1246 17.3789 29.4664 17.3883C28.9795 17.3736 28.4948 17.4597 28.0428 17.641C27.5907 17.8223 27.1809 18.0949 26.839 18.4419C26.1695 19.1751 25.7983 20.132 25.7983 21.1249C25.7983 22.1177 26.1695 23.0747 26.839 23.8078C27.1808 24.1549 27.5906 24.4276 28.0427 24.609C28.4948 24.7903 28.9795 24.8762 29.4664 24.8615C30.1318 24.8732 30.7883 24.7079 31.3688 24.3824C31.9106 24.0786 32.3454 23.6149 32.6137 23.0546L35.679 24.8107C35.0782 25.8861 34.1985 26.7795 33.1327 27.3971C32.0309 28.0429 30.7737 28.3758 29.4966 28.36Z" fill="white"/>
<path d="M48.9854 26.2663C47.7967 27.4696 46.2273 28.2229 44.545 28.3978C42.8627 28.5726 41.1719 28.158 39.7613 27.2249C38.3507 26.2917 37.3077 24.8978 36.8105 23.2812C36.3133 21.6646 36.3926 19.9255 37.035 18.3609C37.6774 16.7963 38.8429 15.5032 40.3327 14.7024C41.8224 13.9016 43.5439 13.6427 45.2033 13.97C46.8627 14.2973 48.357 15.1905 49.4311 16.497C50.5052 17.8035 51.0925 19.4423 51.0927 21.1336C51.1083 22.0874 50.9296 23.0344 50.5673 23.9169C50.205 24.7993 49.6667 25.5987 48.9854 26.2663ZM41.198 23.8439C41.541 24.1941 41.9526 24.4697 42.407 24.6534C42.8615 24.837 43.349 24.9248 43.839 24.9112C44.331 24.9237 44.8204 24.8355 45.2771 24.652C45.7338 24.4684 46.1481 24.1934 46.4946 23.8439C47.1805 23.1083 47.5619 22.1399 47.5619 21.1341C47.5619 20.1284 47.1805 19.16 46.4946 18.4244C46.1481 18.0748 45.7338 17.7998 45.2771 17.6163C44.8204 17.4327 44.331 17.3445 43.839 17.3571C43.349 17.3435 42.8615 17.4312 42.407 17.6149C41.9526 17.7986 41.541 18.0741 41.198 18.4244C40.5202 19.164 40.1442 20.1309 40.1442 21.1341C40.1442 22.1374 40.5202 23.1042 41.198 23.8439Z" fill="#2C1E4A"/>
<path d="M61.1942 13.9073C61.8829 13.8868 62.5682 14.0101 63.2065 14.2693C63.8448 14.5285 64.4221 14.9179 64.9016 15.4127C65.4088 15.9748 65.7994 16.6321 66.0506 17.3464C66.3018 18.0607 66.4087 18.8177 66.365 19.5737V27.9795H62.8342V20.0146C62.86 19.6335 62.8077 19.2512 62.6806 18.891C62.5534 18.5308 62.3541 18.2004 62.0947 17.92C61.8316 17.6732 61.5215 17.4818 61.183 17.3571C60.8445 17.2324 60.4843 17.177 60.124 17.1941C59.72 17.1755 59.3165 17.2413 58.9393 17.3875C58.5622 17.5336 58.2197 17.7569 57.9337 18.0429C57.3367 18.7508 57.0417 19.6649 57.1123 20.5883V27.9795H53.5815V14.2907H57.1123V15.8234C57.5681 15.1775 58.1841 14.6613 58.8998 14.3253C59.6154 13.9894 60.4061 13.8454 61.1942 13.9073Z" fill="#2C1E4A"/>
<path d="M78.1377 14.2907H82.0235L76.8235 27.9766H72.8001L67.5991 14.2907H71.4869L74.804 23.8693L78.1377 14.2907Z" fill="#2C1E4A"/>
<path d="M86.1581 22.5844C86.6323 24.2995 87.9188 25.157 90.0176 25.157C90.601 25.1946 91.1847 25.0899 91.7187 24.852C92.2526 24.6141 92.7208 24.25 93.083 23.7912L95.9298 25.4331C95.2696 26.3916 94.374 27.1642 93.3291 27.6767C92.2842 28.1893 91.125 28.4245 89.963 28.36C88.9634 28.4067 87.9647 28.2491 87.028 27.8968C86.0914 27.5445 85.2363 27.005 84.5152 26.3112C83.4748 25.3019 82.7623 24.0029 82.4704 22.5831C82.1785 21.1633 82.3208 19.6885 82.8786 18.3507C83.4365 17.0128 84.3842 15.8739 85.5983 15.0821C86.8124 14.2903 88.2367 13.8823 89.6859 13.9112C90.6143 13.8845 91.5377 14.0563 92.3943 14.415C93.251 14.7737 94.0213 15.311 94.6537 15.9912C95.9597 17.3812 96.6631 19.231 96.6108 21.1375C96.608 21.6242 96.5624 22.1096 96.4742 22.5883L86.1581 22.5844ZM86.1035 19.8468H93.083C92.9458 19.0208 92.5006 18.2776 91.8371 17.7668C91.2141 17.3136 90.4612 17.0741 89.6908 17.0839C88.8465 17.0509 88.0162 17.3066 87.3367 17.8088C86.6976 18.321 86.2607 19.043 86.1035 19.8468Z" fill="#2C1E4A"/>
<path d="M102.608 16.6439C102.899 15.8137 103.476 15.1148 104.237 14.6732C105.009 14.2311 105.885 14.0043 106.774 14.0166V17.958C105.763 17.8153 104.735 18.049 103.886 18.6146C103.449 18.9351 103.103 19.3632 102.88 19.8573C102.658 20.3514 102.568 20.8947 102.618 21.4341V27.9756H99.0742V14.2907H102.605L102.608 16.6439Z" fill="#2C1E4A"/>
<path d="M111.641 18.1775C111.641 18.5431 111.883 18.8396 112.366 19.0673C112.934 19.3248 113.525 19.5267 114.132 19.6702C114.838 19.8478 115.532 20.067 116.212 20.3268C116.912 20.597 117.524 21.0568 117.978 21.6546C118.477 22.3251 118.733 23.1459 118.703 23.9814C118.733 24.6107 118.605 25.2375 118.33 25.8044C118.055 26.3712 117.642 26.8598 117.129 27.2253C115.975 28.0141 114.598 28.4122 113.201 28.3609C110.391 28.3609 108.475 27.2754 107.453 25.1044L110.518 23.3795C110.69 23.9408 111.052 24.4249 111.541 24.7494C112.03 25.0739 112.617 25.2187 113.201 25.159C114.46 25.159 115.09 24.7665 115.09 23.9814C115.09 23.6166 114.848 23.32 114.364 23.0917C113.796 22.8338 113.205 22.6278 112.599 22.4761C111.893 22.29 111.198 22.0619 110.519 21.7931C109.827 21.5209 109.219 21.0726 108.753 20.4927C108.255 19.858 107.998 19.0676 108.028 18.2614C108.003 17.6494 108.125 17.0403 108.385 16.4854C108.644 15.9306 109.033 15.4462 109.519 15.0731C110.586 14.2739 111.894 13.8633 113.227 13.9092C114.287 13.8964 115.333 14.1557 116.265 14.6624C117.173 15.1602 117.922 15.9042 118.427 16.8088L115.416 18.4507C115.24 18.0205 114.935 17.6553 114.543 17.4053C114.151 17.1553 113.691 17.0328 113.227 17.0546C112.826 17.0394 112.43 17.1444 112.09 17.3561C111.95 17.4418 111.835 17.5628 111.756 17.7069C111.677 17.8511 111.638 18.0133 111.641 18.1775Z" fill="#2C1E4A"/>
<path d="M123.768 22.5844C124.242 24.2995 125.529 25.1571 127.627 25.1571C128.211 25.1946 128.795 25.0899 129.329 24.852C129.862 24.6141 130.331 24.2501 130.693 23.7912L133.54 25.4332C132.879 26.3918 131.984 27.1644 130.939 27.677C129.893 28.1895 128.734 28.4247 127.572 28.36C126.572 28.4065 125.574 28.2488 124.637 27.8966C123.701 27.5443 122.846 27.0049 122.125 26.3112C121.085 25.302 120.372 24.0029 120.08 22.5831C119.788 21.1633 119.931 19.6885 120.488 18.3507C121.046 17.0129 121.994 15.8739 123.208 15.0821C124.422 14.2903 125.847 13.8823 127.296 13.9112C128.224 13.8844 129.148 14.0561 130.005 14.4148C130.862 14.7735 131.632 15.3109 132.265 15.9912C133.571 17.3797 134.275 19.2281 134.225 21.1337C134.222 21.6203 134.176 22.1058 134.088 22.5844H123.768ZM123.712 19.8468H130.693C130.556 19.021 130.111 18.2778 129.448 17.7668C128.825 17.3137 128.072 17.0742 127.302 17.0839C126.458 17.0509 125.628 17.3066 124.948 17.8088C124.309 18.3208 123.871 19.0428 123.712 19.8468Z" fill="#2C1E4A"/>
</svg>
