<svg width="188" height="56" viewBox="0 0 188 56" fill="none" xmlns="http://www.w3.org/2000/svg">
<path d="M28 56C43.464 56 56 43.464 56 28C56 12.536 43.464 0 28 0C12.536 0 0 12.536 0 28C0 43.464 12.536 56 28 56Z" fill="white"/>
<path d="M14.2406 31.6184C14.9044 34.0195 16.7055 35.2201 19.6439 35.2201C20.4606 35.2727 21.2778 35.1261 22.0254 34.7931C22.7729 34.46 23.4284 33.9503 23.9354 33.3079L27.9209 35.6067C26.9966 36.9485 25.7428 38.0301 24.2799 38.7476C22.817 39.4652 21.1943 39.7946 19.5674 39.7042C18.1681 39.7694 16.7703 39.5487 15.4592 39.0555C14.1481 38.5624 12.9513 37.8071 11.9418 36.8359C10.4853 35.423 9.48777 33.6043 9.07913 31.6166C8.67048 29.6289 8.86963 27.5642 9.65065 25.6912C10.4317 23.8182 11.7584 22.2237 13.4581 21.1152C15.1579 20.0067 17.152 19.4355 19.1809 19.4759C20.4806 19.4386 21.7733 19.6791 22.9726 20.1812C24.172 20.6834 25.2504 21.4357 26.1358 22.3879C27.9643 24.3337 28.9492 26.9237 28.8757 29.5928C28.8718 30.2741 28.8078 30.9538 28.6845 31.6238L14.2406 31.6184ZM14.1641 27.7858H23.9368C23.7446 26.6295 23.1213 25.5889 22.1926 24.8738C21.3203 24.2393 20.2662 23.904 19.1877 23.9177C18.0056 23.8714 16.8432 24.2294 15.8919 24.9325C14.9963 25.6493 14.3837 26.6602 14.1627 27.7858H14.1641Z" fill="#2C1E4A"/>
<path d="M41.2954 39.7036C38.6122 39.7036 36.0389 38.6377 34.1416 36.7404C32.2444 34.8432 31.1785 32.2699 31.1785 29.5867C31.1785 26.9036 32.2444 24.3303 34.1416 22.433C36.0389 20.5357 38.6122 19.4699 41.2954 19.4699C43.0843 19.4498 44.8454 19.9132 46.3927 20.8111C47.8744 21.6563 49.0827 22.9087 49.8743 24.4197L45.621 26.911C45.2425 26.1237 44.6351 25.4691 43.8782 25.033C43.0821 24.5686 42.1745 24.3301 41.253 24.3432C40.5714 24.3227 39.8929 24.4431 39.26 24.697C38.627 24.9508 38.0533 25.3325 37.5748 25.8183C36.6374 26.8447 36.1177 28.1845 36.1177 29.5744C36.1177 30.9644 36.6374 32.3042 37.5748 33.3305C38.0532 33.8165 38.6269 34.1983 39.2599 34.4522C39.8928 34.706 40.5714 34.8264 41.253 34.8057C42.1845 34.8221 43.1037 34.5906 43.9164 34.135C44.6749 33.7097 45.2836 33.0605 45.6592 32.2761L49.9508 34.7346C49.1096 36.2401 47.878 37.491 46.3859 38.3555C44.8433 39.2597 43.0832 39.7258 41.2954 39.7036Z" fill="#2C1E4A"/>
<path d="M68.5796 36.7728C66.9155 38.4574 64.7183 39.5121 62.3631 39.7568C60.0079 40.0016 57.6408 39.4212 55.6659 38.1148C53.691 36.8084 52.2309 34.8569 51.5348 32.5937C50.8387 30.3304 50.9498 27.8957 51.8491 25.7053C52.7484 23.5148 54.3802 21.7045 56.4658 20.5833C58.5515 19.4622 60.9616 19.0998 63.2847 19.558C65.6079 20.0162 67.6999 21.2666 69.2036 23.0957C70.7074 24.9248 71.5296 27.2192 71.5298 29.5871C71.5518 30.9224 71.3015 32.2482 70.7943 33.4836C70.287 34.719 69.5335 35.8382 68.5796 36.7728ZM57.6773 33.3814C58.1575 33.8717 58.7337 34.2575 59.37 34.5147C60.0062 34.7718 60.6887 34.8947 61.3747 34.8756C62.0635 34.8932 62.7487 34.7697 63.3881 34.5127C64.0274 34.2558 64.6075 33.8708 65.0926 33.3814C66.0528 32.3515 66.5867 30.9958 66.5867 29.5877C66.5867 28.1797 66.0528 26.824 65.0926 25.7941C64.6075 25.3047 64.0274 24.9197 63.3881 24.6628C62.7487 24.4058 62.0635 24.2823 61.3747 24.2998C60.6887 24.2808 60.0062 24.4037 59.37 24.6608C58.7337 24.918 58.1575 25.3038 57.6773 25.7941C56.7284 26.8296 56.202 28.1832 56.202 29.5877C56.202 30.9923 56.7284 32.3459 57.6773 33.3814Z" fill="white"/>
<path d="M85.6719 19.4708C86.636 19.4421 87.5955 19.6147 88.4891 19.9776C89.3828 20.3405 90.191 20.8856 90.8622 21.5783C91.5724 22.3653 92.1192 23.2855 92.4709 24.2855C92.8226 25.2855 92.9722 26.3454 92.911 27.4037V39.1719H87.9679V28.021C88.004 27.4875 87.9309 26.9522 87.7528 26.448C87.5748 25.9437 87.2957 25.4811 86.9326 25.0885C86.5642 24.743 86.1302 24.4751 85.6562 24.3005C85.1823 24.1259 84.6781 24.0483 84.1736 24.0723C83.6079 24.0462 83.0431 24.1384 82.5151 24.343C81.9871 24.5476 81.5076 24.8602 81.1072 25.2607C80.2714 26.2517 79.8584 27.5315 79.9572 28.8242V39.1719H75.0142V20.0076H79.9572V22.1533C80.5954 21.2491 81.4578 20.5263 82.4597 20.056C83.4616 19.5857 84.5685 19.3841 85.6719 19.4708Z" fill="white"/>
<path d="M109.393 20.0073H114.833L107.553 39.1675H101.92L94.6389 20.0073H100.082L104.726 33.4173L109.393 20.0073Z" fill="white"/>
<path d="M120.621 31.6184C121.285 34.0195 123.086 35.2201 126.025 35.2201C126.841 35.2727 127.659 35.1261 128.406 34.7931C129.154 34.46 129.809 33.9503 130.316 33.3079L134.302 35.6067C133.377 36.9485 132.124 38.0301 130.661 38.7476C129.198 39.4652 127.575 39.7946 125.948 39.7042C124.549 39.7696 123.151 39.549 121.839 39.0558C120.528 38.5626 119.331 37.8073 118.321 36.8359C116.865 35.423 115.867 33.6043 115.459 31.6166C115.05 29.6289 115.249 27.5642 116.03 25.6912C116.811 23.8182 118.138 22.2237 119.838 21.1152C121.537 20.0067 123.531 19.4355 125.56 19.4759C126.86 19.4386 128.153 19.6791 129.352 20.1812C130.551 20.6834 131.63 21.4357 132.515 22.3879C134.343 24.3339 135.328 26.9237 135.255 29.5928C135.251 30.2741 135.187 30.9538 135.064 31.6238L120.621 31.6184ZM120.545 27.7858H130.316C130.124 26.6294 129.501 25.5888 128.572 24.8738C127.7 24.2393 126.646 23.904 125.567 23.9177C124.385 23.8715 123.223 24.2295 122.271 24.9325C121.377 25.6496 120.765 26.6605 120.545 27.7858Z" fill="white"/>
<path d="M143.651 23.3015C144.058 22.1392 144.867 21.1608 145.932 20.5424C147.012 19.9235 148.238 19.606 149.483 19.6232V25.1413C148.068 24.9415 146.63 25.2686 145.44 26.0605C144.829 26.5091 144.344 27.1085 144.033 27.8003C143.721 28.492 143.595 29.2525 143.665 30.0078V39.1659H138.704V20.007H143.647L143.651 23.3015Z" fill="white"/>
<path d="M156.298 25.4487C156.298 25.9605 156.636 26.3757 157.313 26.6944C158.107 27.0549 158.935 27.3376 159.785 27.5385C160.773 27.7871 161.745 28.094 162.697 28.4577C163.677 28.836 164.533 29.4797 165.169 30.3166C165.868 31.2553 166.226 32.4045 166.184 33.5742C166.227 34.4552 166.047 35.3327 165.662 36.1263C165.277 36.9199 164.699 37.6039 163.981 38.1156C162.365 39.22 160.438 39.7772 158.482 39.7055C154.547 39.7055 151.865 38.1858 150.434 35.1463L154.726 32.7315C154.967 33.5172 155.473 34.1951 156.158 34.6494C156.843 35.1037 157.664 35.3063 158.482 35.2228C160.245 35.2228 161.126 34.6732 161.126 33.5742C161.126 33.0634 160.787 32.6481 160.11 32.3285C159.314 31.9675 158.487 31.6791 157.639 31.4667C156.65 31.2061 155.678 30.8869 154.727 30.5106C153.758 30.1294 152.906 29.5018 152.255 28.6899C151.558 27.8014 151.198 26.6948 151.239 25.5662C151.204 24.7093 151.375 23.8566 151.739 23.0798C152.102 22.303 152.647 21.6249 153.327 21.1026C154.821 19.9837 156.652 19.4088 158.517 19.4731C160.002 19.4552 161.466 19.8182 162.77 20.5276C164.042 21.2245 165.091 22.266 165.797 23.5324L161.582 25.8312C161.336 25.2288 160.909 24.7176 160.36 24.3676C159.811 24.0177 159.167 23.8462 158.517 23.8766C157.957 23.8554 157.402 24.0023 156.926 24.2987C156.73 24.4187 156.569 24.5881 156.458 24.7899C156.348 24.9917 156.293 25.2189 156.298 25.4487Z" fill="white"/>
<path d="M173.275 31.6184C173.939 34.0196 175.74 35.2202 178.678 35.2202C179.495 35.2727 180.312 35.1262 181.06 34.7931C181.807 34.46 182.463 33.9504 182.97 33.308L186.956 35.6067C186.031 36.9487 184.777 38.0305 183.314 38.748C181.851 39.4656 180.228 39.7949 178.601 39.7043C177.201 39.7694 175.803 39.5486 174.492 39.0555C173.181 38.5623 171.984 37.8071 170.975 36.836C169.518 35.423 168.521 33.6043 168.112 31.6166C167.704 29.6289 167.903 27.5642 168.684 25.6912C169.465 23.8183 170.792 22.2238 172.491 21.1152C174.191 20.0067 176.185 19.4355 178.214 19.476C179.514 19.4385 180.807 19.6788 182.007 20.181C183.206 20.6832 184.285 21.4356 185.17 22.388C186.999 24.3318 187.985 26.9196 187.914 29.5874C187.91 30.2687 187.846 30.9483 187.723 31.6184H173.275ZM173.197 27.7858H182.97C182.778 26.6297 182.155 25.5892 181.227 24.8738C180.355 24.2395 179.301 23.9041 178.222 23.9177C177.041 23.8716 175.879 24.2295 174.928 24.9325C174.032 25.6493 173.419 26.6602 173.197 27.7858Z" fill="white"/>
</svg>
