<svg width="56" height="52" viewBox="0 0 56 52" fill="none" xmlns="http://www.w3.org/2000/svg">
<path d="M6.78674 50.1153C6.78674 49.4412 6.24342 48.8979 5.56939 48.8979C4.89537 48.8979 4.35216 49.4412 4.35216 50.1153C4.35216 50.7893 4.89537 51.3325 5.56939 51.3325C6.24342 51.3325 6.78674 50.7893 6.78674 50.1153Z" fill="#2C1E4A"/>
<path d="M8.17409 37.8261C8.17409 36.3026 6.93477 35.0634 5.41128 35.0634C3.8878 35.0634 2.64862 36.3026 2.64862 37.8261C2.64862 39.3496 3.8878 40.5889 5.41129 40.5889C6.93477 40.5775 8.17409 39.3496 8.17409 37.8261Z" fill="#2C1E4A"/>
<path d="M8.67435 25.6838C8.67435 23.8761 7.20785 22.4208 5.41166 22.4208C3.60411 22.4208 2.14897 23.8874 2.14897 25.6838C2.14897 27.4801 3.61548 28.9468 5.41166 28.9468C7.20785 28.9468 8.67435 27.4915 8.67435 25.6838Z" fill="#2C1E4A"/>
<path d="M7.96942 13.348C7.96942 11.8257 6.72945 10.5857 5.20711 10.5857C3.68477 10.5857 2.4448 11.8257 2.4448 13.348C2.4448 14.8704 3.68477 16.1104 5.20711 16.1104C6.72945 16.1104 7.96942 14.8704 7.96942 13.348Z" fill="#2C1E4A"/>
<path d="M6.62811 1.41472C6.62811 0.740334 6.08231 0.203114 5.41152 0.203114C4.74073 0.203114 4.19507 0.751706 4.19507 1.42609C4.19507 2.10048 4.74073 2.6377 5.41152 2.6377C6.08231 2.62627 6.62811 2.0891 6.62811 1.41472Z" fill="#2C1E4A"/>
<path d="M18.8258 50.0933C18.8258 49.4632 18.3053 48.9449 17.6724 48.9449C17.0396 48.9449 16.519 49.4531 16.5292 50.0933C16.5292 50.7234 17.0396 51.2417 17.6724 51.2417C18.3053 51.2417 18.8258 50.7234 18.8258 50.0933Z" fill="#2C1E4A"/>
<path d="M20.0994 37.622C20.0994 36.0996 18.8595 34.8597 17.3371 34.8597C15.8148 34.8597 14.5748 36.0996 14.5748 37.622C14.5748 39.1443 15.8148 40.3843 17.3371 40.3843C18.8718 40.3843 20.0994 39.1443 20.0994 37.622Z" fill="#2C1E4A"/>
<path d="M20.6451 25.6833C20.6451 23.9779 19.2582 22.5909 17.553 22.5909C15.8478 22.5909 14.4609 23.9779 14.4609 25.6833C14.4609 27.3887 15.8478 28.7758 17.553 28.7758C19.2582 28.7872 20.6451 27.4001 20.6451 25.6833Z" fill="#2C1E4A"/>
<path d="M19.9062 13.1435C19.9062 11.6222 18.6652 10.3811 17.144 10.3811C15.6227 10.3811 14.3816 11.6222 14.3816 13.1435C14.3816 14.6647 15.6227 15.9058 17.144 15.9058C18.6652 15.9058 19.9062 14.6781 19.9062 13.1435Z" fill="#2C1E4A"/>
<path d="M18.6896 1.42158C18.6896 0.796271 18.178 0.273272 17.5413 0.273272C16.9046 0.273272 16.393 0.784902 16.393 1.42158C16.393 2.05826 16.9046 2.56982 17.5413 2.56982C18.178 2.56982 18.6896 2.04689 18.6896 1.42158Z" fill="#2C1E4A"/>
<path d="M30.8191 50.1293C30.8191 49.5881 30.3842 49.1532 29.8429 49.1532C29.3017 49.1532 28.8669 49.5881 28.8669 50.1293C28.8669 50.6706 29.3017 51.1055 29.8429 51.1055C30.3842 51.1055 30.8191 50.6706 30.8191 50.1293Z" fill="#2C1E4A"/>
<path d="M32.002 38.0329C32.002 36.8625 31.0593 35.9199 29.8889 35.9199C28.7184 35.9199 27.7759 36.8625 27.7759 38.0329C27.7759 39.2034 28.7184 40.146 29.8889 40.146C31.049 40.146 32.002 39.193 32.002 38.0329Z" fill="#2C1E4A"/>
<path d="M32.4681 25.9239C32.4681 24.5102 31.3247 23.3668 29.911 23.3668C28.4973 23.3668 27.354 24.5102 27.354 25.9239C27.354 27.3375 28.4973 28.481 29.911 28.481C31.3247 28.481 32.4681 27.3375 32.4681 25.9239Z" fill="#2C1E4A"/>
<path d="M31.7972 13.5527C31.7972 12.3817 30.8534 11.438 29.6824 11.438C28.5114 11.438 27.5677 12.3817 27.5677 13.5527C27.5677 14.7237 28.5114 15.6674 29.6824 15.6674C30.8534 15.6787 31.7972 14.7237 31.7972 13.5527Z" fill="#2C1E4A"/>
<path d="M30.649 1.42118C30.649 0.886825 30.2168 0.44337 29.6711 0.44337C29.1367 0.44337 28.6933 0.875456 28.6933 1.42118C28.6933 1.95554 29.1367 2.39893 29.6711 2.39893C30.2168 2.39893 30.649 1.95554 30.649 1.42118Z" fill="#2C1E4A"/>
<path d="M42.7564 49.9573C42.7564 49.4343 42.3358 49.0136 41.8128 49.0136C41.2898 49.0136 40.8692 49.4343 40.8692 49.9573C40.8692 50.4803 41.2898 50.9009 41.8128 50.9009C42.3358 50.9009 42.7564 50.4803 42.7564 49.9573Z" fill="#2C1E4A"/>
<path d="M43.825 38.6711C43.825 38.0223 43.3034 37.4992 42.6498 37.4992C41.9962 37.4992 41.4746 38.0223 41.4746 38.6711C41.4746 39.3199 41.9962 39.8496 42.6498 39.8496C43.3034 39.843 43.825 39.3199 43.825 38.6711Z" fill="#2C1E4A"/>
<path d="M44.2683 26.5237C44.2683 25.6338 43.5428 24.9084 42.6529 24.9084C41.7629 24.9084 41.0375 25.6338 41.0375 26.5237C41.0375 27.4137 41.7629 28.1391 42.6529 28.1391C43.5428 28.1466 44.2683 27.4211 44.2683 26.5237Z" fill="#2C1E4A"/>
<path d="M43.6316 14.1959C43.6316 13.5496 43.1102 13.0207 42.4565 13.0207C41.8101 13.0207 41.2813 13.5422 41.2813 14.1959C41.2813 14.8423 41.8027 15.3711 42.4565 15.3711C43.1028 15.3711 43.6316 14.8423 43.6316 14.1959Z" fill="#2C1E4A"/>
<path d="M42.6541 1.42138C42.6541 0.955237 42.2789 0.579991 41.8128 0.579991C41.3466 0.579991 40.9715 0.955237 40.9715 1.42138C40.9715 1.88752 41.3466 2.2627 41.8128 2.2627C42.2789 2.2627 42.6541 1.88752 42.6541 1.42138Z" fill="#2C1E4A"/>
<path d="M54.7498 50.4579C54.7498 50.2897 54.6118 50.1517 54.4436 50.1517C54.2753 50.1517 54.1373 50.2897 54.1373 50.4579C54.1373 50.6262 54.2753 50.7642 54.4436 50.7642C54.6118 50.7642 54.7498 50.6262 54.7498 50.4579Z" fill="#2C1E4A"/>
<path d="M55.591 38.7358C55.591 38.3282 55.2598 37.997 54.8522 37.997C54.4446 37.997 54.1134 38.3282 54.1134 38.7358C54.1134 39.1434 54.4446 39.4746 54.8522 39.4746C55.2598 39.4746 55.591 39.1434 55.591 38.7358Z" fill="#2C1E4A"/>
<path d="M56 26.9927C56 26.5834 55.6694 26.2519 55.2612 26.2519C54.8531 26.2519 54.5224 26.5834 54.5224 26.9927C54.5224 27.402 54.8531 27.7335 55.2612 27.7295C55.6694 27.7335 56 27.402 56 26.9927Z" fill="#2C1E4A"/>
<path d="M55.4547 14.3257C55.4547 13.9202 55.1214 13.5869 54.7159 13.5869C54.3049 13.5869 53.9771 13.9202 53.9771 14.3257C53.9771 14.7367 54.3104 15.0645 54.7159 15.0645C55.127 15.0645 55.4547 14.7367 55.4547 14.3257Z" fill="#2C1E4A"/>
<path d="M54.6474 1.81975C54.6474 1.65183 54.5091 1.5135 54.3412 1.5135C54.1732 1.5135 54.0349 1.65183 54.0349 1.81976C54.0349 1.98768 54.1732 2.12598 54.3412 2.12598C54.514 2.12598 54.6474 1.98768 54.6474 1.81975Z" fill="#2C1E4A"/>
</svg>
