<svg width="38" height="189" viewBox="0 0 38 189" fill="none" xmlns="http://www.w3.org/2000/svg">
<path d="M-0.218752 1.52822C0.204435 1.52822 0.545293 1.18729 0.545293 0.764101C0.545293 0.340914 0.204435 -1.55851e-05 -0.218752 -1.54264e-05C-0.641939 -1.52676e-05 -0.982869 0.340914 -0.982869 0.764101C-0.994624 1.18729 -0.641939 1.53997 -0.218752 1.52822Z" fill="#2C1E4A"/>
<path d="M12.324 1.36362C12.6531 1.36362 12.9117 1.09325 12.9117 0.775857C12.9117 0.446711 12.6414 0.188097 12.324 0.188097C11.9948 0.188097 11.7362 0.458467 11.7362 0.775857C11.7362 1.09325 11.9948 1.36362 12.324 1.36362Z" fill="#2C1E4A"/>
<path d="M24.8668 1.04597C25.0196 1.04597 25.149 0.916671 25.149 0.763854C25.149 0.611036 25.0196 0.48174 24.8668 0.48174C24.714 0.48174 24.5847 0.611036 24.5847 0.763854C24.5847 0.928427 24.714 1.04597 24.8668 1.04597Z" fill="#2C1E4A"/>
<path d="M-0.218599 14.9877C0.710061 14.9877 1.45062 14.2355 1.45062 13.3186C1.45062 12.4017 0.698306 11.6493 -0.2186 11.6493C-1.13551 11.6493 -1.88782 12.4017 -1.88782 13.3186C-1.88782 14.2355 -1.14726 14.9877 -0.218599 14.9877Z" fill="#2C1E4A"/>
<path d="M12.3237 14.5294C12.9938 14.5294 13.5463 13.9888 13.5463 13.3188C13.5463 12.6487 13.0055 12.0962 12.3237 12.0962C11.6537 12.0962 11.113 12.637 11.113 13.3188C11.1012 13.9888 11.6537 14.5294 12.3237 14.5294Z" fill="#2C1E4A"/>
<path d="M24.8666 13.9062C25.1957 13.9062 25.4543 13.6359 25.4543 13.3185C25.4543 12.9893 25.1957 12.7307 24.8666 12.7307C24.5374 12.7307 24.2788 13.0011 24.2788 13.3185C24.2788 13.6476 24.5374 13.9062 24.8666 13.9062Z" fill="#2C1E4A"/>
<path d="M-0.218972 28.5062C1.23867 28.5062 2.42595 27.3189 2.42595 25.8613C2.42595 24.4037 1.23867 23.2164 -0.218973 23.2164C-1.67662 23.2164 -2.86389 24.4037 -2.86389 25.8613C-2.86389 27.319 -1.68837 28.5062 -0.218972 28.5062Z" fill="#2C1E4A"/>
<path d="M12.3237 27.848C13.4169 27.848 14.3103 26.9546 14.3103 25.8613C14.3103 24.7681 13.4169 23.8748 12.3237 23.8748C11.2304 23.8748 10.337 24.7681 10.337 25.8613C10.337 26.9546 11.2304 27.848 12.3237 27.848Z" fill="#2C1E4A"/>
<path d="M24.8668 26.7665C25.3722 26.7665 25.7719 26.3668 25.7719 25.8613C25.7719 25.3676 25.3722 24.9563 24.8668 24.9563C24.3731 24.9563 23.9617 25.3558 23.9617 25.8613C23.9617 26.3668 24.3731 26.7665 24.8668 26.7665Z" fill="#2C1E4A"/>
<path d="M-0.324492 41.7192C1.43921 41.7192 2.87292 40.2856 2.87292 38.5219C2.87292 36.7582 1.43921 35.3244 -0.324492 35.3244C-2.08819 35.3244 -3.52191 36.7582 -3.52191 38.5219C-3.53328 40.2856 -2.09957 41.7192 -0.324492 41.7192Z" fill="#2C1E4A"/>
<path d="M12.3241 40.9433C13.723 40.9433 14.8633 39.803 14.8633 38.4041C14.8633 37.0053 13.723 35.865 12.3241 35.865C10.9253 35.865 9.78503 37.0053 9.78503 38.4041C9.78503 39.8147 10.9135 40.9433 12.3241 40.9433Z" fill="#2C1E4A"/>
<path d="M24.8667 39.6268C25.5368 39.6268 26.0775 39.086 26.0775 38.4159C26.0775 37.7459 25.5368 37.1934 24.855 37.1934C24.185 37.1934 23.6324 37.7341 23.6324 38.4159C23.6324 39.0977 24.1967 39.6268 24.8667 39.6268Z" fill="#2C1E4A"/>
<path d="M-0.324531 54.4384C1.54467 54.4384 3.04918 52.9225 3.04918 51.0647C3.04918 49.1955 1.53328 47.6909 -0.324531 47.6909C-2.18234 47.6909 -3.69824 49.1955 -3.69824 51.0647C-3.69824 52.9225 -2.19374 54.4384 -0.324531 54.4384Z" fill="#2C1E4A"/>
<path d="M12.4642 53.6741C14.0344 53.6741 15.3203 52.4007 15.3203 50.8182C15.3203 49.2356 14.0468 47.962 12.4642 47.962C10.8816 47.962 9.60815 49.2356 9.60815 50.8182C9.60815 52.3884 10.8816 53.6741 12.4642 53.6741Z" fill="#2C1E4A"/>
<path d="M24.8666 52.2754C25.5954 52.2754 26.1949 51.6876 26.1949 50.9588C26.1949 50.23 25.6072 49.6305 24.8666 49.6422C24.1378 49.6422 23.5501 50.23 23.5383 50.9588C23.5501 51.6876 24.1378 52.2754 24.8666 52.2754Z" fill="#2C1E4A"/>
<path d="M-0.218671 66.8754C1.6504 66.8754 3.15506 65.359 3.15506 63.5017C3.15506 61.6326 1.63865 60.1279 -0.218672 60.1279C-2.07599 60.1279 -3.59241 61.6443 -3.59241 63.5017C-3.59241 65.359 -2.08775 66.8754 -0.218671 66.8754Z" fill="#2C1E4A"/>
<path d="M12.5353 66.1462C14.1093 66.1462 15.3913 64.8641 15.3913 63.2901C15.3913 61.7161 14.1093 60.434 12.5353 60.434C10.9613 60.434 9.6792 61.7161 9.6792 63.2901C9.6792 64.8641 10.9613 66.1462 12.5353 66.1462Z" fill="#2C1E4A"/>
<path d="M24.8669 64.7591C25.5604 64.7591 26.1129 64.1948 26.1129 63.5013C26.1129 62.8077 25.5487 62.2435 24.8552 62.2435C24.1616 62.2435 23.6091 62.8077 23.6091 63.5013C23.6209 64.1948 24.1733 64.7591 24.8669 64.7591Z" fill="#2C1E4A"/>
<path d="M-0.219103 79.2536C1.54418 79.2536 2.97828 77.8195 2.97828 76.0562C2.97828 74.2929 1.54418 72.8588 -0.219104 72.8588C-1.98238 72.8588 -3.41655 74.2929 -3.41655 76.0562C-3.42831 77.8195 -1.99414 79.2536 -0.219103 79.2536Z" fill="#2C1E4A"/>
<path d="M12.7464 78.4893C14.3194 78.4893 15.6025 77.2062 15.6025 75.6333C15.6025 74.0604 14.3194 72.7771 12.7464 72.7771C11.1735 72.7771 9.89038 74.0604 9.89038 75.6333C9.89038 77.2062 11.1598 78.4893 12.7464 78.4893Z" fill="#2C1E4A"/>
<path d="M24.8668 77.2317C25.5133 77.2317 26.0541 76.7027 26.0541 76.0444C26.0541 75.3861 25.5251 74.8571 24.8668 74.8571C24.2085 74.8571 23.6796 75.3861 23.6796 76.0444C23.6796 76.7027 24.2202 77.2317 24.8668 77.2317Z" fill="#2C1E4A"/>
<path d="M-0.218791 91.479C1.37992 91.479 2.67301 90.1858 2.67301 88.5871C2.67301 86.9884 1.37991 85.6953 -0.218792 85.6953C-1.8175 85.6953 -3.1106 86.9884 -3.1106 88.5871C-3.1106 90.1858 -1.8175 91.479 -0.218791 91.479Z" fill="#2C1E4A"/>
<path d="M12.3241 90.7852C13.5349 90.7852 14.5106 89.8094 14.5106 88.5986C14.5106 87.3878 13.5349 86.4121 12.3241 86.4121C11.1133 86.4121 10.1377 87.3878 10.1377 88.5986C10.1259 89.8094 11.1133 90.7852 12.3241 90.7852Z" fill="#2C1E4A"/>
<path d="M24.8666 89.5981C25.4191 89.5981 25.8776 89.1513 25.8776 88.5871C25.8776 88.0346 25.4309 87.5761 24.8666 87.5761C24.3141 87.5761 23.8557 88.0346 23.8557 88.5871C23.8557 89.1513 24.3141 89.5981 24.8666 89.5981Z" fill="#2C1E4A"/>
<path d="M-0.218804 103.681C1.18006 103.681 2.32029 102.54 2.32029 101.141C2.32029 99.7425 1.18006 98.6022 -0.218804 98.6022C-1.61767 98.6022 -2.75797 99.7425 -2.75797 101.141C-2.76972 102.54 -1.62943 103.681 -0.218804 103.681Z" fill="#2C1E4A"/>
<path d="M12.3238 103.022C13.3583 103.022 14.2047 102.188 14.2047 101.141C14.2047 100.107 13.37 99.2607 12.3238 99.2607C11.2893 99.2607 10.443 100.095 10.443 101.141C10.443 102.176 11.2893 103.022 12.3238 103.022Z" fill="#2C1E4A"/>
<path d="M24.8666 102.011C25.3485 102.011 25.7365 101.623 25.7365 101.141C25.7365 100.66 25.3485 100.272 24.8666 100.272C24.3846 100.272 23.9967 100.66 23.9967 101.141C23.9967 101.623 24.3846 102.011 24.8666 102.011Z" fill="#2C1E4A"/>
<path d="M-0.219177 115.812C0.956343 115.812 1.90851 114.86 1.90851 113.684C1.90851 112.509 0.956342 111.557 -0.219177 111.557C-1.3947 111.557 -2.34685 112.509 -2.3351 113.684C-2.34685 114.86 -1.3947 115.812 -0.219177 115.812Z" fill="#2C1E4A"/>
<path d="M12.3241 115.248C13.1822 115.248 13.8875 114.542 13.8875 113.684C13.8875 112.814 13.1822 112.121 12.3241 112.121C11.4542 112.121 10.7606 112.826 10.7606 113.684C10.7606 114.554 11.4542 115.248 12.3241 115.248Z" fill="#2C1E4A"/>
<path d="M24.8668 114.413C25.2664 114.413 25.5956 114.084 25.5956 113.685C25.5956 113.285 25.2664 112.956 24.8668 112.956C24.4671 112.956 24.1379 113.285 24.1379 113.685C24.1379 114.096 24.4671 114.413 24.8668 114.413Z" fill="#2C1E4A"/>
<path d="M37.5508 113.685C37.5508 113.607 37.4876 113.544 37.4097 113.544C37.3318 113.544 37.2687 113.607 37.2687 113.685C37.2687 113.762 37.3318 113.826 37.4097 113.826C37.4876 113.826 37.5508 113.762 37.5508 113.685Z" fill="#2C1E4A"/>
<path d="M-0.218822 127.932C0.721594 127.932 1.4857 127.168 1.4857 126.227C1.4857 125.287 0.721594 124.523 -0.218822 124.523C-1.15924 124.523 -1.92334 125.287 -1.92334 126.227C-1.92334 127.179 -1.17099 127.932 -0.218822 127.932Z" fill="#2C1E4A"/>
<path d="M12.324 127.45C12.994 127.45 13.5348 126.909 13.5348 126.239C13.5348 125.569 12.994 125.016 12.3122 125.016C11.6421 125.016 11.1014 125.557 11.1014 126.239C11.1014 126.909 11.6539 127.45 12.324 127.45Z" fill="#2C1E4A"/>
<path d="M24.8666 126.827C25.1957 126.827 25.4543 126.556 25.4543 126.239C25.4543 125.91 25.184 125.651 24.8666 125.651C24.5374 125.651 24.2788 125.921 24.2788 126.239C24.2788 126.556 24.5374 126.827 24.8666 126.827Z" fill="#2C1E4A"/>
<path d="M37.4094 126.333C37.4682 126.333 37.5152 126.286 37.5152 126.227C37.5152 126.168 37.4682 126.121 37.4094 126.121C37.3506 126.121 37.3036 126.168 37.3036 126.227C37.3153 126.298 37.3624 126.345 37.4094 126.333Z" fill="#2C1E4A"/>
<path d="M-0.218848 140.063C0.486463 140.063 1.07419 139.487 1.07419 138.77C1.07419 138.065 0.498219 137.489 -0.218849 137.477C-0.92416 137.477 -1.50021 138.053 -1.51196 138.77C-1.51196 139.487 -0.935915 140.063 -0.218848 140.063Z" fill="#2C1E4A"/>
<path d="M12.3238 139.687C12.8175 139.687 13.2289 139.287 13.2289 138.782C13.2289 138.288 12.8175 137.876 12.3238 137.876C11.8183 137.876 11.4186 138.288 11.4186 138.782C11.4186 139.275 11.8183 139.687 12.3238 139.687Z" fill="#2C1E4A"/>
<path d="M24.8668 139.228C25.1137 139.228 25.3253 139.029 25.3135 138.77C25.3135 138.523 25.1137 138.323 24.8668 138.323C24.62 138.323 24.4202 138.523 24.4084 138.77C24.4202 139.029 24.62 139.228 24.8668 139.228Z" fill="#2C1E4A"/>
<path d="M37.4094 138.887C37.4682 138.887 37.5152 138.84 37.5152 138.782C37.5152 138.723 37.4682 138.676 37.4094 138.676C37.3506 138.676 37.3036 138.723 37.3036 138.782C37.3153 138.84 37.3624 138.887 37.4094 138.887Z" fill="#2C1E4A"/>
<path d="M-0.21885 152.23C0.286623 152.23 0.686323 151.818 0.686323 151.325C0.686323 150.819 0.286623 150.42 -0.21885 150.42C-0.712569 150.42 -1.12402 150.819 -1.12402 151.325C-1.12402 151.83 -0.724324 152.23 -0.21885 152.23Z" fill="#2C1E4A"/>
<path d="M12.3241 151.983C12.6885 151.983 12.9823 151.689 12.9823 151.324C12.9823 150.96 12.6885 150.666 12.3241 150.666C11.9596 150.666 11.6658 150.96 11.6658 151.324C11.6658 151.689 11.9596 151.983 12.3241 151.983Z" fill="#2C1E4A"/>
<path d="M24.8667 151.642C25.043 151.642 25.1841 151.501 25.1841 151.324C25.1841 151.148 25.043 151.007 24.8667 151.007C24.6903 151.007 24.5493 151.148 24.5493 151.324C24.5493 151.501 24.6903 151.642 24.8667 151.642Z" fill="#2C1E4A"/>
<path d="M37.4215 151.395C37.4568 151.395 37.4922 151.36 37.4922 151.324C37.4922 151.289 37.4568 151.253 37.4215 151.253C37.3861 151.253 37.3507 151.289 37.3507 151.324C37.3507 151.36 37.3743 151.395 37.4215 151.395Z" fill="#2C1E4A"/>
<path d="M-0.218916 164.431C0.086719 164.431 0.333544 164.185 0.333544 163.879C0.333544 163.573 0.086719 163.326 -0.218916 163.326C-0.524551 163.326 -0.771448 163.573 -0.771448 163.879C-0.783203 164.185 -0.536306 164.431 -0.218916 164.431Z" fill="#2C1E4A"/>
<path d="M12.7471 163.867C12.7471 163.633 12.5576 163.444 12.3239 163.444C12.0902 163.444 11.9008 163.633 11.9008 163.867C11.9008 164.101 12.0902 164.29 12.3239 164.29C12.5576 164.29 12.7471 164.101 12.7471 163.867Z" fill="#2C1E4A"/>
<path d="M24.8667 164.079C24.9843 164.079 25.0784 163.985 25.0784 163.867C25.0784 163.75 24.9843 163.656 24.8667 163.656C24.7492 163.656 24.6552 163.75 24.6552 163.867C24.6552 163.985 24.7492 164.079 24.8667 164.079Z" fill="#2C1E4A"/>
<path d="M37.4093 163.903C37.4328 163.903 37.4446 163.891 37.4446 163.867C37.4446 163.844 37.4328 163.832 37.4093 163.832C37.3858 163.832 37.374 163.844 37.374 163.867C37.3858 163.891 37.3976 163.903 37.4093 163.903Z" fill="#2C1E4A"/>
<path d="M-0.218863 176.692C-0.0660457 176.692 0.06325 176.563 0.06325 176.41C0.06325 176.257 -0.0660457 176.128 -0.218863 176.128C-0.371681 176.128 -0.500977 176.257 -0.500977 176.41C-0.500977 176.575 -0.383436 176.692 -0.218863 176.692Z" fill="#2C1E4A"/>
<path d="M12.3241 176.633C12.4417 176.633 12.5357 176.539 12.5357 176.422C12.5357 176.304 12.4417 176.21 12.3241 176.21C12.2066 176.21 12.1125 176.304 12.1125 176.422C12.1125 176.539 12.2066 176.633 12.3241 176.633Z" fill="#2C1E4A"/>
<path d="M24.8669 176.528C24.9256 176.528 24.9727 176.481 24.9727 176.422C24.9727 176.363 24.9256 176.316 24.8669 176.316C24.8081 176.316 24.7611 176.363 24.7611 176.422C24.7611 176.481 24.8081 176.528 24.8669 176.528Z" fill="#2C1E4A"/>
<path d="M37.4093 176.457C37.4328 176.457 37.4446 176.446 37.4446 176.422C37.4446 176.41 37.4328 176.387 37.4093 176.387C37.3858 176.387 37.374 176.398 37.374 176.422C37.3858 176.434 37.3976 176.457 37.4093 176.457Z" fill="#2C1E4A"/>
<path d="M12.324 189C12.3476 189 12.3593 188.988 12.3593 188.965L12.324 188.929C12.3005 188.929 12.2888 188.941 12.2888 188.965C12.2888 188.988 12.3005 189 12.324 189Z" fill="#2C1E4A"/>
<path d="M24.8666 189C24.8784 189 24.9019 188.988 24.9019 188.965C24.9019 188.941 24.8902 188.929 24.8666 188.929C24.8431 188.929 24.8314 188.941 24.8314 188.965C24.8314 188.988 24.8549 189 24.8666 189Z" fill="#2C1E4A"/>
</svg>
