<svg width="141" height="40" viewBox="0 0 141 40" fill="none" xmlns="http://www.w3.org/2000/svg">
<path d="M15.8587 1.26539C16.1394 1.26539 16.2798 1.40573 16.5604 1.54607C14.8763 2.24779 13.1922 4.07224 12.3502 8.00184L9.26262 8.8439C10.245 6.03704 12.2098 1.26539 15.8587 1.26539ZM17.4025 2.66881C17.6832 3.51087 17.9639 4.49327 17.9639 6.03704C17.9639 6.17738 17.9639 6.17738 17.9639 6.31773L13.8939 7.44047C14.736 4.49327 16.1394 3.23018 17.4025 2.66881ZM21.0514 5.19498L19.227 5.75636C19.227 5.61601 19.227 5.47567 19.227 5.33533C19.227 4.07224 19.0866 3.08984 18.8059 2.24779C19.7883 2.52847 20.6304 3.79156 21.0514 5.19498ZM30.1737 7.44047C30.1737 7.30013 30.0334 7.15978 29.893 7.15978C29.6123 7.15978 26.6651 6.8791 26.6651 6.8791C26.6651 6.8791 24.56 4.77396 24.2793 4.63361C23.9986 4.35293 23.5776 4.49327 23.4372 4.49327C23.4372 4.49327 23.0162 4.63361 22.3145 4.9143C21.6128 2.9495 20.3497 1.12504 18.2446 1.12504H18.1042C17.5428 0.282986 16.7008 0.0023006 15.9991 0.0023006C10.9467 -0.138042 8.56091 6.17738 7.71885 9.40527C6.59611 9.68595 5.47337 10.107 4.21028 10.528C3.08754 10.8087 3.08754 10.949 2.9472 11.9314C2.80686 12.6332 0 34.8073 0 34.8073L22.3145 39.0176L34.384 36.3511C34.384 36.3511 30.1737 7.72115 30.1737 7.44047Z" fill="#8DB849"/>
<path d="M29.7526 7.1598C29.6123 7.1598 26.6651 6.87911 26.6651 6.87911C26.6651 6.87911 24.5599 4.77397 24.2793 4.63363C24.1389 4.49329 24.1389 4.49329 23.9986 4.49329L22.3145 39.0176L34.3839 36.3511C34.3839 36.3511 30.1737 7.72117 30.1737 7.44048C30.1737 7.30014 29.893 7.1598 29.7526 7.1598Z" fill="#5A863E"/>
<path d="M18.2445 13.8962L16.7007 18.3872C16.7007 18.3872 15.4377 17.6855 13.7535 17.6855C11.3677 17.6855 11.2274 19.0889 11.2274 19.5099C11.2274 21.4747 16.5604 22.3168 16.5604 27.0884C16.5604 30.8777 14.1746 33.2635 10.9467 33.2635C7.15743 33.2635 5.19263 30.8777 5.19263 30.8777L6.17503 27.5095C6.17503 27.5095 8.13983 29.1936 9.82394 29.1936C10.9467 29.1936 11.3677 28.3515 11.3677 27.6498C11.3677 24.9833 7.01708 24.8429 7.01708 20.4923C7.01708 16.8434 9.6836 13.3348 14.8763 13.3348C17.2621 13.1945 18.2445 13.8962 18.2445 13.8962Z" fill="#FFFFFE"/>
<path d="M48.5587 22.1765C47.2956 21.4747 46.7343 20.9134 46.7343 20.2117C46.7343 19.2293 47.5763 18.6679 48.9797 18.6679C50.5235 18.6679 51.9269 19.3696 51.9269 19.3696L53.0497 16.0014C53.0497 16.0014 52.0673 15.1593 49.1201 15.1593C44.9098 15.1593 42.1029 17.5451 42.1029 20.9134C42.1029 22.8782 43.5064 24.2816 45.1905 25.264C46.5939 26.1061 47.1553 26.6674 47.1553 27.5095C47.1553 28.3515 46.4536 29.1936 45.0501 29.1936C43.0853 29.1936 41.1205 28.2112 41.1205 28.2112L39.9978 31.5794C39.9978 31.5794 41.6819 32.7022 44.6291 32.7022C48.8394 32.7022 51.9269 30.597 51.9269 26.8078C51.9269 24.7026 50.3832 23.1589 48.5587 22.1765ZM65.5402 15.019C63.4351 15.019 61.7509 16.0014 60.4878 17.5451L62.3123 8.00184H57.5407L52.9093 32.2811H57.681L59.2248 24.0009C59.7861 20.9134 61.4703 18.9486 63.014 18.9486C64.1368 18.9486 64.5578 19.6503 64.5578 20.773C64.5578 21.4747 64.5578 22.1765 64.4175 22.8782L62.593 32.4215H67.3646L69.1891 22.5975C69.3294 21.6151 69.4698 20.352 69.4698 19.5099C69.4698 16.7031 68.0664 15.019 65.5402 15.019ZM77.75 28.9129C76.0659 28.9129 75.5045 27.5095 75.5045 25.8254C75.5045 23.1589 76.908 18.6679 79.4341 18.6679C81.1182 18.6679 81.6796 20.0713 81.6796 21.4747C81.6796 24.5623 80.2762 28.9129 77.75 28.9129ZM80.1358 15.019C74.3818 15.019 70.5925 20.2117 70.5925 25.9657C70.5925 29.6146 72.838 32.5618 77.1886 32.5618C82.8024 32.5618 86.5916 27.5095 86.5916 21.6151C86.5916 18.2469 84.6268 15.019 80.1358 15.019ZM94.1701 29.0533C92.907 29.0533 92.2053 28.3515 92.2053 28.3515L93.0474 23.8606C93.6088 20.9134 95.1525 18.9486 96.8366 18.9486C98.2401 18.9486 98.8014 20.352 98.8014 21.6151C98.6611 24.7026 96.8366 29.0533 94.1701 29.0533ZM98.8014 15.019C95.5736 15.019 93.7491 17.8258 93.7491 17.8258L94.0298 15.2997H89.8195C89.6792 16.9838 89.2581 19.6503 88.8371 21.6151L85.4689 39.0176H90.2405L91.5036 32.0005H91.644C91.644 32.0005 92.6264 32.5618 94.4508 32.5618C100.065 32.5618 103.713 26.8078 103.713 21.0537C103.713 17.9662 102.31 15.019 98.8014 15.019ZM110.45 8.28252C108.906 8.28252 107.783 9.54561 107.783 11.0894C107.783 12.4928 108.625 13.4752 110.029 13.4752C111.573 13.4752 112.836 12.4928 112.836 10.6684C112.836 9.26492 111.853 8.28252 110.45 8.28252ZM103.854 32.2811H108.625L111.853 15.44H107.082L103.854 32.2811ZM123.923 15.44H120.555L120.695 14.598C120.976 12.9138 121.958 11.5104 123.502 11.5104C124.344 11.5104 125.046 11.7911 125.046 11.7911L126.028 8.00184C126.028 8.00184 125.186 7.58081 123.502 7.58081C121.818 7.58081 120.134 8.00184 118.87 9.12458C117.186 10.528 116.485 12.4928 116.064 14.4576L115.923 15.2997H113.678L112.976 18.9486H115.222L112.695 32.2811H117.467L119.993 18.9486H123.221L123.923 15.44ZM135.291 15.44C135.291 15.44 132.343 22.8782 130.94 26.9481C130.8 25.685 129.817 15.44 129.817 15.44H124.765L127.572 30.8777C127.572 31.1584 127.572 31.4391 127.431 31.7198C126.87 32.8425 125.888 33.8249 124.905 34.5266C124.063 35.2283 122.94 35.6494 122.239 35.9301L123.502 40C124.484 39.8597 126.449 39.0176 128.133 37.4738C130.238 35.509 132.343 32.2811 134.308 28.0709L140.062 15.5803L135.291 15.44Z" fill="#1A1919"/>
</svg>
