<svg width="110" height="40" viewBox="0 0 110 40" fill="none" xmlns="http://www.w3.org/2000/svg">
<path d="M43.2261 0H8.33492C5.62945 0 3.89702 2.87987 5.16299 5.274L8.65304 11.8913H2.32599C1.9253 11.8914 1.53144 11.9951 1.18255 12.1924C0.833658 12.3897 0.541564 12.6738 0.334559 13.0174C0.127553 13.3609 0.0126523 13.7521 0.00098653 14.1531C-0.0106793 14.5541 0.0812843 14.9514 0.267971 15.3064L11.4938 36.5808C11.6917 36.955 11.9877 37.268 12.3499 37.4864C12.7122 37.7048 13.1271 37.8201 13.5499 37.8201C13.9728 37.8201 14.3876 37.7048 14.7499 37.4864C15.1122 37.268 15.4082 36.955 15.6061 36.5808L18.6549 30.8341L22.4798 38.0847C23.826 40.6348 27.4728 40.6395 28.8237 38.0922L46.3122 5.14042C47.5483 2.80981 45.8616 0 43.2261 0ZM27.553 14.0789L20.0123 28.2905C19.8805 28.5394 19.6835 28.7475 19.4424 28.8927C19.2014 29.0379 18.9254 29.1146 18.6441 29.1146C18.3628 29.1146 18.0869 29.0379 17.8458 28.8927C17.6048 28.7475 17.4078 28.5394 17.276 28.2905L9.808 14.1387C9.68318 13.9028 9.62132 13.6386 9.62842 13.3716C9.63552 13.1047 9.71133 12.8442 9.84852 12.6152C9.9857 12.3862 10.1796 12.1966 10.4115 12.0647C10.6433 11.9328 10.9053 11.8631 11.1719 11.8623H26.2227C26.4827 11.8623 26.7383 11.9297 26.9645 12.0579C27.1908 12.1861 27.3801 12.3707 27.5141 12.5938C27.648 12.817 27.722 13.071 27.7288 13.3313C27.7356 13.5915 27.6751 13.8491 27.553 14.0789ZM80.3376 15.2868H76.521V28.384C76.5207 28.5033 76.4733 28.6177 76.389 28.702C76.3047 28.7864 76.1905 28.834 76.0713 28.8342H73.128C73.0088 28.834 72.8946 28.7864 72.8103 28.702C72.726 28.6177 72.6786 28.5033 72.6783 28.384V15.2868H68.8393C68.7815 15.2891 68.7238 15.2799 68.6697 15.2595C68.6155 15.2391 68.566 15.2081 68.5241 15.1682C68.4821 15.1282 68.4486 15.0803 68.4255 15.0272C68.4024 14.9741 68.3903 14.9169 68.3897 14.8589V12.5423C68.3903 12.4844 68.4024 12.4272 68.4255 12.3741C68.4486 12.321 68.4821 12.273 68.5241 12.2331C68.566 12.1932 68.6155 12.1621 68.6697 12.1418C68.7238 12.1214 68.7815 12.1121 68.8393 12.1145H80.3366C80.4558 12.1089 80.5723 12.1508 80.6608 12.2309C80.7492 12.3111 80.8024 12.423 80.8087 12.5423V14.8599C80.8022 14.9788 80.749 15.0904 80.6608 15.1703C80.5726 15.2503 80.4564 15.2921 80.3376 15.2868ZM92.5896 28.7398C91.8031 28.8519 90.4803 29.0322 88.0537 29.0322C85.1552 29.0322 82.5943 28.2896 82.5943 24.1954V16.7225C82.5943 12.6283 85.1785 11.9081 88.0761 11.9081C90.5017 11.9081 91.8031 12.0884 92.5896 12.2004C92.904 12.2453 93.0393 12.3583 93.0393 12.6507V14.7459C93.039 14.8652 92.9916 14.9796 92.9073 15.064C92.823 15.1484 92.7088 15.1959 92.5896 15.1961H87.8522C86.7962 15.1961 86.4146 15.5558 86.4146 16.7262V18.7738H92.4105C92.5296 18.774 92.6439 18.8216 92.7281 18.9059C92.8124 18.9903 92.8599 19.1047 92.8601 19.224V21.3613C92.8599 21.4806 92.8124 21.595 92.7281 21.6794C92.6439 21.7638 92.5296 21.8113 92.4105 21.8115H86.4146V24.1963C86.4146 25.3658 86.7962 25.7264 87.8522 25.7264H92.5896C92.7088 25.7266 92.823 25.7742 92.9073 25.8585C92.9916 25.9429 93.039 26.0573 93.0393 26.1766V28.2691C93.0393 28.5596 92.904 28.695 92.5896 28.7398ZM109.542 28.8295H105.97C105.678 28.8295 105.542 28.7361 105.385 28.4923L102.288 23.5686L99.482 28.384C99.3243 28.6539 99.1676 28.8342 98.9222 28.8342H95.5973C95.3725 28.8342 95.2605 28.6987 95.2605 28.5418C95.2649 28.4867 95.2801 28.4331 95.3053 28.384L100.172 20.2572L95.2549 12.5405C95.23 12.4993 95.2147 12.453 95.2102 12.405C95.2182 12.3224 95.2576 12.246 95.3203 12.1915C95.3829 12.1371 95.4641 12.1089 95.5469 12.1126H99.1639C99.4111 12.1126 99.5911 12.3378 99.7236 12.5405L102.598 17.0849L105.38 12.5405C105.492 12.3378 105.694 12.1126 105.94 12.1126H109.265C109.347 12.1089 109.429 12.1371 109.491 12.1915C109.554 12.246 109.593 12.3224 109.601 12.405C109.597 12.453 109.582 12.4993 109.557 12.5405L104.663 20.3048L109.766 28.384C109.806 28.4526 109.829 28.5298 109.834 28.6091C109.835 28.7399 109.722 28.8295 109.542 28.8295ZM63.0049 12.1593C62.9246 12.1596 62.847 12.1876 62.785 12.2387C62.7231 12.2898 62.6808 12.3608 62.6653 12.4396L59.4038 24.5261C59.359 24.7736 59.2919 24.8633 59.0894 24.8633C58.887 24.8633 58.8198 24.7699 58.775 24.5261L55.5098 12.4368C55.4943 12.358 55.452 12.287 55.39 12.2359C55.3281 12.1848 55.2505 12.1568 55.1702 12.1565H51.9601C51.9078 12.1566 51.8563 12.1684 51.8093 12.1912C51.7623 12.214 51.7211 12.247 51.6886 12.288C51.6561 12.3289 51.6333 12.3767 51.6219 12.4277C51.6104 12.4787 51.6105 12.5316 51.6223 12.5825C51.6223 12.5825 55.6059 26.4438 55.6497 26.5802C56.1815 28.2317 57.4717 29.021 59.1137 29.021C60.6772 29.021 62.0421 28.1943 62.5757 26.5849C62.6392 26.398 66.5341 12.5816 66.5341 12.5816C66.5457 12.5307 66.5458 12.4779 66.5342 12.427C66.5227 12.3761 66.4998 12.3285 66.4674 12.2877C66.4349 12.2469 66.3937 12.2139 66.3468 12.1912C66.2999 12.1685 66.2485 12.1566 66.1964 12.1565L63.0049 12.1593Z" fill="#F71963"/>
<path d="M43.2261 0H8.33492C5.62945 0 3.89702 2.87987 5.16299 5.274L8.65304 11.8913H2.32599C1.9253 11.8914 1.53144 11.9951 1.18255 12.1924C0.833659 12.3897 0.541564 12.6738 0.334559 13.0174C0.127553 13.3609 0.0126523 13.7521 0.00098653 14.1531C-0.0106793 14.5541 0.0812843 14.9514 0.267971 15.3064L11.4938 36.5808C11.6917 36.955 11.9877 37.268 12.35 37.4864C12.7122 37.7048 13.1271 37.8201 13.5499 37.8201C13.9728 37.8201 14.3876 37.7048 14.7499 37.4864C15.1122 37.268 15.4082 36.955 15.6061 36.5808L18.6549 30.8341L22.4798 38.0847C23.826 40.6348 27.4728 40.6395 28.8237 38.0922L46.3122 5.14042C47.5483 2.80981 45.8616 0 43.2261 0ZM27.553 14.0789L20.0123 28.2905C19.8805 28.5394 19.6835 28.7475 19.4424 28.8927C19.2014 29.0379 18.9254 29.1146 18.6441 29.1146C18.3628 29.1146 18.0869 29.0379 17.8458 28.8927C17.6048 28.7475 17.4078 28.5394 17.276 28.2905L9.808 14.1387C9.68318 13.9028 9.62132 13.6386 9.62842 13.3716C9.63552 13.1047 9.71133 12.8442 9.84852 12.6152C9.9857 12.3862 10.1796 12.1966 10.4115 12.0647C10.6433 11.9328 10.9053 11.8631 11.1719 11.8623H26.2227C26.4827 11.8623 26.7383 11.9297 26.9646 12.0579C27.1908 12.1861 27.3801 12.3707 27.5141 12.5938C27.648 12.817 27.722 13.071 27.7288 13.3313C27.7356 13.5915 27.6751 13.8491 27.553 14.0789Z" fill="#F71963"/>
</svg>
