<svg width="125" height="26" viewBox="0 0 125 26" fill="none" xmlns="http://www.w3.org/2000/svg">
<path d="M58.2555 15.7181C56.0101 14.8448 53.8894 14.0964 53.8894 11.851C53.8894 9.97982 55.1369 8.73238 57.3823 8.73238C59.2534 8.73238 60.7504 9.97982 61.3741 12.9737V13.0984H61.7483V8.35814H61.3741V8.48289C61.3741 8.85712 61.1246 9.10661 60.6256 9.10661C60.0019 9.10661 58.7545 8.35814 57.3823 8.35814C53.8894 8.35814 51.644 10.2293 51.644 13.0984C51.644 16.0923 54.1389 16.9655 56.6338 17.8387C58.8792 18.7119 60.9999 19.4604 60.9999 21.7058C60.9999 23.4522 59.5029 24.8244 57.1328 24.8244C54.2637 24.8244 52.5172 22.7037 52.3925 22.4542H52.5172C52.642 22.579 53.0162 22.579 53.3905 22.579C54.1389 22.579 55.0121 21.9553 55.0121 20.8326C55.0121 19.8346 54.2637 19.0861 53.2657 19.0861C52.2678 19.0861 51.5193 19.8346 51.5193 20.9573C51.5193 22.8285 53.7647 25.1986 57.2575 25.1986C60.6256 25.1986 63.2452 23.078 63.2452 20.3336C63.1205 17.5892 60.6256 16.5913 58.2555 15.7181ZM105.159 9.85507C104.037 8.73238 102.664 8.2334 101.043 8.2334C99.0468 8.2334 97.1757 9.10661 95.8035 10.7283C94.556 12.35 93.8076 14.4706 93.8076 16.716C93.8076 21.4563 96.8014 25.0739 100.918 25.0739C105.284 25.0739 106.781 21.4563 107.03 19.3356H106.531C106.157 22.08 104.161 24.6996 101.043 24.4501C97.7994 24.2007 96.8014 19.9594 96.8014 16.8407V15.8428H107.155V15.5933C107.155 13.3479 106.407 11.2273 105.159 9.85507ZM96.8014 15.3438C97.1757 11.352 98.6726 8.60763 101.043 8.60763C101.791 8.60763 102.29 9.10661 102.664 9.48084C103.538 10.354 103.912 12.4747 103.912 15.3438H96.8014Z" fill="black"/>
<path d="M47.0793 5.83028C47.9669 5.45279 48.3804 4.42725 48.0029 3.53967C47.6255 2.65208 46.5999 2.23857 45.7123 2.61606C44.8248 2.99355 44.4112 4.01909 44.7887 4.90667C45.1662 5.79425 46.1918 6.20777 47.0793 5.83028Z" fill="black"/>
<path d="M32.0593 22.454C31.9345 23.0777 31.8098 23.8261 30.9366 23.8261C30.1881 23.8261 29.8139 23.3272 29.8139 22.5787V14.5951C29.8139 12.7239 29.3149 11.227 28.1922 10.1043C27.1942 8.98158 25.5726 8.35786 23.8261 8.35786C20.4581 8.35786 18.4621 10.728 18.4621 12.7239C18.4621 13.7219 19.2106 14.5951 20.0838 14.5951C21.0818 14.5951 21.8302 13.8466 21.8302 12.9734C21.8302 11.8507 20.957 11.3517 20.2086 11.3517C19.9591 11.3517 19.7096 11.3517 19.4601 11.4765C19.7096 10.229 21.8302 8.98158 23.8261 8.98158C24.8241 8.98158 27.1942 9.48056 27.1942 12.3497C27.1942 15.2188 24.9488 15.9673 22.5787 16.8405C20.2086 17.7137 17.8384 18.4621 17.8384 21.5807C17.8384 24.3251 20.0838 25.5726 22.2045 25.5726C24.4499 25.5726 26.1963 24.3251 27.0695 22.9529C27.319 24.6994 28.1922 25.5726 29.8139 25.5726C31.685 25.5726 32.5582 23.9509 32.5582 22.9529V22.8282H31.9345L32.0593 22.454ZM27.0695 20.3333C27.0695 22.0797 25.6973 23.9509 23.8261 23.9509C22.0797 23.9509 20.8323 22.8282 20.8323 20.957C20.8323 18.4621 22.454 17.7137 24.2004 16.8405C25.1983 16.3415 26.321 15.8425 27.0695 14.9693V20.3333ZM38.9202 22.9529V0H34.1799V0.623721H34.5541C35.4274 0.623721 36.1758 1.37219 36.1758 2.61963V22.9529C36.0511 23.7014 35.8016 24.3251 34.5541 24.3251H34.1799V24.9488H40.7914V24.3251H40.2924C39.1697 24.2004 38.9202 23.7014 38.9202 22.9529ZM47.777 22.9529V8.48261H43.0368V9.10633H43.411C44.2842 9.10633 45.0327 9.85479 45.0327 11.1022V22.9529C44.9079 23.7014 44.6584 24.3251 43.411 24.3251H43.0368V24.9488H49.6482V24.3251H49.1492C48.0265 24.2004 47.777 23.7014 47.777 22.9529ZM89.3169 8.35786C86.5725 8.35786 85.325 10.229 84.7013 11.6012V8.48261H79.961V9.10633H80.5848C81.2085 9.23107 81.8322 9.73005 81.9569 10.4785V22.8282C81.8322 23.5767 81.5827 24.2004 80.3353 24.2004H79.961V24.8241H86.5725V24.2004H86.0735C84.9508 24.2004 84.7013 23.7014 84.5766 22.8282V14.7198C84.8261 11.4765 86.822 8.73209 89.3169 8.73209C91.0633 8.73209 91.8117 9.85479 91.8117 10.229H91.0633C90.1901 10.229 89.3169 10.8527 89.3169 11.9754C89.3169 12.9734 90.0653 13.7219 91.0633 13.7219C92.0612 13.7219 92.9344 12.8487 92.9344 11.726C92.9344 10.229 91.8117 8.35786 89.3169 8.35786ZM21.0818 0.498977H21.3313V0H15.7178V0.498977H16.092C16.8405 0.498977 17.3394 0.873209 17.7137 1.24744C17.9632 1.74642 17.9632 2.49488 17.4642 3.74233L12.1002 21.8302L7.85889 7.6094L6.23721 3.11861C5.73823 1.49693 6.61144 0.498977 7.85889 0.498977H8.23312V0H0V0.498977H0.249488C2.2454 0.623721 3.11861 2.99386 3.24335 3.49284L5.86298 11.227C7.85889 17.3394 10.3538 24.6994 10.3538 24.6994C10.4785 24.9488 10.8527 25.1983 11.227 25.1983C11.6012 25.1983 11.8507 24.9488 12.1002 24.5746L18.3374 4.2413C18.8364 2.37014 19.5848 0.498977 21.0818 0.498977ZM72.2269 8.23312C70.231 8.23312 68.3598 9.10633 66.9876 10.728C65.7402 12.3497 64.9917 14.4703 64.9917 16.7157C64.9917 21.456 67.9856 25.0736 72.1022 25.0736C76.4682 25.0736 77.9651 21.456 78.2146 19.3354H77.7156C77.3414 22.0797 75.3455 24.6994 72.2269 24.4499C68.9836 24.2004 67.9856 19.9591 67.9856 16.8405V15.8425L78.3394 15.7178V15.593C78.4641 13.2229 77.7156 11.1022 76.4682 9.85479C75.3455 8.85684 73.8486 8.23312 72.2269 8.23312ZM67.9856 15.3435C68.3598 11.3517 69.8568 8.60735 72.2269 8.60735C72.9754 8.60735 73.4743 9.10633 73.8486 9.48056C74.7218 10.3538 75.096 12.4744 75.096 15.3435H67.9856ZM121.376 4.98977H121.251C121.376 4.61554 121.501 4.11656 121.501 3.61758C121.493 3.08793 121.369 2.56644 121.138 2.08997C120.906 1.6135 120.573 1.19367 120.161 0.860143C119.75 0.526616 119.27 0.287533 118.756 0.159785C118.242 0.0320379 117.706 0.018744 117.186 0.120843C116.667 0.222942 116.176 0.437942 115.748 0.750653C115.32 1.06336 114.967 1.46615 114.712 1.93056C114.457 2.39497 114.308 2.90967 114.274 3.43828C114.24 3.9669 114.322 4.49653 114.515 4.98977H114.39C112.395 4.98977 110.773 6.61144 110.648 8.60735C110.648 10.6033 112.27 12.2249 114.266 12.3497C115.264 12.3497 116.137 11.9754 116.885 11.3517V13.5971C116.761 14.5951 116.386 15.2188 115.014 15.2188H114.515V15.9673H121.251V15.2188H120.628C119.255 15.2188 119.006 14.5951 118.881 13.5971V11.3517C119.394 11.84 120.039 12.1671 120.735 12.2925C121.432 12.4179 122.15 12.3361 122.801 12.0572C123.452 11.7783 124.006 11.3146 124.396 10.7235C124.786 10.1325 124.994 9.44007 124.994 8.73209C125.118 6.61144 123.372 4.98977 121.376 4.98977Z" fill="black"/>
</svg>
