<svg width="161" height="18" viewBox="0 0 161 18" fill="none" xmlns="http://www.w3.org/2000/svg">
<path d="M105.76 0H101.199L97.3505 2.92133H99.7112L105.76 0ZM114.579 3.81197H102.312V5.89609H106.428V17.7862H110.579V5.905H114.579V3.81197ZM93.7426 12.5225C93.0121 11.4003 91.9253 10.67 90.4732 10.3404C91.7382 10.2514 92.6914 9.96635 93.3328 9.4854C93.9742 9.01336 94.286 8.36319 94.286 7.57942V6.81346C94.286 5.96734 93.9208 5.25482 93.1903 4.6759C92.4598 4.10589 91.2126 3.81197 89.4577 3.81197H82.2419V17.7952H86.3932V11.4983H87.3642C88.5045 11.4983 89.3508 11.9792 89.8764 12.95C90.4109 13.9208 90.687 15.5329 90.7227 17.7952H94.8383C94.8294 15.4171 94.4642 13.6625 93.7426 12.5225ZM90.2416 7.86442C90.2416 8.41663 90.0278 8.81742 89.6091 9.09352C89.1815 9.36071 88.4867 9.50322 87.5068 9.50322H86.3932V5.78921H87.7384C88.5669 5.78921 89.1904 5.92281 89.6091 6.1811C90.0278 6.43939 90.2416 6.8758 90.2416 7.48144V7.86442ZM132.957 14.0188L126.018 3.82088H122.935V17.8041H125.804V9.77932L131.095 17.8041H133.242L138.908 9.77932V17.8041H142.694V3.82088H139.995L132.957 14.0188ZM53.5659 14.0188L46.6263 3.81197H43.544V17.7952H46.4125V9.77041L51.7041 17.7952H53.851L59.5256 9.77041V17.7952H63.3117V3.81197H60.6035L53.5659 14.0188ZM116.067 17.7952H120.218V3.81197H116.067V17.7952ZM96.7002 17.7952H100.851V3.81197H96.7002V17.7952ZM14.4404 17.7952H18.5828V3.81197H14.4404V17.7952ZM8.36495 3.60713C5.9686 3.60713 3.96422 4.23949 2.38744 5.51311C0.792843 6.78674 0 8.47006 0 10.572V11.1331C0 13.3953 0.783935 15.0965 2.35181 16.2543C3.91968 17.4211 5.93296 18 8.4184 18C9.39831 18 10.2624 17.9287 11.0107 17.8041C11.759 17.6705 12.2757 17.528 12.5608 17.3855V15.239C12.1688 15.3726 11.661 15.5062 11.0107 15.6398C10.3515 15.7823 9.57648 15.8535 8.65001 15.8535C7.29594 15.8535 6.21803 15.4527 5.4341 14.6512C4.65016 13.8585 4.25819 12.6116 4.25819 10.9372V10.7412C4.25819 9.18258 4.68579 7.95349 5.52318 7.07175C6.36057 6.1811 7.52756 5.73577 9.03307 5.73577C9.84373 5.73577 10.5386 5.78921 11.1444 5.89609C11.7412 6.00297 12.2134 6.12766 12.5608 6.26126V4.10589C12.1777 3.95448 11.6432 3.82979 10.9484 3.74072C10.2624 3.65166 9.39831 3.60713 8.36495 3.60713ZM26.0748 3.81197L19.8567 17.7952H23.233L24.6138 14.4463H30.7605L32.1146 17.7952H36.355L29.9588 3.81197H26.0748ZM25.4423 12.4156L27.5714 7.25878L29.8786 12.4156H25.4423ZM37.5131 17.8842H41.7891V14.0811H37.5131V17.8842ZM160.733 17.7952L154.337 3.81197H150.462L144.253 17.7952H147.629L149.019 14.4463H155.166L156.52 17.7952H160.733ZM149.83 12.4156L151.95 7.25878L154.257 12.4156H149.83ZM70.7502 3.81197L64.5321 17.7952H67.9084L69.2892 14.4463H75.4449L76.79 17.7952H81.0215L74.6253 3.81197H70.7502ZM70.1177 12.4156L72.2378 7.25878L74.554 12.4156H70.1177Z" fill="black"/>
</svg>
